<?xml version="1.0" standalone="no"?>
<!DOCTYPE svg PUBLIC "-//W3C//DTD SVG 1.1//EN" "http://www.w3.org/Graphics/SVG/1.1/DTD/svg11.dtd" >
<svg>
<metadata>
Created by FontForge 20090914 at Thu Apr  8 12:44:04 2021
 By www-data
&#194;&#169; 1992, Tilde Ltd. AG Fonts Collection. Created by Andrejs Grinbergs.
</metadata>
<defs>
<font id="AGAvantGardeCyrBook" horiz-adv-x="2269" >
  <font-face 
    font-family="AGAvantGardeCyr"
    font-weight="400"
    font-stretch="normal"
    units-per-em="4096"
    panose-1="2 11 114 0 0 0 0 0 0 0"
    ascent="3276"
    descent="-820"
    x-height="2241"
    cap-height="3027"
    bbox="-184 -877.001 4714 3813"
    underline-thickness="20"
    underline-position="-123"
    unicode-range="U+0020-U+2122"
  />
<missing-glyph horiz-adv-x="3072" 
d="M512 0v2560h2048v-2560h-2048zM2494 66v2428h-1916v-2428h1916z" />
    <glyph glyph-name=".notdef" horiz-adv-x="3072" 
d="M512 0v2560h2048v-2560h-2048zM2494 66v2428h-1916v-2428h1916z" />
    <glyph glyph-name="space" unicode=" " horiz-adv-x="2048" 
 />
    <glyph glyph-name="exclam" unicode="!" horiz-adv-x="1208" 
d="M455 516h303v-516h-303v516zM455 3027h303v-2236h-303v2236z" />
    <glyph glyph-name="quotedbl" unicode="&#x22;" horiz-adv-x="1266" 
d="M303 3027h213v-926h-213v926zM758 3027h213v-926h-213v926z" />
    <glyph glyph-name="numbersign" unicode="#" 
d="M631 1024h-611l66 238h614l148 503h-610l65 238h619l299 1024h172l-295 -1024h364l303 1024h168l-299 -1024h615l-66 -238h-618l-148 -503h615l-70 -238h-619l-299 -1024h-176l303 1024h-368l-303 -1024h-172zM1245 1262l144 503h-369l-148 -503h373z" />
    <glyph glyph-name="dollar" unicode="$" 
d="M1004 119c-122 20 -236.835 66.168 -344.502 138.501s-193.334 163.5 -257.001 273.5s-95.5 226.667 -95.5 350v49h287c0 -103.333 24.333 -197 73 -281s114.5 -149.667 197.5 -197s174.5 -71 274.5 -71c144 0 268.667 51 374 153s158 224.333 158 367
c0 170.667 -47.167 298 -141.5 382s-231.5 150.667 -411.5 200c-244 68.667 -416 153.334 -516 254.001c-134 138 -201 310 -201 516c0 182.667 55.333 339.5 166 470.5s256.334 213.167 437.001 246.5v340h266v-340c126.667 -18 239.834 -61.167 339.501 -129.5
s177.5 -156 233.5 -263s86 -224.833 90 -353.5h-286c-2 139.333 -49.5 254.666 -142.5 346c-93 91.333 -210.833 137 -353.5 137c-117.333 0 -217 -34 -299 -102c-59.333 -49.333 -100.833 -102.833 -124.5 -160.5s-35.5 -128.5 -35.5 -212.5
c0 -102.667 21 -184.667 63 -246s96.333 -108 163 -140s155.334 -64.333 266.001 -97c120.667 -35.333 225.167 -72.333 313.5 -111s165.5 -90.334 231.5 -155.001c76 -74 133.833 -161.333 173.5 -262s59.5 -206 59.5 -316c0 -127.333 -30.667 -250.333 -92 -369
s-144.833 -215.834 -250.5 -291.501s-222.167 -117.5 -349.5 -125.5v-340h-266v340z" />
    <glyph glyph-name="percent" unicode="%" horiz-adv-x="3174" 
d="M2101 3027h295l-1360 -3027h-295zM1479 2359c0 -126.667 -32.334 -245.169 -97.001 -355.502s-151.667 -198.166 -261 -263.499s-226.333 -98 -351 -98c-126.667 0 -245.167 32.833 -355.5 98.5s-198.166 154.334 -263.499 266.001s-98 231.834 -98 360.5
c0 132.667 31.5 253.167 94.5 361.5s149.333 193.333 259 255s232.167 92.5 367.5 92.5c132 0 252 -32 360 -96s192.5 -151 253.5 -261s91.5 -230 91.5 -360zM3080 650.998c0 -126.667 -32.499 -244.166 -97.499 -352.499s-152.333 -194 -262 -257
s-227.5 -94.5 -353.5 -94.5c-126.667 0 -245.334 32 -356 96c-110.667 64 -198.334 150.167 -263.001 258.5s-97 226.166 -97 353.499c0 132 31.667 254 95 366s150.5 200.5 261.5 265.5s232.5 97.5 364.5 97.5c100 0 193.167 -19.333 279.5 -58s161.833 -92.5 226.5 -161.5
s114.5 -147.333 149.5 -235s52.5 -180.5 52.5 -278.5zM344 2363c0 -116.667 41.666 -217.501 124.999 -302.501s182.333 -127.5 297 -127.5c120 0 220.333 43.833 301 131.5s121 192.834 121 315.5c0 112.667 -40.167 208.334 -120.5 287.001s-178.166 118 -293.499 118
c-126 0 -229.167 -39.333 -309.5 -118s-120.5 -180 -120.5 -304zM1942 650.998c0 -116 41.832 -213.832 125.499 -293.499s183.5 -119.5 299.5 -119.5c120.667 0 221.167 41.833 301.5 125.5s120.5 185.167 120.5 304.5c0 115.333 -40.833 215.166 -122.5 299.499
s-179.834 126.5 -294.5 126.5c-83.333 0 -157.666 -19.333 -223 -58c-65.333 -38.667 -116.166 -91.5 -152.499 -158.5s-54.5 -142.5 -54.5 -226.5z" />
    <glyph glyph-name="ampersand" unicode="&#x26;" horiz-adv-x="3101" 
d="M2806 1966l-561 -1069l766 -745l-218 -205l-692 676c-69.333 -140.667 -146.666 -260.334 -231.999 -359.001s-186.166 -176.167 -302.499 -232.5s-248.166 -84.5 -395.499 -84.5c-168.667 0 -325.334 42.167 -470.001 126.5s-258.834 198.5 -342.501 342.5
s-125.5 300.333 -125.5 469c0 200.667 63.5 376 190.5 526s290.167 275 489.5 375c-107.333 107.333 -187.333 207.666 -240 300.999s-79 203.333 -79 330c0 89.333 19.333 173.666 58 253c38.667 79.333 92.167 149.666 160.5 211c68.333 61.333 145.333 109 231 143
s172.167 51.333 259.5 52c131.333 -0.666992 254 -32.334 368 -95c114 -62.667 205.167 -149.167 273.5 -259.5s102.833 -231.166 103.5 -362.5c-2 -160.667 -59.333 -298.5 -172 -413.5s-253.334 -203.833 -422.001 -266.5l574 -565l438 852h340zM1016 1483
c-149.333 -74 -266.5 -159.833 -351.5 -257.5s-127.5 -219.5 -127.5 -365.5c0 -106.667 27.833 -208.167 83.5 -304.5s130 -173.333 223 -231s194.167 -86.5 303.5 -86.5c175.333 0 316.5 52.667 423.5 158s208.833 253.333 305.5 444l-729 712zM1319 2785
c-116 0 -215.331 -36.333 -297.998 -109s-124 -166 -124 -280c0 -61.333 16.667 -120.833 50 -178.5s71.666 -109 114.999 -154s99 -99.167 167 -162.5c344 120 516 286.333 516 499c0 105.333 -44.333 195.833 -133 271.5s-186.334 113.5 -293.001 113.5z" />
    <glyph glyph-name="quotesingle" unicode="'" horiz-adv-x="811" 
d="M303 3027h205v-926h-205v926z" />
    <glyph glyph-name="parenleft" unicode="(" horiz-adv-x="1511" 
d="M1372 2765c-168.667 -96.667 -316.332 -226.5 -442.999 -389.5s-223.667 -343 -291 -540s-101 -393.833 -101 -590.5c0 -140 19.667 -284 59 -432s96.166 -290.5 170.499 -427.5s162.666 -260.167 264.999 -369.5s215.833 -199.333 340.5 -270v-266
c-143.333 38 -285.833 120 -427.5 246s-262.5 262.333 -362.5 409c-232.667 338 -349 708 -349 1110c0 397.333 108 763.333 324 1098c104.667 159.333 228.334 303.666 371.001 433c142.667 129.333 290.667 213 444 251v-262z" />
    <glyph glyph-name="parenright" unicode=")" horiz-adv-x="1511" 
d="M139 -254c124 70 238.336 160.501 343.003 271.501s193.5 233.833 266.5 368.5s129 275.5 168 422.5s58.5 292.5 58.5 436.5c0 198.667 -33.333 396.167 -100 592.5s-163.334 375.333 -290.001 536.999c-126.667 161.667 -275.334 290.5 -446.001 386.5v266
c159.333 -44 308.666 -128.667 447.999 -254s261.666 -268.666 366.999 -430c110.667 -167.333 192.334 -340.5 245.001 -519.5s79 -371.833 79 -578.5c0 -406 -116 -776 -348 -1110c-100.667 -147.333 -221.5 -283.833 -362.5 -409.5s-283.833 -207.5 -428.5 -245.5v266z
" />
    <glyph glyph-name="asterisk" unicode="*" horiz-adv-x="1741" 
d="M1475 2384h-410l217 -361l-188 -114l-222 368l-213 -368l-196 114l221 361h-422v209h422l-221 368l196 115l213 -369l222 369l188 -115l-217 -368h410v-209z" />
    <glyph glyph-name="plus" unicode="+" horiz-adv-x="2482" 
d="M1085 2269h312v-872h876v-312h-876v-884h-312v884h-876v312h876v872z" />
    <glyph glyph-name="comma" unicode="," horiz-adv-x="1135" 
d="M733 516h303l-360 -790h-303z" />
    <glyph glyph-name="hyphen" unicode="-" horiz-adv-x="1360" 
d="M1237 1368v-274h-1110v274h1110z" />
    <glyph glyph-name="period" unicode="." horiz-adv-x="1135" 
d="M414 516h303v-516h-303v516z" />
    <glyph glyph-name="slash" unicode="/" horiz-adv-x="1790" 
d="M1348 3027h278l-1192 -3551h-270z" />
    <glyph glyph-name="zero" unicode="0" 
d="M123 1937c0 168 16.3311 311.834 48.998 431.501s95.334 235.5 188.001 347.5c64 78 137 143.667 219 197s170.833 93.833 266.5 121.5s193.5 41.5 293.5 41.5c302.667 0 551 -107.667 745 -323c177.333 -195.333 266 -467.333 266 -816v-786
c0 -183.333 -14 -339 -42 -467s-87.667 -249.667 -179 -365c-199.333 -248 -462.666 -372 -789.999 -372c-321.333 0 -581 117.333 -779 352c-98 119.333 -162 244.166 -192 374.499s-45 289.5 -45 477.5v786zM1847 1868c0 284.667 -43.666 490.667 -130.999 618
c-59.333 90.667 -142 163.167 -248 217.5s-215.667 81.5 -329 81.5c-120.667 0 -238.334 -31.5 -353.001 -94.5s-200.667 -146.167 -258 -249.5c-68 -126.667 -102 -317.667 -102 -573v-668c0 -148.667 7.83301 -277.167 23.5 -385.5s51.5 -203.833 107.5 -286.5
c138 -193.333 332 -290 582 -290c274 0 476 111.667 606 335c68 116.667 102 325.667 102 627v668z" />
    <glyph glyph-name="one" unicode="1" 
d="M1147 2753h-512v274h815v-3027h-303v2753z" />
    <glyph glyph-name="two" unicode="2" 
d="M135 270l1155 1114c153.333 147.333 271.5 277.5 354.5 390.5s124.5 239.5 124.5 379.5c0 117.333 -30 224.333 -90 321s-141 172.5 -243 227.5s-212 82.5 -330 82.5c-112 0 -218.167 -28.333 -318.5 -85s-179.833 -133.334 -238.5 -230
c-57.333 -98.667 -86 -239.334 -86 -422h-303c0 200 41.167 378.167 123.5 534.5s197.333 277.666 345 364c147.667 86.333 314.834 129.5 501.501 129.5c259.333 0 478 -88.667 656 -266c191.333 -191.333 287 -408.333 287 -651c0 -137.333 -26 -262.666 -78 -375.999
s-115.333 -212.166 -190 -296.499s-179.334 -190.833 -314.001 -319.5l-938 -893h1503v-274h-1921v270z" />
    <glyph glyph-name="three" unicode="3" 
d="M340 2273c0 148 32.334 283.5 97.001 406.5s155.834 219.833 273.501 290.5s252.167 106 403.5 106c138.667 0 265.834 -34.667 381.501 -104s206.667 -163.5 273 -282.5s99.5 -248.167 99.5 -387.5c0 -120.667 -25.667 -225.334 -77 -314.001
s-129.666 -173.667 -234.999 -255c99.333 -44.667 187.833 -109.5 265.5 -194.5s137.5 -181.167 179.5 -288.5s63 -216.666 63 -327.999c0 -176 -43.5 -339 -130.5 -489s-205.167 -268.5 -354.5 -355.5s-312.333 -130.5 -489 -130.5c-174 0 -334.333 45.167 -481 135.5
s-262.334 212 -347.001 365s-127 319.167 -127 498.5h303c9.33301 -166 43.666 -295.667 102.999 -389c60.667 -94.667 139.167 -171.5 235.5 -230.5s197.833 -88.5 304.5 -88.5c125.333 0 239.833 30.167 343.5 90.5s185.667 142.833 246 247.5s90.5 218.667 90.5 342
c0 140.667 -41.833 269.5 -125.5 386.5s-191.834 198.167 -324.501 243.5c-36 12 -77.833 21 -125.5 27s-99.5 9.66699 -155.5 11l-129 3v271l103 -9c101.333 0 194.666 17 279.999 51s153.5 86.667 204.5 158s76.5 160.333 76.5 267c0 88 -21 167 -63 237
s-99.5 124.333 -172.5 163s-152.833 58 -239.5 58c-134 0 -242 -50.833 -324 -152.5s-123 -221.5 -123 -359.5h-303z" />
    <glyph glyph-name="four" unicode="4" 
d="M1581 553h-1532v274l1467 2200h368v-2200h275v-274h-275v-553h-303v553zM1581 2609l-1175 -1782h1175v1782z" />
    <glyph glyph-name="five" unicode="5" 
d="M545 3027l1368 -0.00292969v-274h-1122l-152 -836c165.333 95.333 336 143 512 143c186 0 356.667 -48.333 512 -145s277.5 -225.667 366.5 -387s133.5 -334.666 133.5 -519.999c0 -187.333 -44.333 -362.666 -133 -525.999s-210.834 -293.333 -366.501 -390
s-327.834 -145 -516.501 -145c-186.667 0 -357 44.333 -511 133s-277.333 209.834 -370 363.501s-146 322.5 -160 506.5h304c8 -125.333 44.167 -243 108.5 -353s149.666 -197.333 255.999 -262s224.833 -97 355.5 -97c136.667 0 260.834 34.5 372.501 103.5
s199.167 162.167 262.5 279.5s95 243.333 95 378c0 133.333 -31.333 259.5 -94 378.5s-149.334 214 -260.001 285s-234.334 106.5 -371.001 106.5c-118.667 0 -232.167 -28.833 -340.5 -86.5s-202.5 -135.167 -282.5 -232.5l-242 86z" />
    <glyph glyph-name="six" unicode="6" 
d="M1561 3027l-716.999 -1065c102 62.667 222 94 360 94c134.667 0 260.834 -29.167 378.501 -87.5s220.667 -138.333 309 -240s156.333 -215 204 -340s71.5 -253.167 71.5 -384.5s-26.167 -261.833 -78.5 -391.5s-124.5 -245.167 -216.5 -346.5
c-200.667 -212.667 -449.334 -319 -746.001 -319c-184 0 -354.833 48 -512.5 144s-282.334 224.833 -374.001 386.5s-137.5 335.5 -137.5 521.5c0 124.667 16.333 237.834 49 339.501s69.5 186.834 110.5 255.501s117.833 188.667 230.5 360l716 1073h353zM406.001 1020
c0 -138 31 -266.999 93 -386.999s148.667 -215.833 260 -287.5s235 -107.5 371 -107.5c132.667 0 255.5 34.667 368.5 104s202.167 162.5 267.5 279.5s98 241.5 98 373.5c0 136 -31.833 263 -95.5 381s-152 212.333 -265 283s-237.5 106 -373.5 106
c-133.333 0 -255.333 -33.667 -366 -101s-198 -158.333 -262 -273s-96 -238.334 -96 -371.001z" />
    <glyph glyph-name="seven" unicode="7" 
d="M1688 2753h-1426v274h1745v-274l-1237 -2753h-328z" />
    <glyph glyph-name="eight" unicode="8" 
d="M332 2298c0 148 36.499 281.664 109.499 400.997s171.833 212 296.5 278s261 99 409 99c146 0 279.333 -35.5 400 -106.5s215.834 -167.833 285.501 -290.5s104.5 -256.667 104.5 -402c0 -125.333 -32 -242.166 -96 -350.499s-152 -186.5 -264 -234.5
c155.333 -68 280.833 -175.5 376.5 -322.5s143.5 -305.833 143.5 -476.5c0 -130.667 -25.833 -254.167 -77.5 -370.5s-122.667 -217.5 -213 -303.5s-195 -152.833 -314 -200.5s-242.5 -71.5 -370.5 -71.5c-168.667 0 -326.5 42.333 -473.5 127s-263.167 199 -348.5 343
s-128 301.333 -128 472c0 105.333 21.5 213.333 64.5 324s103.5 208.834 181.5 294.501s166.667 147.167 266 184.5c-113.333 56 -200.333 137.833 -261 245.5s-91 227.834 -91 360.501zM474.999 871.997c0 -115.333 29.166 -221.668 87.499 -319.001
s137.5 -174.166 237.5 -230.499s207.333 -84.5 322 -84.5c122.667 0 235.334 28.5 338.001 85.5s184 135.667 244 236s90 211.5 90 333.5c0 120 -30.5 228.5 -91.5 325.5s-142.667 172.833 -245 227.5s-212.833 82 -331.5 82s-228 -29.167 -328 -87.5
s-178.833 -138 -236.5 -239s-86.5 -210.833 -86.5 -329.5zM634.998 2314c0 -142 49 -259.999 147 -353.999s218.333 -141 361 -141c86 0 166.5 22 241.5 66s135.333 103.667 181 179s68.5 154.666 68.5 238c0 133.333 -47.667 247.166 -143 341.5
c-95.333 94.333 -210 141.5 -344 141.5c-137.333 0 -257 -44.833 -359 -134.5s-153 -201.834 -153 -336.501z" />
    <glyph glyph-name="nine" unicode="9" 
d="M709 0l715.998 1061c-102 -62.667 -223.333 -94 -364 -94c-176 0 -337.5 50.167 -484.5 150.5s-262.833 232.166 -347.5 395.499s-127 332 -127 506c0 133.333 26.333 265.333 79 396s124.667 244.667 216 342c200.667 212.667 449.334 319 746.001 319
c140.667 0 272.834 -27.5 396.501 -82.5s232.5 -131 326.5 -228s167.667 -209.333 221 -337s80 -261.167 80 -400.5c0 -124.667 -16.667 -238.5 -50 -341.5s-70 -188.167 -110 -255.5s-116.333 -186.666 -229 -357.999l-717 -1073h-352zM1139 1270
c138.667 0 263.001 33.333 373.001 100s196.167 156.167 258.5 268.5s93.5 233.833 93.5 364.5c0 102.667 -17.5 201.334 -52.5 296c-35 94.667 -85.333 178.5 -151 251.5s-143 130.333 -232 172s-185.5 62.5 -289.5 62.5c-132.667 0 -255.334 -34.5 -368.001 -103.5
s-201.667 -161.667 -267 -278s-98 -240.166 -98 -371.499c0 -130.667 33.333 -254.834 100 -372.501s156.667 -212 270 -283s234.333 -106.5 363 -106.5z" />
    <glyph glyph-name="colon" unicode=":" horiz-adv-x="1135" 
d="M414 516h303v-516h-303v516zM414 2089h303v-516h-303v516z" />
    <glyph glyph-name="semicolon" unicode=";" horiz-adv-x="1135" 
d="M528 516h303l-360 -790h-303zM528 2089h303v-516h-303v516z" />
    <glyph glyph-name="less" unicode="&#x3c;" horiz-adv-x="2482" 
d="M2286 451v-299l-2085 950v262l2085 950v-299l-1696 -782z" />
    <glyph glyph-name="equal" unicode="=" horiz-adv-x="2482" 
d="M2273 1479h-2064v307h2064v-307zM2273 680h-2064v307h2064v-307z" />
    <glyph glyph-name="greater" unicode="&#x3e;" horiz-adv-x="2482" 
d="M1892 1233l-1695 782v299l2084 -950v-262l-2084 -950v299z" />
    <glyph glyph-name="question" unicode="?" horiz-adv-x="2421" 
d="M1081 516h303v-516h-303v516zM266 2081l-0.00292969 85.998c0 113.333 25.333 226.833 76 340.5s118.334 211.834 203.001 294.5c186.667 182.667 417.334 274 692.001 274c170.667 0 326 -40.333 466 -121s249.5 -191.334 328.5 -332c79 -140.667 118.5 -297 118.5 -469
c0 -139.333 -31.333 -257 -94 -353s-157.334 -206 -284.001 -330s-222.167 -234 -286.5 -330s-98.166 -212.667 -101.499 -350h-303c0 296.667 142 572.334 426 827.001c88.667 82.667 152.834 145.5 192.501 188.5s74.167 96.833 103.5 161.5s44 137.667 44 219.001
c0 111.333 -29.667 212.666 -89 304c-59.333 91.333 -138.333 163.166 -237 215.5c-98.667 52.333 -203 78.5 -313 78.5c-117.333 0 -226 -31.333 -326 -94s-179.167 -147.834 -237.5 -255.5c-58.333 -107.667 -87.5 -225.834 -87.5 -354.5h-291z" />
    <glyph glyph-name="at" unicode="@" horiz-adv-x="3551" 
d="M3195 721c-85.333 -156 -198.664 -292.333 -339.998 -409c-141.333 -116.667 -298.5 -206 -471.5 -268s-349.167 -93 -528.5 -93c-288 0 -551.833 70.333 -791.5 211s-428.334 332 -566.001 574s-206.5 506 -206.5 792c0 281.333 70.667 541 212 779
s332.333 426.333 573 565s502 208 784 208c177.333 0 349.666 -30.167 516.999 -90.5s318.333 -148.833 453 -265.5c290 -252.667 435 -569.334 435 -950.001c0 -276 -80.667 -527.333 -242 -754c-60.667 -85.333 -127.5 -161.666 -200.5 -228.999
s-153.333 -121.166 -241 -161.499s-180.834 -60.5 -279.501 -60.5c-77.333 0 -150 18.333 -218 55s-114 90.667 -138 162c-60 -64 -134.5 -114.667 -223.5 -152s-178.5 -56 -268.5 -56c-113.333 0 -213.666 27.667 -300.999 83s-154.5 130 -201.5 224
s-70.5 197.667 -70.5 311c0 139.333 24.667 282.666 74 429.999s120.333 283.833 213 409.5s202.167 226 328.5 301s262.5 112.5 408.5 112.5c100 0 192.333 -23.833 277 -71.5s146.334 -115.167 185 -202.5l62 192h278l-417 -1249c-36 -98 -54 -169 -54 -213
c0 -34 12 -62.333 36 -85s53 -34 87 -34c84.667 0 173.667 34.667 267 104s169.666 145.333 229 228c67.333 96 119 202 155 318s54 234 54 354c0 162.667 -33.333 312 -100 448s-157.334 251.667 -272 347c-114.667 95.333 -244.834 168.166 -390.5 218.499
c-145.667 50.333 -297.167 75.5 -454.5 75.5c-248 0 -475.167 -62.5 -681.5 -187.5s-368.833 -293.5 -487.5 -505.5s-178 -441 -178 -687c0 -242 61.167 -466.667 183.5 -674s287.5 -371.333 495.5 -492s433.333 -181 676 -181c142 0 281.333 22.667 418 68
s263.334 110.833 380 196.5c116.667 85.667 215.334 185.834 296 300.501zM1987 1204c58 114 108 234.833 150 362.5s63 240.5 63 338.5c0 52.667 -12.167 102 -36.5 148s-58.5 82.667 -102.5 110s-93.333 41 -148 41c-104.667 0 -201.167 -32 -289.5 -96
s-164.333 -146.667 -228 -248s-112.834 -210 -147.501 -326s-52 -221.667 -52 -317c0 -104.667 28.5 -193.667 85.5 -267s135.167 -110 234.5 -110c98 0 188.333 36 271 108s149.334 157.333 200.001 256z" />
    <glyph glyph-name="A" unicode="A" horiz-adv-x="3031" 
d="M1352 3027h336l1298 -3027h-328l-438 1016h-1409l-438 -1016h-328zM2101 1290l-581 1389l-590 -1389h1171z" />
    <glyph glyph-name="B" unicode="B" horiz-adv-x="2351" 
d="M311 3027l709 -0.00390625c146 0 273.667 -9.83301 383 -29.5s211 -60.5 305 -122.5c109.333 -71.333 196 -165.166 260 -281.499s96 -239.5 96 -369.5c0 -246 -111.667 -448 -335 -606c158 -64 280.667 -163.167 368 -297.5s131 -289.166 131 -464.499
c0 -138 -33.167 -269.5 -99.5 -394.5s-157.5 -224.167 -273.5 -297.5c-82.667 -50.667 -167.5 -87.667 -254.5 -111s-172.167 -37.666 -255.5 -42.999s-190.333 -8.66602 -321 -9.99902h-713v3027zM987 273.996c144 0 266.167 5.16504 366.5 15.498
s191.166 35.5 272.499 75.5c86 44.667 156.667 112.834 212 204.501s83 185.834 83 282.501c0 128.667 -33.667 241.5 -101 338.5s-159.333 165.833 -276 206.5c-125.333 40.667 -328.666 61 -609.999 61h-320v-1184h373zM942 1732.99
c131.333 0 241.167 5.33203 329.5 15.999s169.833 35.334 244.5 74.001c72 38 130.833 96.5 176.5 175.5s68.5 161.167 68.5 246.5c0 81.333 -22.5 160.333 -67.5 237s-102.833 136.667 -173.5 180c-67.333 39.333 -144.833 64.333 -232.5 75s-194.5 16 -320.5 16h-353
v-1020h328z" />
    <glyph glyph-name="C" unicode="C" horiz-adv-x="3330" 
d="M2806 2249c-74 112 -167.837 208.497 -281.504 289.497s-237.334 142.333 -371 184c-133.667 41.667 -268.5 62.5 -404.5 62.5c-223.333 0 -432.5 -58.5 -627.5 -175.5s-350.167 -273 -465.5 -468s-173 -400.833 -173 -617.5c0 -230 58.833 -443.833 176.5 -641.5
s275.834 -354.5 474.501 -470.5s410.334 -174 635.001 -174c203.333 0 399 50.333 587 151s342 234.667 462 402h336c-87.333 -167.333 -203.166 -314.666 -347.5 -441.999c-144.333 -127.333 -306.166 -226.166 -485.499 -296.499s-363.333 -105.5 -552 -105.5
c-218 0 -423.667 39.667 -617 119s-363.166 190.833 -509.499 334.5s-260 312.334 -341 506.001s-121.5 399.5 -121.5 617.5c0 280.667 70.333 540 211 778s331 426.5 571 565.5s501 208.5 783 208.5c327.333 0 618 -84.667 872 -254
c107.333 -67.333 212.166 -154 314.5 -260c102.333 -106 172.5 -210.333 210.5 -313h-336z" />
    <glyph glyph-name="D" unicode="D" horiz-adv-x="3047" 
d="M311 3027h815.001c243.333 -2 461.666 -28.833 654.999 -80.5s371 -142.167 533 -271.5c114 -94 212.5 -203 295.5 -327s146.667 -257.167 191 -399.5s66.5 -285.166 66.5 -428.499c0 -144.667 -19.5 -285 -58.5 -421s-95.5 -263.833 -169.5 -383.5
s-163 -227.167 -267 -322.5c-168.667 -152.667 -350 -256.334 -544 -311.001s-421 -82 -681 -82h-836v3027zM1004 274c173.333 2.66699 315.5 9.16797 426.5 19.501s223.333 35.333 337 75s223.5 101.167 329.5 184.5c148.667 116.667 263.167 258.5 343.5 425.5
s121.5 347.5 123.5 541.5c-4 393.333 -161 712.666 -471 957.999c-150.667 117.333 -308 192.5 -472 225.5s-369.667 49.5 -617 49.5h-390v-2479h390z" />
    <glyph glyph-name="E" unicode="E" horiz-adv-x="2195" 
d="M311 3027h1655v-274h-1352v-1090h1307v-274h-1307v-1115h1352v-274h-1655v3027z" />
    <glyph glyph-name="F" unicode="F" horiz-adv-x="1987" 
d="M311 3027h1536v-274h-1233v-1094h1188v-275h-1188v-1384h-303v3027z" />
    <glyph glyph-name="G" unicode="G" horiz-adv-x="3572" 
d="M3404 1397c-13.333 -201.333 -65.333 -391.165 -156 -569.498s-210 -333.333 -358 -465s-316 -233.834 -504 -306.501s-382.667 -109 -584 -109c-214 0 -419 40.167 -615 120.5s-370.167 193.166 -522.5 338.499s-271.166 314.666 -356.499 507.999s-128 398 -128 614
c0 198 41.833 393 125.5 585s197.5 358.667 341.5 500c312.667 308.667 697.667 463 1155 463c161.333 0 317.166 -21.5 467.499 -64.5s290.833 -107.5 421.5 -193.5c112 -73.333 219.333 -164.5 322 -273.5s171.334 -217.167 206.001 -324.5h-344
c-103.333 174 -253.833 311.667 -451.5 413s-404.834 152 -621.501 152c-167.333 0 -328.833 -28.667 -484.5 -86s-294.5 -142 -416.5 -254c-125.333 -114 -226.333 -253.667 -303 -419s-115 -332.666 -115 -501.999c0 -181.333 35 -350.5 105 -507.5
s167.167 -294 291.5 -411s266.833 -207.5 427.5 -271.5s330 -96 508 -96c179.333 0 353.5 37 522.5 111s315.833 178.167 440.5 312.5s211.667 287.833 261 460.5h-1691v275h2056z" />
    <glyph glyph-name="H" unicode="H" horiz-adv-x="2798" 
d="M311 3027h303v-1331h1569v1331h303v-3027h-303v1421h-1569v-1421h-303v3027z" />
    <glyph glyph-name="I" unicode="I" horiz-adv-x="926" 
d="M311 3027h303v-3027h-303v3027z" />
    <glyph glyph-name="J" unicode="J" horiz-adv-x="1974" 
d="M1663 852c-3.33301 -52 -6.66797 -107.501 -10.001 -166.501s-9.66602 -112.167 -18.999 -159.5s-25 -94.5 -47 -141.5s-51.333 -93.167 -88 -138.5c-78.667 -98.667 -174.334 -173.167 -287.001 -223.5s-232.667 -75.5 -360 -75.5
c-144.667 0 -278.167 33.667 -400.5 101s-219.666 160 -291.999 278s-110.5 248.333 -114.5 391h299c10.667 -142 66.667 -257.333 168 -346s224.333 -133 369 -133c100 0 189.833 27 269.5 81s137.167 128 172.5 222c24.667 78.667 37 212.334 37 401.001v2085h303v-2175z
" />
    <glyph glyph-name="K" unicode="K" horiz-adv-x="2421" 
d="M311 3027h303v-1741l1397 1741h385l-1196 -1475l1196 -1552h-377l-1011 1311l-394 -484v-827h-303v3027z" />
    <glyph glyph-name="L" unicode="L" horiz-adv-x="1892" 
d="M311 3027h303v-2753h1254v-274h-1557v3027z" />
    <glyph glyph-name="M" unicode="M" horiz-adv-x="3764" 
d="M311 3027h467l1106 -2576l1102 2576h467v-3027h-303v2691l-1139 -2691h-258l-1139 2691v-2691h-303v3027z" />
    <glyph glyph-name="N" unicode="N" horiz-adv-x="3031" 
d="M311 3027h410l1696 -2511v2511h303v-3027h-303l-1803 2662v-2662h-303v3027z" />
    <glyph glyph-name="O" unicode="O" horiz-adv-x="3559" 
d="M3379 1520c0 -285.333 -72.167 -549 -216.5 -791s-339.666 -432.833 -586 -572.5c-246.333 -139.667 -512.5 -209.5 -798.5 -209.5c-279.333 0 -542 69.333 -788 208s-442.5 327.167 -589.5 565.5s-220.5 497.833 -220.5 778.5c0 286.667 71.833 550.5 215.5 791.5
s338.5 431.5 584.5 571.5s512 210 798 210c281.333 0 545.166 -69.167 791.5 -207.5c246.333 -138.333 442.833 -326.5 589.5 -564.5s220 -498 220 -780zM1782 2785c-232.667 -0.666992 -448.999 -58.832 -648.999 -174.499s-358.333 -272.167 -475 -469.5
s-175 -411.333 -175 -642c0 -228.667 59.833 -439.334 179.5 -632.001s279.834 -345.667 480.501 -459s413.667 -170 639 -170c174 0 340.167 33 498.5 99s297.166 157.833 416.499 275.5s212.333 254.5 279 410.5s100 321.667 100 497c0 228 -59.167 438.667 -177.5 632
s-277.333 346.5 -477 459.5s-412.834 169.5 -639.501 169.5v4z" />
    <glyph glyph-name="P" unicode="P" horiz-adv-x="2425" 
d="M311 3027h795c115.333 -1.33301 217 -5.16602 305 -11.5c88 -6.33301 175.167 -21.166 261.5 -44.5c86.333 -23.333 167.833 -59.333 244.5 -108c128.667 -80.667 227 -186.5 295 -317.5s102 -273.5 102 -427.5c0 -300 -114.667 -533.667 -344 -701
c-106.667 -78.667 -222.5 -131 -347.5 -157s-271.167 -39 -438.5 -39h-570v-1221h-303v3027zM1135 1495c133.333 0 247.667 7.66797 343 23.001s184.333 48.666 267 99.999c84 52 149.333 123.5 196 214.5s70 187.5 70 289.5c0 130 -33.167 244.5 -99.5 343.5
s-158.833 172.833 -277.5 221.5c-110.667 46.667 -252.667 70 -426 70c-22.667 0 -57 -0.666992 -103 -2s-79.667 -2 -101 -2h-390v-1258h521z" />
    <glyph glyph-name="Q" unicode="Q" horiz-adv-x="3568" 
d="M3387 -53h-36.002c-246 0 -459 86 -639 258c-122.667 -84 -265.167 -148 -427.5 -192s-323.166 -66 -482.499 -66c-212 0 -416.333 39 -613 117s-370.667 187 -522 327s-270.333 304.833 -357 494.5s-130 391.5 -130 605.5c0 300 72.333 571.167 217 813.5
s341.834 431.5 591.501 567.5s523.5 204 821.5 204c300 0 574.5 -68.5 823.5 -205.5s445.167 -327.333 588.5 -571s215 -515.834 215 -816.501c0 -208 -45 -408.667 -135 -602s-214.333 -362.666 -373 -507.999c137.333 -98.667 268.333 -148 393 -148l65 4v-282zM2318 541
c-200.667 156.667 -371.333 260.333 -512 311c-228.667 79.333 -456.667 119 -684 119c-172 0 -327.667 -28.667 -467 -86c82 -160 222.667 -306.333 422 -439c211.333 -138.667 461.333 -208 750 -208c264 0 481 60 651 180zM1180 1253
c206 0 396.501 -26.166 571.501 -78.499s338.5 -126.833 490.5 -223.5s311.333 -219.667 478 -369c83.333 77.333 155.833 164.5 217.5 261.5s109.667 200.167 144 309.5s51.5 220.666 51.5 333.999c0 242 -59 462.333 -177 661s-278.333 354.5 -481 467.5
s-425.667 169.5 -669 169.5c-237.333 0 -457.833 -57 -661.5 -171s-364.834 -270.333 -483.501 -469s-178 -418 -178 -658c0 -126 16.333 -240.667 49 -344c207.333 73.333 423.333 110 648 110z" />
    <glyph glyph-name="R" unicode="R" horiz-adv-x="2486" 
d="M311 3027l721.003 0.00195312c191.333 0 354.166 -8.66699 488.499 -26s258.166 -58 371.499 -122c152 -87.333 268.5 -204.333 349.5 -351s121.5 -309.334 121.5 -488.001c0 -162 -39.833 -311.833 -119.5 -449.5s-188 -247.834 -325 -330.501s-286.5 -126 -448.5 -130
l852 -1130h-376l-1028 1372h90c147.333 0 272.5 4.83301 375.5 14.5s197.5 32.167 283.5 67.5c124 57.333 220.5 140 289.5 248s103.5 230 103.5 366c0 105.333 -25.333 207 -76 305s-119.334 176.667 -206.001 236c-88.667 64 -185 104 -289 120s-235.667 24 -395 24h-480
v-2753h-303v3027z" />
    <glyph glyph-name="S" unicode="S" horiz-adv-x="2040" 
d="M414 848c3.33301 -110.667 31.499 -212.331 84.499 -304.998s125.5 -166.667 217.5 -222s193.333 -83 304 -83c114.667 0 219.667 25.5 315 76.5s171.166 122.333 227.499 214s84.5 194.167 84.5 307.5c0 82 -18.833 161.333 -56.5 238s-88.5 140.667 -152.5 192
c-63.333 51.333 -130.333 90.666 -201 117.999s-159.334 54.666 -266.001 81.999c-129.333 34.667 -233.666 67.167 -312.999 97.5s-152.666 74.5 -219.999 132.5c-169.333 144 -254 332.333 -254 565c0 159.333 38.333 300.833 115 424.5s180.5 219.667 311.5 288
s275.5 102.5 433.5 102.5c150.667 0 289.834 -36 417.501 -108s228.667 -170.667 303 -296s111.5 -263.666 111.5 -415h-315c-6.66699 101.333 -34.5 192.333 -83.5 273s-113.833 143.334 -194.5 188c-80.667 44.667 -172.334 67 -275.001 67
c-95.333 0 -183 -23.833 -263 -71.5s-143 -112 -189 -193s-69 -168.833 -69 -263.5c0 -112.667 27.333 -203.334 82 -272c54.667 -68.667 122.834 -120.667 204.501 -156s185.5 -70.333 311.5 -105c159.333 -44 277 -80.667 353 -110s152.333 -78.666 229 -147.999
c89.333 -76.667 158.833 -171.334 208.5 -284.001s74.5 -229.667 74.5 -351c0 -162.667 -42.333 -311.667 -127 -447s-197.667 -242 -339 -320s-293.333 -117 -456 -117c-170 0 -326.833 38.333 -470.5 115s-257.5 184 -341.5 322s-126 292.667 -126 464h324z" />
    <glyph glyph-name="T" unicode="T" horiz-adv-x="1745" 
d="M725 2753h-696v274h1687v-274h-688v-2753h-303v2753z" />
    <glyph glyph-name="U" unicode="U" horiz-adv-x="2683" 
d="M614 3027v-1839.01c0 -276 46.667 -487.667 140 -635c63.333 -99.333 147.666 -176.666 252.999 -231.999s217.333 -83 336 -83c107.333 0 212 24.333 314 73s183.333 115.667 244 201c66 88.667 110.333 187.834 133 297.501s34 235.834 34 378.501v1839h304v-1839
c0 -181.333 -15.167 -340.5 -45.5 -477.5s-90.5 -263.167 -180.5 -378.5c-92 -122.667 -209.167 -217.5 -351.5 -284.5s-292.833 -100.5 -451.5 -100.5c-153.333 0 -299.666 31.333 -438.999 94s-256.333 151.334 -351 266.001c-66 82.667 -116.833 170.834 -152.5 264.501
s-59.5 190.334 -71.5 290.001s-18 208.5 -18 326.5v1839h303z" />
    <glyph glyph-name="V" unicode="V" horiz-adv-x="2875" 
d="M41 3027h332l1061 -2650l1069 2650h331l-1257 -3027h-287z" />
    <glyph glyph-name="W" unicode="W" horiz-adv-x="3932" 
d="M41 3027h315l742 -2638l725 2638h286l725 -2634l742 2634h315l-864 -3027h-397l-664 2482l-668 -2482h-397z" />
    <glyph glyph-name="X" unicode="X" horiz-adv-x="2494" 
d="M1061 1548l-967 1479h352l803 -1212l799 1212h352l-979 -1479l1041 -1548h-357l-856 1294l-860 -1294h-356z" />
    <glyph glyph-name="Y" unicode="Y" horiz-adv-x="2425" 
d="M1061 1012l-1053 2015h332l872 -1700l873 1700h332l-1053 -2015v-1012h-303v1012z" />
    <glyph glyph-name="Z" unicode="Z" horiz-adv-x="1966" 
d="M70 270l1486 2483h-1441v274h1781v-274l-1482 -2479h1528v-274h-1872v270z" />
    <glyph glyph-name="bracketleft" unicode="[" horiz-adv-x="1438" 
d="M1282 -520c-204.667 48 -385.002 158.669 -541.002 332.002c-111.333 124 -186.166 249 -224.499 375s-57.5 282 -57.5 468v1184c0 174 14.667 318.833 44 434.5s91 233.167 185 352.5c76 93.333 167.833 177.833 275.5 253.5s213.834 124.834 318.501 147.5v-311
c-131.333 -57.333 -235.666 -126.5 -312.999 -207.5s-132.5 -176 -165.5 -285s-49.5 -237.167 -49.5 -384.5v-1134c0 -160.667 14.167 -295.834 42.5 -405.501s81.166 -206.334 158.499 -290.001s186.333 -156.5 327 -218.5v-311z" />
    <glyph glyph-name="backslash" unicode="\" horiz-adv-x="2478" 
d="M344 3027h291l1266 -3027h-287z" />
    <glyph glyph-name="bracketright" unicode="]" horiz-adv-x="1438" 
d="M156 3027c206.667 -52.667 386.667 -164.665 540 -335.998c112 -123.333 187.167 -248.166 225.5 -374.5c38.333 -126.333 57.5 -282.833 57.5 -469.5v-1183c0 -172.667 -15.5 -317.5 -46.5 -434.5s-93.5 -234.5 -187.5 -352.5c-71.333 -94 -161 -178.667 -269 -254
s-214.667 -123 -320 -143v311c192 79.333 328 189.666 408 330.999s120 322 120 542v1130c0 151.333 -8 268.833 -24 352.499c-16 83.667 -57 172.5 -123 266.5c-84.667 129.333 -211.667 230.333 -381 303v311z" />
    <glyph glyph-name="asciicircum" unicode="^" horiz-adv-x="2482" 
d="M74 737l1044 2290h238l1052 -2290h-262l-913 1983l-897 -1983h-262z" />
    <glyph glyph-name="underscore" unicode="_" horiz-adv-x="2048" 
d="M0 -512v238h2048v-238h-2048z" />
    <glyph glyph-name="grave" unicode="`" horiz-adv-x="1548" 
d="M1245 2748l-135 -237l-807 434l131 246z" />
    <glyph glyph-name="a" unicode="a" horiz-adv-x="2798" 
d="M2540 0h-291.002v422c-56 -102.667 -129 -189.5 -219 -260.5s-191.5 -124.5 -304.5 -160.5s-228.167 -54 -345.5 -54c-174.667 0 -348 39.5 -520 118.5s-327.667 197.833 -467 356.5c-51.333 56 -101 150.5 -149 283.5s-72 276.167 -72 429.5
c0 136 26.833 272.333 80.5 409s104.834 227 153.501 271c294.667 316.667 616.667 475 966 475c184.667 0 356.834 -40.833 516.501 -122.5s279.834 -199.167 360.5 -352.5v426h291v-2241zM474.998 1110c0 -158.667 41.832 -305.165 125.499 -439.498
s195.167 -240 334.5 -317s287.666 -115.5 444.999 -115.5c152.667 0 295.834 39.667 429.501 119s240.334 185.666 320.001 318.999s119.5 276.666 119.5 429.999c0 161.333 -38.333 310.833 -115 448.5s-182.334 246.167 -317.001 325.5s-283 119 -445 119
c-161.333 0 -310.666 -39.5 -447.999 -118.5s-246.5 -186.833 -327.5 -323.5s-121.5 -285.667 -121.5 -447z" />
    <glyph glyph-name="b" unicode="b" horiz-adv-x="2793" 
d="M258 3027l303 0.000976562v-1204c70 148 184.667 262.833 344 344.5s327.333 122.5 504 122.5c214 0 414.5 -50.667 601.5 -152s335.5 -241.166 445.5 -419.499s165 -374.5 165 -588.5c0 -148.667 -26.833 -290.834 -80.5 -426.501s-115.5 -241.834 -185.5 -318.501
c-145.333 -164.667 -290.5 -278.834 -435.5 -342.501s-305.5 -95.5 -481.5 -95.5c-172.667 0 -343.667 38.333 -513 115s-296 184.334 -380 323.001v-385h-287v3027zM778 1729c-158 -158.667 -237.002 -367.665 -237.002 -626.998c0 -161.333 40.167 -308.333 120.5 -441
s189.333 -236.334 327 -311.001s287.5 -112 449.5 -112c158.667 0 305.834 39.667 441.501 119s242.667 186.833 321.001 322.5c78.333 135.667 117.5 283.167 117.5 442.5c0 124 -23.333 240.333 -70 349s-110.834 202.167 -192.501 280.5s-177.667 139.166 -288 182.499
s-227.166 65 -350.499 65c-250 0 -463 -90 -639 -270z" />
    <glyph glyph-name="c" unicode="c" horiz-adv-x="2650" 
d="M2486 655c-100.667 -220.667 -247.334 -393.833 -440 -519.5c-192.667 -125.667 -409 -188.5 -649 -188.5c-220 0 -424.167 50.5 -612.5 151.5s-337.5 241.167 -447.5 420.5s-165 380.333 -165 603c0 215.333 55.5 412.5 166.5 591.5s259.833 319.833 446.5 422.5
s386.334 154 599.001 154c157.333 0 310.5 -29.667 459.5 -89s280 -144.333 393 -255s197.5 -239 253.5 -385h-340c-50 86 -115.167 162.5 -195.5 229.5s-169.5 118.5 -267.5 154.5s-197.333 54 -298 54c-162.667 0 -314.334 -37.833 -455.001 -113.5
s-252.334 -180.167 -335.001 -313.5s-124 -282 -124 -446c0 -160.667 39.167 -309.5 117.5 -446.5s185.5 -244.833 321.5 -323.5s286 -118 450 -118c170.667 0 319.334 34.5 446.001 103.5s240 173.5 340 313.5h336z" />
    <glyph glyph-name="d" unicode="d" horiz-adv-x="2806" 
d="M2548 0l-287.002 0.00292969v410c-220 -308.667 -521.667 -463 -905 -463c-166 0 -325 36.333 -477 109s-305.667 190.667 -461 354c-36.667 30.667 -74.5 82.667 -113.5 156s-70.833 159.166 -95.5 257.499s-37 199.166 -37 302.499c0 216.667 54.5 414.167 163.5 592.5
s256 318.166 441 419.499s384.833 152 599.5 152c114.667 0 226.834 -16.667 336.501 -50s211.334 -83.5 305.001 -150.5s169.5 -146.5 227.5 -238.5v1176h303v-3027zM1356 1999c-156.667 0 -302.666 -38.8311 -437.999 -116.498s-243 -183.334 -323 -317.001
s-120 -278.834 -120 -435.501c0 -160 39.833 -308.667 119.5 -446s187.667 -246 324 -326s284.833 -120 445.5 -120s309.167 40 445.5 120s244.333 188.667 324 326s119.5 286 119.5 446c0 161.333 -40.5 308.5 -121.5 441.5s-190.333 237.5 -328 313.5
s-286.834 114 -447.501 114z" />
    <glyph glyph-name="e" unicode="e" horiz-adv-x="2662" 
d="M475 1012c6 -137.333 49.6631 -265.504 130.996 -384.504s186.333 -213.667 315 -284s261.334 -105.5 398.001 -105.5c112 0 221.167 19.833 327.5 59.5s201.333 96.834 285 171.501s147.167 161.334 190.5 260.001h315c-52 -148.667 -133.667 -282.5 -245 -401.5
s-241 -212.167 -389 -279.5s-299.667 -101 -455 -101c-214.667 0 -412.167 52 -592.5 156s-322.666 245.5 -426.999 424.5s-156.5 375.833 -156.5 590.5c0 212.667 52 409.167 156 589.5s245.333 322.5 424 426.5s374.334 156 587.001 156
c175.333 0 341.333 -38.167 498 -114.5s291.334 -183.166 404.001 -320.499c96 -119.333 162.5 -245.166 199.5 -377.499s57.833 -287.5 62.5 -465.5h-2028zM2200 1286c-26 132 -80.666 252.168 -163.999 360.501s-185.833 194.166 -307.5 257.499s-250.167 95 -385.5 95
c-138 0 -269.167 -30.5 -393.5 -91.5s-228.333 -146 -312 -255s-137.834 -231.167 -162.501 -366.5h1725z" />
    <glyph glyph-name="f" unicode="f" horiz-adv-x="1286" 
d="M414 1966h-347.999v275h348c0 168.667 33 312 99 430s159.167 206.5 279.5 265.5s260.166 89.167 419.499 90.5h58v-274h-58c-158 0 -280 -39.167 -366 -117.5s-129 -194.833 -129 -349.5v-45h557v-275h-557v-1966h-303v1966z" />
    <glyph glyph-name="g" unicode="g" horiz-adv-x="2757" 
d="M2499 319c0 -202 -15.001 -359.833 -45.001 -473.5s-102.667 -232.834 -218 -357.501c-70 -76.667 -153.667 -142.667 -251 -198s-200.5 -97 -309.5 -125s-216.833 -42 -323.5 -42c-162.667 0 -321 34.667 -475 104s-286.167 166.5 -396.5 291.5
s-185.833 267.833 -226.5 428.5h295c188.667 -355.333 464.334 -533 827.001 -533c150 0 292.167 33.833 426.5 101.5s236.5 163.5 306.5 287.5c44 78 71.5 153 82.5 225s16.5 169 16.5 291v123c-68.667 -159.333 -185.5 -281.666 -350.5 -366.999s-340.5 -128 -526.5 -128
c-144.667 0 -288.167 29.167 -430.5 87.5s-267.833 138.166 -376.5 239.499c-116.667 112 -204.5 238.833 -263.5 380.5s-88.5 294.834 -88.5 459.501c0 143.333 23.333 281 70 413s94.334 225 143.001 279c95.333 120 193.833 215.667 295.5 287s204.5 122 308.5 152
s212.667 45 326 45c186 0 360.667 -41.667 524 -125s286.333 -203 368.999 -359v435h291v-1922zM474.999 1143c0 -164.667 36.1689 -316.169 108.502 -454.502s174.166 -248 305.499 -329s280 -121.5 446 -121.5c249.333 0 454.333 84.667 615 254
c50 53.333 94.167 114.5 132.5 183.5s68.166 141.5 89.499 217.5s32 151 32 225c0 164.667 -39.667 314.334 -119 449.001s-188 240.334 -326 317.001s-288.667 115 -452 115c-151.333 0 -290.833 -39 -418.5 -117s-228.5 -182.833 -302.5 -314.5s-111 -273.167 -111 -424.5
z" />
    <glyph glyph-name="h" unicode="h" horiz-adv-x="2499" 
d="M258 3027l303.002 -0.00292969v-1110c41.333 78.667 98.333 146.334 171 203.001s152.834 99.167 240.501 127.5s177.167 42.5 268.5 42.5c94.667 0 189 -13.167 283 -39.5s182.167 -65.5 264.5 -117.5s155.166 -114.333 218.499 -187
c90 -102.667 151.5 -215.667 184.5 -339s49.5 -265.666 49.5 -426.999v-1180h-304v1180c0 232.667 -43.667 411.334 -131 536.001c-62.667 90 -145.5 159.667 -248.5 209s-212.5 74 -328.5 74c-104.667 0 -206.834 -24.667 -306.501 -74s-181.834 -116.333 -246.501 -201
c-50.667 -68 -82.5 -143.833 -95.5 -227.5s-19.5 -189.167 -19.5 -316.5v-1180h-303v3027z" />
    <glyph glyph-name="i" unicode="i" horiz-adv-x="819" 
d="M258 2241h303v-2241h-303v2241zM258 3027h303v-516h-303v516z" />
    <glyph glyph-name="j" unicode="j" horiz-adv-x="831" 
d="M573 205c0 -125.333 -3.16797 -226.167 -9.50098 -302.5s-24.333 -153.666 -54 -231.999s-76.5 -152.833 -140.5 -223.5c-147.333 -155.333 -331.666 -233 -552.999 -233v294c134.667 5.33301 235 39.833 301 103.5s108 143.167 126 238.5s27 213.666 27 354.999v2036
h303v-2036zM269.999 3027h303v-516h-303v516z" />
    <glyph glyph-name="k" unicode="k" horiz-adv-x="2056" 
d="M258 3027h303v-2126l1028 1340h389l-868 -1123l926 -1118h-389l-729 885l-357 -459v-426h-303v3027z" />
    <glyph glyph-name="l" unicode="l" horiz-adv-x="819" 
d="M258 3027h303v-3027h-303v3027z" />
    <glyph glyph-name="m" unicode="m" horiz-adv-x="3842" 
d="M258 2241l286.999 0.000976562v-291c53.333 112.667 133.5 197.5 240.5 254.5s226.167 85.5 357.5 85.5c295.333 0 537 -113.333 725 -340c2.66699 -3.33301 12 -17.333 28 -42s25.667 -39.334 29 -44.001c4.66699 11.333 11.334 24.5 20.001 39.5s17 30.5 25 46.5
c76 106 179.5 189.167 310.5 249.5s263.833 90.5 398.5 90.5c237.333 0 469.333 -113.333 696 -340c82.667 -82.667 138.167 -177.334 166.5 -284.001s42.5 -236 42.5 -388v-1278h-303v1249c0 218 -37 379.333 -111 484c-126.667 177.333 -296 266 -508 266
c-96.667 0 -189.5 -22.833 -278.5 -68.5s-161.167 -107.5 -216.5 -185.5c-40.667 -60 -66.5 -129.167 -77.5 -207.5s-16.5 -174.5 -16.5 -288.5v-1249h-304v1282c0 99.333 -6.33301 181.5 -19 246.5s-41.667 131.833 -87 200.5
c-57.333 82.667 -130.833 148.334 -220.5 197.001s-184.167 73 -283.5 73c-96.667 0 -188.667 -20.5 -276 -61.5s-159 -99.833 -215 -176.5c-46 -66 -75.333 -135.167 -88 -207.5s-19 -162.833 -19 -271.5v-1282h-303v2241z" />
    <glyph glyph-name="n" unicode="n" horiz-adv-x="2499" 
d="M258 2241l287 0.000976562v-324c176.667 248.667 408.667 373 696 373c151.333 0 297 -32.333 437 -97s259.333 -156.667 358 -276c79.333 -100 133.333 -208.167 162 -324.5s43 -253.833 43 -412.5v-1180h-304v1180c0 112.667 -8.83301 211.667 -26.5 297
s-52.5 163.666 -104.5 234.999c-65.333 92.667 -148.333 163.667 -249 213s-210 74 -328 74c-105.333 0 -207.833 -24.5 -307.5 -73.5s-180.167 -116.167 -241.5 -201.5c-52 -69.333 -84.167 -143 -96.5 -221s-19.833 -185.667 -22.5 -323v-1180h-303v2241z" />
    <glyph glyph-name="o" unicode="o" horiz-adv-x="2683" 
d="M2511 1135c0 -209.333 -52 -405.667 -156 -589s-245.5 -329 -424.5 -437s-373.167 -162 -582.5 -162c-207.333 0 -401.5 51.833 -582.5 155.5s-325.167 244.667 -432.5 423s-161 371.833 -161 580.5c0 213.333 52.167 410.833 156.5 592.5s246.833 325.667 427.5 432
s378 159.5 592 159.5c153.333 0 300.333 -30.167 441 -90.5s265.5 -144.5 374.5 -252.5s194.167 -232.333 255.5 -373s92 -287 92 -439zM475 1106c0 -157.333 39.498 -302.666 118.498 -435.999s185.333 -238.666 319 -315.999s278.834 -116 435.501 -116
c162 0 308.833 40.333 440.5 121s234.5 190.167 308.5 328.5s111 287.5 111 447.5c0 245.333 -87.333 451.333 -262 618c-82 78 -174.667 138.5 -278 181.5s-210 64.5 -320 64.5c-160.667 0 -308.167 -40.333 -442.5 -121s-239.666 -189.834 -315.999 -327.501
s-114.5 -285.834 -114.5 -444.501z" />
    <glyph glyph-name="p" unicode="p" horiz-adv-x="2793" 
d="M545 2241l0.000976562 -385.998c55.333 92 132 171 230 237s205.167 115.5 321.5 148.5s230.166 49.5 341.499 49.5c341.333 0 647 -145 917 -435c46.667 -42.667 90.334 -102 131 -178c40.667 -76 73.334 -162.833 98.001 -260.5s37 -199.834 37 -306.501
c0 -216.667 -55 -414 -165 -592s-258.5 -317.667 -445.5 -419s-387.5 -152 -601.5 -152c-175.333 0 -342.833 41.167 -502.5 123.5s-274.834 198.166 -345.501 347.499v-1204h-303v3027h287zM2318 1114c0 160 -39.166 307.832 -117.499 443.499s-185.333 243.167 -321 322.5
s-282.834 119 -441.501 119c-162 0 -311.667 -37.333 -449 -112s-246.333 -178 -327 -310s-121 -278 -121 -438c0 -260 79 -469 237 -627c174.667 -182.667 387.667 -274 639 -274c164 0 315.167 38 453.5 114s247.5 180.833 327.5 314.5s120 282.834 120 447.501z" />
    <glyph glyph-name="q" unicode="q" horiz-adv-x="2793" 
d="M2535 -786l-303 -0.000976562v1204c-70 -149.333 -185 -265.166 -345 -347.499s-327.667 -123.5 -503 -123.5c-214 0 -414.5 50.667 -601.5 152s-335.5 241 -445.5 419s-165 375.333 -165 592c0 153.333 26.333 299 79 437s113.667 240.667 183 308
c248.667 290 556 435 922 435c110 0 223.333 -16.5 340 -49.5s224.167 -82.5 322.5 -148.5s175.166 -145 230.5 -237v386h286v-3027zM2019 511.999c156 159.333 234 368.332 234 626.999c0 160.667 -40.333 306.834 -121 438.501s-189.5 234.834 -326.5 309.501
s-286.833 112 -449.5 112c-159.333 0 -306.833 -39.667 -442.5 -119s-242.667 -186.833 -321 -322.5s-117.5 -283.5 -117.5 -443.5c0 -164.667 40.167 -313.834 120.5 -447.501s189.5 -238.5 327.5 -314.5s289 -114 453 -114c254 0 468.333 91.333 643 274z" />
    <glyph glyph-name="r" unicode="r" horiz-adv-x="1233" 
d="M258 2241h287v-324c106.667 238 323.667 362.333 651 373v-299c-162 -12.667 -297 -64.667 -405 -156c-97.333 -82.667 -160 -164.5 -188 -245.5s-42 -193.167 -42 -336.5v-1253h-303v2241z" />
    <glyph glyph-name="s" unicode="s" horiz-adv-x="1589" 
d="M377 659c0 -76 17.8311 -146 53.498 -210s84.5 -115.167 146.5 -153.5s130.333 -57.5 205 -57.5c110 0 203.167 34.833 279.5 104.5s114.5 158.834 114.5 267.501c0 123.333 -39 216.833 -117 280.5s-184 113.5 -318 149.5c-109.333 35.333 -192.333 65.5 -249 90.5
s-108.667 60.5 -156 106.5c-120 106.667 -180 248.667 -180 426c0 117.333 29.167 224.166 87.5 320.499s137.333 171.5 237 225.5s207.167 81 322.5 81c109.333 0 211.833 -27.833 307.5 -83.5s171.334 -130.167 227.001 -223.5s83.5 -193.333 83.5 -300h-303
c0 96.667 -32.667 173.5 -98 230.5s-148.666 85.5 -249.999 85.5c-86 0 -159.333 -30.333 -220 -91s-91 -134 -91 -220c0 -76.667 17.667 -138.667 53 -186s79.666 -83.833 132.999 -109.5s122.333 -51.5 207 -77.5c131.333 -42 241.5 -87.833 330.5 -137.5
s160.667 -116.5 215 -200.5s81.5 -190 81.5 -318c0 -137.333 -31.333 -260.333 -94 -369s-149.167 -193 -259.5 -253s-234.166 -90 -371.499 -90c-122 0 -235 31.333 -339 94s-186.833 148.667 -248.5 258s-92.5 229.333 -92.5 360h303z" />
    <glyph glyph-name="t" unicode="t" horiz-adv-x="1389" 
d="M516 1966h-467v275h467v786h303v-786h520v-275h-520v-1966h-303v1966z" />
    <glyph glyph-name="u" unicode="u" horiz-adv-x="2490" 
d="M2232 0h-285.999v348c-48 -93.333 -109.667 -169.666 -185 -228.999s-160.5 -102.833 -255.5 -130.5s-195.5 -41.5 -301.5 -41.5c-99.333 0 -192.166 12.833 -278.499 38.5s-171.833 68.167 -256.5 127.5s-168.334 137.666 -251.001 234.999
c-61.333 66 -103.333 157.833 -126 275.5s-34 262.167 -34 433.5v1184h303v-1184c0 -106 6.33301 -198.333 19 -277s39 -151.667 79 -219c61.333 -104.667 143.166 -184.667 245.499 -240s215.833 -83 340.5 -83c108 0 210.5 24 307.5 72s177.5 115.333 241.5 202
c90 125.333 135 307 135 545v1184h303v-2241z" />
    <glyph glyph-name="v" unicode="v" 
d="M33 2241h327l775 -1856l774 1856h327l-946 -2241h-315z" />
    <glyph glyph-name="w" unicode="w" horiz-adv-x="3404" 
d="M29 2241h319l705 -1876l520 1601h250l516 -1601l717 1876h319l-852 -2241h-348l-479 1487l-471 -1487h-348z" />
    <glyph glyph-name="x" unicode="x" horiz-adv-x="1966" 
d="M799 1139l-766 1102h356l594 -865l594 865h356l-770 -1102l770 -1139h-356l-594 897l-594 -897h-356z" />
    <glyph glyph-name="y" unicode="y" horiz-adv-x="2195" 
d="M2159 2241l-1295 -3027h-319l352 856l-860 2171h323l717 -1786l758 1786h324z" />
    <glyph glyph-name="z" unicode="z" horiz-adv-x="1741" 
d="M41 266l1212 1700h-1171v275h1540v-275l-1204 -1692h1282v-274h-1659v266z" />
    <glyph glyph-name="braceleft" unicode="{" horiz-adv-x="1438" 
d="M487 2408c0 152.667 17.167 273.334 51.5 362c34.333 88.667 96.5 153.667 186.5 195s218.333 62 385 62c-119.333 -36 -203.833 -91.833 -253.5 -167.5s-74.5 -176.834 -74.5 -303.501v-729c0 -166 -24.167 -294.167 -72.5 -384.5s-146.833 -153.5 -295.5 -189.5
c143.333 -28 240.5 -83 291.5 -165s76.5 -200.333 76.5 -355v-782c0 -88 9.66699 -162 29 -222s52.5 -110 99.5 -150s113.5 -73 199.5 -99c-114 0 -204.333 6 -271 18s-132 41.333 -196 88c-64 48.667 -106 108.834 -126 180.501s-30 159.167 -30 262.5v778
c0 77.333 -4.33301 136.833 -13 178.5s-33 87.167 -73 136.5c-66 75.333 -149 119 -249 131c88 24 160.333 58.333 217 103c54 44.667 87.167 93 99.5 145s18.5 123.667 18.5 215v692z" />
    <glyph glyph-name="bar" unicode="|" horiz-adv-x="2753" 
d="M1245 3027h262v-3027h-262v3027z" />
    <glyph glyph-name="braceright" unicode="}" horiz-adv-x="1438" 
d="M471 2556c0 127.333 -24.1689 228.668 -72.502 304.002c-48.333 75.333 -129.166 131 -242.499 167c162.667 0 288.167 -20.667 376.5 -62s149.333 -106.333 183 -195s50.5 -209.334 50.5 -362.001v-692c0 -91.333 6.83301 -163.166 20.5 -215.499
s47.834 -100.5 102.501 -144.5c56.667 -46 127.667 -80.333 213 -103c-97.333 -12.667 -179.333 -56.334 -246 -131.001c-40 -47.333 -65 -92.333 -75 -135s-15 -102.667 -15 -180v-778c0 -105.333 -9.5 -193.5 -28.5 -264.5s-61.5 -130.5 -127.5 -178.5
c-62.667 -46.667 -126.667 -76 -192 -88s-152.666 -18 -261.999 -18c119.333 38 201.666 92.5 246.999 163.5s68 173.5 68 307.5v782c0 154 25.667 272 77 354s148.666 137.333 291.999 166c-103.333 25.333 -181.666 63.666 -234.999 114.999s-89 113 -107 185
s-27 163.333 -27 274v729z" />
    <glyph glyph-name="asciitilde" unicode="~" horiz-adv-x="2482" 
d="M2273 1409c-168.667 -303.333 -362.334 -455.005 -581.001 -455.005c-34 0 -75.667 6.33301 -125 19s-92 25.834 -128 39.501s-90.667 35.834 -164 66.501s-118.666 49.334 -135.999 56.001c-162 68 -276.667 102 -344 102c-94.667 0 -170.667 -31.167 -228 -93.5
s-120.666 -154.166 -189.999 -275.499l-168 197c82 148 167.5 265.5 256.5 352.5s198.833 130.5 329.5 130.5c65.333 0 135.333 -12.167 210 -36.5s173.167 -63.166 295.5 -116.499s207.166 -88.833 254.499 -106.5s94.333 -26.5 141 -26.5
c150.667 0 285.667 113.333 405 340z" />
    <glyph glyph-name="sterling" unicode="&#xa3;" horiz-adv-x="1974" 
d="M1663 852c-3.33301 -52 -6.66797 -107.501 -10.001 -166.501s-9.66602 -112.167 -18.999 -159.5s-25 -94.5 -47 -141.5s-51.333 -93.167 -88 -138.5c-78.667 -98.667 -174.334 -173.167 -287.001 -223.5s-232.667 -75.5 -360 -75.5
c-144.667 0 -278.167 33.667 -400.5 101s-219.666 160 -291.999 278s-110.5 248.333 -114.5 391h299c10.667 -142 66.667 -257.333 168 -346s224.333 -133 369 -133c100 0 189.833 27 269.5 81s137.167 128 172.5 222c24.667 78.667 37 212.334 37 401.001v2085h303v-2175z
" />
    <glyph glyph-name="section" unicode="&#xa4;" 
d="M303 623c-131.333 192.667 -196.998 394.667 -196.998 606c0 226.667 65.667 432.667 197 618l-176 176l213 218l180 -177c177.333 134 387.666 201 630.999 201c204.667 0 404 -67 598 -201l180 177l213 -218l-176 -176c131.333 -188.667 197 -401.667 197 -639
c0 -111.333 -16 -212 -48 -302s-81.667 -184.333 -149 -283l176 -172l-213 -218l-180 177c-184.667 -136.667 -396.334 -205 -635.001 -205c-202 0 -400 68.333 -594 205l-180 -177l-213 218zM1151 1970c-140 0 -267.332 -32.002 -381.999 -96.002
s-204.667 -152.667 -270 -266s-98 -239.666 -98 -378.999c0 -96.667 18.833 -189.167 56.5 -277.5s90.334 -166.333 158.001 -234s145.5 -120.667 233.5 -159s180.333 -57.833 277 -58.5c135.333 0.666992 259.666 33.834 372.999 99.501s203.166 155 269.499 268
s99.5 237.5 99.5 373.5c0 128 -32.167 248 -96.5 360s-151.333 201.5 -261 268.5s-229.5 100.5 -359.5 100.5z" />
    <glyph glyph-name="germandbls" unicode="&#xa7;" horiz-adv-x="2519" 
d="M1688 2482c-3.33301 94 -50.832 167.998 -142.499 221.998s-189.167 81 -292.5 81c-77.333 0 -147.333 -14.833 -210 -44.5s-111.5 -72.667 -146.5 -129s-52.5 -124.166 -52.5 -203.5c0 -86.667 25 -157.167 75 -211.5s120.333 -103.833 211 -148.5l517 -258
c104.667 -52 193.167 -102.5 265.5 -151.5s132.833 -110.167 181.5 -183.5s73 -159.666 73 -258.999c0 -111.333 -31.167 -223.666 -93.5 -336.999s-141.833 -199 -238.5 -257c65.333 -50.667 117.166 -116.167 155.499 -196.5s57.5 -162.166 57.5 -245.499
c0 -144.667 -34.833 -272.5 -104.5 -383.5s-164 -196.333 -283 -256s-250.5 -89.5 -394.5 -89.5c-154.667 0 -295 36.667 -421 110s-225.667 174 -299 302s-112 269 -116 423h287c6 -152.667 59.833 -281.667 161.5 -387s230.834 -158 387.501 -158
c146 0 264.333 38.5 355 115.5s136 182.167 136 315.5c0 102.667 -36.667 184 -110 244s-177.333 123.333 -312 190l-663 344c-210.667 107.333 -316 258.666 -316 453.999c0 250.667 120.333 459.667 361 627c-48.667 44.667 -88.167 105.667 -118.5 183
s-45.5 151.666 -45.5 223c0 124 31 236.5 93 337.5s146 179.833 252 236.5s221.667 85 347 85c114 0 227.167 -24.5 339.5 -73.5s204.666 -118.833 276.999 -209.5s109.833 -194.334 112.5 -311h-286zM1638 744.998c63.333 34.667 118.833 90.8301 166.5 168.497
s71.5 152.834 71.5 225.501c0 97.333 -25.167 171.833 -75.5 223.5s-128.833 104.167 -235.5 157.5l-672 340c-72 -42 -131 -102.667 -177 -182s-69 -160.666 -69 -243.999c0 -77.333 23.167 -140.666 69.5 -189.999s111.833 -95.333 196.5 -138z" />
    <glyph glyph-name="registered" unicode="&#xa8;" horiz-adv-x="2195" 
d="M950 3813v-516h-303v516h303zM1552 3813v-516h-303v516h303zM311 3027h1655v-274h-1352v-1090h1307v-274h-1307v-1115h1352v-274h-1655v3027z" />
    <glyph glyph-name="copyright" unicode="&#xa9;" horiz-adv-x="3060" 
d="M-37 1516c0 280.667 70.167 540.999 210.5 780.999s330.833 429.833 571.5 569.5s503 209.5 787 209.5c282 0 542.667 -69.833 782 -209.5s428.833 -329.667 568.5 -570s209.5 -500.5 209.5 -780.5c0 -283.333 -69.833 -545.666 -209.5 -786.999
s-329.167 -432 -568.5 -572s-500 -210 -782 -210c-284 0 -546.333 70 -787 210s-431.167 330.5 -571.5 571.5s-210.5 503.5 -210.5 787.5zM2904 1516c0 246.667 -61.5 475.5 -184.5 686.5s-290 378 -501 501s-439.833 184.5 -686.5 184.5
c-248.667 0 -478.667 -61.5 -690 -184.5s-378.5 -290 -501.5 -501s-184.5 -439.833 -184.5 -686.5c0 -249.333 61.5 -480.166 184.5 -692.499s290.167 -380.166 501.5 -503.499s441.333 -185 690 -185c246.667 0 475.5 61.667 686.5 185s378 291.166 501 503.499
s184.5 443.166 184.5 692.499zM2327 1229c-14 -121.333 -55.167 -227.832 -123.5 -319.499s-155.833 -162.334 -262.5 -212.001s-219.667 -74.5 -339 -74.5c-172 0 -323.833 39.5 -455.5 118.5s-233.5 187.5 -305.5 325.5s-108 291.667 -108 461
c0 262.667 77.167 477.834 231.5 645.501s362.5 251.5 624.5 251.5c192.667 0 356.167 -52.5 490.5 -157.5s216.833 -249.167 247.5 -432.5h-226c-22 122 -80.5 220.167 -175.5 294.5s-205.833 111.5 -332.5 111.5c-133.333 0 -247.333 -31.333 -342 -94
s-166.334 -147.834 -215.001 -255.501s-73 -227.5 -73 -359.5c0 -127.333 25.5 -246.333 76.5 -357s125 -199 222 -265s210.5 -99 340.5 -99c126 0 236.833 38.5 332.5 115.5s151.167 177.833 166.501 302.5h226z" />
    <glyph glyph-name="acute" unicode="&#xab;" horiz-adv-x="1741" 
d="M164 1233l463 815l237 -127l-385 -688l385 -688l-237 -131zM872 1233l463 815l242 -127l-385 -688l385 -688l-242 -131z" />
    <glyph glyph-name="dieresis" unicode="&#xac;" horiz-adv-x="2482" 
d="M1962 1475h-1753v311h2064v-1106h-311v795z" />
    <glyph glyph-name="notequal" unicode="&#xad;" horiz-adv-x="1987" 
d="M1683 2785v-274h-1380v274h1380z" />
    <glyph glyph-name="AE" unicode="&#xae;" horiz-adv-x="3060" 
d="M-37 1516c0 280.667 70.167 540.999 210.5 780.999s330.833 429.833 571.5 569.5s503 209.5 787 209.5c282 0 542.667 -69.833 782 -209.5s428.833 -329.667 568.5 -570s209.5 -500.5 209.5 -780.5c0 -283.333 -69.833 -545.666 -209.5 -786.999
s-329.167 -432 -568.5 -572s-500 -210 -782 -210c-284 0 -546.333 70 -787 210s-431.167 330.5 -571.5 571.5s-210.5 503.5 -210.5 787.5zM2904 1516c0 246.667 -61.5 475.5 -184.5 686.5s-290 378 -501 501s-439.833 184.5 -686.5 184.5
c-248.667 0 -478.667 -61.5 -690 -184.5s-378.5 -290 -501.5 -501s-184.5 -439.833 -184.5 -686.5c0 -249.333 61.5 -480.166 184.5 -692.499s290.167 -380.166 501.5 -503.499s441.333 -185 690 -185c246.667 0 475.5 61.667 686.5 185s378 291.166 501 503.499
s184.5 443.166 184.5 692.499zM2310 638.999l-254 0.000976562l-500 807h-393v-807h-213v1749h762c188 0 330 -28.667 426 -86c63.333 -35.333 112 -87.333 146 -156s51 -142.334 51 -221.001c0 -162.667 -50.167 -282.167 -150.5 -358.5s-234.5 -116.5 -402.5 -120.5z
M1491 1614h147c148 0 265 20 351 60s129 125 129 255c0 122 -41.667 203 -125 243s-193.333 60 -330 60h-500v-618h328z" />
    <glyph glyph-name="Oslash" unicode="&#xaf;" horiz-adv-x="926" 
d="M315 3813v-516h-303v516h303zM918 3813v-516h-304v516h304zM311 3027h303v-3027h-303v3027z" />
    <glyph glyph-name="infinity" unicode="&#xb0;" horiz-adv-x="1638" 
d="M819 1798c-112 0 -214.834 27.5 -308.501 82.5s-168 129.5 -223 223.5s-82.5 197 -82.5 309c0 109.333 27.5 211.333 82.5 306s129.667 169.667 224 225s196.833 83 307.5 83c109.333 0 211.333 -27.667 306 -83s169.834 -130.5 225.501 -225.5
s83.5 -196.833 83.5 -305.5c0 -110.667 -27.833 -213.334 -83.5 -308c-55.667 -94.667 -130.667 -169.5 -225 -224.5s-196.5 -82.5 -306.5 -82.5zM814.999 2863c-122.667 0 -227.666 -44.333 -314.999 -133s-131 -194.334 -131 -317
c0 -125.333 43.833 -231.833 131.5 -319.5s193.834 -131.5 318.501 -131.5c81.333 0 156.333 20.167 225 60.5s123.5 95.166 164.5 164.5c41 69.333 61.5 144.666 61.5 226c0 78.667 -20.333 152.834 -61 222.5c-40.667 69.667 -96.334 125 -167.001 166
s-146.334 61.5 -227.001 61.5z" />
    <glyph glyph-name="plusminus" unicode="&#xb1;" horiz-adv-x="2482" 
d="M1085 2269h312v-663h876v-312h-876v-671h-312v671h-876v312h876v663zM209 311h2064v-311h-2064v311z" />
    <glyph glyph-name="lessequal" unicode="&#xb2;" horiz-adv-x="926" 
d="M311 3027h303v-3027h-303v3027z" />
    <glyph glyph-name="greaterequal" unicode="&#xb3;" horiz-adv-x="819" 
d="M258 2241h303v-2241h-303v2241zM258 3027h303v-516h-303v516z" />
    <glyph glyph-name="mu" unicode="&#xb5;" horiz-adv-x="2490" 
d="M1929 2241l303.001 -0.000976562v-2241h-286v348h-9c-45.333 -93.333 -105 -169.666 -179 -228.999s-158.333 -102.833 -253 -130.5s-195 -41.5 -301 -41.5c-244.667 0 -459 84.667 -643 254v-987h-303v3027h303v-1184c0 -106 6.33301 -198.333 19 -277
s39 -151.667 79 -219c61.333 -104.667 143.166 -184.667 245.499 -240s215.833 -83 340.5 -83c108 0 210.5 24 307.5 72s177.5 115.333 241.5 202c90 125.333 135 307 135 545v1184z" />
    <glyph glyph-name="partialdiff" unicode="&#xb6;" horiz-adv-x="2310" 
d="M938 1454c-136.667 0 -265.669 35.5 -387.002 106.5s-218.166 166.5 -290.499 286.5s-108.5 248.333 -108.5 385c0 113.333 23.167 223.5 69.5 330.5s110.5 196.167 192.5 267.5c88.667 82 180.834 134.667 276.501 158s220.5 36.333 374.5 39h946v-3547h-303v3273h-467
v-3273h-303v1974z" />
    <glyph glyph-name="summation" unicode="&#xb7;" horiz-adv-x="1135" 
d="M414 1491h303v-516h-303v516z" />
    <glyph glyph-name="product" unicode="&#xb8;" horiz-adv-x="2662" 
d="M1184 3027v-516h-303v516h303zM1786 3027v-516h-303v516h303zM475 1012c6 -137.333 49.6631 -265.504 130.996 -384.504s186.333 -213.667 315 -284s261.334 -105.5 398.001 -105.5c112 0 221.167 19.833 327.5 59.5s201.333 96.834 285 171.501
s147.167 161.334 190.5 260.001h315c-52 -148.667 -133.667 -282.5 -245 -401.5s-241 -212.167 -389 -279.5s-299.667 -101 -455 -101c-214.667 0 -412.167 52 -592.5 156s-322.666 245.5 -426.999 424.5s-156.5 375.833 -156.5 590.5c0 212.667 52 409.167 156 589.5
s245.333 322.5 424 426.5s374.334 156 587.001 156c175.333 0 341.333 -38.167 498 -114.5s291.334 -183.166 404.001 -320.499c96 -119.333 162.5 -245.166 199.5 -377.499s57.833 -287.5 62.5 -465.5h-2028zM2200 1286c-26 132 -80.666 252.168 -163.999 360.501
s-185.833 194.166 -307.5 257.499s-250.167 95 -385.5 95c-138 0 -269.167 -30.5 -393.5 -91.5s-228.333 -146 -312 -255s-137.834 -231.167 -162.501 -366.5h1725z" />
    <glyph glyph-name="pi" unicode="&#xb9;" horiz-adv-x="1511" 
d="M1380 2445c0 -108 -28.668 -209.667 -86.001 -305s-134.166 -171.333 -230.499 -228s-198.166 -85 -305.499 -85c-111.333 0 -215.333 27.667 -312 83s-173.334 130.5 -230.001 225.5s-85 198.167 -85 309.5c0 114.667 27.667 220.167 83 316.5s131 172.833 227 229.5
s201.667 85 317 85c111.333 0 215 -28.833 311 -86.5s171.833 -135.334 227.5 -233c55.667 -97.667 83.5 -201.5 83.5 -311.5zM1380 1511v-180h-1249v180h1249zM1192 2454c0 123.333 -41.167 227.833 -123.5 313.5s-185.833 128.5 -310.5 128.5s-229 -42.833 -313 -128.5
s-126 -190.167 -126 -313.5c0 -124.667 42 -230.334 126 -317c84 -86.667 188.333 -130 313 -130c124 0 227.333 43.333 310 130s124 192.334 124 317z" />
    <glyph glyph-name="ordfeminine" unicode="&#xbb;" horiz-adv-x="1741" 
d="M872 545l385 688l-385 688l242 127l463 -815l-463 -819zM164 545l385 688l-385 688l237 127l463 -815l-463 -819z" />
    <glyph glyph-name="ordmasculine" unicode="&#xbc;" horiz-adv-x="831" 
d="M573 205c0 -125.333 -3.16797 -226.167 -9.50098 -302.5s-24.333 -153.666 -54 -231.999s-76.5 -152.833 -140.5 -223.5c-147.333 -155.333 -331.666 -233 -552.999 -233v294c134.667 5.33301 235 39.833 301 103.5s108 143.167 126 238.5s27 213.666 27 354.999v2036
h303v-2036zM269.999 3027h303v-516h-303v516z" />
    <glyph glyph-name="Omega" unicode="&#xbd;" horiz-adv-x="2040" 
d="M414 848c3.33301 -110.667 31.499 -212.331 84.499 -304.998s125.5 -166.667 217.5 -222s193.333 -83 304 -83c114.667 0 219.667 25.5 315 76.5s171.166 122.333 227.499 214s84.5 194.167 84.5 307.5c0 82 -18.833 161.333 -56.5 238s-88.5 140.667 -152.5 192
c-63.333 51.333 -130.333 90.666 -201 117.999s-159.334 54.666 -266.001 81.999c-129.333 34.667 -233.666 67.167 -312.999 97.5s-152.666 74.5 -219.999 132.5c-169.333 144 -254 332.333 -254 565c0 159.333 38.333 300.833 115 424.5s180.5 219.667 311.5 288
s275.5 102.5 433.5 102.5c150.667 0 289.834 -36 417.501 -108s228.667 -170.667 303 -296s111.5 -263.666 111.5 -415h-315c-6.66699 101.333 -34.5 192.333 -83.5 273s-113.833 143.334 -194.5 188c-80.667 44.667 -172.334 67 -275.001 67
c-95.333 0 -183 -23.833 -263 -71.5s-143 -112 -189 -193s-69 -168.833 -69 -263.5c0 -112.667 27.333 -203.334 82 -272c54.667 -68.667 122.834 -120.667 204.501 -156s185.5 -70.333 311.5 -105c159.333 -44 277 -80.667 353 -110s152.333 -78.666 229 -147.999
c89.333 -76.667 158.833 -171.334 208.5 -284.001s74.5 -229.667 74.5 -351c0 -162.667 -42.333 -311.667 -127 -447s-197.667 -242 -339 -320s-293.333 -117 -456 -117c-170 0 -326.833 38.333 -470.5 115s-257.5 184 -341.5 322s-126 292.667 -126 464h324z" />
    <glyph glyph-name="ae" unicode="&#xbe;" horiz-adv-x="1589" 
d="M377 659c0 -76 17.8311 -146 53.498 -210s84.5 -115.167 146.5 -153.5s130.333 -57.5 205 -57.5c110 0 203.167 34.833 279.5 104.5s114.5 158.834 114.5 267.501c0 123.333 -39 216.833 -117 280.5s-184 113.5 -318 149.5c-109.333 35.333 -192.333 65.5 -249 90.5
s-108.667 60.5 -156 106.5c-120 106.667 -180 248.667 -180 426c0 117.333 29.167 224.166 87.5 320.499s137.333 171.5 237 225.5s207.167 81 322.5 81c109.333 0 211.833 -27.833 307.5 -83.5s171.334 -130.167 227.001 -223.5s83.5 -193.333 83.5 -300h-303
c0 96.667 -32.667 173.5 -98 230.5s-148.666 85.5 -249.999 85.5c-86 0 -159.333 -30.333 -220 -91s-91 -134 -91 -220c0 -76.667 17.667 -138.667 53 -186s79.666 -83.833 132.999 -109.5s122.333 -51.5 207 -77.5c131.333 -42 241.5 -87.833 330.5 -137.5
s160.667 -116.5 215 -200.5s81.5 -190 81.5 -318c0 -137.333 -31.333 -260.333 -94 -369s-149.167 -193 -259.5 -253s-234.166 -90 -371.499 -90c-122 0 -235 31.333 -339 94s-186.833 148.667 -248.5 258s-92.5 229.333 -92.5 360h303z" />
    <glyph glyph-name="oslash" unicode="&#xbf;" horiz-adv-x="819" 
d="M262 3027v-516h-303v516h303zM864 3027v-516h-303v516h303zM258 2241h303v-2241h-303v2241z" />
    <glyph glyph-name="questiondown" unicode="&#xc0;" horiz-adv-x="3031" 
d="M1352 3027h336l1298 -3027h-328l-438 1016h-1409l-438 -1016h-328zM2101 1290l-581 1389l-590 -1389h1171z" />
    <glyph glyph-name="questiondown" unicode="&#x410;" horiz-adv-x="3031" 
d="M1352 3027h336l1298 -3027h-328l-438 1016h-1409l-438 -1016h-328zM2101 1290l-581 1389l-590 -1389h1171z" />
    <glyph glyph-name="exclamdown" unicode="&#xc1;" horiz-adv-x="2425" 
d="M2007 3027v-274.002h-1393v-947h570c166.667 0 313 -13.167 439 -39.5s241.667 -78.5 347 -156.5c229.333 -167.333 344 -401 344 -701c0 -154 -34.333 -296.667 -103 -428s-166.667 -237 -294 -317c-76.667 -48.667 -158.167 -84.667 -244.5 -108
s-173.5 -38.166 -261.5 -44.499s-189.667 -10.166 -305 -11.499h-795v3027h1696zM1135 1532l-521.001 -0.000976562v-1258h390c21.333 0 55 -0.666992 101 -2s80.333 -2 103 -2c173.333 0 315.333 23.333 426 70c118.667 48.667 211.167 122.334 277.5 221.001
s99.5 213.334 99.5 344.001c0 102 -23.333 198.5 -70 289.5s-112 162.5 -196 214.5c-80.667 51.333 -169.167 84.666 -265.5 99.999s-211.166 23 -344.499 23z" />
    <glyph glyph-name="exclamdown" unicode="&#x411;" horiz-adv-x="2425" 
d="M2007 3027v-274.002h-1393v-947h570c166.667 0 313 -13.167 439 -39.5s241.667 -78.5 347 -156.5c229.333 -167.333 344 -401 344 -701c0 -154 -34.333 -296.667 -103 -428s-166.667 -237 -294 -317c-76.667 -48.667 -158.167 -84.667 -244.5 -108
s-173.5 -38.166 -261.5 -44.499s-189.667 -10.166 -305 -11.499h-795v3027h1696zM1135 1532l-521.001 -0.000976562v-1258h390c21.333 0 55 -0.666992 101 -2s80.333 -2 103 -2c173.333 0 315.333 23.333 426 70c118.667 48.667 211.167 122.334 277.5 221.001
s99.5 213.334 99.5 344.001c0 102 -23.333 198.5 -70 289.5s-112 162.5 -196 214.5c-80.667 51.333 -169.167 84.666 -265.5 99.999s-211.166 23 -344.499 23z" />
    <glyph glyph-name="logicalnot" unicode="&#xc2;" horiz-adv-x="2351" 
d="M311 3027l709 -0.00390625c146 0 273.667 -9.83301 383 -29.5s211 -60.5 305 -122.5c109.333 -71.333 196 -165.166 260 -281.499s96 -239.5 96 -369.5c0 -246 -111.667 -448 -335 -606c158 -64 280.667 -163.167 368 -297.5s131 -289.166 131 -464.499
c0 -138 -33.167 -269.5 -99.5 -394.5s-157.5 -224.167 -273.5 -297.5c-82.667 -50.667 -167.5 -87.667 -254.5 -111s-172.167 -37.666 -255.5 -42.999s-190.333 -8.66602 -321 -9.99902h-713v3027zM987 273.996c144 0 266.167 5.16504 366.5 15.498
s191.166 35.5 272.499 75.5c86 44.667 156.667 112.834 212 204.501s83 185.834 83 282.501c0 128.667 -33.667 241.5 -101 338.5s-159.333 165.833 -276 206.5c-125.333 40.667 -328.666 61 -609.999 61h-320v-1184h373zM942 1732.99
c131.333 0 241.167 5.33203 329.5 15.999s169.833 35.334 244.5 74.001c72 38 130.833 96.5 176.5 175.5s68.5 161.167 68.5 246.5c0 81.333 -22.5 160.333 -67.5 237s-102.833 136.667 -173.5 180c-67.333 39.333 -144.833 64.333 -232.5 75s-194.5 16 -320.5 16h-353
v-1020h328z" />
    <glyph glyph-name="logicalnot" unicode="&#x412;" horiz-adv-x="2351" 
d="M311 3027l709 -0.00390625c146 0 273.667 -9.83301 383 -29.5s211 -60.5 305 -122.5c109.333 -71.333 196 -165.166 260 -281.499s96 -239.5 96 -369.5c0 -246 -111.667 -448 -335 -606c158 -64 280.667 -163.167 368 -297.5s131 -289.166 131 -464.499
c0 -138 -33.167 -269.5 -99.5 -394.5s-157.5 -224.167 -273.5 -297.5c-82.667 -50.667 -167.5 -87.667 -254.5 -111s-172.167 -37.666 -255.5 -42.999s-190.333 -8.66602 -321 -9.99902h-713v3027zM987 273.996c144 0 266.167 5.16504 366.5 15.498
s191.166 35.5 272.499 75.5c86 44.667 156.667 112.834 212 204.501s83 185.834 83 282.501c0 128.667 -33.667 241.5 -101 338.5s-159.333 165.833 -276 206.5c-125.333 40.667 -328.666 61 -609.999 61h-320v-1184h373zM942 1732.99
c131.333 0 241.167 5.33203 329.5 15.999s169.833 35.334 244.5 74.001c72 38 130.833 96.5 176.5 175.5s68.5 161.167 68.5 246.5c0 81.333 -22.5 160.333 -67.5 237s-102.833 136.667 -173.5 180c-67.333 39.333 -144.833 64.333 -232.5 75s-194.5 16 -320.5 16h-353
v-1020h328z" />
    <glyph glyph-name="radical" unicode="&#xc3;" horiz-adv-x="1876" 
d="M311 3027h1536v-274h-1233v-2753h-303v3027z" />
    <glyph glyph-name="radical" unicode="&#x413;" horiz-adv-x="1876" 
d="M311 3027h1536v-274h-1233v-2753h-303v3027z" />
    <glyph glyph-name="florin" unicode="&#xc4;" horiz-adv-x="2691" 
d="M160 274l782 2753h1438v-2753h205v-274h-2585v274h160zM2077 274v2479h-910l-688 -2479h1598z" />
    <glyph glyph-name="florin" unicode="&#x414;" horiz-adv-x="2691" 
d="M160 274l782 2753h1438v-2753h205v-274h-2585v274h160zM2077 274v2479h-910l-688 -2479h1598z" />
    <glyph glyph-name="approxequal" unicode="&#xc5;" horiz-adv-x="2195" 
d="M311 3027h1655v-274h-1352v-1090h1307v-274h-1307v-1115h1352v-274h-1655v3027z" />
    <glyph glyph-name="approxequal" unicode="&#x415;" horiz-adv-x="2195" 
d="M311 3027h1655v-274h-1352v-1090h1307v-274h-1307v-1115h1352v-274h-1655v3027z" />
    <glyph glyph-name="Delta" unicode="&#xc6;" horiz-adv-x="3342" 
d="M1520 1446l-1119 -1446h-376l1196 1552l-1196 1475h385l221.5 -274l342 -425.5l368.5 -460c118.667 -148.333 178 -223.5 178 -225.5v1385h303v-1380l1110 1380h385l-1196 -1475l1196 -1552h-377l-1118 1446v-1446h-303v1446z" />
    <glyph glyph-name="Delta" unicode="&#x416;" horiz-adv-x="3342" 
d="M1520 1446l-1119 -1446h-376l1196 1552l-1196 1475h385l221.5 -274l342 -425.5l368.5 -460c118.667 -148.333 178 -223.5 178 -225.5v1385h303v-1380l1110 1380h385l-1196 -1475l1196 -1552h-377l-1118 1446v-1446h-303v1446z" />
    <glyph glyph-name="guillemotleft" unicode="&#xc7;" horiz-adv-x="2204" 
d="M705 1450v279h364c104 0 200.333 19.833 289 59.5s159.667 99.334 213 179.001s80 176.167 80 289.501c0 94.667 -23 182.5 -69 263.5s-109 145.333 -189 193s-167.667 71.5 -263 71.5c-102.667 0 -194.334 -22.333 -275.001 -67s-145.167 -107.167 -193.5 -187.5
s-76.166 -171.5 -83.499 -273.5h-316c0 151.333 37.167 289.666 111.5 414.999s175.333 224 303 296s266.834 108 417.501 108c158 0 302.5 -34.167 433.5 -102.5s234.833 -164.333 311.5 -288s115 -265.167 115 -424.5c0 -232.667 -84.667 -421 -254 -565
c-34.667 -32 -84 -65 -148 -99c76 -34.667 141.667 -78.334 197 -131.001c89.333 -76.667 158.833 -171.334 208.5 -284.001s74.5 -229.667 74.5 -351c0 -162.667 -42.333 -311.667 -127 -447s-197.667 -242 -339 -320s-293.333 -117 -456 -117
c-170 0 -326.833 38.333 -470.5 115s-257.5 184 -341.5 322s-126 292.667 -126 464h324c3.33301 -110.667 31.5 -212.334 84.5 -305.001s125.5 -166.667 217.5 -222s193.333 -83 304 -83c114.667 0 219.667 25.5 315 76.5s171.166 122.333 227.499 214
s84.5 194.167 84.5 307.5c0 110.667 -27.833 213.334 -83.5 308.001s-131 169.334 -226 224.001s-198.167 82 -309.5 82h-405z" />
    <glyph glyph-name="guillemotleft" unicode="&#x417;" horiz-adv-x="2204" 
d="M705 1450v279h364c104 0 200.333 19.833 289 59.5s159.667 99.334 213 179.001s80 176.167 80 289.501c0 94.667 -23 182.5 -69 263.5s-109 145.333 -189 193s-167.667 71.5 -263 71.5c-102.667 0 -194.334 -22.333 -275.001 -67s-145.167 -107.167 -193.5 -187.5
s-76.166 -171.5 -83.499 -273.5h-316c0 151.333 37.167 289.666 111.5 414.999s175.333 224 303 296s266.834 108 417.501 108c158 0 302.5 -34.167 433.5 -102.5s234.833 -164.333 311.5 -288s115 -265.167 115 -424.5c0 -232.667 -84.667 -421 -254 -565
c-34.667 -32 -84 -65 -148 -99c76 -34.667 141.667 -78.334 197 -131.001c89.333 -76.667 158.833 -171.334 208.5 -284.001s74.5 -229.667 74.5 -351c0 -162.667 -42.333 -311.667 -127 -447s-197.667 -242 -339 -320s-293.333 -117 -456 -117
c-170 0 -326.833 38.333 -470.5 115s-257.5 184 -341.5 322s-126 292.667 -126 464h324c3.33301 -110.667 31.5 -212.334 84.5 -305.001s125.5 -166.667 217.5 -222s193.333 -83 304 -83c114.667 0 219.667 25.5 315 76.5s171.166 122.333 227.499 214
s84.5 194.167 84.5 307.5c0 110.667 -27.833 213.334 -83.5 308.001s-131 169.334 -226 224.001s-198.167 82 -309.5 82h-405z" />
    <glyph glyph-name="guillemotright" unicode="&#xc8;" horiz-adv-x="2949" 
d="M2638 3027v-3027h-303v2662l-1717 -2662h-307v3027h303v-2511l1610 2511h414z" />
    <glyph glyph-name="guillemotright" unicode="&#x418;" horiz-adv-x="2949" 
d="M2638 3027v-3027h-303v2662l-1717 -2662h-307v3027h303v-2511l1610 2511h414z" />
    <glyph glyph-name="ellipsis" unicode="&#xc9;" horiz-adv-x="2949" 
d="M2638 3027v-3027h-303v2662l-1717 -2662h-307v3027h303v-2511l1610 2511h414zM1110 3678c29.333 -61.333 78.1689 -108 146.502 -140s141.166 -48 218.499 -48c76.667 0 149.5 16.167 218.5 48.5s117.5 78.833 145.5 139.5h258
c-35.333 -138.667 -110.333 -243.667 -225 -315s-247 -107 -397 -107c-150.667 0 -283.334 35.667 -398.001 107s-189.667 176.333 -225 315h258z" />
    <glyph glyph-name="ellipsis" unicode="&#x419;" horiz-adv-x="2949" 
d="M2638 3027v-3027h-303v2662l-1717 -2662h-307v3027h303v-2511l1610 2511h414zM1110 3678c29.333 -61.333 78.1689 -108 146.502 -140s141.166 -48 218.499 -48c76.667 0 149.5 16.167 218.5 48.5s117.5 78.833 145.5 139.5h258
c-35.333 -138.667 -110.333 -243.667 -225 -315s-247 -107 -397 -107c-150.667 0 -283.334 35.667 -398.001 107s-189.667 176.333 -225 315h258z" />
    <glyph glyph-name="nonbreakingspace" unicode="&#xca;" horiz-adv-x="2421" 
d="M311 3027h303v-1741l1397 1741h385l-1196 -1475l1196 -1552h-377l-1011 1311l-394 -484v-827h-303v3027z" />
    <glyph glyph-name="nonbreakingspace" unicode="&#x41a;" horiz-adv-x="2421" 
d="M311 3027h303v-1741l1397 1741h385l-1196 -1475l1196 -1552h-377l-1011 1311l-394 -484v-827h-303v3027z" />
    <glyph glyph-name="Agrave" unicode="&#xcb;" horiz-adv-x="2691" 
d="M2380 3027v-3027h-303v2753h-951l-766 -2753h-319l860 3027h1479z" />
    <glyph glyph-name="Agrave" unicode="&#x41b;" horiz-adv-x="2691" 
d="M2380 3027v-3027h-303v2753h-951l-766 -2753h-319l860 3027h1479z" />
    <glyph glyph-name="Atilde" unicode="&#xcc;" horiz-adv-x="3764" 
d="M311 3027h467l1106 -2576l1102 2576h467v-3027h-303v2691l-1139 -2691h-258l-1139 2691v-2691h-303v3027z" />
    <glyph glyph-name="Atilde" unicode="&#x41c;" horiz-adv-x="3764" 
d="M311 3027h467l1106 -2576l1102 2576h467v-3027h-303v2691l-1139 -2691h-258l-1139 2691v-2691h-303v3027z" />
    <glyph glyph-name="Otilde" unicode="&#xcd;" horiz-adv-x="2798" 
d="M311 3027h303v-1331h1569v1331h303v-3027h-303v1421h-1569v-1421h-303v3027z" />
    <glyph glyph-name="Otilde" unicode="&#x41d;" horiz-adv-x="2798" 
d="M311 3027h303v-1331h1569v1331h303v-3027h-303v1421h-1569v-1421h-303v3027z" />
    <glyph glyph-name="OE" unicode="&#xce;" horiz-adv-x="3559" 
d="M3379 1520c0 -285.333 -72.167 -549 -216.5 -791s-339.666 -432.833 -586 -572.5c-246.333 -139.667 -512.5 -209.5 -798.5 -209.5c-279.333 0 -542 69.333 -788 208s-442.5 327.167 -589.5 565.5s-220.5 497.833 -220.5 778.5c0 286.667 71.833 550.5 215.5 791.5
s338.5 431.5 584.5 571.5s512 210 798 210c281.333 0 545.166 -69.167 791.5 -207.5c246.333 -138.333 442.833 -326.5 589.5 -564.5s220 -498 220 -780zM483 1499c0 -228.667 59.832 -439.333 179.499 -632s279.834 -345.667 480.501 -459s413.667 -170 639 -170
c174 0 340.167 33 498.5 99s297.166 157.833 416.5 275.5c119.333 117.667 212.333 254.5 279 410.5s100 321.667 100 497c0 227.333 -59.333 437.833 -178 631.5s-278 347 -478 460s-412.667 169.5 -638 169.5c-174.667 0 -341 -32.833 -499 -98.5s-297.333 -158 -418 -277
s-214.5 -256.5 -281.5 -412.5s-100.5 -320.667 -100.5 -494z" />
    <glyph glyph-name="OE" unicode="&#x41e;" horiz-adv-x="3559" 
d="M3379 1520c0 -285.333 -72.167 -549 -216.5 -791s-339.666 -432.833 -586 -572.5c-246.333 -139.667 -512.5 -209.5 -798.5 -209.5c-279.333 0 -542 69.333 -788 208s-442.5 327.167 -589.5 565.5s-220.5 497.833 -220.5 778.5c0 286.667 71.833 550.5 215.5 791.5
s338.5 431.5 584.5 571.5s512 210 798 210c281.333 0 545.166 -69.167 791.5 -207.5c246.333 -138.333 442.833 -326.5 589.5 -564.5s220 -498 220 -780zM483 1499c0 -228.667 59.832 -439.333 179.499 -632s279.834 -345.667 480.501 -459s413.667 -170 639 -170
c174 0 340.167 33 498.5 99s297.166 157.833 416.5 275.5c119.333 117.667 212.333 254.5 279 410.5s100 321.667 100 497c0 227.333 -59.333 437.833 -178 631.5s-278 347 -478 460s-412.667 169.5 -638 169.5c-174.667 0 -341 -32.833 -499 -98.5s-297.333 -158 -418 -277
s-214.5 -256.5 -281.5 -412.5s-100.5 -320.667 -100.5 -494z" />
    <glyph glyph-name="oe" unicode="&#xcf;" horiz-adv-x="2798" 
d="M311 3027h2175v-3027h-303v2753h-1569v-2753h-303v3027z" />
    <glyph glyph-name="oe" unicode="&#x41f;" horiz-adv-x="2798" 
d="M311 3027h2175v-3027h-303v2753h-1569v-2753h-303v3027z" />
    <glyph glyph-name="emdash" unicode="&#xd0;" horiz-adv-x="2425" 
d="M311 3027h795c115.333 -1.33301 217 -5.16602 305 -11.5c88 -6.33301 175.167 -21.166 261.5 -44.5c86.333 -23.333 167.833 -59.333 244.5 -108c128.667 -80.667 227 -186.5 295 -317.5s102 -273.5 102 -427.5c0 -300 -114.667 -533.667 -344 -701
c-106.667 -78.667 -222.5 -131 -347.5 -157s-271.167 -39 -438.5 -39h-570v-1221h-303v3027zM1135 1495c133.333 0 247.667 7.66797 343 23.001s184.333 48.666 267 99.999c84 52 149.333 123.5 196 214.5s70 187.5 70 289.5c0 130 -33.167 244.5 -99.5 343.5
s-158.833 172.833 -277.5 221.5c-110.667 46.667 -252.667 70 -426 70c-22.667 0 -57 -0.666992 -103 -2s-79.667 -2 -101 -2h-390v-1258h521z" />
    <glyph glyph-name="emdash" unicode="&#x420;" horiz-adv-x="2425" 
d="M311 3027h795c115.333 -1.33301 217 -5.16602 305 -11.5c88 -6.33301 175.167 -21.166 261.5 -44.5c86.333 -23.333 167.833 -59.333 244.5 -108c128.667 -80.667 227 -186.5 295 -317.5s102 -273.5 102 -427.5c0 -300 -114.667 -533.667 -344 -701
c-106.667 -78.667 -222.5 -131 -347.5 -157s-271.167 -39 -438.5 -39h-570v-1221h-303v3027zM1135 1495c133.333 0 247.667 7.66797 343 23.001s184.333 48.666 267 99.999c84 52 149.333 123.5 196 214.5s70 187.5 70 289.5c0 130 -33.167 244.5 -99.5 343.5
s-158.833 172.833 -277.5 221.5c-110.667 46.667 -252.667 70 -426 70c-22.667 0 -57 -0.666992 -103 -2s-79.667 -2 -101 -2h-390v-1258h521z" />
    <glyph glyph-name="endash" unicode="&#xd1;" horiz-adv-x="3330" 
d="M2806 2249c-74 112 -167.837 208.497 -281.504 289.497s-237.334 142.333 -371 184c-133.667 41.667 -268.5 62.5 -404.5 62.5c-223.333 0 -432.5 -58.5 -627.5 -175.5s-350.167 -273 -465.5 -468s-173 -400.833 -173 -617.5c0 -230 58.833 -443.833 176.5 -641.5
s275.834 -354.5 474.501 -470.5s410.334 -174 635.001 -174c203.333 0 399 50.333 587 151s342 234.667 462 402h336c-87.333 -167.333 -203.166 -314.666 -347.5 -441.999c-144.333 -127.333 -306.166 -226.166 -485.499 -296.499s-363.333 -105.5 -552 -105.5
c-218 0 -423.667 39.667 -617 119s-363.166 190.833 -509.499 334.5s-260 312.334 -341 506.001s-121.5 399.5 -121.5 617.5c0 280.667 70.333 540 211 778s331 426.5 571 565.5s501 208.5 783 208.5c327.333 0 618 -84.667 872 -254
c107.333 -67.333 212.166 -154 314.5 -260c102.333 -106 172.5 -210.333 210.5 -313h-336z" />
    <glyph glyph-name="endash" unicode="&#x421;" horiz-adv-x="3330" 
d="M2806 2249c-74 112 -167.837 208.497 -281.504 289.497s-237.334 142.333 -371 184c-133.667 41.667 -268.5 62.5 -404.5 62.5c-223.333 0 -432.5 -58.5 -627.5 -175.5s-350.167 -273 -465.5 -468s-173 -400.833 -173 -617.5c0 -230 58.833 -443.833 176.5 -641.5
s275.834 -354.5 474.501 -470.5s410.334 -174 635.001 -174c203.333 0 399 50.333 587 151s342 234.667 462 402h336c-87.333 -167.333 -203.166 -314.666 -347.5 -441.999c-144.333 -127.333 -306.166 -226.166 -485.499 -296.499s-363.333 -105.5 -552 -105.5
c-218 0 -423.667 39.667 -617 119s-363.166 190.833 -509.499 334.5s-260 312.334 -341 506.001s-121.5 399.5 -121.5 617.5c0 280.667 70.333 540 211 778s331 426.5 571 565.5s501 208.5 783 208.5c327.333 0 618 -84.667 872 -254
c107.333 -67.333 212.166 -154 314.5 -260c102.333 -106 172.5 -210.333 210.5 -313h-336z" />
    <glyph glyph-name="quotedblleft" unicode="&#xd2;" horiz-adv-x="1745" 
d="M721 2753h-692v274h1687v-274h-692v-2753h-303v2753z" />
    <glyph glyph-name="quotedblleft" unicode="&#x422;" horiz-adv-x="1745" 
d="M721 2753h-692v274h1687v-274h-692v-2753h-303v2753z" />
    <glyph glyph-name="quotedblright" unicode="&#xd3;" horiz-adv-x="2785" 
d="M1327 430l-1319 2597h332l1135 -2241l942 2241h336l-1311 -3027h-307z" />
    <glyph glyph-name="quotedblright" unicode="&#x423;" horiz-adv-x="2785" 
d="M1327 430l-1319 2597h332l1135 -2241l942 2241h336l-1311 -3027h-307z" />
    <glyph glyph-name="quoteleft" unicode="&#xd4;" horiz-adv-x="3867" 
d="M2089 -53h-311c-279.333 0 -542 69.333 -788 208s-442.5 327.167 -589.5 565.5s-220.5 497.833 -220.5 778.5c0 286.667 71.833 550.5 215.5 791.5s338.5 431.5 584.5 571.5s512 210 798 210h311c286 0 551.833 -69.833 797.5 -209.5s440.334 -330.167 584 -571.5
c143.667 -241.333 215.5 -505.333 215.5 -792c0 -210.667 -42.5 -411 -127.5 -601s-202.333 -356.333 -352 -499s-321.334 -253.667 -515 -333c-193.667 -79.333 -394.5 -119 -602.5 -119zM2085 2781v-2543c225.333 0 438.166 56.5 638.5 169.5
c200.333 113 360.333 266.167 480 459.5s179.5 404 179.5 632c0 174.667 -33.5 339.834 -100.5 495.501s-160.667 292.834 -281 411.5c-120.333 118.667 -259.333 210.834 -417 276.5c-157.667 65.667 -324.167 98.5 -499.5 98.5zM1782 2781
c-174.667 0 -341.001 -32.832 -499.001 -98.499s-297.333 -158 -418 -277s-214.5 -256.5 -281.5 -412.5s-100.5 -320.667 -100.5 -494c0 -228.667 59.833 -439.334 179.5 -632.001s279.834 -345.667 480.501 -459s413.667 -170 639 -170v2543z" />
    <glyph glyph-name="quoteleft" unicode="&#x424;" horiz-adv-x="3867" 
d="M2089 -53h-311c-279.333 0 -542 69.333 -788 208s-442.5 327.167 -589.5 565.5s-220.5 497.833 -220.5 778.5c0 286.667 71.833 550.5 215.5 791.5s338.5 431.5 584.5 571.5s512 210 798 210h311c286 0 551.833 -69.833 797.5 -209.5s440.334 -330.167 584 -571.5
c143.667 -241.333 215.5 -505.333 215.5 -792c0 -210.667 -42.5 -411 -127.5 -601s-202.333 -356.333 -352 -499s-321.334 -253.667 -515 -333c-193.667 -79.333 -394.5 -119 -602.5 -119zM2085 2781v-2543c225.333 0 438.166 56.5 638.5 169.5
c200.333 113 360.333 266.167 480 459.5s179.5 404 179.5 632c0 174.667 -33.5 339.834 -100.5 495.501s-160.667 292.834 -281 411.5c-120.333 118.667 -259.333 210.834 -417 276.5c-157.667 65.667 -324.167 98.5 -499.5 98.5zM1782 2781
c-174.667 0 -341.001 -32.832 -499.001 -98.499s-297.333 -158 -418 -277s-214.5 -256.5 -281.5 -412.5s-100.5 -320.667 -100.5 -494c0 -228.667 59.833 -439.334 179.5 -632.001s279.834 -345.667 480.501 -459s413.667 -170 639 -170v2543z" />
    <glyph glyph-name="quoteright" unicode="&#xd5;" horiz-adv-x="2494" 
d="M1061 1548l-967 1479h352l803 -1212l799 1212h352l-979 -1479l1041 -1548h-357l-856 1294l-860 -1294h-356z" />
    <glyph glyph-name="quoteright" unicode="&#x425;" horiz-adv-x="2494" 
d="M1061 1548l-967 1479h352l803 -1212l799 1212h352l-979 -1479l1041 -1548h-357l-856 1294l-860 -1294h-356z" />
    <glyph glyph-name="divide" unicode="&#xd6;" horiz-adv-x="2798" 
d="M311 0v3027h303v-2753h1569v2753h303v-2753h205v-274h-2380z" />
    <glyph glyph-name="divide" unicode="&#x426;" horiz-adv-x="2798" 
d="M311 0v3027h303v-2753h1569v2753h303v-2753h205v-274h-2380z" />
    <glyph glyph-name="lozenge" unicode="&#xd7;" horiz-adv-x="2568" 
d="M201 3027h303.001v-1126c0 -104 24.333 -194.5 73 -271.5s115.334 -135.667 200.001 -176s178 -60.5 280 -60.5c329.333 0 629.666 103.667 900.999 311v1323h303v-3027h-303v1413c-312.667 -204.667 -633.667 -307 -963 -307c-106.667 0 -207.334 17.333 -302.001 52
s-179.5 85.667 -254.5 153s-133.333 147.5 -175 240.5s-62.5 195.833 -62.5 308.5v1167z" />
    <glyph glyph-name="lozenge" unicode="&#x427;" horiz-adv-x="2568" 
d="M201 3027h303.001v-1126c0 -104 24.333 -194.5 73 -271.5s115.334 -135.667 200.001 -176s178 -60.5 280 -60.5c329.333 0 629.666 103.667 900.999 311v1323h303v-3027h-303v1413c-312.667 -204.667 -633.667 -307 -963 -307c-106.667 0 -207.334 17.333 -302.001 52
s-179.5 85.667 -254.5 153s-133.333 147.5 -175 240.5s-62.5 195.833 -62.5 308.5v1167z" />
    <glyph glyph-name="ydieresis" unicode="&#xd8;" horiz-adv-x="3777" 
d="M311 0v3027h303v-2753h1123v2753h303v-2753h1122v2753h303v-3027h-3154z" />
    <glyph glyph-name="ydieresis" unicode="&#x428;" horiz-adv-x="3777" 
d="M311 0v3027h303v-2753h1123v2753h303v-2753h1122v2753h303v-3027h-3154z" />
    <glyph glyph-name="Ydieresis" unicode="&#xd9;" horiz-adv-x="3777" 
d="M311 0v3027h303v-2753h1123v2753h303v-2753h1122v2753h303v-2753h205v-274h-3359z" />
    <glyph glyph-name="Ydieresis" unicode="&#x429;" horiz-adv-x="3777" 
d="M311 0v3027h303v-2753h1123v2753h303v-2753h1122v2753h303v-2753h205v-274h-3359z" />
    <glyph glyph-name="fraction" unicode="&#xda;" horiz-adv-x="2683" 
d="M569 2753l-540 -0.00195312v274h843v-1221h570c166.667 0 313 -13.167 439 -39.5s241.667 -78.5 347 -156.5c229.333 -167.333 344 -401 344 -701c0 -154 -34.333 -296.667 -103 -428s-166.667 -237 -294 -317c-76.667 -48.667 -158.167 -84.667 -244.5 -108
s-173.5 -38.166 -261.5 -44.499s-189.667 -10.166 -305 -11.499h-795v2753zM1393 1532l-521.001 -0.000976562v-1258h390c21.333 0 55 -0.666992 101 -2s80.333 -2 103 -2c173.333 0 315.333 23.333 426 70c118.667 48.667 211.167 122.334 277.5 221.001
s99.5 213.334 99.5 344.001c0 102 -23.333 198.5 -70 289.5s-112 162.5 -196 214.5c-80.667 51.333 -169.167 84.666 -265.5 99.999s-211.166 23 -344.499 23z" />
    <glyph glyph-name="fraction" unicode="&#x42a;" horiz-adv-x="2683" 
d="M569 2753l-540 -0.00195312v274h843v-1221h570c166.667 0 313 -13.167 439 -39.5s241.667 -78.5 347 -156.5c229.333 -167.333 344 -401 344 -701c0 -154 -34.333 -296.667 -103 -428s-166.667 -237 -294 -317c-76.667 -48.667 -158.167 -84.667 -244.5 -108
s-173.5 -38.166 -261.5 -44.499s-189.667 -10.166 -305 -11.499h-795v2753zM1393 1532l-521.001 -0.000976562v-1258h390c21.333 0 55 -0.666992 101 -2s80.333 -2 103 -2c173.333 0 315.333 23.333 426 70c118.667 48.667 211.167 122.334 277.5 221.001
s99.5 213.334 99.5 344.001c0 102 -23.333 198.5 -70 289.5s-112 162.5 -196 214.5c-80.667 51.333 -169.167 84.666 -265.5 99.999s-211.166 23 -344.499 23z" />
    <glyph glyph-name="currency" unicode="&#xdb;" horiz-adv-x="3351" 
d="M311 0v3027h303v-1221h570c166.667 0 313 -13.167 439 -39.5s241.667 -78.5 347 -156.5c229.333 -167.333 344 -401 344 -701c0 -154 -34.333 -296.667 -103 -428s-166.667 -237 -294 -317c-76.667 -48.667 -158.167 -84.667 -244.5 -108s-173.5 -38.166 -261.5 -44.499
s-189.667 -10.166 -305 -11.499h-795zM2736 3027h303v-3027h-303v3027zM1135 1532l-521.001 -0.000976562v-1258h390c21.333 0 55 -0.666992 101 -2s80.333 -2 103 -2c173.333 0 315.333 23.333 426 70c118.667 48.667 211.167 122.334 277.5 221.001
s99.5 213.334 99.5 344.001c0 102 -23.333 198.5 -70 289.5s-112 162.5 -196 214.5c-80.667 51.333 -169.167 84.666 -265.5 99.999s-211.166 23 -344.499 23z" />
    <glyph glyph-name="currency" unicode="&#x42b;" horiz-adv-x="3351" 
d="M311 0v3027h303v-1221h570c166.667 0 313 -13.167 439 -39.5s241.667 -78.5 347 -156.5c229.333 -167.333 344 -401 344 -701c0 -154 -34.333 -296.667 -103 -428s-166.667 -237 -294 -317c-76.667 -48.667 -158.167 -84.667 -244.5 -108s-173.5 -38.166 -261.5 -44.499
s-189.667 -10.166 -305 -11.499h-795zM2736 3027h303v-3027h-303v3027zM1135 1532l-521.001 -0.000976562v-1258h390c21.333 0 55 -0.666992 101 -2s80.333 -2 103 -2c173.333 0 315.333 23.333 426 70c118.667 48.667 211.167 122.334 277.5 221.001
s99.5 213.334 99.5 344.001c0 102 -23.333 198.5 -70 289.5s-112 162.5 -196 214.5c-80.667 51.333 -169.167 84.666 -265.5 99.999s-211.166 23 -344.499 23z" />
    <glyph glyph-name="guilsinglleft" unicode="&#xdc;" horiz-adv-x="2425" 
d="M311 0v3027h303v-1221h570c166.667 0 313 -13.167 439 -39.5s241.667 -78.5 347 -156.5c229.333 -167.333 344 -401 344 -701c0 -154 -34.333 -296.667 -103 -428s-166.667 -237 -294 -317c-76.667 -48.667 -158.167 -84.667 -244.5 -108s-173.5 -38.166 -261.5 -44.499
s-189.667 -10.166 -305 -11.499h-795zM1135 1532l-521.001 -0.000976562v-1258h390c21.333 0 55 -0.666992 101 -2s80.333 -2 103 -2c173.333 0 315.333 23.333 426 70c118.667 48.667 211.167 122.334 277.5 221.001s99.5 213.334 99.5 344.001
c0 102 -23.333 198.5 -70 289.5s-112 162.5 -196 214.5c-80.667 51.333 -169.167 84.666 -265.5 99.999s-211.166 23 -344.499 23z" />
    <glyph glyph-name="guilsinglleft" unicode="&#x42c;" horiz-adv-x="2425" 
d="M311 0v3027h303v-1221h570c166.667 0 313 -13.167 439 -39.5s241.667 -78.5 347 -156.5c229.333 -167.333 344 -401 344 -701c0 -154 -34.333 -296.667 -103 -428s-166.667 -237 -294 -317c-76.667 -48.667 -158.167 -84.667 -244.5 -108s-173.5 -38.166 -261.5 -44.499
s-189.667 -10.166 -305 -11.499h-795zM1135 1532l-521.001 -0.000976562v-1258h390c21.333 0 55 -0.666992 101 -2s80.333 -2 103 -2c173.333 0 315.333 23.333 426 70c118.667 48.667 211.167 122.334 277.5 221.001s99.5 213.334 99.5 344.001
c0 102 -23.333 198.5 -70 289.5s-112 162.5 -196 214.5c-80.667 51.333 -169.167 84.666 -265.5 99.999s-211.166 23 -344.499 23z" />
    <glyph glyph-name="guilsinglright" unicode="&#xdd;" horiz-adv-x="3330" 
d="M2834 1696c-30 194.667 -104.831 375.666 -224.498 543c-119.667 167.333 -270.167 300.166 -451.5 398.5c-181.333 98.333 -373.666 147.5 -576.999 147.5c-136 0 -270.833 -20.833 -404.5 -62.5s-257.334 -103 -371.001 -184s-207.5 -177.5 -281.5 -289.5h-336
c38 102.667 107.667 206.5 209 311.5s206.666 192.167 315.999 261.5c254 169.333 544.667 254 872 254c282 0 543 -69.5 783 -208.5s430.333 -327.5 571 -565.5s211 -497.333 211 -778c0 -218 -40.5 -424 -121.5 -618s-194.5 -362.667 -340.5 -506
s-315.833 -254.666 -509.5 -333.999s-399.5 -119 -617.5 -119c-142 0 -281.833 20.167 -419.5 60.5s-266.834 97.5 -387.501 171.5s-230.5 162.833 -329.5 266.5s-181.833 218.834 -248.5 345.501h336c120 -167.333 274 -301.333 462 -402s383.667 -151 587 -151
c214 0 416.333 52.667 607 158s346.334 248.666 467 429.999c120.667 181.333 190 379.666 208 594.999h-1901v275h1892z" />
    <glyph glyph-name="guilsinglright" unicode="&#x42d;" horiz-adv-x="3330" 
d="M2834 1696c-30 194.667 -104.831 375.666 -224.498 543c-119.667 167.333 -270.167 300.166 -451.5 398.5c-181.333 98.333 -373.666 147.5 -576.999 147.5c-136 0 -270.833 -20.833 -404.5 -62.5s-257.334 -103 -371.001 -184s-207.5 -177.5 -281.5 -289.5h-336
c38 102.667 107.667 206.5 209 311.5s206.666 192.167 315.999 261.5c254 169.333 544.667 254 872 254c282 0 543 -69.5 783 -208.5s430.333 -327.5 571 -565.5s211 -497.333 211 -778c0 -218 -40.5 -424 -121.5 -618s-194.5 -362.667 -340.5 -506
s-315.833 -254.666 -509.5 -333.999s-399.5 -119 -617.5 -119c-142 0 -281.833 20.167 -419.5 60.5s-266.834 97.5 -387.501 171.5s-230.5 162.833 -329.5 266.5s-181.833 218.834 -248.5 345.501h336c120 -167.333 274 -301.333 462 -402s383.667 -151 587 -151
c214 0 416.333 52.667 607 158s346.334 248.666 467 429.999c120.667 181.333 190 379.666 208 594.999h-1901v275h1892z" />
    <glyph glyph-name="fi" unicode="&#xde;" horiz-adv-x="4313" 
d="M934 1421h-320.003v-1421h-303v3027h303v-1331h332c24.667 194 82.334 374.667 173.001 542s207.834 313.666 351.501 439c143.667 125.333 306.334 222.5 488.001 291.5s372.5 103.5 572.5 103.5c281.333 0 545.333 -69.167 792 -207.5s443.334 -326.5 590 -564.5
c146.667 -238 220 -498 220 -780c0 -285.333 -72.167 -549 -216.5 -791s-339.666 -432.833 -586 -572.5c-246.333 -139.667 -512.833 -209.5 -799.5 -209.5c-270 0 -525.333 65.167 -766 195.5s-435.667 308.5 -585 534.5s-231.333 474 -246 744zM2535 2785
c-232.667 -0.666992 -448.833 -58.832 -648.5 -174.499s-357.834 -272.167 -474.501 -469.5s-175 -411.333 -175 -642c0 -228 59.833 -438.667 179.5 -632s279.667 -346.5 480 -459.5s413.166 -169.5 638.5 -169.5c174.667 0 341.334 33.167 500.001 99.5
s297.5 158.166 416.5 275.499s211.833 254 278.5 410s100 321.667 100 497c0 228 -59.167 438.667 -177.5 632s-277.5 346.5 -477.5 459.5s-413.333 169.5 -640 169.5v4z" />
    <glyph glyph-name="fi" unicode="&#x42e;" horiz-adv-x="4313" 
d="M934 1421h-320.003v-1421h-303v3027h303v-1331h332c24.667 194 82.334 374.667 173.001 542s207.834 313.666 351.501 439c143.667 125.333 306.334 222.5 488.001 291.5s372.5 103.5 572.5 103.5c281.333 0 545.333 -69.167 792 -207.5s443.334 -326.5 590 -564.5
c146.667 -238 220 -498 220 -780c0 -285.333 -72.167 -549 -216.5 -791s-339.666 -432.833 -586 -572.5c-246.333 -139.667 -512.833 -209.5 -799.5 -209.5c-270 0 -525.333 65.167 -766 195.5s-435.667 308.5 -585 534.5s-231.333 474 -246 744zM2535 2785
c-232.667 -0.666992 -448.833 -58.832 -648.5 -174.499s-357.834 -272.167 -474.501 -469.5s-175 -411.333 -175 -642c0 -228 59.833 -438.667 179.5 -632s279.667 -346.5 480 -459.5s413.166 -169.5 638.5 -169.5c174.667 0 341.334 33.167 500.001 99.5
s297.5 158.166 416.5 275.499s211.833 254 278.5 410s100 321.667 100 497c0 228 -59.167 438.667 -177.5 632s-277.5 346.5 -477.5 459.5s-413.333 169.5 -640 169.5v4z" />
    <glyph glyph-name="fl" unicode="&#xdf;" horiz-adv-x="2486" 
d="M2175 3027l0.00390625 -3027h-303v2753h-479c-160 0 -291.833 -8 -395.5 -24s-199.834 -56 -288.501 -120c-86.667 -59.333 -155.5 -138.333 -206.5 -237s-76.5 -200 -76.5 -304c0 -136 34.5 -258 103.5 -366s165.5 -190.667 289.5 -248
c87.333 -35.333 182.333 -57.833 285 -67.5s227.667 -14.5 375 -14.5h90l-1028 -1372h-377l852 1130c-162 4 -311.5 47.333 -448.5 130s-245.333 192.834 -325 330.501s-119.5 287.5 -119.5 449.5c0 178.667 40.667 341.5 122 488.5s197.666 263.833 348.999 350.5
c113.333 64 237.166 104.667 371.499 122s297.166 26 488.499 26h721z" />
    <glyph glyph-name="fl" unicode="&#x42f;" horiz-adv-x="2486" 
d="M2175 3027l0.00390625 -3027h-303v2753h-479c-160 0 -291.833 -8 -395.5 -24s-199.834 -56 -288.501 -120c-86.667 -59.333 -155.5 -138.333 -206.5 -237s-76.5 -200 -76.5 -304c0 -136 34.5 -258 103.5 -366s165.5 -190.667 289.5 -248
c87.333 -35.333 182.333 -57.833 285 -67.5s227.667 -14.5 375 -14.5h90l-1028 -1372h-377l852 1130c-162 4 -311.5 47.333 -448.5 130s-245.333 192.834 -325 330.501s-119.5 287.5 -119.5 449.5c0 178.667 40.667 341.5 122 488.5s197.666 263.833 348.999 350.5
c113.333 64 237.166 104.667 371.499 122s297.166 26 488.499 26h721z" />
    <glyph glyph-name="daggerdbl" unicode="&#xe0;" horiz-adv-x="2798" 
d="M2540 0h-291.002v422c-56 -102.667 -129 -189.5 -219 -260.5s-191.5 -124.5 -304.5 -160.5s-228.167 -54 -345.5 -54c-174.667 0 -348 39.5 -520 118.5s-327.667 197.833 -467 356.5c-51.333 56 -101 150.5 -149 283.5s-72 276.167 -72 429.5
c0 136 26.833 272.333 80.5 409s104.834 227 153.501 271c294.667 316.667 616.667 475 966 475c184.667 0 356.834 -40.833 516.501 -122.5s279.834 -199.167 360.5 -352.5v426h291v-2241zM474.998 1110c0 -158.667 41.832 -305.165 125.499 -439.498
s195.167 -240 334.5 -317s287.666 -115.5 444.999 -115.5c152.667 0 295.834 39.667 429.501 119s240.334 185.666 320.001 318.999s119.5 276.666 119.5 429.999c0 161.333 -38.333 310.833 -115 448.5s-182.334 246.167 -317.001 325.5s-283 119 -445 119
c-161.333 0 -310.666 -39.5 -447.999 -118.5s-246.5 -186.833 -327.5 -323.5s-121.5 -285.667 -121.5 -447z" />
    <glyph glyph-name="daggerdbl" unicode="&#x430;" horiz-adv-x="2798" 
d="M2540 0h-291.002v422c-56 -102.667 -129 -189.5 -219 -260.5s-191.5 -124.5 -304.5 -160.5s-228.167 -54 -345.5 -54c-174.667 0 -348 39.5 -520 118.5s-327.667 197.833 -467 356.5c-51.333 56 -101 150.5 -149 283.5s-72 276.167 -72 429.5
c0 136 26.833 272.333 80.5 409s104.834 227 153.501 271c294.667 316.667 616.667 475 966 475c184.667 0 356.834 -40.833 516.501 -122.5s279.834 -199.167 360.5 -352.5v426h291v-2241zM474.998 1110c0 -158.667 41.832 -305.165 125.499 -439.498
s195.167 -240 334.5 -317s287.666 -115.5 444.999 -115.5c152.667 0 295.834 39.667 429.501 119s240.334 185.666 320.001 318.999s119.5 276.666 119.5 429.999c0 161.333 -38.333 310.833 -115 448.5s-182.334 246.167 -317.001 325.5s-283 119 -445 119
c-161.333 0 -310.666 -39.5 -447.999 -118.5s-246.5 -186.833 -327.5 -323.5s-121.5 -285.667 -121.5 -447z" />
    <glyph glyph-name="periodcentered" unicode="&#xe1;" horiz-adv-x="2683" 
d="M623 2703c95.333 94 202.837 168.165 322.504 222.498s240.667 97 363 128l383.5 101.5c133.333 36.667 231.666 78.667 294.999 126c92.667 70.667 139 132 139 184l213 -151c0 -74.667 -52 -158 -156 -250c-68 -60.667 -153.833 -110.834 -257.5 -150.501
s-242.334 -84.167 -416.001 -133.5s-312.167 -94.833 -415.5 -136.5s-188 -95.5 -254 -161.5c-88 -88 -159.333 -186 -214 -294s-91.334 -206.667 -110.001 -296c85.333 116.667 199.166 212.167 341.499 286.501c142.333 74.333 309.833 111.5 502.5 111.5
c153.333 0 300.333 -30.167 441 -90.5s265.5 -144.5 374.5 -252.5s194.167 -232.333 255.5 -373s92 -287 92 -439c0 -209.333 -52 -405.666 -156 -588.999s-245.5 -329 -424.5 -437s-373.167 -162 -582.5 -162c-207.333 0 -401.5 51.833 -582.5 155.5
s-325.167 244.667 -432.5 423s-161 371.833 -161 580.5c0 158.667 5 306.834 15 444.501s30.667 279.5 62 425.5s76 280.333 134 403s134 230.667 228 324zM487.004 1106c0 -157.333 39.3301 -302.498 117.997 -435.498s185 -238.333 319 -316s279.333 -116.5 436 -116.5
c162.667 0 309.834 40.5 441.501 121.5s234.334 190.5 308.001 328.5s110.5 287 110.5 447c0 245.333 -87.333 451.333 -262 618c-82 78 -174.667 138.5 -278 181.5s-210 64.5 -320 64.5c-160.667 0 -308.167 -40.333 -442.5 -121s-239.666 -189.834 -315.999 -327.501
s-114.5 -285.834 -114.5 -444.501z" />
    <glyph glyph-name="periodcentered" unicode="&#x431;" horiz-adv-x="2683" 
d="M623 2703c95.333 94 202.837 168.165 322.504 222.498s240.667 97 363 128l383.5 101.5c133.333 36.667 231.666 78.667 294.999 126c92.667 70.667 139 132 139 184l213 -151c0 -74.667 -52 -158 -156 -250c-68 -60.667 -153.833 -110.834 -257.5 -150.501
s-242.334 -84.167 -416.001 -133.5s-312.167 -94.833 -415.5 -136.5s-188 -95.5 -254 -161.5c-88 -88 -159.333 -186 -214 -294s-91.334 -206.667 -110.001 -296c85.333 116.667 199.166 212.167 341.499 286.501c142.333 74.333 309.833 111.5 502.5 111.5
c153.333 0 300.333 -30.167 441 -90.5s265.5 -144.5 374.5 -252.5s194.167 -232.333 255.5 -373s92 -287 92 -439c0 -209.333 -52 -405.666 -156 -588.999s-245.5 -329 -424.5 -437s-373.167 -162 -582.5 -162c-207.333 0 -401.5 51.833 -582.5 155.5
s-325.167 244.667 -432.5 423s-161 371.833 -161 580.5c0 158.667 5 306.834 15 444.501s30.667 279.5 62 425.5s76 280.333 134 403s134 230.667 228 324zM487.004 1106c0 -157.333 39.3301 -302.498 117.997 -435.498s185 -238.333 319 -316s279.333 -116.5 436 -116.5
c162.667 0 309.834 40.5 441.501 121.5s234.334 190.5 308.001 328.5s110.5 287 110.5 447c0 245.333 -87.333 451.333 -262 618c-82 78 -174.667 138.5 -278 181.5s-210 64.5 -320 64.5c-160.667 0 -308.167 -40.333 -442.5 -121s-239.666 -189.834 -315.999 -327.501
s-114.5 -285.834 -114.5 -444.501z" />
    <glyph glyph-name="quotesinglbase" unicode="&#xe2;" horiz-adv-x="1868" 
d="M258 2241l549.003 0.00195312c221.333 0 390.666 -38.333 507.999 -115c85.333 -54 152.333 -125.167 201 -213.5s73 -183.833 73 -286.5c0 -168.667 -66.667 -309.334 -200 -422.001c101.333 -52.667 179.833 -128 235.5 -226s83.5 -207 83.5 -327
c0 -108 -25.167 -208.833 -75.5 -302.5s-120.833 -168.834 -211.5 -225.501v4c-62.667 -40 -126.334 -68.833 -191.001 -86.5s-127.834 -28.5 -189.501 -32.5s-139.5 -6.66699 -233.5 -8h-549v2241zM1221 336.002l-3.99805 -0.000976562
c54.667 28.667 99.667 72.334 135 131.001s53 118.667 53 180c0 84.667 -21 158 -63 220s-100.333 106 -175 132c-84.667 27.333 -225.334 41 -422.001 41h-188v-761h225c213.333 0 359.666 19 438.999 57zM1139 1376c46 24.667 83.333 62.168 112 112.501
s43 101.5 43 153.5c0 50 -14.333 100.167 -43 150.5s-64.667 89.166 -108 116.499v-4c-68.667 38 -193 57 -373 57h-4h-209v-643h193c188 0 317.667 19 389 57z" />
    <glyph glyph-name="quotesinglbase" unicode="&#x432;" horiz-adv-x="1868" 
d="M258 2241l549.003 0.00195312c221.333 0 390.666 -38.333 507.999 -115c85.333 -54 152.333 -125.167 201 -213.5s73 -183.833 73 -286.5c0 -168.667 -66.667 -309.334 -200 -422.001c101.333 -52.667 179.833 -128 235.5 -226s83.5 -207 83.5 -327
c0 -108 -25.167 -208.833 -75.5 -302.5s-120.833 -168.834 -211.5 -225.501v4c-62.667 -40 -126.334 -68.833 -191.001 -86.5s-127.834 -28.5 -189.501 -32.5s-139.5 -6.66699 -233.5 -8h-549v2241zM1221 336.002l-3.99805 -0.000976562
c54.667 28.667 99.667 72.334 135 131.001s53 118.667 53 180c0 84.667 -21 158 -63 220s-100.333 106 -175 132c-84.667 27.333 -225.334 41 -422.001 41h-188v-761h225c213.333 0 359.666 19 438.999 57zM1139 1376c46 24.667 83.333 62.168 112 112.501
s43 101.5 43 153.5c0 50 -14.333 100.167 -43 150.5s-64.667 89.166 -108 116.499v-4c-68.667 38 -193 57 -373 57h-4h-209v-643h193c188 0 317.667 19 389 57z" />
    <glyph glyph-name="quotedblbase" unicode="&#xe3;" horiz-adv-x="1769" 
d="M262 2241h1397v-271h-1098v-1970h-299v2241z" />
    <glyph glyph-name="quotedblbase" unicode="&#x433;" horiz-adv-x="1769" 
d="M262 2241h1397v-271h-1098v-1970h-299v2241z" />
    <glyph glyph-name="perthousand" unicode="&#xe4;" horiz-adv-x="2015" 
d="M639 2241h1098v-1962h147v-279h-1925v279h123zM1442 1962h-578l-149.5 -538.5l-231 -829c-59 -210.333 -89.167 -315.5 -90.5 -315.5h1049v1683z" />
    <glyph glyph-name="perthousand" unicode="&#x434;" horiz-adv-x="2015" 
d="M639 2241h1098v-1962h147v-279h-1925v279h123zM1442 1962h-578l-149.5 -538.5l-231 -829c-59 -210.333 -89.167 -315.5 -90.5 -315.5h1049v1683z" />
    <glyph glyph-name="Acircumflex" unicode="&#xe5;" horiz-adv-x="2662" 
d="M475 1012c6 -137.333 49.6631 -265.504 130.996 -384.504s186.333 -213.667 315 -284s261.334 -105.5 398.001 -105.5c112 0 221.167 19.833 327.5 59.5s201.333 96.834 285 171.501s147.167 161.334 190.5 260.001h315c-52 -148.667 -133.667 -282.5 -245 -401.5
s-241 -212.167 -389 -279.5s-299.667 -101 -455 -101c-214.667 0 -412.167 52 -592.5 156s-322.666 245.5 -426.999 424.5s-156.5 375.833 -156.5 590.5c0 212.667 52 409.167 156 589.5s245.333 322.5 424 426.5s374.334 156 587.001 156
c175.333 0 341.333 -38.167 498 -114.5s291.334 -183.166 404.001 -320.499c96 -119.333 162.5 -245.166 199.5 -377.499s57.833 -287.5 62.5 -465.5h-2028zM2200 1286c-26 132 -80.666 252.168 -163.999 360.501s-185.833 194.166 -307.5 257.499s-250.167 95 -385.5 95
c-138 0 -269.167 -30.5 -393.5 -91.5s-228.333 -146 -312 -255s-137.834 -231.167 -162.501 -366.5h1725z" />
    <glyph glyph-name="Acircumflex" unicode="&#x435;" horiz-adv-x="2662" 
d="M475 1012c6 -137.333 49.6631 -265.504 130.996 -384.504s186.333 -213.667 315 -284s261.334 -105.5 398.001 -105.5c112 0 221.167 19.833 327.5 59.5s201.333 96.834 285 171.501s147.167 161.334 190.5 260.001h315c-52 -148.667 -133.667 -282.5 -245 -401.5
s-241 -212.167 -389 -279.5s-299.667 -101 -455 -101c-214.667 0 -412.167 52 -592.5 156s-322.666 245.5 -426.999 424.5s-156.5 375.833 -156.5 590.5c0 212.667 52 409.167 156 589.5s245.333 322.5 424 426.5s374.334 156 587.001 156
c175.333 0 341.333 -38.167 498 -114.5s291.334 -183.166 404.001 -320.499c96 -119.333 162.5 -245.166 199.5 -377.499s57.833 -287.5 62.5 -465.5h-2028zM2200 1286c-26 132 -80.666 252.168 -163.999 360.501s-185.833 194.166 -307.5 257.499s-250.167 95 -385.5 95
c-138 0 -269.167 -30.5 -393.5 -91.5s-228.333 -146 -312 -255s-137.834 -231.167 -162.501 -366.5h1725z" />
    <glyph glyph-name="Ecircumflex" unicode="&#xe6;" horiz-adv-x="2818" 
d="M1561 1204c0 0.666992 65.833 87.5 197.5 260.5l351.5 461l241 315.5h389l-868 -1123l926 -1118h-390l-847 1020v-1020h-304v1020l-847 -1020h-390l926 1118l-868 1123h389l241 -315.5l351.5 -461c131.667 -173 197.5 -259.833 197.5 -260.5v1037h304v-1037z" />
    <glyph glyph-name="Ecircumflex" unicode="&#x436;" horiz-adv-x="2818" 
d="M1561 1204c0 0.666992 65.833 87.5 197.5 260.5l351.5 461l241 315.5h389l-868 -1123l926 -1118h-390l-847 1020v-1020h-304v1020l-847 -1020h-390l926 1118l-868 1123h389l241 -315.5l351.5 -461c131.667 -173 197.5 -259.833 197.5 -260.5v1037h304v-1037z" />
    <glyph glyph-name="Aacute" unicode="&#xe7;" horiz-adv-x="1589" 
d="M459 1032l-0.00195312 282.999h303c109.333 2 198.833 31.167 268.5 87.5s104.5 139.166 104.5 248.499c0 92.667 -31.833 171.834 -95.5 237.501s-141.167 98.5 -232.5 98.5c-100.667 0 -183.167 -31.333 -247.5 -94s-100.5 -144.667 -108.5 -246l-5 -37h-303v41
c0 114 28.5 219 85.5 315s134.333 171.833 232 227.5s203.5 83.5 317.5 83.5c119.333 0 229.333 -26.5 330 -79.5s180.167 -127 238.5 -222s87.5 -201.833 87.5 -320.5c0 -180.667 -64.333 -326.667 -193 -438c-16 -13.333 -33.667 -25.666 -53 -36.999
c27.333 -14 56 -36 86 -66c142 -125.333 213 -285 213 -479c0 -123.333 -31.833 -236.5 -95.5 -339.5s-149 -184.167 -256 -243.5s-221.833 -89 -344.5 -89c-129.333 0 -248.166 29.167 -356.499 87.5s-194.166 139.833 -257.499 244.5s-95 222 -95 352v41h311v-41
c0.666992 -70 18.334 -135.667 53.001 -197s82.167 -110 142.5 -146s126.166 -54 197.499 -54c113.333 0 209.333 36.667 288 110s118 165 118 275c0 110.667 -39 204.5 -117 281.5s-172.667 115.5 -284 115.5h-332z" />
    <glyph glyph-name="Aacute" unicode="&#x437;" horiz-adv-x="1589" 
d="M459 1032l-0.00195312 282.999h303c109.333 2 198.833 31.167 268.5 87.5s104.5 139.166 104.5 248.499c0 92.667 -31.833 171.834 -95.5 237.501s-141.167 98.5 -232.5 98.5c-100.667 0 -183.167 -31.333 -247.5 -94s-100.5 -144.667 -108.5 -246l-5 -37h-303v41
c0 114 28.5 219 85.5 315s134.333 171.833 232 227.5s203.5 83.5 317.5 83.5c119.333 0 229.333 -26.5 330 -79.5s180.167 -127 238.5 -222s87.5 -201.833 87.5 -320.5c0 -180.667 -64.333 -326.667 -193 -438c-16 -13.333 -33.667 -25.666 -53 -36.999
c27.333 -14 56 -36 86 -66c142 -125.333 213 -285 213 -479c0 -123.333 -31.833 -236.5 -95.5 -339.5s-149 -184.167 -256 -243.5s-221.833 -89 -344.5 -89c-129.333 0 -248.166 29.167 -356.499 87.5s-194.166 139.833 -257.499 244.5s-95 222 -95 352v41h311v-41
c0.666992 -70 18.334 -135.667 53.001 -197s82.167 -110 142.5 -146s126.166 -54 197.499 -54c113.333 0 209.333 36.667 288 110s118 165 118 275c0 110.667 -39 204.5 -117 281.5s-172.667 115.5 -284 115.5h-332z" />
    <glyph glyph-name="Edieresis" unicode="&#xe8;" horiz-adv-x="2499" 
d="M2236 2241v-2241h-303v1901l-1364 -1901h-307v2241h303v-1790l1270 1790h401z" />
    <glyph glyph-name="Edieresis" unicode="&#x438;" horiz-adv-x="2499" 
d="M2236 2241v-2241h-303v1901l-1364 -1901h-307v2241h303v-1790l1270 1790h401z" />
    <glyph glyph-name="Egrave" unicode="&#xe9;" horiz-adv-x="2499" 
d="M2236 2241v-2241h-303v1901l-1364 -1901h-307v2241h303v-1790l1270 1790h401zM885 2892c29.333 -62 78.6699 -109 148.003 -141s141.333 -48 216 -48c75.333 0 147.666 16 216.999 48s118.666 79 147.999 141h258c-35.333 -138.667 -110.333 -243.667 -225 -315
s-247.334 -107 -398.001 -107c-150 0 -282.333 35.667 -397 107s-189.667 176.333 -225 315h258z" />
    <glyph glyph-name="Egrave" unicode="&#x439;" horiz-adv-x="2499" 
d="M2236 2241v-2241h-303v1901l-1364 -1901h-307v2241h303v-1790l1270 1790h401zM885 2892c29.333 -62 78.6699 -109 148.003 -141s141.333 -48 216 -48c75.333 0 147.666 16 216.999 48s118.666 79 147.999 141h258c-35.333 -138.667 -110.333 -243.667 -225 -315
s-247.334 -107 -398.001 -107c-150 0 -282.333 35.667 -397 107s-189.667 176.333 -225 315h258z" />
    <glyph glyph-name="Iacute" unicode="&#xea;" horiz-adv-x="2056" 
d="M258 2241h303v-1340l1028 1340h389l-868 -1123l926 -1118h-389l-729 885l-357 -459v-426h-303v2241z" />
    <glyph glyph-name="Iacute" unicode="&#x43a;" horiz-adv-x="2056" 
d="M258 2241h303v-1340l1028 1340h389l-868 -1123l926 -1118h-389l-729 885l-357 -459v-426h-303v2241z" />
    <glyph glyph-name="Icircumflex" unicode="&#xeb;" horiz-adv-x="2015" 
d="M1737 2241v-2241h-295v1962h-606l-545 -1962h-320l639 2241h1127z" />
    <glyph glyph-name="Icircumflex" unicode="&#x43b;" horiz-adv-x="2015" 
d="M1737 2241v-2241h-295v1962h-606l-545 -1962h-320l639 2241h1127z" />
    <glyph glyph-name="Idieresis" unicode="&#xec;" horiz-adv-x="3351" 
d="M262 2241l443 -0.000976562l370 -708.5l431.5 -826.5c112.333 -215.333 168.5 -323.666 168.5 -324.999l971 1860h442v-2241h-303v1909l-983 -1909h-254l-187.5 362l-339 657l-337 654l-123.5 240v-1913h-299v2241z" />
    <glyph glyph-name="Idieresis" unicode="&#x43c;" horiz-adv-x="3351" 
d="M262 2241l443 -0.000976562l370 -708.5l431.5 -826.5c112.333 -215.333 168.5 -323.666 168.5 -324.999l971 1860h442v-2241h-303v1909l-983 -1909h-254l-187.5 362l-339 657l-337 654l-123.5 240v-1913h-299v2241z" />
    <glyph glyph-name="Igrave" unicode="&#xed;" horiz-adv-x="2408" 
d="M258 2241h303v-951h1282v951h303v-2241h-303v1016h-1282v-1016h-303v2241z" />
    <glyph glyph-name="Igrave" unicode="&#x43d;" horiz-adv-x="2408" 
d="M258 2241h303v-951h1282v951h303v-2241h-303v1016h-1282v-1016h-303v2241z" />
    <glyph glyph-name="Oacute" unicode="&#xee;" horiz-adv-x="2683" 
d="M2511 1135c0 -209.333 -52 -405.667 -156 -589s-245.5 -329 -424.5 -437s-373.167 -162 -582.5 -162c-207.333 0 -401.5 51.833 -582.5 155.5s-325.167 244.667 -432.5 423s-161 371.833 -161 580.5c0 213.333 52.167 410.833 156.5 592.5s246.833 325.667 427.5 432
s378 159.5 592 159.5c153.333 0 300.333 -30.167 441 -90.5s265.5 -144.5 374.5 -252.5s194.167 -232.333 255.5 -373s92 -287 92 -439zM475 1106c0 -157.333 39.498 -302.666 118.498 -435.999s185.333 -238.666 319 -315.999s278.834 -116 435.501 -116
c162 0 308.833 40.333 440.5 121s234.5 190.167 308.5 328.5s111 287.5 111 447.5c0 245.333 -87.333 451.333 -262 618c-82 78 -174.667 138.5 -278 181.5s-210 64.5 -320 64.5c-160.667 0 -308.167 -40.333 -442.5 -121s-239.666 -189.834 -315.999 -327.501
s-114.5 -285.834 -114.5 -444.501z" />
    <glyph glyph-name="Oacute" unicode="&#x43e;" horiz-adv-x="2683" 
d="M2511 1135c0 -209.333 -52 -405.667 -156 -589s-245.5 -329 -424.5 -437s-373.167 -162 -582.5 -162c-207.333 0 -401.5 51.833 -582.5 155.5s-325.167 244.667 -432.5 423s-161 371.833 -161 580.5c0 213.333 52.167 410.833 156.5 592.5s246.833 325.667 427.5 432
s378 159.5 592 159.5c153.333 0 300.333 -30.167 441 -90.5s265.5 -144.5 374.5 -252.5s194.167 -232.333 255.5 -373s92 -287 92 -439zM475 1106c0 -157.333 39.498 -302.666 118.498 -435.999s185.333 -238.666 319 -315.999s278.834 -116 435.501 -116
c162 0 308.833 40.333 440.5 121s234.5 190.167 308.5 328.5s111 287.5 111 447.5c0 245.333 -87.333 451.333 -262 618c-82 78 -174.667 138.5 -278 181.5s-210 64.5 -320 64.5c-160.667 0 -308.167 -40.333 -442.5 -121s-239.666 -189.834 -315.999 -327.501
s-114.5 -285.834 -114.5 -444.501z" />
    <glyph glyph-name="Ocircumflex" unicode="&#xef;" horiz-adv-x="2408" 
d="M262 2241h1884v-2241h-303v1966h-1282v-1966h-299v2241z" />
    <glyph glyph-name="Ocircumflex" unicode="&#x43f;" horiz-adv-x="2408" 
d="M262 2241h1884v-2241h-303v1966h-1282v-1966h-299v2241z" />
    <glyph glyph-name="apple" unicode="&#xf0;" horiz-adv-x="2793" 
d="M545 2241l0.000976562 -385.998c55.333 92 132 171 230 237s205.167 115.5 321.5 148.5s230.166 49.5 341.499 49.5c341.333 0 647 -145 917 -435c46.667 -42.667 90.334 -102 131 -178c40.667 -76 73.334 -162.833 98.001 -260.5s37 -199.834 37 -306.501
c0 -216.667 -55 -414 -165 -592s-258.5 -317.667 -445.5 -419s-387.5 -152 -601.5 -152c-175.333 0 -342.833 41.167 -502.5 123.5s-274.834 198.166 -345.501 347.499v-1204h-303v3027h287zM2318 1114c0 160 -39.166 307.832 -117.499 443.499s-185.333 243.167 -321 322.5
s-282.834 119 -441.501 119c-162 0 -311.667 -37.333 -449 -112s-246.333 -178 -327 -310s-121 -278 -121 -438c0 -260 79 -469 237 -627c174.667 -182.667 387.667 -274 639 -274c164 0 315.167 38 453.5 114s247.5 180.833 327.5 314.5s120 282.834 120 447.501z" />
    <glyph glyph-name="apple" unicode="&#x440;" horiz-adv-x="2793" 
d="M545 2241l0.000976562 -385.998c55.333 92 132 171 230 237s205.167 115.5 321.5 148.5s230.166 49.5 341.499 49.5c341.333 0 647 -145 917 -435c46.667 -42.667 90.334 -102 131 -178c40.667 -76 73.334 -162.833 98.001 -260.5s37 -199.834 37 -306.501
c0 -216.667 -55 -414 -165 -592s-258.5 -317.667 -445.5 -419s-387.5 -152 -601.5 -152c-175.333 0 -342.833 41.167 -502.5 123.5s-274.834 198.166 -345.501 347.499v-1204h-303v3027h287zM2318 1114c0 160 -39.166 307.832 -117.499 443.499s-185.333 243.167 -321 322.5
s-282.834 119 -441.501 119c-162 0 -311.667 -37.333 -449 -112s-246.333 -178 -327 -310s-121 -278 -121 -438c0 -260 79 -469 237 -627c174.667 -182.667 387.667 -274 639 -274c164 0 315.167 38 453.5 114s247.5 180.833 327.5 314.5s120 282.834 120 447.501z" />
    <glyph glyph-name="Ograve" unicode="&#xf1;" horiz-adv-x="2650" 
d="M2486 655c-100.667 -220.667 -247.334 -393.833 -440 -519.5c-192.667 -125.667 -409 -188.5 -649 -188.5c-220 0 -424.167 50.5 -612.5 151.5s-337.5 241.167 -447.5 420.5s-165 380.333 -165 603c0 215.333 55.5 412.5 166.5 591.5s259.833 319.833 446.5 422.5
s386.334 154 599.001 154c157.333 0 310.5 -29.667 459.5 -89s280 -144.333 393 -255s197.5 -239 253.5 -385h-340c-50 86 -115.167 162.5 -195.5 229.5s-169.5 118.5 -267.5 154.5s-197.333 54 -298 54c-162.667 0 -314.334 -37.833 -455.001 -113.5
s-252.334 -180.167 -335.001 -313.5s-124 -282 -124 -446c0 -160.667 39.167 -309.5 117.5 -446.5s185.5 -244.833 321.5 -323.5s286 -118 450 -118c170.667 0 319.334 34.5 446.001 103.5s240 173.5 340 313.5h336z" />
    <glyph glyph-name="Ograve" unicode="&#x441;" horiz-adv-x="2650" 
d="M2486 655c-100.667 -220.667 -247.334 -393.833 -440 -519.5c-192.667 -125.667 -409 -188.5 -649 -188.5c-220 0 -424.167 50.5 -612.5 151.5s-337.5 241.167 -447.5 420.5s-165 380.333 -165 603c0 215.333 55.5 412.5 166.5 591.5s259.833 319.833 446.5 422.5
s386.334 154 599.001 154c157.333 0 310.5 -29.667 459.5 -89s280 -144.333 393 -255s197.5 -239 253.5 -385h-340c-50 86 -115.167 162.5 -195.5 229.5s-169.5 118.5 -267.5 154.5s-197.333 54 -298 54c-162.667 0 -314.334 -37.833 -455.001 -113.5
s-252.334 -180.167 -335.001 -313.5s-124 -282 -124 -446c0 -160.667 39.167 -309.5 117.5 -446.5s185.5 -244.833 321.5 -323.5s286 -118 450 -118c170.667 0 319.334 34.5 446.001 103.5s240 173.5 340 313.5h336z" />
    <glyph glyph-name="Uacute" unicode="&#xf2;" horiz-adv-x="1552" 
d="M8 1970v271h1536v-271h-614v-1970h-299v1970h-623z" />
    <glyph glyph-name="Uacute" unicode="&#x442;" horiz-adv-x="1552" 
d="M8 1970v271h1536v-271h-614v-1970h-299v1970h-623z" />
    <glyph glyph-name="Ucircumflex" unicode="&#xf3;" horiz-adv-x="2195" 
d="M2159 2241l-1295 -3027h-319l352 856l-860 2171h323l717 -1786l758 1786h324z" />
    <glyph glyph-name="Ucircumflex" unicode="&#x443;" horiz-adv-x="2195" 
d="M2159 2241l-1295 -3027h-319l352 856l-860 2171h323l717 -1786l758 1786h324z" />
    <glyph glyph-name="Ugrave" unicode="&#xf4;" horiz-adv-x="4768" 
d="M2535 -786l-303 0.00292969v1187c-85.333 -140.667 -205.5 -251.5 -360.5 -332.5s-317.5 -121.5 -487.5 -121.5c-214 0 -414.5 50.667 -601.5 152s-335.5 241 -445.5 419s-165 375.333 -165 592c0 153.333 26.333 299 79 437s113.667 240.667 183 308
c248.667 290 556 435 922 435c170 0 337.5 -40.333 502.5 -121s289.5 -190.667 373.5 -330v1188h303v-1188c57.333 96 131.166 178.167 221.5 246.5c90.333 68.333 189.5 119.5 297.5 153.5s217.667 51 329 51c161.333 0 315.666 -29 463 -87
c147.333 -58 277.5 -139.667 390.5 -245s201.166 -228.833 264.5 -370.5s95 -294.167 95 -457.5c0 -148.667 -27.166 -290.834 -81.5 -426.501s-116.167 -241.834 -185.5 -318.501c-145.334 -164.667 -290.167 -278.834 -434.5 -342.501s-305.166 -95.5 -482.5 -95.5
c-168.667 0 -335.667 41 -501 123s-290.666 192.333 -376 331v-1187zM2015 512.003c150.667 154 226 363.002 226 627.002c0 161.333 -39.167 307.666 -117.5 438.999s-185.5 234.333 -321.5 309s-284.667 112 -446 112c-159.333 0 -306.833 -39.667 -442.5 -119
s-242.667 -186.833 -321 -322.5s-117.5 -283.5 -117.5 -443.5c0 -164.667 40.167 -313.834 120.5 -447.501s189.5 -238.5 327.5 -314.5s289 -114 453 -114c251.333 0 464.333 91.333 639 274zM2757 1729c-84.667 -84.667 -144.167 -177.165 -178.5 -277.498
s-51.5 -216.833 -51.5 -349.5c0 -163.333 39.167 -310.833 117.5 -442.5s185.333 -234.834 321 -309.501s284.5 -112 446.5 -112c158.667 0 305.834 39.833 441.5 119.5c135.667 79.667 242.834 187.167 321.5 322.5s118 282.666 118 441.999c0 124 -23.334 240.333 -70 349
s-110.833 202 -192.5 280s-177.834 138.833 -288.5 182.5c-110.667 43.667 -227.667 65.5 -351 65.5c-246.667 0 -458 -90 -634 -270z" />
    <glyph glyph-name="Ugrave" unicode="&#x444;" horiz-adv-x="4768" 
d="M2535 -786l-303 0.00292969v1187c-85.333 -140.667 -205.5 -251.5 -360.5 -332.5s-317.5 -121.5 -487.5 -121.5c-214 0 -414.5 50.667 -601.5 152s-335.5 241 -445.5 419s-165 375.333 -165 592c0 153.333 26.333 299 79 437s113.667 240.667 183 308
c248.667 290 556 435 922 435c170 0 337.5 -40.333 502.5 -121s289.5 -190.667 373.5 -330v1188h303v-1188c57.333 96 131.166 178.167 221.5 246.5c90.333 68.333 189.5 119.5 297.5 153.5s217.667 51 329 51c161.333 0 315.666 -29 463 -87
c147.333 -58 277.5 -139.667 390.5 -245s201.166 -228.833 264.5 -370.5s95 -294.167 95 -457.5c0 -148.667 -27.166 -290.834 -81.5 -426.501s-116.167 -241.834 -185.5 -318.501c-145.334 -164.667 -290.167 -278.834 -434.5 -342.501s-305.166 -95.5 -482.5 -95.5
c-168.667 0 -335.667 41 -501 123s-290.666 192.333 -376 331v-1187zM2015 512.003c150.667 154 226 363.002 226 627.002c0 161.333 -39.167 307.666 -117.5 438.999s-185.5 234.333 -321.5 309s-284.667 112 -446 112c-159.333 0 -306.833 -39.667 -442.5 -119
s-242.667 -186.833 -321 -322.5s-117.5 -283.5 -117.5 -443.5c0 -164.667 40.167 -313.834 120.5 -447.501s189.5 -238.5 327.5 -314.5s289 -114 453 -114c251.333 0 464.333 91.333 639 274zM2757 1729c-84.667 -84.667 -144.167 -177.165 -178.5 -277.498
s-51.5 -216.833 -51.5 -349.5c0 -163.333 39.167 -310.833 117.5 -442.5s185.333 -234.834 321 -309.501s284.5 -112 446.5 -112c158.667 0 305.834 39.833 441.5 119.5c135.667 79.667 242.834 187.167 321.5 322.5s118 282.666 118 441.999c0 124 -23.334 240.333 -70 349
s-110.833 202 -192.5 280s-177.834 138.833 -288.5 182.5c-110.667 43.667 -227.667 65.5 -351 65.5c-246.667 0 -458 -90 -634 -270z" />
    <glyph glyph-name="dotlessi" unicode="&#xf5;" horiz-adv-x="1966" 
d="M799 1139l-766 1102h356l594 -865l594 865h356l-770 -1102l770 -1139h-356l-594 897l-594 -897h-356z" />
    <glyph glyph-name="dotlessi" unicode="&#x445;" horiz-adv-x="1966" 
d="M799 1139l-766 1102h356l594 -865l594 865h356l-770 -1102l770 -1139h-356l-594 897l-594 -897h-356z" />
    <glyph glyph-name="circumflex" unicode="&#xf6;" horiz-adv-x="2408" 
d="M262 0v2241h299v-1967h1282v1967h303v-1967h185v-274h-2069z" />
    <glyph glyph-name="circumflex" unicode="&#x446;" horiz-adv-x="2408" 
d="M262 0v2241h299v-1967h1282v1967h303v-1967h185v-274h-2069z" />
    <glyph glyph-name="tilde" unicode="&#xf7;" horiz-adv-x="2015" 
d="M184 2241h302.999v-832c0 -89.333 33.5 -163.5 100.5 -222.5s153.833 -88.5 260.5 -88.5c209.333 0 406 69.667 590 209v934h299v-2241h-299v1020c-187.333 -128.667 -408.666 -193 -663.999 -193c-94.667 0 -187.667 23.667 -279 71s-166 113 -224 197
s-87 177.667 -87 281v865z" />
    <glyph glyph-name="tilde" unicode="&#x447;" horiz-adv-x="2015" 
d="M184 2241h302.999v-832c0 -89.333 33.5 -163.5 100.5 -222.5s153.833 -88.5 260.5 -88.5c209.333 0 406 69.667 590 209v934h299v-2241h-299v1020c-187.333 -128.667 -408.666 -193 -663.999 -193c-94.667 0 -187.667 23.667 -279 71s-166 113 -224 197
s-87 177.667 -87 281v865z" />
    <glyph glyph-name="macron" unicode="&#xf8;" horiz-adv-x="3363" 
d="M262 0v2241h299v-1967h967v1967h303v-1967h967v1967h303v-2241h-2839z" />
    <glyph glyph-name="macron" unicode="&#x448;" horiz-adv-x="3363" 
d="M262 0v2241h299v-1967h967v1967h303v-1967h967v1967h303v-2241h-2839z" />
    <glyph glyph-name="breve" unicode="&#xf9;" horiz-adv-x="3363" 
d="M262 0v2241h299v-1967h967v1967h303v-1967h967v1967h303v-1967h180v-274h-3019z" />
    <glyph glyph-name="breve" unicode="&#x449;" horiz-adv-x="3363" 
d="M262 0v2241h299v-1967h967v1967h303v-1967h967v1967h303v-1967h180v-274h-3019z" />
    <glyph glyph-name="dotaccent" unicode="&#xfa;" horiz-adv-x="1913" 
d="M-20 1962l0.000976562 279.001h684v-873h364c121.333 0 229.333 -9.83301 324 -29.5s182 -58.834 262 -117.501c174.667 -126 262 -303.667 262 -533c0 -114.667 -26.333 -222 -79 -322s-127.334 -179.667 -224.001 -239c-83.333 -54 -169 -88 -257 -102
s-203 -22.333 -345 -25h-606v1962h-385zM664.001 1094l-0.00390625 -815h237c26.667 0 56.334 -0.833008 89.001 -2.5s57.667 -2.5 75 -2.5c108.667 0 197.334 15 266.001 45c164 67.333 246 190.333 246 369c0 66 -14.667 128.167 -44 186.5
s-70.666 102.833 -123.999 133.5v4c-89.333 54.667 -228.666 82 -417.999 82h-327z" />
    <glyph glyph-name="dotaccent" unicode="&#x44a;" horiz-adv-x="1913" 
d="M-20 1962l0.000976562 279.001h684v-873h364c121.333 0 229.333 -9.83301 324 -29.5s182 -58.834 262 -117.501c174.667 -126 262 -303.667 262 -533c0 -114.667 -26.333 -222 -79 -322s-127.334 -179.667 -224.001 -239c-83.333 -54 -169 -88 -257 -102
s-203 -22.333 -345 -25h-606v1962h-385zM664.001 1094l-0.00390625 -815h237c26.667 0 56.334 -0.833008 89.001 -2.5s57.667 -2.5 75 -2.5c108.667 0 197.334 15 266.001 45c164 67.333 246 190.333 246 369c0 66 -14.667 128.167 -44 186.5
s-70.666 102.833 -123.999 133.5v4c-89.333 54.667 -228.666 82 -417.999 82h-327z" />
    <glyph glyph-name="ring" unicode="&#xfb;" horiz-adv-x="2388" 
d="M180 0l0.000976562 2241h299v-873h365c120.667 0 228.5 -9.83301 323.5 -29.5s182.5 -58.834 262.5 -117.501c174.667 -126 262 -303.667 262 -533c0 -114.667 -26.333 -222 -79 -322s-127.334 -179.667 -224.001 -239c-83.333 -54 -168.833 -88 -256.5 -102
s-201.5 -22.333 -341.5 -25h-611zM1909 2241h299v-2241h-299v2241zM479.001 1094v-815h238c26.667 0 56 -0.833008 88 -2.5s57.333 -2.5 76 -2.5c111.333 0 201.333 15 270 45c161.333 68 242 191 242 369c0 66 -15 128.167 -45 186.5s-71 102.833 -123 133.5v4
c-89.333 54.667 -227.333 82 -414 82h-332z" />
    <glyph glyph-name="ring" unicode="&#x44b;" horiz-adv-x="2388" 
d="M180 0l0.000976562 2241h299v-873h365c120.667 0 228.5 -9.83301 323.5 -29.5s182.5 -58.834 262.5 -117.501c174.667 -126 262 -303.667 262 -533c0 -114.667 -26.333 -222 -79 -322s-127.334 -179.667 -224.001 -239c-83.333 -54 -168.833 -88 -256.5 -102
s-201.5 -22.333 -341.5 -25h-611zM1909 2241h299v-2241h-299v2241zM479.001 1094v-815h238c26.667 0 56 -0.833008 88 -2.5s57.333 -2.5 76 -2.5c111.333 0 201.333 15 270 45c161.333 68 242 191 242 369c0 66 -15 128.167 -45 186.5s-71 102.833 -123 133.5v4
c-89.333 54.667 -227.333 82 -414 82h-332z" />
    <glyph glyph-name="cedilla" unicode="&#xfc;" horiz-adv-x="1917" 
d="M258 0l-0.000976562 2241h299v-873h365c120.667 0 228.334 -9.83301 323.001 -29.5s182 -58.834 262 -117.501c174.667 -126 262 -303.667 262 -533c0 -116 -26.5 -224 -79.5 -324s-127.5 -179 -223.5 -237c-83.333 -54 -168.833 -88 -256.5 -102
s-201.5 -22.333 -341.5 -25h-610zM556.999 1094v-815h238c26.667 0 56 -0.833008 88 -2.5s57 -2.5 75 -2.5c112 0 202.333 15 271 45c160.667 68.667 241 191.667 241 369c0 66 -14.667 128.167 -44 186.5s-70.333 102.833 -123 133.5v4c-89.333 54.667 -227.333 82 -414 82
h-332z" />
    <glyph glyph-name="cedilla" unicode="&#x44c;" horiz-adv-x="1917" 
d="M258 0l-0.000976562 2241h299v-873h365c120.667 0 228.334 -9.83301 323.001 -29.5s182 -58.834 262 -117.501c174.667 -126 262 -303.667 262 -533c0 -116 -26.5 -224 -79.5 -324s-127.5 -179 -223.5 -237c-83.333 -54 -168.833 -88 -256.5 -102
s-201.5 -22.333 -341.5 -25h-610zM556.999 1094v-815h238c26.667 0 56 -0.833008 88 -2.5s57 -2.5 75 -2.5c112 0 202.333 15 271 45c160.667 68.667 241 191.667 241 369c0 66 -14.667 128.167 -44 186.5s-70.333 102.833 -123 133.5v4c-89.333 54.667 -227.333 82 -414 82
h-332z" />
    <glyph glyph-name="hungarumlaut" unicode="&#xfd;" horiz-adv-x="2650" 
d="M2159 1290c-18.667 102 -55.3359 196.831 -110.002 284.498c-54.667 87.667 -122 163 -202 226s-170.167 111.833 -270.5 146.5s-205.166 52 -314.499 52c-154 0 -299.833 -39.5 -437.5 -118.5s-245.834 -185.5 -324.501 -319.5h-340c56 146 140.667 274.333 254 385
s244.333 195.667 393 255s301.667 89 459 89c212.667 0 412.334 -51.333 599.001 -154s335.5 -243.5 446.5 -422.5s166.5 -376.167 166.5 -591.5c0 -222.667 -55 -423.667 -165 -603s-259.167 -319.5 -447.5 -420.5s-392.5 -151.5 -612.5 -151.5
c-239.333 0 -455.166 62.833 -647.499 188.5s-339.5 298.834 -441.5 519.501h336c100 -139.333 213.5 -243.666 340.5 -312.999s275.5 -104 445.5 -104c150.667 0 290.167 33.833 418.5 101.5s233 161 314 280s130.5 251.167 148.5 396.5h-1606v274h1598z" />
    <glyph glyph-name="hungarumlaut" unicode="&#x44d;" horiz-adv-x="2650" 
d="M2159 1290c-18.667 102 -55.3359 196.831 -110.002 284.498c-54.667 87.667 -122 163 -202 226s-170.167 111.833 -270.5 146.5s-205.166 52 -314.499 52c-154 0 -299.833 -39.5 -437.5 -118.5s-245.834 -185.5 -324.501 -319.5h-340c56 146 140.667 274.333 254 385
s244.333 195.667 393 255s301.667 89 459 89c212.667 0 412.334 -51.333 599.001 -154s335.5 -243.5 446.5 -422.5s166.5 -376.167 166.5 -591.5c0 -222.667 -55 -423.667 -165 -603s-259.167 -319.5 -447.5 -420.5s-392.5 -151.5 -612.5 -151.5
c-239.333 0 -455.166 62.833 -647.499 188.5s-339.5 298.834 -441.5 519.501h336c100 -139.333 213.5 -243.666 340.5 -312.999s275.5 -104 445.5 -104c150.667 0 290.167 33.833 418.5 101.5s233 161 314 280s130.5 251.167 148.5 396.5h-1606v274h1598z" />
    <glyph glyph-name="ogonek" unicode="&#xfe;" horiz-adv-x="3342" 
d="M836 1016l-274.997 0.00195312v-1016h-299v2241h299v-951h283c29.333 185.333 98.666 354.666 207.999 507.999s247.333 273.666 414 360.999s347 131 541 131c203.333 0 394.666 -52.833 573.999 -158.5s322.333 -247.834 429 -426.501s160 -368.667 160 -570
c0 -209.333 -52 -405.666 -156 -588.999s-245.5 -329 -424.5 -437s-373.167 -162 -582.5 -162c-198.667 0 -384.834 47.167 -558.501 141.5s-315.167 223.5 -424.5 387.5s-172 344 -188 540zM1135 1106c0 -157.333 39.166 -302.498 117.499 -435.498
s184.333 -238.333 318 -316s279.167 -116.5 436.5 -116.5c162.667 0 309.834 40.5 441.5 121.5c131.667 81 234.334 190.5 308.001 328.5s110.5 287 110.5 447c0 245.333 -87.333 451.333 -262 618c-82 78 -174.667 138.5 -278 181.5s-210 64.5 -320 64.5
c-160.667 0 -308 -40.333 -442 -121s-239.167 -189.334 -315.5 -326.001s-114.5 -285.334 -114.5 -446.001z" />
    <glyph glyph-name="ogonek" unicode="&#x44e;" horiz-adv-x="3342" 
d="M836 1016l-274.997 0.00195312v-1016h-299v2241h299v-951h283c29.333 185.333 98.666 354.666 207.999 507.999s247.333 273.666 414 360.999s347 131 541 131c203.333 0 394.666 -52.833 573.999 -158.5s322.333 -247.834 429 -426.501s160 -368.667 160 -570
c0 -209.333 -52 -405.666 -156 -588.999s-245.5 -329 -424.5 -437s-373.167 -162 -582.5 -162c-198.667 0 -384.834 47.167 -558.501 141.5s-315.167 223.5 -424.5 387.5s-172 344 -188 540zM1135 1106c0 -157.333 39.166 -302.498 117.499 -435.498
s184.333 -238.333 318 -316s279.167 -116.5 436.5 -116.5c162.667 0 309.834 40.5 441.5 121.5c131.667 81 234.334 190.5 308.001 328.5s110.5 287 110.5 447c0 245.333 -87.333 451.333 -262 618c-82 78 -174.667 138.5 -278 181.5s-210 64.5 -320 64.5
c-160.667 0 -308 -40.333 -442 -121s-239.167 -189.334 -315.5 -326.001s-114.5 -285.334 -114.5 -446.001z" />
    <glyph glyph-name="caron" unicode="&#xff;" horiz-adv-x="2015" 
d="M1737 2241v-2241h-299v1962h-303c-112 0 -202.667 -5 -272 -15s-133 -36.333 -191 -79c-56 -38 -100.833 -89.5 -134.5 -154.5s-50.5 -130.833 -50.5 -197.5c0 -87.333 22.5 -166.333 67.5 -237s108.5 -125.667 190.5 -165c88 -35.333 238.333 -53 451 -53h147
l-794 -1061h-369l611 811c-110.667 14.667 -212.5 54 -305.5 118s-165.833 145.667 -218.5 245s-79 206.333 -79 321c0 132 31.5 255 94.5 369s150.5 202.667 262.5 266c88 47.333 181.667 77.666 281 91c99.333 13.333 217.333 20 354 20h557z" />
    <glyph glyph-name="caron" unicode="&#x44f;" horiz-adv-x="2015" 
d="M1737 2241v-2241h-299v1962h-303c-112 0 -202.667 -5 -272 -15s-133 -36.333 -191 -79c-56 -38 -100.833 -89.5 -134.5 -154.5s-50.5 -130.833 -50.5 -197.5c0 -87.333 22.5 -166.333 67.5 -237s108.5 -125.667 190.5 -165c88 -35.333 238.333 -53 451 -53h147
l-794 -1061h-369l611 811c-110.667 14.667 -212.5 54 -305.5 118s-165.833 145.667 -218.5 245s-79 206.333 -79 321c0 132 31.5 255 94.5 369s150.5 202.667 262.5 266c88 47.333 181.667 77.666 281 91c99.333 13.333 217.333 20 354 20h557z" />
    <glyph glyph-name="ntilde" unicode="&#x2013;" horiz-adv-x="2048" 
d="M2048 1368v-274h-2048v274h2048z" />
    <glyph glyph-name="oacute" unicode="&#x2014;" horiz-adv-x="4096" 
d="M4096 1368v-274h-4096v274h4096z" />
    <glyph glyph-name="edieresis" unicode="&#x2018;" horiz-adv-x="1438" 
d="M762 2236l-361 791h304l360 -791h-303z" />
    <glyph glyph-name="iacute" unicode="&#x2019;" horiz-adv-x="1438" 
d="M733 3027h303l-360 -791h-303z" />
    <glyph glyph-name="Ccedilla" unicode="&#x201a;" horiz-adv-x="1450" 
d="M725 516h303l-360 -790h-303z" />
    <glyph glyph-name="igrave" unicode="&#x201c;" horiz-adv-x="2056" 
d="M1360 2236l-361 791h304l360 -791h-303zM754 2236l-361 791h303l361 -791h-303z" />
    <glyph glyph-name="icircumflex" unicode="&#x201d;" horiz-adv-x="1982" 
d="M700 3027h304l-361 -791h-287zM1307 3027h303l-361 -791h-303z" />
    <glyph glyph-name="Ntilde" unicode="&#x201e;" horiz-adv-x="2056" 
d="M725 516h303l-360 -790h-303zM1331 516h299l-356 -790h-303z" />
    <glyph glyph-name="Udieresis" unicode="&#x2020;" horiz-adv-x="2265" 
d="M1282 2208h741v-275h-741v-2453h-303v2453h-737v275h737v819h303v-819z" />
    <glyph glyph-name="aacute" unicode="&#x2021;" horiz-adv-x="2265" 
d="M1282 2302h741v-283h-741v-385h741v-270h-741v-1888h-299v1888h-741v270h741v385h-741v283h741v725h299v-725z" />
    <glyph glyph-name="idieresis" unicode="&#x2022;" horiz-adv-x="2482" 
d="M1237 475c-136.667 0 -262.502 34.002 -377.502 102.002s-206.5 159.5 -274.5 274.5s-102 240.833 -102 377.5c0 138.667 33.833 266.167 101.5 382.5s159.167 208.666 274.5 276.999s241.333 102.5 378 102.5c138.667 0 266.334 -34 383.001 -102s209 -160.333 277 -277
s102 -244.334 102 -383.001c0 -136.667 -34.167 -262.667 -102.5 -378s-160.666 -206.833 -276.999 -274.5s-243.833 -101.5 -382.5 -101.5z" />
    <glyph glyph-name="Odieresis" unicode="&#x2026;" horiz-adv-x="4096" 
d="M532 516h304v-516h-304v516zM1896 516h304v-516h-304v516zM3260 516h304v-516h-304v516z" />
    <glyph glyph-name="acircumflex" unicode="&#x2030;" horiz-adv-x="4809" 
d="M2101 3027h295l-1360 -3027h-295zM1479 2343c0 -126.667 -32.332 -243.832 -96.999 -351.499s-151.5 -192.834 -260.5 -255.501s-226.167 -94 -351.5 -94c-127.333 0 -246 31.5 -356 94.5s-197.667 149.167 -263 258.5s-98 228 -98 356c0 133.333 31.667 255.5 95 366.5
s150 198.5 260 262.5s232 96 366 96c132.667 0 252.667 -33.5 360 -100.5s191.666 -156.667 252.999 -269s92 -233.5 92 -363.5zM3080 651.002c0 -126.667 -32.499 -244.166 -97.499 -352.499s-152.333 -194 -262 -257s-227.5 -94.5 -353.5 -94.5
c-126.667 0 -245.334 32 -356 96c-110.667 64 -198.334 150.167 -263.001 258.5s-97 226.166 -97 353.499c0 132 31.667 254 95 366s150.5 200.5 261.5 265.5s232.5 97.5 364.5 97.5c100 0 193.167 -19.333 279.5 -58s161.833 -92.5 226.5 -161.5s114.5 -147.333 149.5 -235
s52.5 -180.5 52.5 -278.5zM4714 651.003c0 -126.667 -32.5 -244.167 -97.5 -352.5s-152.334 -194 -262 -257s-227.166 -94.5 -352.5 -94.5c-127.333 0 -246 31.833 -356 95.5s-197.667 149.667 -263 258s-98 226.5 -98 354.5c0 132 31.667 254 95 366
s150.5 200.5 261.5 265.5s232.5 97.5 364.5 97.5c100 0 193.166 -19.333 279.5 -58s161.834 -92.5 226.5 -161.5s114.5 -147.333 149.5 -235s52.5 -180.5 52.5 -278.5zM1942 635.003c0 -114.667 41.5 -209.5 124.5 -284.5s183.167 -112.5 300.5 -112.5
c121.333 0 222 39.167 302 117.5s120 176.833 120 295.5c0 75.333 -18.833 147.333 -56.5 216s-88.334 123.667 -152 165c-63.667 41.333 -133.167 62 -208.5 62c-82 0 -156 -20.667 -222 -62s-117.167 -97 -153.5 -167s-54.5 -146.667 -54.5 -230zM774.002 2789
c-82.667 -0.666992 -156.834 -20.666 -222.501 -59.999s-116.667 -92.333 -153 -159s-54.5 -141 -54.5 -223c0 -76 19.167 -145.667 57.5 -209s89.833 -113.333 154.5 -150s134.667 -55 210 -55c78.667 0 150.334 19 215.001 57s115.334 90.167 152.001 156.5
s55 138.5 55 216.5c0 75.333 -18.5 145.166 -55.5 209.499s-87.333 115.833 -151 154.5s-132.834 58 -207.501 58v4zM3576 639.004c0 -116 41.667 -211.833 125 -287.5s182.333 -113.5 297 -113.5c122.666 0 224.333 39 305 117c80.666 78 121 176.667 121 296
c0 75.333 -19 147.333 -57 216s-88.834 123.667 -152.5 165s-133.166 62 -208.5 62c-124 0 -226.667 -44.333 -308 -133s-122 -196 -122 -322z" />
    <glyph glyph-name="atilde" unicode="&#x2039;" horiz-adv-x="1028" 
d="M164 1233l463 815l237 -127l-385 -688l385 -688l-237 -131z" />
    <glyph glyph-name="otilde" unicode="&#x203a;" horiz-adv-x="1028" 
d="M164 545l385 688l-385 688l237 127l463 -815l-463 -819z" />
    <glyph glyph-name="ocircumflex" unicode="&#x2122;" horiz-adv-x="4096" 
d="M3842 1303h-270v1478l-598 -1478h-160l-582 1478v-1478h-274v1724h442l496 -1217l512 1217h434v-1724zM1655 2781h-545v-1478h-303v1478h-549v246h1397v-246z" />
    <glyph glyph-name=".null" horiz-adv-x="0" 
 />
    <glyph glyph-name="nonmarkingreturn" horiz-adv-x="0" 
 />
    </font>
</defs>
</svg>
