<?xml version="1.0" standalone="no"?>
<!DOCTYPE svg PUBLIC "-//W3C//DTD SVG 1.1//EN" "http://www.w3.org/Graphics/SVG/1.1/DTD/svg11.dtd" >
<svg>
<metadata>
Created by FontForge 20090914 at Thu Apr  8 11:04:21 2021
 By www-data
Typeface &#194;&#169; The Monotype Corporation plc. Data &#194;&#169; The Monotype Corporation plc, Type Solutions inc 1990-1992. All rights reserved. Portions &#194;&#169; 1992 Microsoft Corp.
</metadata>
<defs>
<font id="BellMTBold" horiz-adv-x="1109" >
  <font-face 
    font-family="Bell MT"
    font-weight="700"
    font-stretch="normal"
    units-per-em="2048"
    panose-1="2 3 7 3 6 5 10 2 3 3"
    ascent="1638"
    descent="-410"
    x-height="859"
    cap-height="1323"
    bbox="-435 -547.001 2371 1869"
    underline-thickness="102"
    underline-position="-154"
    unicode-range="U+0020-U+F002"
  />
<missing-glyph horiz-adv-x="1536" 
d="M256 0v1280h1024v-1280h-1024zM288 32h960v1216h-960v-1216z" />
    <glyph glyph-name=".notdef" horiz-adv-x="1536" 
d="M256 0v1280h1024v-1280h-1024zM288 32h960v1216h-960v-1216z" />
    <glyph glyph-name="space" unicode=" " horiz-adv-x="544" 
 />
    <glyph glyph-name="exclam" unicode="!" horiz-adv-x="576" 
d="M256 362c-84 505.333 -126 777.999 -126 817.999c0 48.667 16.167 88 48.5 118s68.833 45 109.5 45c44 0 81.167 -16 111.5 -48s45.5 -69.667 45.5 -113c0 -41.333 -42 -314.666 -126 -819.999h-63zM427 119.999c0 -38.667 -13.667 -71.667 -41 -99s-60 -41 -98 -41
c-38.667 0 -71.667 13.667 -99 41s-41 60.333 -41 99c0 38 13.667 70.667 41 98s60.333 41 99 41c38 0 70.667 -13.667 98 -41s41 -60 41 -98z" />
    <glyph glyph-name="quotedbl" unicode="&#x22;" horiz-adv-x="1131" 
d="M832 721l-49 0.000976562l-102 384c-15.333 58 -23 102.333 -23 133c0 38 14.167 72.333 42.5 103s64.5 46 108.5 46c44.667 0 80.167 -15.333 106.5 -46s39.5 -64.667 39.5 -102c0 -20.667 -8.66699 -65.334 -26 -134.001zM350 721.001h-48.999l-104 385
c-13.333 49.333 -20 92.333 -20 129c0 42.667 14.167 78.667 42.5 108s63.5 44 105.5 44c45.333 0 81.166 -14.667 107.499 -44s39.5 -64 39.5 -104c0 -28 -8 -73 -24 -135z" />
    <glyph glyph-name="numbersign" unicode="#" horiz-adv-x="1365" 
d="M88 972h326l86 405h123l-86 -405h420l85 405h123l-85 -405h196v-122h-222l-75 -371h297v-123h-322l-86 -402h-123l86 402h-422l-85 -402h-123l85 402h-198v123h224l77 371h-301v122zM512 850l-78 -371h422l76 371h-420z" />
    <glyph glyph-name="dollar" unicode="$" horiz-adv-x="1088" 
d="M498 1231l93.001 -0.00292969v-135c115.333 -7.33301 201.166 -35.833 257.499 -85.5s84.5 -100.167 84.5 -151.5c0 -34 -10.667 -62.667 -32 -86s-50 -35 -86 -35c-33.333 0 -61.833 10.667 -85.5 32s-35.5 48.666 -35.5 81.999c0 21.333 10.667 49.333 32 84
c11.333 18.667 17 30.667 17 36c0 29.333 -50.667 50.333 -152 63v-366c120.667 -39.333 201 -69 241 -89s76.333 -54.5 109 -103.5s49 -104.833 49 -167.5c0 -103.333 -35 -187.166 -105 -251.499s-168 -104.166 -294 -119.499v-249h-93v249c-93.333 0 -182 29.333 -266 88
s-126 130 -126 214c0 41.333 12.5 73.833 37.5 97.5s52.833 35.5 83.5 35.5c38.667 0 70 -12.667 94 -38s36 -54 36 -86c0 -36.667 -16 -68 -48 -94c-18.667 -15.333 -28 -27.666 -28 -36.999c0 -20 20 -42.667 60 -68s92.333 -41.333 157 -48v438
c-144.667 42.667 -241.167 92.334 -289.5 149.001s-72.5 120.667 -72.5 192c0 86.667 34.833 160.667 104.5 222s155.5 92.333 257.5 93v135zM498.001 1031c-58.667 -2.66699 -108.167 -20.5 -148.5 -53.5s-60.5 -70.167 -60.5 -111.5c0 -70.667 69.667 -127.667 209 -171
v336zM591.001 2.99707c90 13.333 152.167 41 186.5 83s51.5 82.667 51.5 122c0 30.667 -12.333 63.5 -37 98.5s-91.667 69.5 -201 103.5v-407z" />
    <glyph glyph-name="percent" unicode="%" horiz-adv-x="1685" 
d="M1316 1341l-829 -1377h-117l827 1377h119zM79 994c0 88.667 30.667 168.667 92 240s147 107 257 107c107.333 0 192.333 -35.167 255 -105.5s94 -150.833 94 -241.5c0 -95.333 -32.667 -176.833 -98 -244.5s-149 -101.5 -251 -101.5c-110 0 -195.667 35.5 -257 106.5
s-92 150.833 -92 239.5zM281 994c0 -99.333 14.167 -172.833 42.5 -220.5s63.166 -71.5 104.499 -71.5c46.667 0 82.834 26.167 108.501 78.5s38.5 123.5 38.5 213.5c0 90.667 -13 162 -39 214s-62 78 -108 78s-82 -26 -108 -78s-39 -123.333 -39 -214zM909 313
c0 88 30.667 167.667 92 239s147 107 257 107c107.333 0 192.333 -35 255 -105s94 -150.333 94 -241c0 -96 -32.667 -177.833 -98 -245.5s-149 -101.5 -251 -101.5s-185.667 33.667 -251 101s-98 149.333 -98 246zM1111 312c0 -99.333 14.167 -172.833 42.5 -220.5
s63.166 -71.5 104.499 -71.5c46.667 0 82.834 26.167 108.501 78.5s38.5 123.5 38.5 213.5c0 90.667 -13 162.167 -39 214.5s-62 78.5 -108 78.5s-82 -26.167 -108 -78.5s-39 -123.833 -39 -214.5z" />
    <glyph glyph-name="ampersand" unicode="&#x26;" horiz-adv-x="1515" 
d="M441 748c-107.333 109.333 -161.001 212.002 -161.001 308.002c0 76 28.667 142 86 198s128 84 212 84c77.333 0 139.833 -21.833 187.5 -65.5s71.5 -92.5 71.5 -146.5c0 -82.667 -54.333 -171.334 -163 -266.001c126 -100 243.667 -246 353 -438
c56.667 92 85 180.333 85 265c0 70.667 -34.333 108.667 -103 114c-28 2.66699 -42 12.667 -42 30c0 18 19 27 57 27l200 -4c39.333 0 85 2 137 6c24.667 2 41.334 3 50.001 3c23.333 0 35 -9.33301 35 -28c0 -13.333 -13.333 -23.333 -40 -30
c-44 -11.333 -77.667 -26 -101 -44s-41.333 -37.5 -54 -58.5s-42.667 -80.5 -90 -178.5c-30.667 -62 -62.667 -116.667 -96 -164c84.667 -173.333 163 -260 235 -260c29.333 0 61 11.333 95 34c18.667 12.667 31.334 19 38.001 19c19.333 0 29 -9.33301 29 -28
s-35.5 -48 -106.5 -88s-140.167 -60 -207.5 -60c-52.667 0 -98.334 16.333 -137.001 49s-77.334 80.667 -116.001 144c-157.333 -129.333 -303.666 -194 -438.999 -194c-104 0 -189.333 30 -256 90s-100 140 -100 240c0 56.667 16 116.667 48 180
s129.667 150.666 293 261.999zM620.999 909.002c64.667 64 97 130.667 97 200c0 53.333 -15.333 94 -46 122s-64.334 42 -101.001 42c-31.333 0 -58.666 -12 -81.999 -36s-35 -54.667 -35 -92c0 -70 55.667 -148.667 167 -236zM485.999 700.002
c-97.333 -79.333 -146 -165.999 -146 -259.999c0 -74 25.5 -145.167 76.5 -213.5s117.5 -102.5 199.5 -102.5c74.667 0 156.667 35.667 246 107c-98 183.333 -223.333 339.666 -376 468.999z" />
    <glyph glyph-name="quotesingle" unicode="'" horiz-adv-x="576" 
d="M313 722l-48.001 0.000976562l-105 382c-13.333 48 -20 91 -20 129c0 43.333 13.833 79.833 41.5 109.5s62.834 44.5 105.501 44.5c46 0 82.167 -14.833 108.5 -44.5s39.5 -64.834 39.5 -105.501c0 -28 -7.66699 -72 -23 -132z" />
    <glyph glyph-name="parenleft" unicode="(" horiz-adv-x="683" 
d="M276 412c0 -200.667 37.501 -385.501 112.501 -554.501s139.833 -285.833 194.5 -350.5c15.333 -18.667 23 -31 23 -37c0 -10.667 -7 -16 -21 -16c-50.667 0 -82.5 3.66699 -95.5 11s-44.5 40.333 -94.5 99s-98.833 135.834 -146.5 231.501
s-84.834 192.834 -111.501 291.501s-40 207 -40 325c0 116.667 13 224.167 39 322.5s63.667 196.833 113 295.5s98.333 176.167 147 232.5s79.5 88.333 92.5 96s43.5 11.5 91.5 11.5c17.333 0 26 -5 26 -15c0 -6.66699 -7.66699 -19.334 -23 -38.001
c-57.333 -66.667 -122.833 -184.5 -196.5 -353.5s-110.5 -352.833 -110.5 -551.5z" />
    <glyph glyph-name="parenright" unicode=")" horiz-adv-x="683" 
d="M407 412c0 200.667 -37.335 385.662 -112.002 554.995s-139.334 286 -194.001 350c-16 18.667 -24 31.334 -24 38.001c0 10 8.33301 15 25 15c48.667 0 79.5 -3.83301 92.5 -11.5s44.5 -40.5 94.5 -98.5s99.167 -136.167 147.5 -234.5s85.333 -195.833 111 -292.5
s38.5 -203.667 38.5 -321s-13.167 -225.666 -39.5 -324.999s-63.666 -197.166 -111.999 -293.499s-97.166 -173.166 -146.499 -230.499s-80.5 -89.833 -93.5 -97.5s-44.833 -11.5 -95.5 -11.5c-14.667 0 -22 5 -22 15c0 6.66699 8 19.334 24 38.001
c56.667 66.667 121.834 184.667 195.501 354s110.5 353 110.5 551z" />
    <glyph glyph-name="asterisk" unicode="*" horiz-adv-x="1024" 
d="M939 927c0 -18 -6.50391 -34.166 -19.5039 -48.499s-30.167 -21.5 -51.5 -21.5c-20 0 -66.667 8.16699 -140 24.5s-116.666 26.5 -129.999 30.5c-7.33301 2.66699 -13.666 4 -18.999 4c-9.33301 0 -14 -4.33301 -14 -13c0 -7.33301 6 -14.333 18 -21
c31.333 -18 75.5 -47 132.5 -87s88.833 -64.333 95.5 -73s10 -21.334 10 -38.001c0 -44.667 -23.333 -67 -70 -67c-21.333 0 -41.833 12 -61.5 36s-50.834 71.333 -93.501 142l-35 55c-6 8.66699 -9.66699 14.667 -11 18c-6 10.667 -12.667 16 -20 16
c-8.66699 0 -13 -4.66699 -13 -14c0 -6.66699 12.667 -58.667 38 -156c15.333 -58.667 23 -97.667 23 -117c0 -53.333 -23.333 -80 -70 -80c-18.667 0 -34.334 6.5 -47.001 19.5s-19 30.833 -19 53.5c0 20 4.83301 61.833 14.5 125.5s20.167 114.834 31.5 153.501
c1.33301 4 2 7.66699 2 11c0 8.66699 -5 13 -15 13c-8.66699 0 -15.334 -5.33301 -20.001 -16c-6.66699 -15.333 -30.667 -55.166 -72 -119.499s-70.166 -102 -86.499 -113s-31.166 -16.5 -44.499 -16.5c-17.333 0 -33 6.16699 -47 18.5s-21 28.166 -21 47.499
c0 16 5.83301 31.667 17.5 47s48.167 43.166 109.5 83.499s99 64.166 113 71.499c16.667 8 25 16.333 25 25c0 8 -5 12 -15 12c-5.33301 0 -12.333 -1.33301 -21 -4c-17.333 -5.33301 -61 -15 -131 -29s-112.667 -21 -128 -21c-16.667 0 -32.167 6.5 -46.5 19.5
s-21.5 29.167 -21.5 48.5c0 18.667 7.33301 34.834 22 48.501s31.667 20.5 51 20.5c16.667 0 58.834 -6.5 126.501 -19.5s109.5 -22.5 125.5 -28.5c11.333 -4 20 -6 26 -6c11.333 0 17 4.66699 17 14c0 7.33301 -7.66699 15 -23 23
c-6.66699 2.66699 -43.167 25.334 -109.5 68.001s-104.666 70.167 -114.999 82.5s-15.5 25.5 -15.5 39.5c0 20 6.83301 36.5 20.5 49.5s29.167 19.5 46.5 19.5c14 0 29.833 -6.83301 47.5 -20.5s45.5 -50.5 83.5 -110.5s59 -94 63 -102c9.33301 -21.333 18.333 -32 27 -32
c10 0 15 5 15 15c0 6.66699 -1.33301 14.334 -4 23.001c-4.66699 16.667 -12 56.5 -22 119.5s-15 107.833 -15 134.5c0 54.667 21.667 82 65 82c48.667 0 73 -28.333 73 -85c0 -22 -6.66699 -56.667 -20 -104l-42 -153c-3.33301 -10 -5 -16.667 -5 -20
c0 -10.667 4 -16 12 -16c6.66699 0 15.667 8.33301 27 25c70.667 102 120.334 167.333 149.001 196s54 43 76 43c18.667 0 33.667 -7 45 -21s17 -29.667 17 -47c0 -14.667 -5 -28.334 -15 -41.001s-46.833 -40.167 -110.5 -82.5s-109.167 -69.833 -136.5 -82.5
c-14.667 -6.66699 -22 -14.334 -22 -23.001c0 -10 5 -15 15 -15c4 0 9.66699 1.33301 17 4c21.333 8 65 18.167 131 30.5s113 18.5 141 18.5c20 0 36.5 -7.16699 49.5 -21.5s19.5 -29.5 19.5 -45.5z" />
    <glyph glyph-name="plus" unicode="+" horiz-adv-x="1365" 
d="M139 606h478v478h132v-478h478v-131h-478v-478h-132v478h-478v131z" />
    <glyph glyph-name="comma" unicode="," horiz-adv-x="555" 
d="M448 73c0 -52.667 -19.833 -110.165 -59.5 -172.498s-90.167 -113 -151.5 -152s-102.666 -58.5 -123.999 -58.5c-14.667 0 -22 9 -22 27c0 9.33301 7 18.666 21 27.999c58.667 40.667 100.667 82.334 126 125.001s38 75.667 38 99c0 19.333 -15 32.666 -45 39.999
c-80.667 20 -121 60.333 -121 121c0 37.333 15.667 68.166 47 92.499s65.666 36.5 102.999 36.5c57.333 0 103 -19 137 -57s51 -81 51 -129z" />
    <glyph glyph-name="hyphen" unicode="-" horiz-adv-x="747" 
d="M41 505c0 20.667 1.83398 32.667 5.50098 36s17.834 5 42.501 5h569c24 0 38 -1.66699 42 -5s6 -15.333 6 -36v-112c0 -20.667 -1.83301 -32.667 -5.5 -36s-17.834 -5 -42.501 -5h-569c-24.667 0 -38.834 1.66699 -42.501 5s-5.5 15.333 -5.5 36v112z" />
    <glyph glyph-name="hyphen" unicode="&#xad;" horiz-adv-x="747" 
d="M41 505c0 20.667 1.83398 32.667 5.50098 36s17.834 5 42.501 5h569c24 0 38 -1.66699 42 -5s6 -15.333 6 -36v-112c0 -20.667 -1.83301 -32.667 -5.5 -36s-17.834 -5 -42.501 -5h-569c-24.667 0 -38.834 1.66699 -42.501 5s-5.5 15.333 -5.5 36v112z" />
    <glyph glyph-name="period" unicode="." horiz-adv-x="491" 
d="M385 120c0 -38.667 -13.667 -71.667 -41 -99s-60.333 -41 -99 -41c-38 0 -70.667 13.667 -98 41s-41 60.333 -41 99c0 38 13.667 70.667 41 98s60 41 98 41c38.667 0 71.667 -13.667 99 -41s41 -60 41 -98z" />
    <glyph glyph-name="slash" unicode="/" horiz-adv-x="1088" 
d="M834 1426h136l-717 -1463h-136z" />
    <glyph glyph-name="zero" unicode="0" horiz-adv-x="1088" 
d="M1037 547c0 -86 -17.6699 -173.002 -53.0029 -261.002s-92.666 -161.167 -171.999 -219.5s-170.666 -87.5 -273.999 -87.5c-141.333 0 -257.666 53.833 -348.999 161.5s-137 235.834 -137 384.501c0 154.667 47.167 289.5 141.5 404.5s211.5 172.5 351.5 172.5
c90.667 0 176.5 -25.5 257.5 -76.5s140.333 -122.167 178 -213.5s56.5 -179.666 56.5 -264.999zM767.997 551.998c0 153.333 -18.832 272.667 -56.499 358s-90.834 128 -159.501 128c-68 0 -123 -45 -165 -135s-63 -219 -63 -387c0 -154.667 20.667 -271.667 62 -351
s95 -119 161 -119c74 0 129.333 42.167 166 126.5s55 210.833 55 379.5z" />
    <glyph glyph-name="one" unicode="1" horiz-adv-x="1088" 
d="M694 1047l0.00195312 -755.003c0 -104.667 8.16699 -171.5 24.5 -200.5s46.166 -44.167 89.499 -45.5c31.333 -0.666992 51 -3.16699 59 -7.5s12 -12.166 12 -23.499c0 -18 -11 -27 -33 -27c-4.66699 0 -10.334 0.333008 -17.001 1c-104 7.33301 -180.333 11 -229 11
c-51.333 0 -125.666 -2.66699 -222.999 -8c-34.667 -1.33301 -58 -2 -70 -2c-26 0 -39 9 -39 27c0 11.333 4.16699 18.833 12.5 22.5s28.833 6.83398 61.5 9.50098c40.667 3.33301 69.834 12.833 87.501 28.5s28.5 32.5 32.5 50.5s7.33301 60.333 10 127v449
c0 76.667 -4.33301 129.834 -13 159.501s-22.667 50.667 -42 63s-50.333 20.833 -93 25.5c-34 4 -54.667 7.66699 -62 11s-11 10.333 -11 21c0 12 4.16699 19.667 12.5 23s26.166 6 53.499 8c122 9.33301 229.667 37.333 323 84c11.333 5.33301 20.666 8 27.999 8
c17.333 0 26 -20 26 -60z" />
    <glyph glyph-name="two" unicode="2" horiz-adv-x="1088" 
d="M852 0l-688.999 0.00195312c-33.333 0 -54 1.16699 -62 3.5s-12 7.83301 -12 16.5c0 11.333 10.333 23.666 31 36.999c62.667 42 149.834 113.5 261.501 214.5s191 198.333 238 292s70.5 188.834 70.5 285.501c0 55.333 -10.833 98.666 -32.5 129.999
s-51.167 47 -88.5 47c-44.667 0 -87.667 -16.667 -129 -50s-74 -80.833 -98 -142.5s-36 -123.5 -36 -185.5c0 -34.667 5.66699 -60.667 17 -78s28 -26 50 -26c28 0 54.667 15.333 80 46c24.667 30 41.667 56 51 78c9.33301 20.667 20.666 31 33.999 31
c18 0 27 -8.33301 27 -25c0 -26 -25 -71.833 -75 -137.5s-113 -98.5 -189 -98.5c-60.667 0 -108.834 19.833 -144.501 59.5s-53.5 84.5 -53.5 134.5c0 115.333 61.5 222.166 184.5 320.499s242.5 147.5 358.5 147.5c92.667 0 168 -28.167 226 -84.5s87 -126.166 87 -209.499
c0 -42.667 -9.5 -87 -28.5 -133s-43 -86.333 -72 -121s-88 -85.334 -177 -152.001s-174.5 -127.667 -256.5 -183h197c101.333 0 166.833 5.83301 196.5 17.5s59.167 37.834 88.5 78.501c21.333 30.667 38 46 50 46c18 0 27 -9.33301 27 -28
c0 -8.66699 -3 -19.334 -9 -32.001c-40.667 -86 -81.667 -185.667 -123 -299z" />
    <glyph glyph-name="three" unicode="3" horiz-adv-x="1088" 
d="M667 616c100 0 173.001 -26.166 219.001 -78.499s69 -107.166 69 -164.499c0 -68 -24 -133 -72 -195s-109.333 -110.5 -184 -145.5s-157 -52.5 -247 -52.5c-97.333 0 -180 21.167 -248 63.5s-102 95.166 -102 158.499c0 40.667 12.5 73 37.5 97s54.833 36 89.5 36
c30 0 57.167 -11 81.5 -33s36.5 -49 36.5 -81c0 -17.333 -5.66699 -38.333 -17 -63c-8 -18.667 -12 -32.334 -12 -41.001c0 -21.333 11.833 -38.833 35.5 -52.5s49.834 -20.5 78.501 -20.5c74 0 137.833 59.5 191.5 178.5s80.5 203.833 80.5 254.5
c0 27.333 -8 49.333 -24 66s-33.667 25 -53 25c-24.667 0 -67.334 -23.333 -128.001 -70c-42.667 -32.667 -68.667 -49 -78 -49c-19.333 0 -29 8.66699 -29 26c0 12 7.66699 24 23 36c116.667 92.667 191.5 166.167 224.5 220.5s49.5 105.5 49.5 153.5
c0 44.667 -11 80 -33 106s-50 39 -84 39c-52 0 -98.833 -23 -140.5 -69s-62.5 -99.333 -62.5 -160c0 -21.333 5.33301 -39 16 -53s23 -21 37 -21c29.333 0 59 26 89 78c6.66699 12 16 18 28 18c18 0 27 -9.33301 27 -28c0 -19.333 -21.833 -54.5 -65.5 -105.5
s-96.167 -76.5 -157.5 -76.5c-42 0 -77.667 14.833 -107 44.5s-44 66.834 -44 111.501c0 92.667 47 171.167 141 235.5s198 96.5 312 96.5c94.667 0 165.167 -20.167 211.5 -60.5s69.5 -86.166 69.5 -137.499c0 -30.667 -10.333 -62.334 -31 -95.001
s-42.334 -58.334 -65.001 -77.001s-77 -57 -163 -115z" />
    <glyph glyph-name="four" unicode="4" horiz-adv-x="1088" 
d="M529 395c-172 0 -334.333 -4.99414 -487 -14.9941c6.66699 45.333 13.5 74.333 20.5 87s42.5 56.167 106.5 130.5s126.333 142.833 187 205.5l182 181.5c60.667 58.333 99.5 92 116.5 101s33.833 13.5 50.5 13.5c20 0 33.333 -2.66699 40 -8s10 -15.666 10 -30.999l1 -49
v-547c134.667 0 206.334 53 215.001 159c1.33301 24.667 10.666 37 27.999 37c18 0 27 -12.667 27 -38c0 -7.33301 -0.666992 -18.333 -2 -33c-4 -52.667 -6 -105.334 -6 -158.001c0 -31.333 0.666992 -60.333 2 -87c3.33301 -46 5 -74.333 5 -85
c0 -28.667 -9.33301 -43 -28 -43c-14.667 0 -26 17.667 -34 53c-10 44 -25.833 76.333 -47.5 97s-60.834 31 -117.501 31c-9.33301 0 -23.333 -0.666992 -42 -2v-172c0 -72.667 7.33301 -120.334 22 -143.001s48.334 -34.334 101.001 -35.001
c24.667 -0.666992 37 -9.66699 37 -27c0 -19.333 -12.333 -29 -37 -29c-4.66699 0 -27.667 1 -69 3c-100.667 4.66699 -175.667 7 -225 7c-37.333 0 -86 -2.33301 -146 -7c-12 -1.33301 -20.667 -2 -26 -2c-32 0 -52 1.66699 -60 5s-12 10.666 -12 21.999
c0 18 21.667 29 65 33c33.333 3.33301 57.5 10.666 72.5 21.999s25.333 31.166 31 59.499s12.167 116.166 19.5 263.499zM131 455.006l398 8c1.33301 18 2 112 2 282c0 72.667 -0.666992 119.667 -2 141l-159 -164c-101.333 -103.333 -181 -192.333 -239 -267z" />
    <glyph glyph-name="five" unicode="5" horiz-adv-x="1088" 
d="M374 875l-41.001 -256.002c44.667 36.667 91 64.167 139 82.5s97.667 27.5 149 27.5c96.667 0 174.834 -30.333 234.501 -91s89.5 -135.334 89.5 -224.001c0 -112 -48.833 -211.833 -146.5 -299.5s-226.167 -131.5 -385.5 -131.5c-104.667 0 -184.5 20.667 -239.5 62
s-82.5 90.666 -82.5 147.999c0 38.667 13.333 69.834 40 93.501s58 35.5 94 35.5c36.667 0 65.834 -10.833 87.501 -32.5s32.5 -46.167 32.5 -73.5c0 -15.333 -4 -35.666 -12 -60.999c-6.66699 -20.667 -10 -36 -10 -46c0 -15.333 8 -29.666 24 -42.999s40.667 -20 74 -20
c89.333 0 154 42.167 194 126.5s60 176.833 60 277.5c0 65.333 -14.667 113.833 -44 145.5s-62.666 47.5 -99.999 47.5c-47.333 0 -92 -18 -134 -54c-42.667 -36 -70.334 -78 -83.001 -126c-8.66699 -32.667 -20.334 -49 -35.001 -49c-19.333 0 -29 10.667 -29 32
c0 14.667 14.833 117.834 44.5 309.501s49.5 304.5 59.5 338.5c68 -18 148.333 -27 241 -27c118 0 203 36.333 255 109c16.667 23.333 30 35 40 35c21.333 0 32 -9.33301 32 -28c0 -62 -40.333 -129.333 -121 -202s-193.667 -109 -339 -109c-20.667 0 -50 1 -88 3z" />
    <glyph glyph-name="six" unicode="6" horiz-adv-x="1088" 
d="M373 630c37.333 22.667 76.335 39.6699 117.002 51.0029s83 17 127 17c102 0 190.333 -31.167 265 -93.5s112 -146.833 112 -253.5c0 -110 -41.333 -200 -124 -270s-187.667 -105 -315 -105c-146.667 0 -259.834 45 -339.501 135s-119.5 207.333 -119.5 352
c0 178 54.833 328.833 164.5 452.5s256.5 185.5 440.5 185.5c100.667 0 177.667 -18.333 231 -55s80 -82.334 80 -137.001c0 -34.667 -13.5 -64.834 -40.5 -90.501s-58.167 -38.5 -93.5 -38.5c-37.333 0 -67.833 12.167 -91.5 36.5s-35.5 57.5 -35.5 99.5l1 57
c0 41.333 -25.333 62 -76 62c-72 0 -136.333 -33.833 -193 -101.5s-93.334 -168.834 -110.001 -303.501zM725.002 333.003c0 96.667 -14.667 169 -44 217s-73.333 72 -132 72c-62 0 -110.167 -24.667 -144.5 -74s-51.5 -116 -51.5 -200c0 -94 17.833 -168.5 53.5 -223.5
s81.834 -82.5 138.501 -82.5c55.333 0 99.166 26.5 131.499 79.5s48.5 123.5 48.5 211.5z" />
    <glyph glyph-name="seven" unicode="7" horiz-adv-x="1088" 
d="M820 864h-350.996c-92.667 0 -152 -5.33301 -178 -16s-54.667 -38 -86 -82c-24.667 -34 -42 -51 -52 -51c-18.667 0 -28 10 -28 30c0 20.667 11.5 83 34.5 187s40.667 166.333 53 187s24.166 31 35.499 31c12.667 0 24 -9.66699 34 -29
c6.66699 -12.667 18.167 -22.334 34.5 -29.001s64.833 -10.5 145.5 -11.5s125.667 -1.5 135 -1.5h398c-8.66699 -29.333 -23.334 -64 -44.001 -104c-86.667 -164 -144.334 -299.667 -173.001 -407s-46.334 -232.666 -53.001 -375.999c-4 -94 -16.5 -158.833 -37.5 -194.5
s-57.833 -53.5 -110.5 -53.5c-38 0 -69.833 12 -95.5 36s-38.5 54.667 -38.5 92c0 35.333 10.333 83 31 143s66 152.667 136 278z" />
    <glyph glyph-name="eight" unicode="8" horiz-adv-x="1088" 
d="M724 622c74.667 -32 130.667 -72.667 168 -122s56 -107 56 -173c0 -96.667 -41.5 -179.5 -124.5 -248.5s-185.167 -103.5 -306.5 -103.5c-114 0 -207.667 27.167 -281 81.5s-110 116.166 -110 185.499c0 48 18.833 97 56.5 147s96.167 92.667 175.5 128
c-66 32 -115.5 70.333 -148.5 115s-49.5 96 -49.5 154c0 98 38.167 177 114.5 237s170.833 90 283.5 90c107.333 0 193 -23 257 -69s96 -104.333 96 -175c0 -44.667 -13.833 -85.167 -41.5 -121.5s-76.167 -78.166 -145.5 -125.499zM649 657
c33.333 22.667 61 52.001 83 88.001s33 74 33 114c0 44 -18.167 87 -54.5 129s-89.5 63 -159.5 63c-64.667 0 -116.167 -18.5 -154.5 -55.5s-57.5 -76.833 -57.5 -119.5c0 -28 12 -57.833 36 -89.5s87.333 -65.167 190 -100.5c44 -14.667 72 -24.334 84 -29.001z
M428 484.001c-44 -34.667 -76.998 -71.833 -98.998 -111.5s-33 -82.167 -33 -127.5c0 -60 21.667 -109 65 -147s98.666 -57 165.999 -57c75.333 0 132.666 20.5 171.999 61.5s59 87.833 59 140.5c0 38 -15.5 73.667 -46.5 107s-125.5 78 -283.5 134z" />
    <glyph glyph-name="nine" unicode="9" horiz-adv-x="1088" 
d="M716 446c-37.333 -22 -76.3311 -38.6689 -116.998 -50.002s-83 -17 -127 -17c-102.667 0 -191.334 31.167 -266.001 93.5s-112 146.833 -112 253.5c0 108.667 41.667 198.334 125 269.001s188.333 106 315 106c146.667 0 259.834 -45.167 339.501 -135.5
s119.5 -207.5 119.5 -351.5c0 -178.667 -55 -329.667 -165 -453s-256.667 -185 -440 -185c-104.667 0 -182.667 18.5 -234 55.5s-77 82.5 -77 136.5c0 34 13.5 64 40.5 90s58.167 39 93.5 39c31.333 0 60.166 -11 86.499 -33s39.5 -56.667 39.5 -104l-1 -56
c0 -42 25.667 -63 77 -63c75.333 0 140.166 34.833 194.499 104.5s90.5 169.834 108.5 300.501zM364.002 742.998c0 -96 14.667 -167.999 44 -215.999s73.333 -72 132 -72c56.667 0 103.5 22.667 140.5 68s55.5 113.666 55.5 204.999c0 94.667 -17.833 169.5 -53.5 224.5
s-82.167 82.5 -139.5 82.5c-55.333 0 -99 -26.5 -131 -79.5s-48 -123.833 -48 -212.5z" />
    <glyph glyph-name="colon" unicode=":" horiz-adv-x="491" 
d="M385 635c0 -38 -13.667 -70.667 -41 -98s-60.333 -41 -99 -41c-38 0 -70.667 13.5 -98 40.5s-41 59.833 -41 98.5s13.667 71.5 41 98.5s60 40.5 98 40.5c38.667 0 71.667 -13.5 99 -40.5s41 -59.833 41 -98.5zM385 120c0 -38.667 -13.667 -71.667 -41 -99
s-60.333 -41 -99 -41c-38 0 -70.667 13.667 -98 41s-41 60.333 -41 99c0 38 13.667 70.667 41 98s60 41 98 41c38.667 0 71.667 -13.667 99 -41s41 -60 41 -98z" />
    <glyph glyph-name="semicolon" unicode=";" horiz-adv-x="555" 
d="M417 635c0 -38 -13.667 -70.667 -41 -98s-60.333 -41 -99 -41c-38 0 -70.667 13.667 -98 41s-41 60 -41 98s13.667 70.667 41 98s60 41 98 41c38.667 0 71.667 -13.5 99 -40.5s41 -59.833 41 -98.5zM448 73c0 -52.667 -19.833 -110.165 -59.5 -172.498
s-90.167 -113 -151.5 -152s-102.666 -58.5 -123.999 -58.5c-14.667 0 -22 9 -22 27c0 9.33301 7 18.666 21 27.999c58.667 40.667 100.667 82.334 126 125.001s38 75.667 38 99c0 19.333 -15 32.666 -45 39.999c-80.667 20 -121 60.333 -121 121
c0 37.333 15.667 68.166 47 92.499s65.666 36.5 102.999 36.5c57.333 0 103 -19 137 -57s51 -81 51 -129z" />
    <glyph glyph-name="less" unicode="&#x3c;" horiz-adv-x="1365" 
d="M140 602l1087 456v-142l-911 -374l911 -374v-142l-1088 458z" />
    <glyph glyph-name="equal" unicode="=" horiz-adv-x="1365" 
d="M139 836h1088v-131h-1088v131zM139 376h1088v-131h-1088v131z" />
    <glyph glyph-name="greater" unicode="&#x3e;" horiz-adv-x="1365" 
d="M1225 482l-1086 -456v142l910 374l-910 374v142l1088 -457z" />
    <glyph glyph-name="question" unicode="?" horiz-adv-x="960" 
d="M323 636l-25.999 -274.003h-80l-7 419c73.333 -63.333 138.333 -95 195 -95s103.167 29.333 139.5 88s54.5 132.334 54.5 221.001s-19.667 158 -59 208s-81.666 75 -126.999 75c-43.333 0 -65 -14 -65 -42c0 -4.66699 1 -10.334 3 -17.001
c6.66699 -19.333 10 -34.666 10 -45.999c0 -32 -12.333 -59.333 -37 -82s-55.667 -34 -93 -34c-36.667 0 -66 10.833 -88 32.5s-33 50.5 -33 86.5c0 50.667 26.167 91.334 78.5 122.001s118.166 46 197.499 46c138 0 251.167 -42.667 339.5 -128s132.5 -182 132.5 -290
c0 -95.333 -33 -176.166 -99 -242.499s-143.667 -99.5 -233 -99.5c-78.667 0 -146.334 17.333 -203.001 52zM417.001 119.997c0 -38.667 -13.667 -71.667 -41 -99s-60.333 -41 -99 -41c-38 0 -70.667 13.667 -98 41s-41 60.333 -41 99c0 38 13.667 70.667 41 98s60 41 98 41
c38.667 0 71.667 -13.667 99 -41s41 -60 41 -98z" />
    <glyph glyph-name="at" unicode="@" horiz-adv-x="1899" 
d="M1179 925l244.001 10l-183 -628c-20.667 -68.667 -31 -120 -31 -154c0 -22.667 8 -41.834 24 -57.501s35.333 -23.5 58 -23.5c47.333 0 107 27 179 81s131.833 129.333 179.5 226s71.5 201.334 71.5 314.001c0 175.333 -57 324.333 -171 447s-272 184 -474 184
c-153.333 0 -297.833 -36.833 -433.5 -110.5s-243.834 -185.334 -324.501 -335.001s-121 -308.834 -121 -477.501c0 -158 34.667 -296.667 104 -416s163.833 -211 283.5 -275s252.5 -96 398.5 -96c180 0 346 50.167 498 150.5s258 233.833 318 400.5h61
c-76.667 -194.667 -192.667 -344.5 -348 -449.5s-333.333 -157.5 -534 -157.5c-250.667 0 -461 81 -631 243s-255 373.667 -255 635c0 268 89.833 493.5 269.5 676.5s412.167 274.5 697.5 274.5c143.333 0 270.166 -28.167 380.499 -84.5s194.333 -138.166 252 -245.499
s86.5 -223.333 86.5 -348c0 -192.667 -56.667 -359 -170 -499s-256.666 -210 -429.999 -210c-72 0 -123.833 18 -155.5 54s-47.5 77.667 -47.5 125c0 32.667 8 78.334 24 137.001c-122 -210.667 -237 -316 -345 -316c-53.333 0 -94.666 21 -123.999 63s-44 96.333 -44 163
c0 102.667 23.167 208.667 69.5 318s114.666 206.5 204.999 291.5s170.833 127.5 241.5 127.5c41.333 0 74 -13 98 -39s39 -65.333 45 -118zM1099 756c0 42.667 -6.83203 75.833 -20.499 99.5s-30.5 35.5 -50.5 35.5c-56.667 0 -118.167 -78.333 -184.5 -235
s-99.5 -282.667 -99.5 -378c0 -26 5.33301 -48.333 16 -67s24.667 -28 42 -28c26.667 0 64.667 28.833 114 86.5s92.166 134.667 128.499 231s54.5 181.5 54.5 255.5z" />
    <glyph glyph-name="A" unicode="A" horiz-adv-x="1429" 
d="M660 1356l68.999 -0.000976562c88 -190.667 212.333 -490.667 373 -900c74 -188 125 -301.833 153 -341.5s72.333 -63.834 133 -72.501c20 -2.66699 30 -11.334 30 -26.001c0 -20.667 -13 -31 -39 -31c-14 0 -50.333 2.33301 -109 7c-69.333 6 -127.666 9 -174.999 9
c-46 0 -106 -2.66699 -180 -8c-55.333 -4 -91.666 -6 -108.999 -6c-30.667 0 -46 9.66699 -46 29c0 14.667 10.667 23 32 25c82 7.33301 123 39.333 123 96c0 26.667 -12 75.834 -36 147.501s-49.667 136.834 -77 195.501c-43.333 0.666992 -77 1 -101 1
c-134 0 -238.333 -0.333008 -313 -1c-58 -158 -87 -262.667 -87 -314c0 -36.667 14.333 -65.167 43 -85.5s59.667 -32.166 93 -35.499c25.333 -2.66699 38 -13 38 -31s-13.667 -27 -41 -27c-10.667 0 -38.667 1.66699 -84 5c-58.667 4.66699 -101.334 7 -128.001 7
c-52.667 0 -102.667 -3.33301 -150 -10c-12 -2 -22 -3 -30 -3c-24.667 0 -37 10 -37 30c0 14.667 8 24.334 24 29.001c40 11.333 71.333 25.333 94 42s47.167 48.667 73.5 96s57.833 123 94.5 227c82.667 233.333 205.667 548.666 369 945.999zM589.999 1007
l-171.999 -446.001l352 5c-18.667 52 -47.334 123.333 -86.001 214c-42 98.667 -73.333 174.334 -94 227.001z" />
    <glyph glyph-name="B" unicode="B" horiz-adv-x="1301" 
d="M794 713c138 -29.333 241.332 -74.1699 309.999 -134.503s103 -136.5 103 -228.5c0 -76.667 -25.167 -145.667 -75.5 -207s-112 -102.5 -185 -123.5s-179.167 -31.5 -318.5 -31.5c-34 0 -87.333 2 -160 6c-60 3.33301 -107 5 -141 5c-45.333 0 -106.333 -3 -183 -9
c-31.333 -2.66699 -53.333 -4 -66 -4c-26 0 -39 9.66699 -39 29c0 14.667 10.333 23.334 31 26.001c42 5.33301 72.5 12.5 91.5 21.5s34.333 24.167 46 45.5s17.5 56 17.5 104l8 467c0 145.333 -1.66699 261.5 -5 348.5s-9.16602 143.167 -17.499 168.5s-20 43 -35 53
s-37.5 16 -67.5 18c-26.667 1.33301 -43.834 4.33301 -51.501 9s-11.5 12.334 -11.5 23.001c0 14 7.83301 22.667 23.5 26s59.834 5 132.501 5c133.333 0 258 4.66699 374 14c68.667 5.33301 123.667 8 165 8c122.667 0 220.667 -27.167 294 -81.5
s110 -127.166 110 -218.499c0 -157.333 -116.667 -270.333 -350 -339zM518.999 727.996c229.333 0 344 98.999 344 296.999c0 87.333 -20.333 152.5 -61 195.5s-88 64.5 -142 64.5c-38.667 0 -85.667 -9.33301 -141 -28c-5.33301 -67.333 -8 -137.666 -8 -210.999
c0 -62 2.66699 -168 8 -318zM518.999 650.995c-5.33301 -140.667 -8 -258 -8 -352c0 -124 5 -195 15 -213s41.667 -27 95 -27c96 0 167.833 25.667 215.5 77s71.5 122 71.5 212s-24.667 163.833 -74 221.5s-124.333 86.5 -225 86.5c-22 0 -52 -1.66699 -90 -5z" />
    <glyph glyph-name="C" unicode="C" horiz-adv-x="1365" 
d="M1137 1229c14 17.333 28.665 36.6699 43.998 58.0029c18 26 33 39 45 39c13.333 0 22 -3.33301 26 -10s7.33301 -27.334 10 -62.001l20 -312l2 -40c0 -26.667 -10.667 -40 -32 -40c-14 0 -25.333 11 -34 33c-27.333 70.667 -76.5 149.167 -147.5 235.5
s-160.5 129.5 -268.5 129.5c-80 0 -147.167 -23.167 -201.5 -69.5s-96.666 -109.833 -126.999 -190.5s-45.5 -177.334 -45.5 -290.001c0 -192.667 42.333 -345.834 127 -459.501s190 -170.5 316 -170.5c136.667 0 262 82.667 376 248c14 20 27.333 30 40 30
c21.333 0 32 -10.667 32 -32c0 -44 -52.5 -114 -157.5 -210s-236.5 -144 -394.5 -144c-209.333 0 -374.666 64.667 -495.999 194s-182 288.333 -182 477c0 188 61.167 351.167 183.5 489.5s276.833 207.5 463.5 207.5c131.333 0 265 -37 401 -111z" />
    <glyph glyph-name="D" unicode="D" horiz-adv-x="1621" 
d="M788 -22c-29.333 0 -149.667 2.00195 -361 6.00195l-220 -1l-129 2c-30.667 0 -49.834 1.83301 -57.501 5.5s-11.5 11.834 -11.5 24.501c0 19.333 14.333 29 43 29c54.667 0 94.667 9.33301 120 28s41.333 53 48 103s12.834 149.667 18.501 299s8.5 286.666 8.5 411.999
c0 176.667 -8.5 285.167 -25.5 325.5s-59.167 62.166 -126.5 65.499c-24 2 -36 12 -36 30s10.667 27 32 27c12.667 0 55.667 -3.66699 129 -11c81.333 -7.33301 138 -11 170 -11l379 8c126.667 0 248.667 -24.167 366 -72.5s210.5 -127.333 279.5 -237
s103.5 -233.834 103.5 -372.501c0 -102.667 -20.167 -198.5 -60.5 -287.5s-98.833 -163.833 -175.5 -224.5s-152.667 -100.5 -228 -119.5s-164 -28.5 -266 -28.5zM719.999 51.002c140 0 250.668 48.999 332.001 146.999s122 238 122 420
c0 184.667 -43.833 336.834 -131.5 456.501s-212.167 179.5 -373.5 179.5c-55.333 0 -88.5 -3.16699 -99.5 -9.5s-17.833 -12.833 -20.5 -19.5s-6.66699 -81.334 -12 -224.001l-12 -339c-2 -83.333 -3 -186.666 -3 -309.999c0 -92.667 4 -156.5 12 -191.5s25.667 -62 53 -81
s71.666 -28.5 132.999 -28.5z" />
    <glyph glyph-name="E" unicode="E" horiz-adv-x="1344" 
d="M1152 1310l63.001 -311.994c0 -19.333 -9.66699 -29 -29 -29c-10.667 0 -22.667 9.33301 -36 28c-68.667 100 -131.5 166 -188.5 198s-139.167 48 -246.5 48c-60 0 -118 -5 -174 -15c-12 -118 -18 -247.333 -18 -388c0 -24 0.666992 -64.333 2 -121l76 -1
c47.333 0 88.166 6.5 122.499 19.5s63.5 40.667 87.5 83s37.667 69.5 41 81.5c6 21.333 16.333 32 31 32c18.667 0 28 -8 28 -24c0 -4.66699 -0.666992 -10 -2 -16c-8 -41.333 -12 -165 -12 -371c0 -28.667 2.33301 -54.667 7 -78c1.33301 -6.66699 2 -12.334 2 -17.001
c0 -18.667 -10.667 -28 -32 -28c-14.667 0 -26 17.667 -34 53c-13.333 62 -43.666 109.167 -90.999 141.5s-122 49.166 -224 50.499c-3.33301 -112 -5 -185.667 -5 -221c0 -152 2.33301 -242.333 7 -271s21.667 -51.834 51 -69.501s79 -26.5 149 -26.5
c254 0 421 80.667 501 242c11.333 22.667 23.666 34 36.999 34c19.333 0 29 -8 29 -24c0 -10.667 -2 -24.334 -6 -41.001l-65 -287l-362 1c-102 0.666992 -197.167 3 -285.5 7s-157.5 6 -207.5 6c-56 0 -140.333 -3.33301 -253 -10c-14 -1.33301 -24.333 -2 -31 -2
c-31.333 0 -47 10.333 -47 31c0 18.667 12.667 28 38 28c64.667 0 108.167 17.5 130.5 52.5s33.5 106.5 33.5 214.5l6 515c0 176 -2.16699 284.167 -6.5 324.5s-15.833 67.666 -34.5 81.999s-53.667 25.166 -105 32.499c-21.333 2.66699 -32 12 -32 28c0 20 12.333 30 37 30
l241 -8z" />
    <glyph glyph-name="F" unicode="F" horiz-adv-x="1259" 
d="M1189 1314l50.998 -301.997l2 -14c0 -19.333 -7 -29 -21 -29c-9.33301 0 -18.666 7.33301 -27.999 22c-51.333 80 -109.333 142.167 -174 186.5s-169 66.5 -313 66.5c-99.333 0 -155 -10.5 -167 -31.5s-18 -185.167 -18 -492.5c74 0 130.833 5.16699 170.5 15.5
s70.334 28.5 92.001 54.5s41.5 74 59.5 144c4.66699 18.667 12.334 28 23.001 28c20 0 30 -12.667 30 -38l-7 -319c-2 -110.667 -5 -170.167 -9 -178.5s-11.333 -12.5 -22 -12.5c-16.667 0 -26.667 13.333 -30 40c-7.33301 62 -28.5 110.833 -63.5 146.5
s-116.167 53.5 -243.5 53.5l-1 -371c0 -72.667 5.16699 -124.334 15.5 -155.001s25.833 -51.5 46.5 -62.5s53 -17.167 97 -18.5c32 -0.666992 52.333 -2.83398 61 -6.50098s13 -11.834 13 -24.501c0 -21.333 -15 -32 -45 -32c-27.333 0 -79.333 2.33301 -156 7
c-64.667 4 -113.334 6 -146.001 6l-316 -11c-32 0 -48 9.66699 -48 29c0 18 19.667 27.667 59 29c68 2.66699 108.667 33 122 91s20 268.667 20 632c0 236 -8.5 376.667 -25.5 422s-58.5 68 -124.5 68l-27 -1c-24 0 -36 10 -36 30c0 18.667 19.333 28 58 28h1101z" />
    <glyph glyph-name="G" unicode="G" horiz-adv-x="1664" 
d="M1421 1219l29 -290c1.33301 -13.333 2 -24 2 -32c0 -20.667 -9 -31 -27 -31c-16.667 0 -30.667 11.667 -42 35c-52 107.333 -120.5 194.666 -205.5 261.999s-182.833 101 -293.5 101c-142.667 0 -254.167 -59.667 -334.5 -179s-120.5 -260.333 -120.5 -423
c0 -181.333 44.5 -329.833 133.5 -445.5s193.833 -173.5 314.5 -173.5c51.333 0 103.5 11.833 156.5 35.5s87 49 102 76s22.5 65.833 22.5 116.5c0 112 -4.5 181.833 -13.5 209.5s-23.833 46.834 -44.5 57.501s-62.667 19.667 -126 27
c-24.667 2.66699 -37 12.334 -37 29.001c0 19.333 11.667 29 35 29h151l461 11c20.667 0 31 -8.66699 31 -26c0 -10 -4 -16.833 -12 -20.5s-36 -10.5 -84 -20.5c-36 -8 -59 -20 -69 -36s-17.667 -116.667 -23 -302c-1.33301 -41.333 -2.66602 -64.5 -3.99902 -69.5
s-40.833 -27.667 -118.5 -68s-157.667 -70.333 -240 -90s-164.166 -29.5 -245.499 -29.5c-137.333 0 -260 27 -368 81s-195 130.167 -261 228.5s-99 215.5 -99 351.5c0 192 66.167 357.833 198.5 497.5s313.5 209.5 543.5 209.5c81.333 0 154.833 -9.83301 220.5 -29.5
s140.167 -47.834 223.5 -84.501c16.667 -7.33301 31 -11 43 -11c13.333 0 23.666 9.66699 30.999 29c9.33301 25.333 21.666 38 36.999 38c18 0 29 -21 33 -63z" />
    <glyph glyph-name="H" unicode="H" horiz-adv-x="1579" 
d="M1063 716l9.00586 304.004c0 85.333 -8.66699 146 -26 182s-53.666 55 -108.999 57c-45.333 2 -68 12.667 -68 32c0 20.667 13.333 31 40 31c30.667 0 77.334 -1.66699 140.001 -5c80.667 -4 125.667 -6 135 -6c113.333 0 212.666 2.66699 297.999 8
c16 1.33301 27.333 2 34 2c25.333 0 38 -9.33301 38 -28c0 -20.667 -14.333 -31.334 -43 -32.001c-46.667 -0.666992 -79.834 -7 -99.501 -19s-33.334 -30.5 -41.001 -55.5s-13.834 -113 -18.501 -264s-7 -254.833 -7 -311.5c0 -234.667 1.5 -378.334 4.5 -431.001
s15 -89.334 36 -110.001s56.833 -31 107.5 -31c31.333 0 47 -10 47 -30c0 -17.333 -12 -26 -36 -26c-8 0 -25.333 1 -52 3l-277 9c-16.667 0 -48.667 -1.33301 -96 -4c-90.667 -6 -149.334 -9 -176.001 -9c-24 0 -36 9.66699 -36 29c0 17.333 10 26 30 26
c48 0 83 8.33301 105 25s38 55 48 115s15 179.667 15 359c0 18.667 -0.666992 46.667 -2 84c-116.667 3.33301 -220 5 -310 5c-103.333 0 -185 -3.33301 -245 -10c-8 -134 -12 -255.333 -12 -364c0 -77.333 8.5 -131 25.5 -161s52.5 -46.333 106.5 -49
c26 -1.33301 39 -11 39 -29c0 -18.667 -13.667 -28 -41 -28c-10 0 -24.667 1 -44 3c-79.333 7.33301 -162.333 11 -249 11c-40.667 0 -95 -2 -163 -6c-48 -3.33301 -79 -5 -93 -5c-34.667 0 -52 10 -52 30c0 16 13.667 25.667 41 29
c51.333 5.33301 86.166 16.333 104.499 33s32 48.167 41 94.5s14.333 178.5 16 396.5s2.5 337 2.5 357c0 98.667 -3.5 170.167 -10.5 214.5s-18.833 74.166 -35.5 89.499s-42.334 25 -77.001 29c-26.667 4 -43.334 7.83301 -50.001 11.5s-10 11.5 -10 23.5
c0 20 11.333 30 34 30c28.667 0 77 -2.66699 145 -8c38 -2.66699 81 -4 129 -4l282 9c32.667 0 49 -10.333 49 -31c0 -20 -13.333 -30 -40 -30c-44 0 -74.333 -5.33301 -91 -16s-29 -31.667 -37 -63s-12 -92 -12 -182l2 -284c84.667 -8.66699 176 -13 274 -13
c97.333 0 191 4.33301 281 13z" />
    <glyph glyph-name="I" unicode="I" horiz-adv-x="789" 
d="M108 1323c23.333 0 71.335 -1.66699 144.002 -5c55.333 -2.66699 99.333 -4 132 -4l307 8c26 0 39 -9 39 -27c0 -16 -11.667 -25.333 -35 -28c-52.667 -5.33301 -87.834 -15.166 -105.501 -29.499s-31.334 -47.5 -41.001 -99.5s-14.5 -169.667 -14.5 -353
c0 -210.667 3.33301 -373.5 10 -488.5s20.167 -186 40.5 -213s54.166 -40.5 101.499 -40.5c32.667 0 49 -8.66699 49 -26c0 -23.333 -17.667 -35 -53 -35c-10 0 -24.667 0.333008 -44 1c-125.333 8.66699 -211 13 -257 13c-100.667 0 -175 -3 -223 -9
c-25.333 -2.66699 -43.333 -4 -54 -4c-24.667 0 -37 9.66699 -37 29c0 15.333 10.333 24.333 31 27c56.667 7.33301 94.834 23.166 114.501 47.499s31.5 82.833 35.5 175.5s6 236.667 6 432c0 206 -3.66699 343.833 -11 413.5s-19.5 112.5 -36.5 128.5s-49.5 26 -97.5 30
c-25.333 2 -38 12.333 -38 31c0 17.333 12.333 26 37 26z" />
    <glyph glyph-name="J" unicode="J" horiz-adv-x="960" 
d="M570 1313l290.999 8.00098c32 0 48 -9.66699 48 -29c0 -18 -15.333 -27.667 -46 -29c-44 -2.66699 -76.333 -16.334 -97 -41.001s-32.834 -95.334 -36.501 -212.001s-5.5 -226.667 -5.5 -330l2 -207c0 -132.667 -15.833 -230 -47.5 -292s-82 -113.167 -151 -153.5
s-146.167 -60.5 -231.5 -60.5c-92 0 -165.667 22.333 -221 67s-83 98.334 -83 161.001c0 40.667 14.5 76.667 43.5 108s67.833 47 116.5 47c44 0 78.5 -12.333 103.5 -37s37.5 -53 37.5 -85c0 -18.667 -9.66699 -46 -29 -82c-14.667 -26 -22 -45 -22 -57
c0 -16.667 5.33301 -29.167 16 -37.5s26.334 -12.5 47.001 -12.5c52.667 0 90.334 25.5 113.001 76.5s34 176.5 34 376.5c0 414 -5.66699 646 -17 696s-61.333 76 -150 78c-27.333 0.666992 -41 10 -41 28c0 20 14.667 30 44 30c6.66699 0 30.667 -1.33301 72 -4
c86.667 -4.66699 156.667 -7 210 -7z" />
    <glyph glyph-name="K" unicode="K" horiz-adv-x="1429" 
d="M511 691c73.333 60 157.668 144.668 253.001 254.001s150.5 175 165.5 197s22.5 39.667 22.5 53c0 34 -31 57.333 -93 70c-26.667 5.33301 -40 16.333 -40 33c0 20 12.667 30 38 30c8.66699 0 20 -0.666992 34 -2c51.333 -7.33301 125 -11 221 -11
c24.667 0 63.667 2 117 6c50.667 3.33301 84.667 5 102 5c28.667 0 43 -10 43 -30c0 -17.333 -13.667 -27.666 -41 -30.999c-38 -4 -76.333 -14.5 -115 -31.5s-85 -47.333 -139 -91s-110 -96.834 -168 -159.501l-197 -217l67 2c76.667 0 140.667 -16.333 192 -49
s87.833 -72.334 109.5 -119.001s46.5 -128.667 74.5 -246c21.333 -87.333 39 -148.333 53 -183s35.833 -64.5 65.5 -89.5s62.167 -38.833 97.5 -41.5c30 -2.66699 45 -11 45 -25c0 -20 -14.333 -30 -43 -30c-8 0 -19.667 0.666992 -35 2c-58 6.66699 -118 10 -180 10
c-66 0 -131.667 -4 -197 -12c-22.667 35.333 -39.834 73 -51.501 113s-29.5 136.333 -53.5 289c-18 112.667 -42.833 188.5 -74.5 227.5s-67.167 58.5 -106.5 58.5c-47.333 0 -102.666 -30.667 -165.999 -92l-2 -258c0 -118.667 6.66699 -192.667 20 -222
s49.666 -47.666 108.999 -54.999c31.333 -4 47 -12.667 47 -26c0 -23.333 -14 -35 -42 -35c-13.333 0 -33 1.33301 -59 4c-67.333 7.33301 -147.333 11 -240 11c-60 0 -128.667 -4.33301 -206 -13c-26.667 -2.66699 -46 -4 -58 -4c-22.667 0 -34 11 -34 33
c0 10.667 3.66699 18 11 22s24.333 7.33301 51 10c32 4 55.167 12.5 69.5 25.5s24.666 35 30.999 66s11.333 105.833 15 224.5s5.5 250 5.5 394c0 145.333 -1.83301 248 -5.5 308s-11.167 104.167 -22.5 132.5s-23.833 46.333 -37.5 54s-41.5 13.5 -83.5 17.5
c-21.333 1.33301 -32 10.666 -32 27.999c0 20.667 16.667 31 50 31c24 0 60 -2 108 -6c59.333 -5.33301 108 -8 146 -8c23.333 0 89.666 3 198.999 9c32 1.33301 56.667 2 74 2c25.333 0 38 -9 38 -27c0 -18.667 -13 -29.334 -39 -32.001
c-44.667 -4 -73.667 -14.667 -87 -32s-20.666 -44.166 -21.999 -80.499s-2.66602 -190.833 -3.99902 -463.5z" />
    <glyph glyph-name="L" unicode="L" horiz-adv-x="1280" 
d="M1183 -12c-166.667 8.66699 -425.996 13 -777.996 13c-122.667 0 -222.334 -3.66699 -299.001 -11c-18.667 -1.33301 -32.334 -2 -41.001 -2c-25.333 0 -38 10 -38 30c0 9.33301 3.33301 15.833 10 19.5s23 7.5 49 11.5c41.333 6 73 18.167 95 36.5
s37.5 45.666 46.5 81.999s14.167 129 15.5 278s2 326.167 2 531.5c0 82 -6 141.5 -18 178.5s-29.167 64 -51.5 81s-53.833 26.5 -94.5 28.5c-28.667 1.33301 -43 12 -43 32s16.333 30 49 30l332 -9c51.333 0 123 2.33301 215 7c33.333 1.33301 56 2 68 2
c28 0 42 -9.66699 42 -29c0 -10.667 -4.5 -18.167 -13.5 -22.5s-31.5 -9.16602 -67.5 -14.499c-44.667 -6 -76.167 -17.333 -94.5 -34s-30.666 -45.667 -36.999 -87s-9.5 -134 -9.5 -278v-607c0.666992 -93.333 9 -148.833 25 -166.5s46.333 -26.5 91 -26.5
c109.333 0 190.666 8.5 243.999 25.5s104.166 47.833 152.499 92.5s100.166 119.667 155.499 225c11.333 21.333 23 32 35 32c18 0 27 -9.66699 27 -29c0 -43.333 -23 -183.333 -69 -420z" />
    <glyph glyph-name="M" unicode="M" horiz-adv-x="1920" 
d="M521 1315c17.333 -41.333 49.333 -106.832 96 -196.499l138.5 -273c45.667 -92.333 97.167 -189.5 154.5 -291.5c46 -80.667 72 -128 78 -142c167.333 374 294 675 380 903c160 0 307.667 4 443 12c12.667 0.666992 22 1 28 1c27.333 0 41 -10.667 41 -32
c0 -18.667 -10.667 -28 -32 -28c-76 0 -125.833 -25.833 -149.5 -77.5s-35.5 -177.5 -35.5 -377.5l-1 -490c0 -100 13.167 -170 39.5 -210s69.166 -61 128.499 -63c28.667 -0.666992 43 -10.334 43 -29.001c0 -10 -6 -18.333 -18 -25l-281 2c-86 0 -203.667 -3 -353 -9
c-12.667 8.66699 -19 18 -19 28c0 15.333 17.333 25.666 52 30.999c35.333 6 60.833 14.667 76.5 26s27.5 32.333 35.5 63s12 75.667 12 135l4 447c0 228.667 0.333008 360.334 1 395.001c-181.333 -421.333 -293.666 -690.333 -336.999 -807l-101 -271
c-11.333 -28.667 -22.666 -43 -33.999 -43c-12 0 -26.333 17.667 -43 53c-48.667 102.667 -222.334 441.667 -521.001 1017c-3.33301 -165.333 -5 -388.333 -5 -669c0 -148 8.33301 -241.5 25 -280.5s63.334 -61.833 140.001 -68.5c25.333 -2.66699 38 -12 38 -28
c0 -17.333 -10.333 -26 -31 -26c-7.33301 0 -15.333 0.333008 -24 1c-80 5.33301 -137.333 8 -172 8c-94.667 0 -166.334 -3.33301 -215.001 -10c-9.33301 -1.33301 -16.333 -2 -21 -2c-23.333 0 -35 9.66699 -35 29c0 9.33301 2.83301 15.833 8.5 19.5
s20.834 8.16699 45.501 13.5c64 12 105.833 35 125.5 69s29.5 89.667 29.5 167l5 571c0 130 -3.33301 216 -10 258s-23 74.333 -49 97s-68.333 39.667 -127 51c-22 4.66699 -33 15.667 -33 33c0 18.667 12 28 36 28c5.33301 0 12.666 -0.333008 21.999 -1
c68 -5.33301 208.333 -8 421 -8z" />
    <glyph glyph-name="N" unicode="N" horiz-adv-x="1557" 
d="M416 1321c319.333 -363.333 585.665 -654.665 798.998 -873.998c0.666992 45.333 1 74.666 1 87.999l1 396c0 93.333 -5.33301 160.166 -16 200.499s-33.334 72.166 -68.001 95.499s-75 37 -121 41c-24.667 2.66699 -37 13 -37 31c0 19.333 11.333 29 34 29
c12.667 0 29 -1.33301 49 -4c38 -4.66699 93.667 -7 167 -7c92 0 162 2.66699 210 8c20 2 37 3 51 3c25.333 0 38 -9.66699 38 -29c0 -18.667 -17 -29.667 -51 -33c-42 -4 -81.167 -21.667 -117.5 -53s-54.5 -93 -54.5 -185l5 -566l-7 -426c0 -36.667 -11.333 -55 -34 -55
c-6 0 -13 2 -21 6s-53.833 50.167 -137.5 138.5l-373 411c-165 185.667 -280.833 318.834 -347.5 399.501c-1.33301 -18 -2 -185.667 -2 -503c0 -98 4.16699 -174.833 12.5 -230.5s34.333 -96 78 -121s83.167 -37.5 118.5 -37.5c22.667 0 34 -8.66699 34 -26
c0 -20 -12 -30 -36 -30c-15.333 0 -34.666 1.33301 -57.999 4c-40 5.33301 -91 8 -153 8c-99.333 0 -171.333 -3 -216 -9c-28 -3.33301 -48 -5 -60 -5c-26 0 -39 11 -39 33c0 16 21 25.667 63 29c75.333 6 122.5 32 141.5 78s28.5 108.667 28.5 188
c0 344 -1.83301 554.333 -5.5 631s-27.667 146 -72 208s-97.833 99 -160.5 111c-26 4.66699 -39 15 -39 31c0 22 13.667 33 41 33c6.66699 0 16.334 -0.666992 29.001 -2c15.333 -1.33301 43 -2 83 -2c86.667 0 167.334 -1 242.001 -3z" />
    <glyph glyph-name="O" unicode="O" horiz-adv-x="1579" 
d="M805 1338c134.667 0 252.5 -26.999 353.5 -80.999s182 -132.167 243 -234.5s91.5 -213.833 91.5 -334.5c0 -186.667 -69.667 -352.167 -209 -496.5s-312 -216.5 -518 -216.5c-187.333 0 -347.5 59.667 -480.5 179s-199.5 280.666 -199.5 483.999
c0 192 68.833 356.667 206.5 494s308.5 206 512.5 206zM1154 658.001c0 202 -34.333 353.999 -103 455.999s-155.667 153 -261 153c-104.667 0 -191.334 -51.167 -260.001 -153.5s-103 -254.166 -103 -455.499c0 -193.333 32.833 -343.333 98.5 -450
s153.834 -160 264.501 -160c98 0 183.167 48.167 255.5 144.5s108.5 251.5 108.5 465.5z" />
    <glyph glyph-name="P" unicode="P" horiz-adv-x="1323" 
d="M511 617l-1.00098 -380.001c0 -80 11.333 -131.833 34 -155.5s57 -36.167 103 -37.5c30.667 -0.666992 50 -3.16699 58 -7.5s12 -12.5 12 -24.5c0 -17.333 -19.333 -26 -58 -26c-17.333 0 -57.666 2 -120.999 6c-85.333 4.66699 -145 7 -179 7
c-37.333 0 -88.666 -2.33301 -153.999 -7c-54 -4 -93.333 -6 -118 -6c-21.333 0 -32 9.33301 -32 28c0 14.667 18.333 24.667 55 30s62.667 14.833 78 28.5s26.5 37.667 33.5 72s10.833 126 11.5 275s1 280.167 1 393.5l-1 315c0 42.667 -10.333 76.834 -31 102.501
s-57 38.5 -109 38.5c-23.333 0 -35 9.33301 -35 28c0 22 20.667 33 62 33l26 -1c37.333 -2 80.666 -3 129.999 -3l408 6c206.667 0 350.834 -31 432.501 -93s122.5 -148.333 122.5 -259s-43.833 -199.5 -131.5 -266.5s-230.834 -100.5 -429.501 -100.5
c-46 0 -101.667 1.33301 -167 4zM510.999 687.999c38 -3.33301 67.333 -5 88 -5c106 0 185.333 32 238 96s79 140.333 79 229c0 84 -24.167 147 -72.5 189s-107.833 63 -178.5 63c-36.667 0 -88 -5.66699 -154 -17v-555z" />
    <glyph glyph-name="Q" unicode="Q" horiz-adv-x="1579" 
d="M869 4c-60 -14 -111.997 -21.0029 -155.997 -21.0029c-102 0 -202 26 -300 78s-177 129.333 -237 232s-90 218 -90 346c0 192.667 70.167 357.334 210.5 494.001s307.833 205 502.5 205c216 0 385.833 -64 509.5 -192s185.5 -281.667 185.5 -461
c0 -76 -11.833 -149 -35.5 -219s-58.667 -135.5 -105 -196.5s-103.833 -117.5 -172.5 -169.5s-147 -99.333 -235 -142l-287 -136c32.667 4 57 6 73 6c43.333 0 87.5 -8.66699 132.5 -26s110.167 -51.333 195.5 -102c60 -35.333 97.5 -55.833 112.5 -61.5
s35.5 -8.5 61.5 -8.5c74 0 136.333 39.333 187 118c12 18 25 27 39 27c24.667 0 37 -13.333 37 -40c0 -21.333 -38.833 -73.166 -116.5 -155.499s-174.834 -123.5 -291.501 -123.5c-110.667 0 -226.334 37.333 -347.001 112
c-88.667 55.333 -150.834 92.166 -186.501 110.499s-66.834 27.5 -93.501 27.5c-34.667 0 -60.334 -10.167 -77.001 -30.5s-25.667 -54.166 -27 -101.499c-2 -46.667 -10.667 -78.5 -26 -95.5s-39.666 -25.5 -72.999 -25.5c-28 0 -51.5 8.5 -70.5 25.5
s-28.5 37.5 -28.5 61.5c0 102.667 129.667 209.334 389 320.001c166.667 71.333 273.334 119.333 320.001 144zM1154 657.997c0 202 -34.333 353.999 -103 455.999s-155.667 153 -261 153c-104.667 0 -191.334 -51.167 -260.001 -153.5s-103 -254.166 -103 -455.499
c0 -193.333 32.833 -343.333 98.5 -450s153.834 -160 264.501 -160c98 0 183.167 48.167 255.5 144.5s108.5 251.5 108.5 465.5z" />
    <glyph glyph-name="R" unicode="R" horiz-adv-x="1429" 
d="M785 671c90 -12.667 164.168 -39.834 222.501 -81.501s102.166 -124.5 131.499 -248.5c27.333 -116 56.666 -192.5 87.999 -229.5s75.333 -57.167 132 -60.5c31.333 -2 47 -12 47 -30c0 -19.333 -25.333 -29 -76 -29l-385 9c-40 40 -67.333 111.333 -82 214
c-18.667 131.333 -38 224 -58 278s-50 92.667 -90 116s-86.333 35 -139 35c-15.333 0 -36.333 -1 -63 -3c0 -234.667 0.833008 -379.167 2.5 -433.5s12.5 -93.333 32.5 -117s58 -36.834 114 -39.501c30 -2 45 -12 45 -30s-13 -27 -39 -27l-307 8
c-41.333 0 -94.333 -1.66699 -159 -5c-59.333 -3.33301 -97 -5 -113 -5c-27.333 0 -41 9.66699 -41 29c0 18.667 12 28 36 28c37.333 0 71.833 9.33301 103.5 28s47.5 97.667 47.5 237l-1 186l1 359c0 185.333 -8.16699 298.5 -24.5 339.5s-60.166 62.167 -131.499 63.5
c-28 0.666992 -42 10.334 -42 29.001c0 19.333 18.667 29 56 29c188 0 347.333 4 478 12c58 4 110.333 6 157 6c151.333 0 270 -30.167 356 -90.5s129 -139.166 129 -236.499c0 -65.333 -20.333 -124 -61 -176s-91.5 -90.667 -152.5 -116s-132.5 -41.333 -214.5 -48z
M513.001 713c17.333 -0.666992 30.333 -1.00098 39 -1.00098c58 0 116.5 10.833 175.5 32.5s100.667 56.334 125 104.001s36.5 98.5 36.5 152.5c0 83.333 -24.667 148.333 -74 195s-113 70 -191 70c-32.667 0 -69.667 -6 -111 -18v-535z" />
    <glyph glyph-name="S" unicode="S" 
d="M823 1274c8.66699 8.66699 17.335 22.001 26.002 40.001c10 21.333 21.333 32 34 32c18 0 29 -14.667 33 -44l35 -274l4 -33c0 -18 -9 -27 -27 -27c-13.333 0 -23 3.16699 -29 9.5s-17.333 26.833 -34 61.5c-28.667 59.333 -76 112.666 -142 159.999s-132.333 71 -199 71
c-64.667 0 -118.5 -18.5 -161.5 -55.5s-64.5 -83.5 -64.5 -139.5c0 -44.667 20 -85 60 -121s117 -70 231 -102c178.667 -50.667 299.667 -113.334 363 -188.001c62.667 -74.667 94 -157.667 94 -249c0 -93.333 -23 -171.666 -69 -234.999s-101 -113.166 -165 -149.499
s-146 -54.5 -246 -54.5c-56.667 0 -115.334 8.16699 -176.001 24.5s-123.334 40.833 -188.001 73.5c-13.333 -15.333 -24.666 -35.333 -33.999 -60c-10.667 -27.333 -24 -41 -40 -41c-16.667 0 -26.667 18 -30 54l-29 363c-1.33301 16 -2 26 -2 30c0 19.333 10 29 30 29
c14.667 0 28.667 -16.667 42 -50c40.667 -100 96 -183.333 166 -250c69.333 -66.667 150.333 -100 243 -100c78.667 0 142.167 23.333 190.5 70s72.5 99.667 72.5 159s-22.333 109.333 -67 150s-125 79.667 -241 117c-112.667 36.667 -196.5 71.667 -251.5 105
s-99 79.166 -132 137.499s-49.5 117.5 -49.5 177.5c0 104.667 40.5 193.667 121.5 267s191.167 110 330.5 110c75.333 0 175.666 -22.667 300.999 -68z" />
    <glyph glyph-name="T" unicode="T" horiz-adv-x="1536" 
d="M80 1330c346 -9.33301 601.999 -14.001 767.999 -14.001c126 0 264.667 3.66699 416 11c54 2.66699 98.333 4 133 4c13.333 0 35.666 -0.333008 66.999 -1c4.66699 -27.333 10.667 -83.666 18 -168.999l15 -158c0 -26 -11 -39 -33 -39c-16.667 0 -32.667 16 -48 48
c-25.333 54 -57.833 100.333 -97.5 139s-85.667 64.334 -138 77.001s-138.833 19 -259.5 19c-10.667 -102 -16 -229.667 -16 -383c0 -156.667 3 -307.834 9 -453.501s13.333 -233.5 22 -263.5s23.334 -52 44.001 -66s69.334 -23.667 146.001 -29c26 -2 39 -11.333 39 -28
c0 -18.667 -11.333 -28 -34 -28l-28 1l-207 5c-161.333 0 -259.333 -0.666992 -294 -2l-126 -5c-10 0 -30.667 0.666992 -62 2c-15.333 3.33301 -23 11.666 -23 24.999c0 19.333 12.667 29 38 29c59.333 0 104 12.333 134 37s48.5 63.834 55.5 117.501
s10.5 170.167 10.5 349.5c0 283.333 -8.66699 514 -26 692c-110 0 -189.5 -4.5 -238.5 -13.5s-96.167 -33.667 -141.5 -74s-82.333 -92.5 -111 -156.5c-11.333 -25.333 -24.333 -38 -39 -38c-22.667 0 -34 10 -34 30c0 6 4.16699 49.833 12.5 131.5s17.833 149.5 28.5 203.5
z" />
    <glyph glyph-name="U" unicode="U" horiz-adv-x="1557" 
d="M83 1331l322.001 -10.9971c30.667 0 65.667 1.66699 105 5c62.667 4.66699 112 7 148 7c34 0 51 -9.33301 51 -28c0 -18 -13.333 -27.667 -40 -29c-48 -2.66699 -83.833 -19.834 -107.5 -51.501s-38.834 -96.667 -45.501 -195s-10 -206.5 -10 -324.5
c0 -189.333 9 -316.5 27 -381.5s56.667 -116.833 116 -155.5s138 -58 236 -58c99.333 0 174.333 21.167 225 63.5s85.5 108.833 104.5 199.5s28.5 259 28.5 505c0 145.333 -11.333 245.666 -34 300.999s-61.334 85.666 -116.001 90.999c-39.333 4 -59 15.667 -59 35
s16 29 48 29c15.333 0 41 -2 77 -6c37.333 -3.33301 76.333 -5 117 -5c37.333 0 79 2 125 6c34.667 2.66699 58.667 4 72 4c33.333 0 50 -9.66699 50 -29c0 -15.333 -12 -24.333 -36 -27c-33.333 -3.33301 -63.5 -18.833 -90.5 -46.5s-44.333 -73.334 -52 -137.001
s-11.5 -227.167 -11.5 -490.5c0 -173.333 -17.333 -298.833 -52 -376.5s-95.167 -138 -181.5 -181s-193.833 -64.5 -322.5 -64.5c-99.333 0 -185.666 8.83301 -258.999 26.5s-131.5 44.834 -174.5 81.501s-74 79 -93 127s-28.5 118.667 -28.5 212l4 533
c0 74.667 -4.16699 136 -12.5 184s-21.5 79.833 -39.5 95.5s-45.333 25.5 -82 29.5c-23.333 2.66699 -37.833 6.16699 -43.5 10.5s-8.5 11.5 -8.5 21.5c0 20 14.333 30 43 30z" />
    <glyph glyph-name="V" unicode="V" horiz-adv-x="1429" 
d="M746 -29l-79.0029 -0.00195312l-184 480l-175 444.5c-70.667 175 -116 276.5 -136 304.5s-38.167 46.5 -54.5 55.5s-41.166 14.833 -74.499 17.5c-21.333 0.666992 -32 9.66699 -32 27c0 19.333 12.667 29 38 29l270 -9c94 0 187 3.33301 279 10
c25.333 1.33301 40.666 2 45.999 2c32 0 48 -11 48 -33c0 -14.667 -14.333 -23.667 -43 -27c-76 -9.33301 -114 -43.666 -114 -102.999c0 -102.667 87.667 -378.667 263 -828c58.667 147.333 114.667 296 168 446l98 275c11.333 33.333 17 65.333 17 96
c0 31.333 -10.833 58 -32.5 80s-46.167 33.333 -73.5 34c-30.667 1.33301 -46 10.333 -46 27c0 21.333 12.333 32 37 32c18.667 0 42 -1 70 -3c56.667 -4.66699 107.667 -7 153 -7c47.333 0 89.333 2.33301 126 7c27.333 3.33301 50 5 68 5c23.333 0 35 -10.333 35 -31
c0 -17.333 -11.667 -27.666 -35 -30.999c-35.333 -5.33301 -65.666 -17.5 -90.999 -36.5s-50.166 -49.5 -74.499 -91.5s-64.833 -136.667 -121.5 -284l-178 -459c-85.333 -224 -142.666 -367 -171.999 -429z" />
    <glyph glyph-name="W" unicode="W" horiz-adv-x="2176" 
d="M801 -29l-72.9971 0.000976562l-250 559c-100 222 -177 385.333 -231 490s-94.333 168.5 -121 191.5s-56.334 38.833 -89.001 47.5c-20.667 5.33301 -31 15.333 -31 30c0 10.667 3.83301 17.834 11.5 21.501s28.167 5.5 61.5 5.5l252 -5c30.667 0 71.667 1.33301 123 4
c74 4 131 6 171 6c24 0 36 -9.66699 36 -29c0 -18 -14.333 -28 -43 -30c-28.667 -2.66699 -54.334 -12.834 -77.001 -30.501s-34 -39.5 -34 -65.5c0 -20.667 6.16699 -47 18.5 -79s64.166 -149.333 155.499 -352l170 -369l216 583
c-13.333 28.667 -35.166 79.667 -65.499 153s-54.5 117 -72.5 131s-47.333 24 -88 30c-22 3.33301 -33 13 -33 29c0 10.667 4.16699 17.667 12.5 21s37.833 5 88.5 5l239 -5l195 5c68 0 106.333 -1 115 -3s13 -10 13 -24c0 -18 -12.333 -27 -37 -27
c-43.333 0 -75.333 -10.667 -96 -32s-31 -46.333 -31 -75c0 -81.333 93.333 -337.666 280 -768.999c38.667 94.667 88.667 226.667 150 396s95.666 267.333 102.999 294s11 52 11 76c0 37.333 -11.667 64.666 -35 81.999s-46.333 26.333 -69 27c-33.333 2 -50 11.333 -50 28
c0 18 15 27 45 27l169 -5c66 0 123.333 2 172 6c27.333 2 45.666 3 55 3c26 0 39 -9.33301 39 -28c0 -16.667 -13.667 -26.334 -41 -29.001s-51.333 -10.334 -72 -23.001s-45.5 -40.5 -74.5 -83.5s-70.833 -136.167 -125.5 -279.5l-169 -450l-170 -458h-71
c-15.333 31.333 -71.333 177.333 -168 438c-50.667 134.667 -107.667 276.334 -171 425.001l-166 -452z" />
    <glyph glyph-name="X" unicode="X" horiz-adv-x="1536" 
d="M805 842c143.333 176.667 214.996 287.331 214.996 331.998c0 22.667 -7.5 40.667 -22.5 54s-45.5 25 -91.5 35c-21.333 4 -32 14.333 -32 31c0 17.333 12.667 26 38 26c15.333 0 41 -1.33301 77 -4c50 -3.33301 92.333 -5 127 -5c48 0 111 2 189 6
c36.667 2 59.334 3 68.001 3c32 0 48 -9.66699 48 -29c0 -17.333 -12.333 -26.666 -37 -27.999c-45.333 -1.33301 -91.166 -15 -137.499 -41s-89 -61.5 -128 -106.5s-127.5 -157.167 -265.5 -336.5c75.333 -129.333 163 -266 263 -410s174.667 -233.167 224 -267.5
s92.666 -53.5 129.999 -57.5c31.333 -3.33301 47 -13.333 47 -30c0 -18.667 -16 -28 -48 -28l-369 12c-48 0 -95.667 -1.66699 -143 -5c-41.333 -2 -68 -3.33301 -80 -4c-28.667 0 -46.334 -0.333008 -53.001 -1c-10 -1.33301 -17.667 -2 -23 -2
c-19.333 0 -29 9.33301 -29 28c0 16.667 11.333 26 34 28c73.333 6.66699 110 32.334 110 77.001c0 51.333 -82 191.666 -246 420.999c-175.333 -224.667 -263 -358.667 -263 -402c0 -46.667 53.333 -77.667 160 -93c23.333 -3.33301 35 -12 35 -26c0 -20 -12 -30 -36 -30
c-11.333 0 -41.666 1.33301 -90.999 4c-59.333 3.33301 -118.666 5 -177.999 5c-56 0 -99.667 -1.33301 -131 -4c-40 -4 -66.667 -6 -80 -6c-38.667 0 -58 10.333 -58 31c0 15.333 10.333 24.333 31 27c60.667 8 108.834 22.333 144.501 43s79.334 62.834 131.001 126.501
s148.5 193.834 290.5 390.501c-168.667 275.333 -286.167 451 -352.5 527s-135.833 119.333 -208.5 130c-26.667 4 -40 14.333 -40 31c0 19.333 12.333 29 37 29c12.667 0 30 -1.33301 52 -4c42.667 -4.66699 135 -7 277 -7c59.333 0 131 2 215 6c50.667 2.66699 80 4 88 4
c36 0 54 -9.33301 54 -28s-14.333 -28.667 -43 -30c-16.667 -1.33301 -38.667 -6.83301 -66 -16.5s-41 -24.834 -41 -45.501c0 -18.667 14 -52.167 42 -100.5s83.333 -134.833 166 -259.5z" />
    <glyph glyph-name="Y" unicode="Y" horiz-adv-x="1472" 
d="M822 733c186 242.667 279 391.006 279 445.006c0 15.333 -5.16699 31 -15.5 47s-40.166 31 -89.499 45c-20 5.33301 -30 14.666 -30 27.999c0 20.667 12 31 36 31c6.66699 0 15.667 -0.666992 27 -2c85.333 -7.33301 150.333 -11 195 -11
c48.667 0 106.334 3.33301 173.001 10c12.667 1.33301 23.334 2 32.001 2c19.333 0 29 -9 29 -27c0 -16.667 -9.66699 -26 -29 -28c-44.667 -4.66699 -85.834 -19.5 -123.501 -44.5s-83.334 -72.667 -137.001 -143s-113.334 -153.5 -179.001 -249.5
s-101.834 -154.5 -108.501 -175.5s-10 -93.5 -10 -217.5c0 -188 8.5 -300.833 25.5 -338.5s59.167 -56.5 126.5 -56.5c24 0 36 -9.66699 36 -29c0 -20 -13.333 -30 -40 -30c-20 0 -75 3 -165 9c-51.333 3.33301 -88 5 -110 5c-72.667 0 -155 -4.33301 -247 -13
c-17.333 -1.33301 -31 -2 -41 -2c-25.333 0 -38 9.66699 -38 29c0 16.667 9.66699 26 29 28c65.333 8 106.5 29.833 123.5 65.5s25.5 114.167 25.5 235.5c0 109.333 -6.33301 182.166 -19 218.499s-49.334 103.666 -110.001 201.999l-181.5 283
c-60.333 90.333 -106.666 148.166 -138.999 173.499s-67.166 41.333 -104.499 48c-18.667 3.33301 -28 12.333 -28 27c0 20.667 11.667 31 35 31c10.667 0 27.334 -1 50.001 -3c103.333 -7.33301 179 -11 227 -11c76 0 161.333 3.66699 256 11
c19.333 1.33301 35.666 2 48.999 2c22.667 0 34 -8.66699 34 -26c0 -16.667 -12.333 -26.334 -37 -29.001c-68.667 -6.66699 -103 -31 -103 -73c0 -44.667 99 -200.334 297 -467.001z" />
    <glyph glyph-name="Z" unicode="Z" horiz-adv-x="1387" 
d="M870 1233c-141.333 9.33301 -242.999 14.001 -304.999 14.001c-172.667 0 -301.334 -77 -386.001 -231c-21.333 -38 -41 -57 -59 -57c-19.333 0 -29 10 -29 30c0 6.66699 2 16 6 28c2 6.66699 12.667 48 32 124c6 22 25 83 57 183l526 -12
c295.333 0 468.666 6.66699 519.999 20l6 2c12 0 18 -6.66699 18 -20c0 -12.667 -108 -178.334 -324 -497.001l-487 -751h214c120 0 209.333 6.66699 268 20s120.5 45.833 185.5 97.5s112.5 104.167 142.5 157.5c12.667 22.667 27.334 34 44.001 34
c17.333 0 26 -9.66699 26 -29c0 -10 -3 -23 -9 -39c-30.667 -90.667 -60 -193 -88 -307h-1117c-22.667 -0 -34 4.33301 -34 13c0 10.667 31.667 67 95 169s296 452.333 698 1051z" />
    <glyph glyph-name="bracketleft" unicode="[" horiz-adv-x="1045" 
d="M320 -333c186 64 328.999 96.0029 428.999 96.0029c67.333 0 126.166 -21 176.499 -63s75.5 -84 75.5 -126c0 -24.667 -6.66699 -50.834 -20 -78.501s-28.333 -41.5 -45 -41.5c-17.333 0 -26 8.33301 -26 25l3 19l2 9c0 15.333 -9.16699 26.666 -27.5 33.999
s-62.166 11 -131.499 11c-149.333 0 -300.333 -7.66699 -453 -23c-16 -2 -29.667 -3 -41 -3c-13.333 0 -23.5 6.66699 -30.5 20s-12.333 86 -16 218s-5.5 305.667 -5.5 521c0 369.333 1.33301 622.833 4 760.5s7.83398 214 15.501 229s18.5 22.5 32.5 22.5
c11.333 0 25 -1 41 -3c152.667 -15.333 304 -23 454 -23c66.667 0 109.667 3.66699 129 11s29 18.666 29 33.999l-2 9c-2 10 -3 16.667 -3 20c0 16 8.66699 24 26 24c16.667 0 31.667 -13.833 45 -41.5s20 -53.5 20 -77.5c0 -42.667 -25.333 -85 -76 -127s-109 -63 -175 -63
c-100.667 0 -244 32.333 -430 97c-1.33301 -23.333 -2 -37 -2 -41l8 -472l-2 -535l-6 -402c0 -4 0.666992 -17.333 2 -40z" />
    <glyph glyph-name="backslash" unicode="\" horiz-adv-x="1088" 
d="M252 1426l720 -1463h-136l-720 1463h136z" />
    <glyph glyph-name="bracketright" unicode="]" horiz-adv-x="1045" 
d="M726 1157c-186 -64.667 -329.332 -97.0029 -429.999 -97.0029c-66.667 0 -125.167 21 -175.5 63s-75.5 84 -75.5 126c0 20.667 6.16699 45.834 18.5 75.501s27.5 44.5 45.5 44.5c17.333 0 26 -8 26 -24c0 -3.33301 -1 -10 -3 -20l-1 -9
c0 -14.667 9.16699 -25.834 27.5 -33.501s62.166 -11.5 131.499 -11.5c149.333 0 300 7.66699 452 23c16 2 30 3 42 3c13.333 0 23.5 -6.5 30.5 -19.5s12.333 -85.667 16 -218s5.5 -306.166 5.5 -521.499c0 -369.333 -1.5 -622.666 -4.5 -759.999
s-8.33301 -213.666 -16 -228.999s-18.167 -23 -31.5 -23c-12 0 -26 1 -42 3c-152 15.333 -303 23 -453 23c-66.667 0 -109.667 -3.5 -129 -10.5s-29 -18.5 -29 -34.5l1 -9l3 -19c0 -16.667 -8.33301 -25 -25 -25c-19.333 0 -35 15 -47 45s-18 54.667 -18 74
c0 42.667 25.167 85 75.5 127s108.5 63 174.5 63c101.333 0 245 -32 431 -96c0.666992 22.667 1 36 1 40l-7 472l2 536l5 401c0 4 -0.333008 17.667 -1 41z" />
    <glyph glyph-name="asciicircum" unicode="^" horiz-adv-x="1195" 
d="M149 666l411 718h82l404 -718h-159l-295 512l-290 -512h-153z" />
    <glyph glyph-name="underscore" unicode="_" horiz-adv-x="1024" 
d="M-12 -154h1048v-102h-1048v102z" />
    <glyph glyph-name="grave" unicode="`" horiz-adv-x="683" 
d="M158 1362c29.333 0 58.668 -15 88.001 -45s73.666 -89.167 132.999 -177.5s89 -136.166 89 -143.499s-4.5 -15 -13.5 -23s-17.5 -12 -25.5 -12c-15.333 0 -63 31.667 -143 95l-154 121c-40 31.333 -60 64.666 -60 99.999c0 22.667 8.83301 42.5 26.5 59.5
s37.5 25.5 59.5 25.5z" />
    <glyph glyph-name="a" unicode="a" horiz-adv-x="981" 
d="M547 96c-41.333 -39.333 -83.001 -68.8359 -125.001 -88.5029s-84.333 -29.5 -127 -29.5c-68 0 -120.5 20.5 -157.5 61.5s-55.5 90.833 -55.5 149.5c0 45.333 11.167 85.833 33.5 121.5s50 63.334 83 83.001s87.5 43.167 163.5 70.5c64 22.667 106.833 40.5 128.5 53.5
s39.834 32 54.501 57s22 57.5 22 97.5c0 44 -11 79.167 -33 105.5s-52.333 39.5 -91 39.5c-33.333 0 -57 -8.33301 -71 -25c-14 -17.333 -24.667 -45 -32 -83c-15.333 -76 -56.333 -114 -123 -114c-27.333 0 -50.666 8 -69.999 24s-29 39 -29 69
c0 64 34.833 111.833 104.5 143.5s152.834 47.5 249.501 47.5c83.333 0 151.166 -12.667 203.499 -38s85.833 -54.666 100.5 -87.999s22 -85.333 22 -156l-2 -237c0 -124.667 4.16699 -204.667 12.5 -240s26.166 -53 53.499 -53c4 0 9.33301 0.333008 16 1
c13.333 1.33301 22.333 2 27 2c27.333 0 41 -7.66699 41 -23c0 -10 -5.66699 -18.5 -17 -25.5s-45.5 -15.833 -102.5 -26.5s-108.5 -16 -154.5 -16s-77.5 8.83301 -94.5 26.5s-27.167 47.834 -30.5 90.501zM559.999 495.997c-16 -19.333 -54.334 -45 -115.001 -77
c-55.333 -29.333 -92.333 -55.333 -111 -78c-18.667 -23.333 -28 -57 -28 -101c0 -46.667 9.83301 -82.167 29.5 -106.5s43.834 -36.5 72.501 -36.5c38.667 0 74.667 17.833 108 53.5s50 98.5 50 188.5c0 28 -2 80.333 -6 157z" />
    <glyph glyph-name="b" unicode="b" horiz-adv-x="1131" 
d="M405 807c36.667 22.667 74.666 39.501 113.999 50.501s80 16.5 122 16.5c114 0 210 -41.833 288 -125.5s117 -187.834 117 -312.501c0 -84 -19.167 -160.167 -57.5 -228.5s-91.166 -124 -158.499 -167s-145 -64.5 -233 -64.5c-60 0 -112.333 8.16699 -157 24.5
s-98.334 44.5 -161.001 84.5c-8.66699 5.33301 -15.334 8 -20.001 8c-14 0 -24.333 -13 -31 -39c-12.667 -44.667 -26.667 -67 -42 -67c-12 0 -19.5 5 -22.5 15s-4.5 54.333 -4.5 133l8 726c0 248.667 -2.66699 384.667 -8 408s-30.666 37.333 -75.999 42
c-28.667 2.66699 -43 12.334 -43 29.001c0 18 13 27 39 27c14.667 0 46.334 -1.66699 95.001 -5c36.667 -2 68.667 -3 96 -3l100 3c24.667 0 37 -9.33301 37 -28l1 -48c0 -272.667 -1 -432.334 -3 -479.001zM578.999 799.001c-41.333 0 -78.667 -14.333 -112 -43
s-54.333 -96.834 -63 -204.501s-13 -191.5 -13 -251.5c0 -95.333 17.5 -162.166 52.5 -200.499s76.5 -57.5 124.5 -57.5c60.667 0 110 35 148 105s57 159 57 267s-17 199.167 -51 273.5s-81.667 111.5 -143 111.5z" />
    <glyph glyph-name="c" unicode="c" horiz-adv-x="960" 
d="M86 423c0 125.333 43.002 232.667 129.002 322s194 134 324 134c85.333 0 160.5 -20.5 225.5 -61.5s97.5 -89.5 97.5 -145.5c0 -33.333 -9.83301 -59.5 -29.5 -78.5s-44.5 -28.5 -74.5 -28.5c-57.333 0 -98.333 41.333 -123 124c-13.333 45.333 -28 77.666 -44 96.999
c-16.667 19.333 -40.667 29 -72 29c-54.667 0 -95.834 -27.333 -123.501 -82s-41.5 -136.667 -41.5 -246c0 -125.333 22.667 -225.5 68 -300.5s104 -112.5 176 -112.5c96 0 163.667 57 203 171c12.667 36 27.667 54 45 54c18.667 0 28 -10 28 -30
c0 -58 -29.5 -120.833 -88.5 -188.5s-147.167 -101.5 -264.5 -101.5c-128.667 0 -233.334 41.833 -314.001 125.5s-121 189.834 -121 318.501z" />
    <glyph glyph-name="d" unicode="d" horiz-adv-x="1131" 
d="M719 783c0 192.667 -0.999023 321.169 -2.99902 385.502s-7.33301 102 -16 113s-32.334 19.833 -71.001 26.5c-26 4 -39 13.333 -39 28c0 11.333 4.5 18.5 13.5 21.5s37.833 4.5 86.5 4.5h264l-2 -710l-5 -441c0 -68 5.83301 -111 17.5 -129s38.5 -29.667 80.5 -35
c24.667 -2.66699 37 -12 37 -28c0 -17.333 -13 -26 -39 -26h-324v137c-28.667 -51.333 -63.667 -89.833 -105 -115.5s-89.333 -38.5 -144 -38.5c-102 0 -191.5 39.667 -268.5 119s-115.5 181.666 -115.5 306.999c0 137.333 44 250.166 132 338.499s186 132.5 294 132.5
c40.667 0 78.167 -7.5 112.5 -22.5s65.833 -37.5 94.5 -67.5zM356.001 431.002c0 -127.333 16.833 -220.499 50.5 -279.499s76.5 -88.5 128.5 -88.5c50 0 92.833 28.167 128.5 84.5s53.5 158.166 53.5 305.499c0 120 -15 210 -45 270s-75.333 90 -136 90
c-60 0 -105 -31.833 -135 -95.5s-45 -159.167 -45 -286.5z" />
    <glyph glyph-name="e" unicode="e" horiz-adv-x="981" 
d="M350 456c-0.666992 -19.333 -1 -33.333 -1 -42c0 -94.667 23.167 -174.834 69.5 -240.501s108.833 -98.5 187.5 -98.5c80.667 0 160 35 238 105c16 14 27.333 21 34 21c17.333 0 26 -9.33301 26 -28c0 -14.667 -20 -41 -60 -79s-89 -66.667 -147 -86s-118 -29 -180 -29
c-136 0 -242.5 41.5 -319.5 124.5s-115.5 180.833 -115.5 293.5c0 135.333 44.167 248.833 132.5 340.5s198.5 137.5 330.5 137.5c124 0 218.5 -41.667 283.5 -125s97.5 -162.666 97.5 -237.999c0 -24 -6.33301 -38.333 -19 -43s-53.667 -7 -123 -7zM356 529
c98.667 -1.33301 155.667 -2.00098 171 -2.00098c75.333 0 121.5 5.33301 138.5 16s25.5 32.334 25.5 65.001c0 54.667 -15.667 103 -47 145s-68.666 63 -111.999 63c-102.667 0 -161.334 -95.667 -176.001 -287z" />
    <glyph glyph-name="f" unicode="f" horiz-adv-x="683" 
d="M436 862c91.333 0 150.834 -2 178.501 -6s41.5 -10.667 41.5 -20c0 -4.66699 -3.83301 -17.5 -11.5 -38.5s-14 -33.667 -19 -38s-13.833 -6.5 -26.5 -6.5l-163 -3c-2.66699 -279.333 -4 -436.666 -4 -471.999c0 -90.667 9.66699 -150 29 -178s54 -45.667 104 -53
c30.667 -4 46 -14 46 -30c0 -17.333 -16 -26 -48 -26c-18.667 0 -50.334 1.66699 -95.001 5c-42.667 3.33301 -82.667 5 -120 5c-46.667 0 -102.334 -2.33301 -167.001 -7c-42.667 -2.66699 -70 -4 -82 -4c-25.333 0 -38 9.33301 -38 28c0 12.667 8 21 24 25
c46.667 11.333 75.667 24.666 87 39.999s18.333 55.333 21 120s4 247 4 547c-20 0.666992 -46.333 1 -79 1c-50 0 -75 7.66699 -75 23c0 8.66699 3.33301 22.667 10 42s15.5 31 26.5 35s50.167 7.66699 117.5 11c0 172.667 40 299.834 120 381.501s191 122.5 333 122.5
c92.667 0 160 -16 202 -48s63 -67 63 -105c0 -24.667 -9.33301 -45.834 -28 -63.501s-43.667 -26.5 -75 -26.5c-54 0 -102.333 36 -145 108c-20 34.667 -36.667 55.667 -50 63s-28.333 11 -45 11c-46.667 0 -81.667 -25.167 -105 -75.5s-33.666 -172.833 -30.999 -367.5z
" />
    <glyph glyph-name="g" unicode="g" horiz-adv-x="1152" 
d="M796 787c78.667 69.333 147.333 103.996 206 103.996c39.333 0 71.5 -11.333 96.5 -34s37.5 -48.667 37.5 -78c0 -24.667 -8.66699 -47.167 -26 -67.5s-41 -30.5 -71 -30.5c-42 0 -72.333 22.667 -91 68c-12.667 30 -25 45 -37 45c-14 0 -40.333 -16 -79 -48
c35.333 -53.333 53 -110.666 53 -171.999c0 -62.667 -18 -120.167 -54 -172.5s-79.5 -89.5 -130.5 -111.5s-123.5 -37.333 -217.5 -46c-80.667 -7.33301 -129.667 -19.666 -147 -36.999c-18 -18 -27 -38 -27 -60c0 -26.667 18.333 -44 55 -52c36 -8 135.667 -14.333 299 -19
c250.667 -8 376 -90.333 376 -247c0 -106.667 -46.833 -195.167 -140.5 -265.5s-235.167 -105.5 -424.5 -105.5c-142.667 0 -245.667 20.833 -309 62.5s-95 90.5 -95 146.5c0 59.333 25.833 109.5 77.5 150.5s129.167 73.167 232.5 96.5
c-78.667 8 -137.667 25.167 -177 51.5s-59 62.166 -59 107.499c0 48 18.333 88.333 55 121s91.334 57.667 164.001 75c-76 23.333 -133.167 57.333 -171.5 102s-57.5 100.334 -57.5 167.001c0 96.667 38.667 177.834 116 243.501s172.666 98.5 285.999 98.5
c54 0 102.667 -7.66699 146 -23s81.333 -38.666 114 -69.999zM373.999 577.996c0 -86 14.5 -152.5 43.5 -199.5s63.5 -70.5 103.5 -70.5c41.333 0 72.333 20.167 93 60.5s31 100.833 31 181.5c0 85.333 -12.5 152.333 -37.5 201s-57.167 73 -96.5 73
c-40 0 -72.833 -22 -98.5 -66s-38.5 -104 -38.5 -180zM266.999 -307.004c0 -45.333 22.501 -85 67.501 -119s108.5 -51 190.5 -51c99.333 0 181.833 22.667 247.5 68s98.5 99 98.5 161c0 50 -26.333 86.833 -79 110.5s-120.334 35.5 -203.001 35.5
c-98 0 -176.167 -19.5 -234.5 -58.5s-87.5 -87.833 -87.5 -146.5z" />
    <glyph glyph-name="h" unicode="h" horiz-adv-x="1131" 
d="M422 1364c-2.66699 -66.667 -3.99805 -123.996 -3.99805 -171.996l1 -267c0 -114.667 1 -185 3 -211c39.333 54 83.166 94.5 131.499 121.5s101.5 40.5 159.5 40.5c46.667 0 91 -10.833 133 -32.5s74.5 -57.667 97.5 -108s34.5 -138.166 34.5 -263.499l-3 -314
c0 -68.667 27 -105.667 81 -111c21.333 -2 32 -11 32 -27c0 -19.333 -11.333 -29 -34 -29c-6 0 -15 0.666992 -27 2c-47.333 5.33301 -116.333 8 -207 8c-15.333 0 -43 -2 -83 -6c-28 -2.66699 -52.333 -4 -73 -4c-27.333 0 -41 9 -41 27c0 15.333 15.333 25.333 46 30
s50.334 23.667 59.001 57s13 134.333 13 303c0 154 -7.83301 254.667 -23.5 302s-47.5 71 -95.5 71c-40 0 -79.333 -20.167 -118 -60.5s-64 -96.5 -76 -168.5s-18 -160.667 -18 -266c0 -54 2.66699 -101.167 8 -141.5s12.833 -65.5 22.5 -75.5s26.167 -16.667 49.5 -20
c25.333 -2.66699 38 -13.334 38 -32.001c0 -17.333 -14.333 -26 -43 -26c-21.333 0 -52.333 2 -93 6c-33.333 3.33301 -63 5 -89 5c-52.667 0 -101.667 -2.66699 -147 -8c-22.667 -2.66699 -52.334 -4 -89.001 -4c-19.333 0 -29 9.33301 -29 28c0 15.333 13.667 25 41 29
c34 4 57.5 18.167 70.5 42.5s21.833 112.166 26.5 263.499s7 382.666 7 693.999c0 95.333 -7.33301 157.166 -22 185.499s-39.334 48.166 -74.001 59.499c-33.333 10.667 -50 23 -50 37c0 18 14.333 27 43 27c102 0 216 2.66699 342 8z" />
    <glyph glyph-name="i" unicode="i" horiz-adv-x="619" 
d="M414 1217c0 -39.333 -14.167 -73.166 -42.5 -101.499s-62.166 -42.5 -101.499 -42.5c-40 0 -74 14.167 -102 42.5s-42 62.166 -42 101.499c0 40 14 74 42 102s62 42 102 42c39.333 0 73.166 -14 101.499 -42s42.5 -62 42.5 -102zM428 879
c2.66699 -93.333 4 -259.665 4 -498.998l-3 -215c0 -43.333 7.16699 -72.333 21.5 -87s37.833 -24.334 70.5 -29.001c37.333 -4.66699 56 -15.334 56 -32.001c0 -18 -14.667 -27 -44 -27c-14 0 -38.333 1 -73 3c-73.333 4.66699 -146 7 -218 7
c-35.333 -0 -71.333 -1.66699 -108 -5c-22 -2.66699 -37 -4 -45 -4c-29.333 0 -44 9 -44 27c0 17.333 19.333 27.666 58 30.999c51.333 4.66699 80 21.834 86 51.501s9 89.834 9 180.501c0 117.333 -1.83301 225.166 -5.5 323.499s-10.5 154.5 -20.5 168.5
s-36 23.333 -78 28c-32.667 3.33301 -49 13 -49 29s16.667 25.333 50 28l21 2z" />
    <glyph glyph-name="j" unicode="j" horiz-adv-x="619" 
d="M422 1222c0 -39.333 -14.168 -73.166 -42.501 -101.499s-62.166 -42.5 -101.499 -42.5s-73.166 14.167 -101.499 42.5s-42.5 62.166 -42.5 101.499c0 40 14 74 42 102s62 42 102 42c39.333 0 73.166 -14 101.499 -42s42.5 -62 42.5 -102zM435.999 877
l-0.000976562 -855.002c0 -120.667 -9.66699 -219 -29 -295s-60 -140 -122 -192s-135 -78 -219 -78c-70 0 -126 17 -168 51s-63 73.333 -63 118c0 33.333 11.333 63.5 34 90.5s52.334 40.5 89.001 40.5s64.667 -10.667 84 -32s29 -43.666 29 -66.999
c0 -16 -8.66699 -42 -26 -78c-4.66699 -10.667 -7 -20 -7 -28c0 -9.33301 4.66699 -16.5 14 -21.5s23 -7.5 41 -7.5c80.667 0 121 73.667 121 221c0 10.667 -1.5 68.834 -4.5 174.501s-4.5 304.5 -4.5 596.5c0 114 -1 183.667 -3 209s-10.167 45.833 -24.5 61.5
s-39.5 23.5 -75.5 23.5c-38 0 -57 8.33301 -57 25c0 20.667 23.333 31 70 31c62.667 0 169.667 4 321 12z" />
    <glyph glyph-name="k" unicode="k" horiz-adv-x="1131" 
d="M418 1364l0.000976562 -911c47.333 28.667 107.5 78.167 180.5 148.5s109.5 120.5 109.5 150.5c0 25.333 -31.333 41.333 -94 48c-32 3.33301 -48 13.333 -48 30c0 16 13.333 24 40 24c16 0 33.667 -0.666992 53 -2c53.333 -2.66699 101.666 -4 144.999 -4
c28.667 0 58.667 0.666992 90 2c44 2.66699 73 4 87 4c24 0 36 -9 36 -27c0 -16.667 -20.333 -27.334 -61 -32.001c-34 -3.33301 -66.667 -15.166 -98 -35.499s-73 -57.5 -125 -111.5c-39.333 -40.667 -62.333 -63.334 -69 -68.001c42.667 -24 82.834 -57.5 120.501 -100.5
s75.167 -130.833 112.5 -263.5c16 -58 28.5 -95.833 37.5 -113.5s24.5 -31.5 46.5 -41.5s53 -15.333 93 -16c19.333 -0.666992 29 -10 29 -28c0 -17.333 -11 -26 -33 -26c-4.66699 0 -11 0.333008 -19 1c-75.333 5.33301 -132.333 8 -171 8c-33.333 0 -81 -4.33301 -143 -13
c-32.667 32.667 -56 88.667 -70 168c-17.333 98 -39.5 162.833 -66.5 194.5s-66.167 57.5 -117.5 77.5c-20 -16.667 -41.667 -33 -65 -49c1.33301 -177.333 8.16602 -275.333 20.499 -294s36.5 -29.667 72.5 -33c31.333 -3.33301 47 -14.666 47 -33.999
c0 -18.667 -14.333 -28 -43 -28c-8.66699 0 -20.334 0.666992 -35.001 2c-71.333 7.33301 -121 11 -149 11c-43.333 0 -101.333 -3 -174 -9c-26 -2 -43.667 -3 -53 -3c-32 0 -48 9.66699 -48 29c0 16.667 13 26.667 39 30c52.667 6.66699 81.334 26 86.001 58
s7 133.333 7 304l-7 693c0 66 -7.33301 108.333 -22 127s-39.667 31 -75 37c-29.333 5.33301 -44 15.333 -44 30c0 16.667 15.667 26 47 28c108.667 7.33301 219 20 331 38z" />
    <glyph glyph-name="l" unicode="l" horiz-adv-x="619" 
d="M419 1367l3.00098 -839c0.666992 -268 7.66699 -414.333 21 -439s40 -38 80 -40c46.667 -2 70 -11.333 70 -28c0 -20.667 -14.333 -31 -43 -31c-8 0 -19.667 0.666992 -35 2c-64.667 5.33301 -127.334 8 -188.001 8c-98.667 0 -171.667 -2.33301 -219 -7
c-13.333 -1.33301 -25.333 -2 -36 -2c-30 0 -45 9 -45 27c0 17.333 17 27 51 29c36.667 2 63.5 8.66699 80.5 20s27.333 27.166 31 47.499s5.5 67.833 5.5 142.5l-4 393l3 312c0 129.333 -6.16699 207.833 -18.5 235.5s-48.833 46.5 -109.5 56.5
c-36.667 5.33301 -55 16 -55 32c0 10 4.16699 16.833 12.5 20.5s28.833 6.83398 61.5 9.50098c136.667 11.333 248 28.333 334 51z" />
    <glyph glyph-name="m" unicode="m" horiz-adv-x="1685" 
d="M419 723c48 52 96.501 90.832 145.501 116.499s98.833 38.5 149.5 38.5c36 0 74 -7.33301 114 -22s83.667 -49 131 -103c48 42 97.333 73.5 148 94.5s102.667 31.5 156 31.5c91.333 0 158.333 -24.667 201 -74c42 -50 63 -124 63 -222l-5 -338
c0 -95.333 4.66699 -150.166 14 -164.499s34.666 -24.5 75.999 -30.5c23.333 -4 35 -13 35 -27c0 -20.667 -13.667 -31 -41 -31c-4.66699 0 -11.334 0.333008 -20.001 1c-56 4.66699 -117 7 -183 7c-36 -0 -79.333 -1.66699 -130 -5c-31.333 -2 -49.333 -3 -54 -3
c-33.333 0 -50 9.33301 -50 28c0 16.667 11 26.334 33 29.001c38 5.33301 61.333 12 70 20s15.334 38.833 20.001 92.5s7 144.167 7 271.5c0 116.667 -3 196.667 -9 240s-19.667 76.5 -41 99.5s-48 34.5 -80 34.5c-28.667 0 -57.834 -10.833 -87.501 -32.5
s-60.167 -54.5 -91.5 -98.5c-20.667 -103.333 -31 -251.666 -31 -444.999c0 -82 6 -131.667 18 -149s39.333 -28.333 82 -33c25.333 -2.66699 38 -11.334 38 -26.001c0 -20.667 -16 -31 -48 -31c-7.33301 0 -33 1.33301 -77 4c-60.667 3.33301 -103.667 5 -129 5
c-43.333 0 -94.666 -2.33301 -153.999 -7c-15.333 -1.33301 -27 -2 -35 -2c-29.333 0 -44 9.66699 -44 29c0 17.333 14.333 27 43 29c38 2.66699 62 23.834 72 63.501s15 178.5 15 416.5c0 98 -8.66699 165.5 -26 202.5s-45.666 55.5 -84.999 55.5
c-68 0 -121.667 -36 -161 -108s-59 -211 -59 -417c0 -96.667 6.16699 -155.834 18.5 -177.501s35.5 -33.5 69.5 -35.5c25.333 -1.33301 38 -10 38 -26c0 -21.333 -13.667 -32 -41 -32c-5.33301 0 -14.666 1 -27.999 3c-34.667 4 -94 6 -178 6
c-74.667 0 -132.334 -2.33301 -173.001 -7c-16 -1.33301 -28 -2 -36 -2c-22 0 -33 9.66699 -33 29c0 18 12.333 27.667 37 29c40 2 64.667 9 74 21s16.333 45.5 21 100.5s7 158.5 7 310.5c0 118.667 -1.5 193 -4.5 223s-14 53 -33 69s-45.167 24.333 -78.5 25
c-27.333 0.666992 -41 9.66699 -41 27s13.667 26.666 41 27.999c35.333 2 87.666 6.5 156.999 13.5s129.333 10.5 180 10.5c8 -19.333 12 -51.333 12 -96c0 -11.333 0.333008 -31 1 -59z" />
    <glyph glyph-name="n" unicode="n" 
d="M407 684c45.333 64 94.499 111.998 147.499 143.998s109.833 48 170.5 48c50.667 0 97 -13 139 -39s70.5 -57 85.5 -93s22.5 -87 22.5 -153l-9 -399c0 -54.667 5 -91 15 -109s31 -29.667 63 -35c26.667 -4.66699 40 -15.334 40 -32.001c0 -17.333 -13 -26 -39 -26
c-22 0 -70.333 2.66699 -145 8c-26 1.33301 -47 2 -63 2c-15.333 0 -59.333 -3 -132 -9h-49c-27.333 0 -41 9 -41 27c0 14.667 12.333 24.334 37 29.001c22.667 4.66699 40.667 12.334 54 23.001s22.166 63 26.499 157s6.5 187.333 6.5 280
c0 102.667 -8.16699 173 -24.5 211s-47.5 57 -93.5 57c-56.667 0 -109.167 -41.5 -157.5 -124.5s-72.5 -210.5 -72.5 -382.5c0 -66.667 3.33301 -115 10 -145s14.834 -48.833 24.501 -56.5s30.167 -14.167 61.5 -19.5c18.667 -3.33301 28 -13 28 -29
c0 -18.667 -13.667 -28 -41 -28c-13.333 0 -28 0.666992 -44 2c-64 6 -98.667 9 -104 9c-96 0 -174.667 -3.33301 -236 -10c-10 -1.33301 -18 -2 -24 -2c-24.667 0 -37 9.66699 -37 29c0 16.667 11 26.334 33 29.001c34 4 57 13.333 69 28s20.833 60.5 26.5 137.5
s8.5 168.833 8.5 275.5c0 136 -5 220.167 -15 252.5s-34 55.833 -72 70.5c-27.333 10.667 -41 21 -41 31c0 16 19.667 24 59 24c110.667 0 200.334 4.33301 269.001 13c25.333 -58 40 -123 44 -195z" />
    <glyph glyph-name="o" unicode="o" 
d="M1026 452c0 -122.667 -45.667 -231.667 -137 -327s-207.333 -143 -348 -143c-129.333 0 -238 40 -326 120s-132 186.667 -132 320c0 135.333 46.5 244.833 139.5 328.5s206.167 125.5 339.5 125.5c135.333 0 246.5 -39.5 333.5 -118.5s130.5 -180.833 130.5 -305.5z
M750 384c0 109.333 -18.167 208.167 -54.5 296.5s-88.5 132.5 -156.5 132.5c-60 0 -106.333 -30.833 -139 -92.5s-49 -148.167 -49 -259.5c0 -121.333 18.5 -220.833 55.5 -298.5s87.833 -116.5 152.5 -116.5c63.333 0 111 31 143 93s48 143.667 48 245z" />
    <glyph glyph-name="p" unicode="p" 
d="M390 749c36 40.667 74.332 71.167 114.999 91.5s83.667 30.5 129 30.5c93.333 0 182.166 -41.167 266.499 -123.5s126.5 -187.833 126.5 -316.5c0 -120.667 -41.833 -225.167 -125.5 -313.5s-182.5 -132.5 -296.5 -132.5c-40.667 0 -80 5.83301 -118 17.5
s-75 29.167 -111 52.5c0 -266.667 7.33301 -422.167 22 -466.5s54 -67.833 118 -70.5c23.333 -0.666992 35 -9.66699 35 -27c0 -18 -15.667 -27 -47 -27c-18 0 -45.667 1 -83 3c-78 5.33301 -146 8 -204 8c-39.333 0 -87 -2.33301 -143 -7c-27.333 -2 -44.666 -3 -51.999 -3
c-34.667 0 -52 8.66699 -52 26c0 16 18.667 25.667 56 29c60.667 6 97 43.167 109 111.5s18 301.833 18 700.5l-6 326c0 63.333 -7.66699 104.333 -23 123s-39.666 29.667 -72.999 33c-25.333 2.66699 -38 12 -38 28c0 19.333 14.333 29 43 29c118 0 229.333 2.66699 334 8
l2 -100c0 -4 -0.666992 -14 -2 -30zM744.999 396c0 121.333 -17.833 215.498 -53.5 282.498s-82.167 100.5 -139.5 100.5c-58.667 0 -102.834 -35.667 -132.501 -107s-44.5 -178.666 -44.5 -321.999c0 -113.333 14.333 -191.166 43 -233.499s74.334 -63.5 137.001 -63.5
c63.333 0 110.833 28.667 142.5 86s47.5 143 47.5 257z" />
    <glyph glyph-name="q" unicode="q" horiz-adv-x="1131" 
d="M867 761c14 22.667 24.8359 44.668 32.5029 66.001s20.5 32 38.5 32c13.333 0 21.833 -6 25.5 -18s5.5 -43 5.5 -93l-2 -255c0 -561.333 5.16699 -862.5 15.5 -903.5s44.166 -62.833 101.499 -65.5c30.667 -0.666992 46 -10 46 -28
c0 -8.66699 -3.16699 -15.834 -9.5 -21.501s-27.5 -8.5 -63.5 -8.5c-8.66699 0 -25.334 1 -50.001 3c-33.333 3.33301 -88 5 -164 5c-33.333 0 -73 -1.33301 -119 -4c-47.333 -3.33301 -81 -5 -101 -5c-31.333 0 -47 10 -47 30c0 16.667 16.333 26 49 28
c44.667 3.33301 74.5 15.833 89.5 37.5s22.5 57.834 22.5 108.501l-1 179l-1 161v26c-35.333 -17.333 -70.833 -30.333 -106.5 -39s-71.167 -13 -106.5 -13c-130.667 0 -235.167 42.667 -313.5 128s-117.5 185.666 -117.5 300.999c0 124 43.167 232.5 129.5 325.5
s199.5 139.5 339.5 139.5c119.333 0 221.666 -38.667 306.999 -116zM373.003 436.001c0 -129.333 18.998 -225.834 56.998 -289.501s87.667 -95.5 149 -95.5c62.667 0 104.834 23.833 126.501 71.5s32.5 126.834 32.5 237.501c0 194 -13.167 319.333 -39.5 376
s-70.166 85 -131.499 85c-64.667 0 -113.167 -32 -145.5 -96s-48.5 -160.333 -48.5 -289z" />
    <glyph glyph-name="r" unicode="r" horiz-adv-x="832" 
d="M391 677c33.333 67.333 71.668 117.668 115.001 151.001s91.666 50 144.999 50c50.667 0 91.167 -14.667 121.5 -44s45.5 -66 45.5 -110c0 -34.667 -10.833 -64.167 -32.5 -88.5s-48.167 -36.5 -79.5 -36.5c-23.333 0 -42.666 6 -57.999 18s-31.666 33.333 -48.999 64
c-24 44 -45 66 -63 66c-24.667 0 -52.667 -25 -84 -75s-47 -147 -47 -291c0 -182 6.16699 -283.167 18.5 -303.5s39.5 -30.5 81.5 -30.5c36.667 0 55 -10 55 -30c0 -18.667 -18 -28 -54 -28c-20 0 -49 2 -87 6c-34.667 3.33301 -67.334 5 -98.001 5
c-66 0 -131.333 -2.33301 -196 -7c-27.333 -2 -43.333 -3 -48 -3c-28 0 -42 10.333 -42 31c0 18 16.333 27.667 49 29c32 1.33301 54.333 8.83301 67 22.5s19 43.5 19 89.5l4 250c0 50.667 -2 113.667 -6 189s-7.66699 120.166 -11 134.499s-11.833 27.166 -25.5 38.499
s-32.167 18 -55.5 20c-24 2.66699 -39.167 5.83398 -45.5 9.50098s-9.5 11.167 -9.5 22.5c0 18 16.667 27.333 50 28c61.333 0.666992 165.666 8.66699 312.999 24z" />
    <glyph glyph-name="s" unicode="s" horiz-adv-x="853" 
d="M767 279c0 -48 -12.501 -94.667 -37.501 -140s-62.667 -82.833 -113 -112.5s-109.166 -44.5 -176.499 -44.5c-84 0 -155 17.333 -213 52c-25.333 14.667 -41.666 22 -48.999 22c-8.66699 0 -15.334 -5.66699 -20.001 -17c-10.667 -26.667 -23.334 -40 -38.001 -40
c-8.66699 0 -14.834 3.33301 -18.501 10s-6.66699 36.5 -9 89.5s-3.5 115.833 -3.5 188.5c0 28 8 42 24 42s33 -20.667 51 -62c64 -150 151.333 -225 262 -225c38.667 0 71.5 10 98.5 30s40.5 49 40.5 87c0 32 -12.5 59.5 -37.5 82.5s-72.833 51.833 -143.5 86.5
c-106.667 52.667 -179.667 98.667 -219 138c-40 39.333 -60 91.666 -60 156.999c0 75.333 29 136.5 87 183.5s129.333 70.5 214 70.5c67.333 0 135.666 -20 204.999 -60c9.33301 -5.33301 17 -8 23 -8c8.66699 0 15.334 7.33301 20.001 22
c6.66699 18.667 16.334 28 29.001 28c8.66699 0 14.667 -3 18 -9s8 -37.167 14 -93.5s9 -103.166 9 -140.499c0 -26 -7.66699 -39 -23 -39c-16 0 -32.333 18.667 -49 56c-56.667 124 -138.334 186 -245.001 186c-38.667 0 -70 -9.66699 -94 -29s-36 -40 -36 -62
c0 -28 15.333 -53.667 46 -77c30.667 -24 90.334 -56.333 179.001 -97c76 -34.667 128.833 -61.5 158.5 -80.5s54.834 -46.333 75.501 -82s31 -73.167 31 -112.5z" />
    <glyph glyph-name="t" unicode="t" horiz-adv-x="789" 
d="M451 862c40.667 2 102.999 2.99805 186.999 2.99805c38 0 69.333 -3.33301 94 -10c-10 -50 -18.833 -76.667 -26.5 -80s-92.5 -9.66602 -254.5 -18.999l-11 -441c0 -62.667 3.16699 -108.667 9.5 -138s20.833 -54 43.5 -74s52 -30 88 -30
c30.667 0 74.334 16.333 131.001 49c8.66699 4.66699 16 7 22 7c12.667 0 19 -6.66699 19 -20c0 -19.333 -27 -45.666 -81 -78.999s-117.333 -50 -190 -50c-86 0 -153.5 21 -202.5 63s-73.5 130.667 -73.5 266c0 149.333 2.66699 298.333 8 447
c-66 0 -112.667 1.66699 -140 5s-41 13 -41 29c0 13.333 15.667 24 47 32c62 14 117.5 39.333 166.5 76s90.833 95 125.5 175c14 32.667 23.5 52.5 28.5 59.5s12.167 10.5 21.5 10.5c19.333 0 29 -16 29 -48v-233z" />
    <glyph glyph-name="u" unicode="u" 
d="M380 859c3.33301 -68.667 4.99902 -162.333 4.99902 -281c0 -180 1.66699 -295.167 5 -345.5s16.5 -88.166 39.5 -113.499s49.167 -38 78.5 -38c34.667 0 69.834 13 105.501 39s62 60 79 102s25.5 110.667 25.5 206l2 221c0 58.667 -3.16699 97.334 -9.5 116.001
s-27.833 28.667 -64.5 30c-40 2 -60 12.333 -60 31c0 11.333 4.83301 18.5 14.5 21.5s35.167 4.5 76.5 4.5c92.667 0 179 2.33301 259 7c2.66699 -26 4 -168.333 4 -427c0 -208 2 -321.5 6 -340.5s25.667 -30.167 65 -33.5c23.333 -2.66699 35 -12.334 35 -29.001
c0 -19.333 -13.333 -29 -40 -29c-5.33301 0 -13.666 0.333008 -24.999 1c-18.667 1.33301 -40.667 2 -66 2c-88.667 0 -137.667 -0.333008 -147 -1c-10.667 -0.666992 -19.667 -1 -27 -1c-12.667 0 -20.5 2.16699 -23.5 6.5s-4.5 17.166 -4.5 38.499
c0 34.667 2.33301 69.667 7 105c-46 -56 -94.5 -98 -145.5 -126s-104.5 -42 -160.5 -42c-170 0 -255 95.333 -255 286v309c0 106.667 -3.83301 169.167 -11.5 187.5s-27.834 29.833 -60.501 34.5c-29.333 4 -44 12.667 -44 26c0 18 13 27 39 27c178.667 0 278 2 298 6z" />
    <glyph glyph-name="v" unicode="v" horiz-adv-x="1024" 
d="M610 266c43.333 92.667 83.667 190.167 121 292.5s56 165.833 56 190.5c0 26.667 -15.333 44 -46 52c-29.333 8 -44 19 -44 33c0 16.667 12 25 36 25c12 0 36.667 -1.66699 74 -5c34 -2.66699 57.667 -4 71 -4c29.333 0 56.666 2 81.999 6c14 2 25 3 33 3
c20.667 0 31 -9.33301 31 -28c0 -14 -14 -23.333 -42 -28c-63.333 -10 -116 -68.667 -158 -176l-137.5 -339c-43.667 -104 -77.167 -179.167 -100.5 -225.5s-37.5 -71.333 -42.5 -75s-11.167 -5.5 -18.5 -5.5c-8.66699 0 -17 6.33301 -25 19s-42.333 79.667 -103 201
l-231 460c-33.333 66 -58.666 105.5 -75.999 118.5s-32.333 21.167 -45 24.5c-26 6 -39 15.333 -39 28c0 18.667 12.667 28 38 28c10.667 0 27.334 -1 50.001 -3c54 -5.33301 106.667 -8 158 -8c20.667 0 44 1 70 3c47.333 4.66699 75.666 7 84.999 7
c44 0 66 -7.66699 66 -23c0 -18.667 -12.333 -29.334 -37 -32.001c-34.667 -3.33301 -52 -19.666 -52 -48.999c0 -17.333 28 -86 84 -206s103.333 -214.667 142 -284z" />
    <glyph glyph-name="w" unicode="w" horiz-adv-x="1472" 
d="M1114 292c24.667 55.333 57.334 142.501 98.001 261.501s61 183.833 61 194.5c0 27.333 -20.667 43.666 -62 48.999c-31.333 4.66699 -47 15.667 -47 33c0 18.667 12.333 28 37 28c10 0 22.333 -0.666992 37 -2c28 -3.33301 52 -5 72 -5
c20.667 0 47.334 1.33301 80.001 4c23.333 2 36.666 3 39.999 3c22 0 33 -10 33 -30c0 -12.667 -11.333 -22.334 -34 -29.001c-24.667 -7.33301 -46.167 -21 -64.5 -41s-38.5 -63.667 -60.5 -131l-204 -554c-20.667 -63.333 -40.334 -95 -59.001 -95
c-14.667 0 -29 16.333 -43 49l-209 457l-23 53l-142 -344c-52.667 -124.667 -82.667 -191.5 -90 -200.5s-14.666 -13.5 -21.999 -13.5c-14 0 -28.333 17 -43 51c-24.667 56.667 -54.667 121.334 -90 194.001l-220 450c-27.333 54.667 -47.333 88.5 -60 101.5
s-29.667 21.5 -51 25.5c-25.333 4.66699 -38 15 -38 31c0 18 13.667 27 41 27c16.667 0 46.667 -1.66699 90 -5c32.667 -2.66699 63 -4 91 -4c35.333 0 86.666 2.33301 153.999 7c19.333 1.33301 34.666 2 45.999 2c30 0 45 -10 45 -30
c0 -16.667 -14.667 -26.334 -44 -29.001c-35.333 -3.33301 -53 -18 -53 -44c0 -24 71 -184 213 -480c79.333 184.667 119 299.334 119 344.001c0 33.333 -9.5 69 -28.5 107s-45.167 62 -78.5 72c-22 6.66699 -33 17.667 -33 33c0 18 12.333 27 37 27
c8 0 21.667 -0.666992 41 -2c54.667 -4 114.667 -6 180 -6c26.667 0 63.334 2 110.001 6c18.667 1.33301 33.667 2 45 2c23.333 0 35 -9.33301 35 -28c0 -16 -12 -26 -36 -30c-40 -6 -60 -21.667 -60 -47c0 -22.667 7 -49.667 21 -81z" />
    <glyph glyph-name="x" unicode="x" 
d="M588 543l48.9971 58.9971c57.333 68 91.166 109.667 101.499 125s15.5 28.666 15.5 39.999c0 19.333 -23 32 -69 38c-23.333 2.66699 -35 12.334 -35 29.001c0 18 16 27 48 27c9.33301 0 25.333 -1.33301 48 -4c28.667 -4 58.334 -6 89.001 -6s59.334 1.66699 86.001 5
c17.333 2.66699 28.333 4 33 4c25.333 0 38 -8.33301 38 -25s-16.667 -26.667 -50 -30c-24 -2 -44.167 -7.5 -60.5 -16.5s-40.166 -31.167 -71.499 -66.5l-105 -120l-84 -101l235 -306c36.667 -47.333 68.834 -80.833 96.501 -100.5s58.5 -33.167 92.5 -40.5
c29.333 -6 44 -16.333 44 -31c0 -20 -15.333 -30 -46 -30c-16 0 -44 1.66699 -84 5c-36.667 2.66699 -90.667 4 -162 4c-66.667 0 -125.667 -2.33301 -177 -7c-21.333 -2 -36.666 -3 -45.999 -3c-26.667 0 -40 9.33301 -40 28c0 16 16 26.333 48 31
c41.333 6.66699 62 20 62 40c0 15.333 -14.333 41.666 -43 78.999c-25.333 32.667 -40.666 53.334 -45.999 62.001l-17 22l-58 74l-109 -127c-42.667 -50 -64 -84.333 -64 -103c0 -15.333 6.16699 -26.166 18.5 -32.499s38.833 -12.166 79.5 -17.499
c23.333 -3.33301 35 -12.666 35 -27.999c0 -18.667 -15.667 -28 -47 -28c-8 0 -19 0.666992 -33 2c-33.333 4 -75 6 -125 6c-32 -0 -79.667 -2.66699 -143 -8c-6 -0.666992 -10.667 -1 -14 -1c-28 0 -42 10 -42 30c0 16 17.667 26 53 30
c35.333 4.66699 67.166 15.667 95.499 33s58.5 46.666 90.5 87.999c4 6 8.66699 12 14 18l155 184l-239 309c-34 43.333 -59.667 72.333 -77 87s-41.666 26.334 -72.999 35.001c-22 6 -33 15 -33 27c0 19.333 13.333 29 40 29c10 0 32 -1.33301 66 -4
c43.333 -4 77 -6 101 -6c93.333 0 167.666 2.66699 222.999 8c14 1.33301 25.333 2 34 2c24 0 36 -9.66699 36 -29c0 -14 -18 -24.333 -54 -31c-26.667 -5.33301 -40 -14 -40 -26c0 -18 17 -47.333 51 -88c7.33301 -8.66699 13.666 -17 18.999 -25z" />
    <glyph glyph-name="y" unicode="y" horiz-adv-x="1024" 
d="M608 221l81.9951 227.998c44.667 126 67 212.333 67 259c0 55.333 -31.333 87.333 -94 96c-28 4.66699 -42 14.334 -42 29.001c0 18.667 13.667 28 41 28c10.667 0 30 -1.66699 58 -5c29.333 -3.33301 64 -5 104 -5c26.667 0 59 2 97 6c32 4 50.333 6 55 6
c32 0 48 -10 48 -30c0 -11.333 -10.333 -19.666 -31 -24.999c-51.333 -14 -89.333 -42.5 -114 -85.5s-76.667 -177.167 -156 -402.5c-103.333 -292.667 -178.166 -488.334 -224.499 -587.001s-97.666 -169 -153.999 -211s-116.5 -63 -180.5 -63
c-57.333 0 -102.166 14.167 -134.499 42.5s-48.5 64.833 -48.5 109.5c0 28.667 11.5 55.834 34.5 81.501s53.167 38.5 90.5 38.5c60 0 98 -35.667 114 -107c8.66699 -36 22 -54 40 -54c45.333 0 94.166 46.167 146.499 138.5s78.5 161.166 78.5 206.499
c0 22.667 -20.833 83.834 -62.5 183.501l-168 387.5c-70.333 158.667 -115.166 249.834 -134.499 273.501s-41.666 38.5 -66.999 44.5c-26 5.33301 -39 14.666 -39 27.999c0 19.333 17 29 51 29c8 0 35 -2.33301 81 -7c28 -3.33301 64 -5 108 -5
c72.667 0 136.334 2.66699 191.001 8l43 4c26.667 0 40 -9 40 -27c0 -17.333 -16 -29 -48 -35c-21.333 -4 -38 -13.167 -50 -27.5s-18 -28.166 -18 -41.499c0 -14.667 17.833 -70.334 53.5 -167.001s83.167 -210.667 142.5 -342z" />
    <glyph glyph-name="z" unicode="z" horiz-adv-x="939" 
d="M820 0h-677.998c-37.333 0 -60.166 1.16699 -68.499 3.5s-12.5 7.83301 -12.5 16.5c0 6.66699 3.33301 15.334 10 26.001c7.33301 10 15.666 23.333 24.999 40c4 7.33301 10 17 18 29l155 241c116 180 202.333 328.667 259 446c-73.333 0 -133.833 -5.66699 -181.5 -17
s-82.834 -25.666 -105.501 -42.999s-57.667 -57.333 -105 -120c-14.667 -20 -27.667 -30 -39 -30c-20 0 -30 10 -30 30c0 7.33301 2.33301 16.666 7 27.999c16 42 35 111.667 57 209h559c66 0 105 -1.83301 117 -5.5s18 -9.83398 18 -18.501c0 -6 -10.667 -27.333 -32 -64
l-80 -135l-358 -573c130 2 212.833 5.33301 248.5 10s67.167 18 94.5 40s59.666 62.333 96.999 121c22.667 35.333 40.334 53 53.001 53c18.667 0 28 -10 28 -30c0 -10.667 -6 -38.667 -18 -84c-14.667 -53.333 -27.334 -111 -38.001 -173z" />
    <glyph glyph-name="braceleft" unicode="{" horiz-adv-x="811" 
d="M720 1338l-0.000976562 -45.999c-67.333 -10.667 -116.666 -34.334 -147.999 -71.001s-47 -75.667 -47 -117c0 -43.333 7.66699 -97.666 23 -162.999c16.667 -68.667 25 -126.667 25 -174c0 -66.667 -25.5 -130.834 -76.5 -192.501s-134.167 -106.834 -249.5 -135.501
c124 -36 209.667 -85 257 -147s71 -123.667 71 -185c0 -36.667 -8 -88.667 -24 -156c-16.667 -67.333 -25 -124 -25 -170c0 -106 64.667 -172 194 -198v-46c-59.333 0 -108 4.33301 -146 13s-79.333 28.167 -124 58.5s-79.667 68 -105 113s-38 90.5 -38 136.5
c0 42.667 10.333 104 31 184c15.333 60 23 112 23 156c0 118.667 -65.333 188.334 -196 209.001v61c70 10 120.167 36.5 150.5 79.5s45.5 89.167 45.5 138.5c0 43.333 -7.33301 93.333 -22 150c-20.667 79.333 -31 138.666 -31 177.999c0 78 35.167 150.833 105.5 218.5
s172.5 102.834 306.5 105.501z" />
    <glyph glyph-name="bar" unicode="|" horiz-adv-x="1088" 
d="M478 1366h132v-1908h-132v1908z" />
    <glyph glyph-name="braceright" unicode="}" horiz-adv-x="811" 
d="M91 -463l0.000976562 44.999c67.333 11.333 116.666 35.333 147.999 72s47 75.667 47 117c0 43.333 -7.66699 97.333 -23 162c-16.667 69.333 -25 127.333 -25 174c0 66.667 25.5 131 76.5 193s134.167 107 249.5 135c-124 36.667 -209.833 85.834 -257.5 147.501
s-71.5 123.167 -71.5 184.5c0 36.667 8.33301 88.667 25 156c16 67.333 24 124.333 24 171c0 106 -64.333 171.667 -193 197v47c59.333 0 107.833 -4.33301 145.5 -13s79 -28.334 124 -59.001s80.167 -68.5 105.5 -113.5s38 -90.167 38 -135.5
c0 -43.333 -10.333 -105 -31 -185c-15.333 -59.333 -23 -111 -23 -155c0 -118.667 65.333 -188.667 196 -210v-61c-70 -10 -120.167 -36.5 -150.5 -79.5s-45.5 -88.833 -45.5 -137.5c0 -44 7.33301 -94.333 22 -151c20 -79.333 30 -138.666 30 -177.999
c0 -60 -21.167 -117.5 -63.5 -172.5s-92 -93.167 -149 -114.5s-123.167 -33.333 -198.5 -36z" />
    <glyph glyph-name="asciitilde" unicode="~" horiz-adv-x="1365" 
d="M1171 695h52.002c-2.66699 -94.667 -28.334 -169.167 -77.001 -223.5s-109.334 -81.5 -182.001 -81.5c-36 0 -74 6.16699 -114 18.5s-127 46.5 -261 102.5c-99.333 41.333 -170.333 62 -213 62c-98.667 0 -159 -60.333 -181 -181h-52c4 105.333 31.167 182.5 81.5 231.5
s106.5 73.5 168.5 73.5c67.333 0 194.333 -40.333 381 -121c100 -43.333 172 -65 216 -65c49.333 0 90.5 16.167 123.5 48.5s52.167 77.5 57.5 135.5z" />
    <glyph glyph-name="nonbreakingspace" unicode="&#xa0;" horiz-adv-x="544" 
 />
    <glyph glyph-name="exclamdown" unicode="&#xa1;" horiz-adv-x="576" 
d="M427 721c0 -38 -13.667 -70.667 -41 -98s-60 -41 -98 -41c-38.667 0 -71.667 13.667 -99 41s-41 60 -41 98c0 38.667 13.667 71.667 41 99s60.333 41 99 41c38 0 70.667 -13.667 98 -41s41 -60.333 41 -99zM319 479l64 -376.999c41.333 -240.667 62 -387.667 62 -441
c0 -48.667 -16 -88 -48 -118s-68.333 -45 -109 -45c-44.667 0 -82.167 16 -112.5 48s-45.5 69.667 -45.5 113c0 41.333 42 314.666 126 819.999h63z" />
    <glyph glyph-name="cent" unicode="&#xa2;" horiz-adv-x="960" 
d="M697 850c110 -42.667 165.001 -102 165.001 -178c0 -33.333 -10 -59.5 -30 -78.5s-44.667 -28.5 -74 -28.5c-54.667 0 -94.334 37.667 -119.001 113l-183 -537c39.333 -44.667 86.666 -67 141.999 -67c96 0 163.667 57 203 171c12.667 36 27.667 54 45 54
c18.667 0 28 -10 28 -30c0 -58 -29.5 -120.833 -88.5 -188.5s-147.167 -101.5 -264.5 -101.5c-40 0 -78.667 5 -116 15l-98 -290l-64 22l99 288c-81.333 34 -144.333 87.5 -189 160.5s-67 155.833 -67 248.5c0 122 41.833 228.5 125.5 319.5s192.834 136.5 327.501 136.5
c32 0 63.667 -3.33301 95 -10l99 288l63 -18zM409.001 210l192 562c-19.333 28.667 -46.666 43 -81.999 43c-54.667 0 -95.834 -27.333 -123.501 -82s-41.5 -137 -41.5 -247c0 -112 18.333 -204 55 -276z" />
    <glyph glyph-name="sterling" unicode="&#xa3;" horiz-adv-x="1792" 
d="M975 427l384.003 30.9971l43 3c14.667 0 22 -7.66699 22 -23v-42c0 -13.333 -1.83301 -21.666 -5.5 -24.999s-14.834 -5.66602 -33.501 -6.99902l-433 -33c-27.333 -110.667 -79.333 -219.334 -156 -326.001c136.667 -29.333 248.667 -44 336 -44
c224 0 360 52.333 408 157c15.333 32.667 30.333 49 45 49c18 0 27 -11.667 27 -35c0 -129.333 -33.667 -225.666 -101 -288.999s-153.333 -95 -258 -95c-44.667 0 -94.834 7.16699 -150.501 21.5s-181.5 67.166 -377.5 158.499c-130.667 -121.333 -268 -182 -412 -182
c-68 0 -128.5 16.5 -181.5 49.5s-79.5 78.5 -79.5 136.5c0 56 23.333 99.833 70 131.5s107.334 47.5 182.001 47.5c82 0 185.333 -19.333 310 -58c21.333 64 41.666 150.667 60.999 260l-353 -27c-16.667 -1.33301 -29.667 -2 -39 -2s-15.166 1.5 -17.499 4.5
s-3.5 11.167 -3.5 24.5v27c0 16 2 25.833 6 29.5s14.667 6.16699 32 7.5l392 28c8 35.333 25.833 121.166 53.5 257.499s60.167 246.333 97.5 330s83.333 153.334 138 209.001s113.334 97.334 176.001 125.001s128 41.5 196 41.5c113.333 0 207 -33.167 281 -99.5
s111 -150.5 111 -252.5c0 -87.333 -26.5 -163.5 -79.5 -228.5s-121.5 -97.5 -205.5 -97.5c-50 0 -91.5 10.167 -124.5 30.5s-49.5 36.833 -49.5 49.5c0 18 9 27 27 27c6 0 14 -2 24 -6c39.333 -16.667 68 -25 86 -25c47.333 0 82.833 21.5 106.5 64.5
s35.5 107.167 35.5 192.5c0 82.667 -18.333 149.667 -55 201s-88.334 77 -155.001 77c-45.333 0 -87.333 -10.667 -126 -32s-69.834 -50.5 -93.501 -87.5s-40.334 -73.667 -50.001 -110s-22.5 -108.166 -38.5 -215.499c-20 -138 -44 -281 -72 -429zM587.003 -17.0029
c-93.333 35.333 -166.666 52.999 -219.999 52.999c-46.667 0 -81.667 -9.16699 -105 -27.5s-35 -46.166 -35 -83.499c0 -26 11.667 -49.833 35 -71.5s54.666 -32.5 93.999 -32.5c99.333 0 176.333 54 231 162z" />
    <glyph glyph-name="currency" unicode="&#xa4;" horiz-adv-x="1408" 
d="M977 903l127.001 127.001l88 -90l-126 -126c60 -83.333 90 -174 90 -272c0 -98.667 -30 -189.334 -90 -272.001l126 -126l-88 -89l-127 126c-41.333 -30 -84.833 -52.667 -130.5 -68s-93.167 -23 -142.5 -23c-98.667 0 -189.334 30 -272.001 90l-126 -125l-90 89l127 125
c-60.667 83.333 -91 174.333 -91 273c0 98 30.333 188.667 91 272l-127 126l89 90l127 -126c42.667 30 86.667 52.5 132 67.5s92 22.5 140 22.5c92.667 0 183.667 -30.333 273 -91zM1029 542.001c0 90 -31.667 166.667 -95 230s-140 95 -230 95s-166.667 -31.667 -230 -95
s-95 -140 -95 -230s31.667 -166.833 95 -230.5s140 -95.5 230 -95.5c89.333 0 165.833 32 229.5 96s95.5 140.667 95.5 230z" />
    <glyph glyph-name="yen" unicode="&#xa5;" horiz-adv-x="1472" 
d="M1010 991c60.667 91.333 90.998 153.668 90.998 187.001c0 15.333 -5.16699 31 -15.5 47s-40.166 31 -89.499 45c-20 5.33301 -30 14.666 -30 27.999c0 20.667 12 31 36 31c6.66699 0 15.667 -0.666992 27 -2c85.333 -7.33301 150.333 -11 195 -11
c48.667 0 106.334 3.33301 173.001 10c12.667 1.33301 23.334 2 32.001 2c19.333 0 29 -9 29 -27c0 -16.667 -9.66699 -26 -29 -28c-56 -6 -105.833 -27.5 -149.5 -64.5s-103.834 -109.5 -180.501 -217.5h344v-75h-398c-80 -113.333 -127.5 -183 -142.5 -209
s-23.833 -52 -26.5 -78h567v-75h-571c-0.666992 -30.667 -1 -67.667 -1 -111c0 -188 8.5 -300.833 25.5 -338.5s59.167 -56.5 126.5 -56.5c24 0 36 -9.66699 36 -29c0 -20 -13.333 -30 -40 -30c-20 0 -75 3 -165 9c-51.333 3.33301 -88 5 -110 5
c-72.667 0 -155 -4.33301 -247 -13c-17.333 -1.33301 -31 -2 -41 -2c-25.333 0 -38 9.66699 -38 29c0 16.667 9.66699 26 29 28c65.333 8 106.5 29.833 123.5 65.5s25.5 114.167 25.5 235.5c0 104.667 -5 174 -15 208h-552v75h528
c-56.667 102.667 -118 198.334 -184 287.001h-344v75h296c-70 108 -123.167 179.667 -159.5 215s-77.5 57 -123.5 65c-18.667 3.33301 -28 12.333 -28 27c0 20.667 11.667 31 35 31c10.667 0 27.334 -1 50.001 -3c103.333 -7.33301 179 -11 227 -11
c76 0 161.333 3.66699 256 11c19.333 1.33301 35.666 2 48.999 2c22.667 0 34 -8.66699 34 -26c0 -16.667 -12.333 -26.334 -37 -29.001c-68.667 -6.66699 -103 -31 -103 -73c0 -30 37.333 -99.667 112 -209h373zM957.998 916.002h-268.999l133 -183
c53.333 68.667 98.666 129.667 135.999 183z" />
    <glyph glyph-name="brokenbar" unicode="&#xa6;" horiz-adv-x="1088" 
d="M478 1366h132v-725h-132v725zM478 182h132v-724h-132v724z" />
    <glyph glyph-name="section" unicode="&#xa7;" horiz-adv-x="1024" 
d="M722 2c62 -92 93.001 -178.67 93.001 -260.003c0 -91.333 -27.5 -162.166 -82.5 -212.499s-129.167 -75.5 -222.5 -75.5c-80 0 -142.833 16.667 -188.5 50s-68.5 77.333 -68.5 132c0 40.667 13.667 75.334 41 104.001s61.666 43 102.999 43c31.333 0 56 -9.33301 74 -28
s27 -38 27 -58c0 -25.333 -11.333 -49 -34 -71c-23.333 -22.667 -35 -41 -35 -55c0 -16.667 7 -29.334 21 -38.001s35 -13 63 -13c44.667 0 78.5 13.667 101.5 41s34.5 57.333 34.5 90c0 51.333 -19.5 107.5 -58.5 168.5s-132.167 172.833 -279.5 335.5
c-78 85.333 -135.333 159.833 -172 223.5s-55 128.5 -55 194.5c0 72 21.333 127.667 64 167s92.334 61.333 149.001 66c-54 94.667 -81 184.334 -81 269.001c0 76 27.667 143.833 83 203.5s130 89.5 224 89.5c81.333 0 145.5 -20.333 192.5 -61s70.5 -86 70.5 -136
c0 -43.333 -14.667 -78.5 -44 -105.5s-60 -40.5 -92 -40.5c-30 0 -55.5 8.83301 -76.5 26.5s-31.5 40.5 -31.5 68.5c0 30 17.667 59.333 53 88c19.333 16 29 29 29 39c0 15.333 -8.83301 28.5 -26.5 39.5s-38.5 16.5 -62.5 16.5c-40.667 0 -74.334 -14.5 -101.001 -43.5
s-40 -63.833 -40 -104.5c0 -63.333 17.333 -125 52 -185s111.667 -161.333 231 -304c103.333 -124 172.333 -215.5 207 -274.5s52 -117.5 52 -175.5c0 -53.333 -18.667 -99.666 -56 -138.999s-90 -64.333 -158 -75zM679.001 60.9971c32 1.33301 57.667 9.33398 77 24.001
s29 31 29 49c0 25.333 -8.16699 51.166 -24.5 77.499s-47.5 66.833 -93.5 121.5l-264 311c-50 58.667 -88.333 88 -115 88c-14.667 0 -28.5 -7 -41.5 -21s-19.5 -29 -19.5 -45c0 -35.333 20 -81.333 60 -138s101.667 -132 185 -226c79.333 -88.667 148.333 -169 207 -241z
" />
    <glyph glyph-name="dieresis" unicode="&#xa8;" horiz-adv-x="683" 
d="M250 1142c0 -33.333 -11.833 -61.833 -35.5 -85.5s-52.167 -35.5 -85.5 -35.5c-32.667 0 -60.834 11.833 -84.501 35.5s-35.5 52.167 -35.5 85.5c0 32.667 11.833 60.834 35.5 84.501s51.834 35.5 84.501 35.5c33.333 0 61.833 -11.833 85.5 -35.5
s35.5 -51.834 35.5 -84.501zM674 1142c0 -33.333 -11.833 -61.833 -35.5 -85.5s-51.834 -35.5 -84.501 -35.5c-33.333 0 -61.833 11.833 -85.5 35.5s-35.5 52.167 -35.5 85.5c0 32.667 11.833 60.834 35.5 84.501s52.167 35.5 85.5 35.5
c32.667 0 60.834 -11.833 84.501 -35.5s35.5 -51.834 35.5 -84.501z" />
    <glyph glyph-name="copyright" unicode="&#xa9;" horiz-adv-x="1536" 
d="M768 1338c119.333 0 235 -30.333 347 -91s200.5 -147.5 265.5 -260.5s97.5 -232.5 97.5 -358.5c0 -194.667 -69.5 -361.5 -208.5 -500.5s-306.167 -208.5 -501.5 -208.5c-194.667 0 -361.5 69.5 -500.5 208.5s-208.5 305.833 -208.5 500.5c0 196 69.5 363.333 208.5 502
s305.833 208 500.5 208zM768 1248c-170 0 -315.833 -60.499 -437.5 -181.499s-182.5 -267.167 -182.5 -438.5c0 -170 60.833 -315.833 182.5 -437.5s267.5 -182.5 437.5 -182.5c170.667 0 316.667 60.833 438 182.5s182 267.5 182 437.5
c0 111.333 -28.167 215.666 -84.5 312.999s-132.833 172.833 -229.5 226.5s-198.667 80.5 -306 80.5zM1103 1056v-264h-38c-11.333 67.333 -40.166 120.166 -86.499 158.499s-99.5 57.5 -159.5 57.5c-78 0 -140.5 -30.5 -187.5 -91.5s-70.5 -151.833 -70.5 -272.5
c0 -142 25.833 -239.833 77.5 -293.5s110.167 -80.5 175.5 -80.5c98.667 0 185.667 46 261 138v-70c-80.667 -84.667 -186.667 -127 -318 -127c-120 0 -220.167 36.833 -300.5 110.5s-120.5 172.834 -120.5 297.501c0 128.667 42.333 234 127 316s189 123 313 123
c57.333 0 123 -13.667 197 -41c21.333 -7.33301 36.666 -11 45.999 -11c26 0 41.333 16.667 46 50h38z" />
    <glyph glyph-name="ordfeminine" unicode="&#xaa;" horiz-adv-x="619" 
d="M336 850c-23.333 -18.667 -47.6719 -32.832 -73.0049 -42.499s-51.666 -14.5 -78.999 -14.5c-48 0 -84.667 13 -110 39s-38 56.667 -38 92c0 41.333 13.833 74 41.5 98s76.834 47.667 147.501 71c48 16 80.333 31.167 97 45.5s25 37.833 25 70.5
c0 26.667 -5.33301 46.5 -16 59.5s-27 19.5 -49 19.5c-18.667 0 -31.334 -4 -38.001 -12c-7.33301 -8 -13.666 -23.667 -18.999 -47c-10.667 -48 -40.667 -72 -90 -72c-50.667 0 -76 20.333 -76 61c0 39.333 23.333 69.166 70 89.499s103 30.5 169 30.5
c56 0 101.833 -8 137.5 -24s58.334 -34.333 68.001 -55s14.5 -52 14.5 -94l-1 -140c0 -75.333 1.83301 -121.833 5.5 -139.5s11.834 -26.5 24.501 -26.5l30 2c24 0 36 -7 36 -21c0 -11.333 -19.667 -21.833 -59 -31.5s-79.666 -14.5 -120.999 -14.5
c-30.667 0 -53 3.5 -67 10.5s-24 22.167 -30 45.5zM342.994 1084c-9.33301 -6 -20.667 -12.335 -34 -19.002c-46 -22 -75 -39.167 -87 -51.5s-18 -32.166 -18 -59.499c0 -26 4.5 -45.5 13.5 -58.5s22.167 -19.5 39.5 -19.5c21.333 0 41.5 9.83301 60.5 29.5
s28.5 55.834 28.5 108.501c0 16.667 -1 40 -3 70z" />
    <glyph glyph-name="guillemotleft" unicode="&#xab;" horiz-adv-x="1088" 
d="M59 431c224.667 188 367.671 314.666 429.004 379.999c11.333 11.333 28.666 17 51.999 17c16.667 0 25 -4 25 -12l-3 -9c-8.66699 -13.333 -42.334 -72.666 -101.001 -177.999l-119 -198c35.333 -55.333 69.666 -112.333 102.999 -171l87 -154l35 -64
c0 -7.33301 -4.66699 -11 -14 -11c-23.333 0 -37.833 2.33301 -43.5 7s-38.834 33.667 -99.501 87zM521.004 430.999l271.001 232.499c98.667 87 151.5 136.167 158.5 147.5s24.5 17 52.5 17c16 0 24 -4 24 -12l-3 -9c-8.66699 -13.333 -42.334 -72.666 -101.001 -177.999
l-119 -198c36 -55.333 70.333 -112.333 103 -171l87 -154l35 -64c0 -7.33301 -4.33301 -11 -13 -11c-20.667 0 -34 1.66699 -40 5s-55.667 46 -149 128z" />
    <glyph glyph-name="logicalnot" unicode="&#xac;" horiz-adv-x="1365" 
d="M139 836h1088v-591h-132v460h-956v131z" />
    <glyph glyph-name="registered" unicode="&#xae;" horiz-adv-x="1536" 
d="M768 1338c119.333 0 235 -30.333 347 -91s200.5 -147.5 265.5 -260.5s97.5 -232.5 97.5 -358.5c0 -194.667 -69.5 -361.5 -208.5 -500.5s-306.167 -208.5 -501.5 -208.5c-194.667 0 -361.5 69.5 -500.5 208.5s-208.5 305.833 -208.5 500.5c0 196 69.5 363.333 208.5 502
s305.833 208 500.5 208zM768 1248c-170 0 -315.833 -60.499 -437.5 -181.499s-182.5 -267.167 -182.5 -438.5c0 -170 60.833 -315.833 182.5 -437.5s267.5 -182.5 437.5 -182.5c170.667 0 316.667 60.833 438 182.5s182 267.5 182 437.5
c0 111.333 -28.167 215.666 -84.5 312.999s-132.833 172.833 -229.5 226.5s-198.667 80.5 -306 80.5zM389 1041l362 0.00292969c89.333 0 156 -6.66699 200 -20s80.833 -38.333 110.5 -75s44.5 -78.334 44.5 -125.001c0 -52 -14.833 -95.333 -44.5 -130
s-74.5 -60.334 -134.5 -77.001l137 -249c34.667 -64 69.667 -97.333 105 -100v-33h-242l-205 368h-46v-199c0 -56 7.5 -92.167 22.5 -108.5s47.5 -25.5 97.5 -27.5v-33h-423v33c38 0 65 7.33301 81 22s24 52.667 24 114v472c0 59.333 -6.66699 95.666 -20 108.999
s-36.333 21.333 -69 24v35zM676 650.004c22.667 -2.66699 41.3311 -3.99902 55.998 -3.99902c42.667 0 79.834 16 111.501 48s47.5 75.667 47.5 131c0 57.333 -14.667 100.166 -44 128.499s-73.666 42.5 -132.999 42.5h-38v-346z" />
    <glyph glyph-name="degree" unicode="&#xb0;" horiz-adv-x="811" 
d="M405 1384c93.333 0 174.333 -33 243 -99s103 -148.333 103 -247c0 -94.667 -33.833 -176 -101.5 -244s-149.167 -102 -244.5 -102c-96 0 -177.667 33.833 -245 101.5s-101 149.167 -101 244.5c0 98.667 34.333 181 103 247s149.667 99 243 99zM405 1254
c-58.667 0 -109.167 -20.833 -151.5 -62.5s-63.5 -92.5 -63.5 -152.5c0 -59.333 21.167 -110 63.5 -152s92.833 -63 151.5 -63c59.333 0 110 21.167 152 63.5s63 92.833 63 151.5c0 61.333 -21.333 112.5 -64 153.5s-93 61.5 -151 61.5z" />
    <glyph glyph-name="plusminus" unicode="&#xb1;" horiz-adv-x="1365" 
d="M139 806h478v478h132v-478h478v-131h-478v-478h-132v478h-478v131zM139 131h1088v-131h-1088v131z" />
    <glyph glyph-name="twosuperior" unicode="&#xb2;" horiz-adv-x="811" 
d="M631 694l-468.001 0.00292969c-35.333 0 -56 1.16699 -62 3.5s-9 7.83301 -9 16.5c0 10.667 13.333 24.667 40 42c124.667 81.333 215 156.666 271 225.999c55.333 69.333 83 141.666 83 216.999c0 34 -9.16699 60.667 -27.5 80s-40.5 29 -66.5 29
c-45.333 0 -84.333 -22.5 -117 -67.5s-49 -87.167 -49 -126.5c0 -17.333 2.66699 -30.333 8 -39s13.333 -13 24 -13c8.66699 0 22.334 5 41.001 15c15.333 8 26 12 32 12c15.333 0 23 -7.66699 23 -23c0 -16.667 -15.333 -34.334 -46 -53.001s-62 -28 -94 -28
s-59.333 11.5 -82 34.5s-34 51.167 -34 84.5c0 63.333 31.667 123.333 95 180s144 85 242 85c84 0 146.5 -15.833 187.5 -47.5s61.5 -72.5 61.5 -122.5c0 -54 -22.5 -105.833 -67.5 -155.5s-136.167 -117.5 -273.5 -203.5h136c64 0 103.5 2.5 118.5 7.5
s36.5 25.833 64.5 62.5c8.66699 11.333 19 17 31 17c16.667 0 25 -7 25 -21c0 -4.66699 -11 -32.667 -33 -84z" />
    <glyph glyph-name="threesuperior" unicode="&#xb3;" horiz-adv-x="811" 
d="M516 1067c49.333 0 90.4971 -12.8359 123.497 -38.5029s49.5 -62.167 49.5 -109.5c0 -67.333 -34.167 -125.166 -102.5 -173.499s-154.166 -72.5 -257.499 -72.5c-82 0 -139.667 14 -173 42s-50 56.333 -50 85c0 24.667 9.66699 46.167 29 64.5s42.666 27.5 69.999 27.5
c22.667 0 40.834 -6.5 54.501 -19.5s20.5 -26.833 20.5 -41.5c0 -10 -3.66699 -22.667 -11 -38c-4 -10 -6 -18.333 -6 -25c0 -12.667 5.16699 -22.167 15.5 -28.5s25.833 -9.5 46.5 -9.5c56 0 99.167 28.333 129.5 85s45.5 106.667 45.5 150c0 17.333 -5 31.5 -15 42.5
s-20.667 16.5 -32 16.5c-12 0 -32.667 -8.33301 -62 -25c-23.333 -13.333 -38.666 -20 -45.999 -20c-16 0 -24 7.66699 -24 23c0 11.333 15.333 26.666 46 45.999c52.667 32.667 85.667 62.834 99 90.501s20 51.167 20 70.5c0 23.333 -6.33301 45 -19 65s-31.667 30 -57 30
c-38 0 -70.333 -12.833 -97 -38.5s-40 -56.167 -40 -91.5c0 -19.333 5.33301 -29 16 -29c5.33301 0 11.333 1.66699 18 5c8.66699 4 16.334 6 23.001 6c15.333 0 23 -8 23 -24c0 -10 -11.333 -21.167 -34 -33.5s-45 -18.5 -67 -18.5c-24 0 -44.833 9.33301 -62.5 28
s-26.5 40.667 -26.5 66c0 55.333 30.333 101.5 91 138.5s131.667 55.5 213 55.5c66 0 115.333 -13.667 148 -41s49 -59.666 49 -96.999c0 -26.667 -10.5 -52.167 -31.5 -76.5s-59.833 -53.166 -116.5 -86.499z" />
    <glyph glyph-name="acute" unicode="&#xb4;" horiz-adv-x="683" 
d="M524 1362c22.667 0 42.668 -8.5 60.001 -25.5s26 -36.167 26 -57.5c0 -40.667 -35 -86.667 -105 -138c-54.667 -40 -106.334 -80 -155.001 -120s-81 -60 -97 -60c-8 0 -16.5 4 -25.5 12s-13.5 15.667 -13.5 23s29.833 55.5 89.5 144.5s104 148.167 133 177.5
s58.167 44 87.5 44z" />
    <glyph glyph-name="mu" unicode="&#xb5;" horiz-adv-x="1131" 
d="M128 935l235 -0.000976562v-614c0 -53.333 2.83301 -92.833 8.5 -118.5s19 -47.667 40 -66s46.833 -27.5 77.5 -27.5c32 0 61.833 10.167 89.5 30.5s53.167 50.5 76.5 90.5v705h236v-625c0 -60.667 1.5 -100.167 4.5 -118.5s12.833 -35.166 29.5 -50.499
s36.334 -23 59.001 -23c54.667 0 86 49.667 94 149h43c-0.666992 -97.333 -27.334 -170.833 -80.001 -220.5s-111.667 -74.5 -177 -74.5c-50.667 0 -92.667 13.167 -126 39.5s-58.333 65.5 -75 117.5c-45.333 -52 -92.166 -91.167 -140.499 -117.5s-98.5 -39.5 -150.5 -39.5
c-23.333 0 -47.333 4.66699 -72 14s-50.334 23.333 -77.001 42c0 -61.333 11.667 -134.333 35 -219c15.333 -56 23 -95.333 23 -118c0 -40 -10.667 -72 -32 -96s-50 -36 -86 -36c-72 0 -108 40 -108 120c0 27.333 8 72.333 24 135c21.333 83.333 34.833 149.333 40.5 198
s8.5 131 8.5 247v676z" />
    <glyph glyph-name="paragraph" unicode="&#xb6;" horiz-adv-x="1557" 
d="M1356 1325l0.000976562 -41.002c-62.667 -10.667 -104.334 -26.167 -125.001 -46.5s-33.5 -41.166 -38.5 -62.499s-7.5 -84.666 -7.5 -189.999v-1433h-108v1710c-16.667 1.33301 -30.667 2 -42 2c-38.667 0 -82 -5 -130 -15v-1697h-108v707l-71 -1
c-184 0 -317 51.833 -399 155.5s-123 222.167 -123 355.5c0 136 36 248 108 336s165 146.667 279 176s316.333 44 607 44h158z" />
    <glyph glyph-name="cedilla" unicode="&#xb8;" horiz-adv-x="683" 
d="M409 32c-18 -40 -32.001 -73.334 -42.001 -100.001c50 0 87.5 -11.833 112.5 -35.5s37.5 -49.167 37.5 -76.5c0 -51.333 -28.667 -93.5 -86 -126.5s-140.666 -49.5 -249.999 -49.5c-31.333 0 -47 9.66699 -47 29c0 18.667 20.667 30.667 62 36c67.333 8 101 30 101 66
c0 31.333 -23 47.333 -69 48c37.333 46.667 75.333 116.334 114 209.001h67z" />
    <glyph glyph-name="onesuperior" unicode="&#xb9;" horiz-adv-x="811" 
d="M169 1275c0 20 18.332 30.333 54.999 31c84 1.33301 158.667 18 224 50c18 8.66699 30 13 36 13c12 0 18 -8 18 -24l-2 -98l3 -209l-1 -113c0 -68 4.5 -112.667 13.5 -134s27.167 -33.333 54.5 -36c30.667 -3.33301 50 -7 58 -11s12 -11.667 12 -23
c0 -18 -13 -27 -39 -27l-182 1l-119 -1l-38 1l-55 -2c-21.333 0 -32 9 -32 27c0 17.333 18 28 54 32c44 5.33301 70.333 20.5 79 45.5s13 115.833 13 272.5c0 81.333 -6.66699 130.5 -20 147.5s-40.666 26.833 -81.999 29.5c-33.333 2 -50 11.333 -50 28z" />
    <glyph glyph-name="ordmasculine" unicode="&#xba;" horiz-adv-x="704" 
d="M666 1081c0 -74 -30.5 -139.832 -91.5 -197.499s-138.167 -86.5 -231.5 -86.5c-94 0 -168.333 26.167 -223 78.5s-82 115.166 -82 188.499c0 80.667 31 146.5 93 197.5s137.333 76.5 226 76.5c96 0 171.5 -25.167 226.5 -75.5s82.5 -110.833 82.5 -181.5zM465 1041
c0 66 -11.332 123.5 -33.999 172.5s-52.334 73.5 -89.001 73.5c-34.667 0 -61.334 -17.833 -80.001 -53.5s-28 -84.5 -28 -146.5c0 -54.667 9.33301 -108.167 28 -160.5s49.334 -78.5 92.001 -78.5c40 0 68.5 19.667 85.5 59s25.5 84 25.5 134z" />
    <glyph glyph-name="guillemotright" unicode="&#xbb;" horiz-adv-x="1088" 
d="M1029 429c-224.667 -188 -367.669 -314.668 -429.002 -380.001c-11.333 -12 -29 -18 -53 -18c-16.667 0 -25 4.33301 -25 13l4 9c8.66699 13.333 42.334 72.333 101.001 177l118 199c-35.333 55.333 -69.333 112 -102 170l-87 154l-35 65c0 6.66699 4.33301 10 13 10
c24 0 38.833 -2.16699 44.5 -6.5s38.834 -33.166 99.501 -86.499zM566.998 428.999l-271.002 -233.001c-98.667 -87.333 -151.5 -136.666 -158.5 -147.999s-24.5 -17 -52.5 -17c-16.667 0 -25 4.33301 -25 13l4 9c8.66699 13.333 42.334 72.333 101.001 177l118 199
c-35.333 55.333 -69.333 112 -102 170l-88 154l-34 65c0 6.66699 4.33301 10 13 10c20.667 0 33.834 -1.5 39.501 -4.5s55.5 -45.5 149.5 -127.5z" />
    <glyph glyph-name="onequarter" unicode="&#xbc;" horiz-adv-x="1707" 
d="M169 1275c0 20 18.332 30.333 54.999 31c84 1.33301 158.667 18 224 50c18 8.66699 30 13 36 13c12 0 18 -8 18 -24l-2 -98l3 -209l-1 -113c0 -68 4.5 -112.667 13.5 -134s27.167 -33.333 54.5 -36c30.667 -3.33301 50 -7 58 -11s12 -11.667 12 -23
c0 -18 -13 -27 -39 -27l-182 1l-119 -1l-38 1l-55 -2c-21.333 0 -32 9 -32 27c0 17.333 18 28 54 32c44 5.33301 70.333 20.5 79 45.5s13 115.833 13 272.5c0 81.333 -6.66699 130.5 -20 147.5s-40.666 26.833 -81.999 29.5c-33.333 2 -50 11.333 -50 28zM1331 1368
l-839 -1397h-116l839 1397h116zM947.999 210l17.002 72.0059c90 99.333 172.5 181.666 247.5 246.999s126.167 106.166 153.5 122.499s49.666 24.5 66.999 24.5c16 0 24 -9 24 -27c0 -178.667 1 -298.334 3 -359.001c57.333 0 92.666 4.66699 105.999 14
s21.666 29.333 24.999 60c2.66699 30 11.334 45 26.001 45c19.333 0 29 -11 29 -33l-1 -49l1 -105c0 -34 -1.66699 -56 -5 -66s-10.333 -15 -21 -15c-16 0 -25.333 11.667 -28 35c-2.66699 21.333 -11.5 35.333 -26.5 42s-50.167 10 -105.5 10
c0 -85.333 3.33301 -135.333 10 -150s25.667 -23.334 57 -26.001c28 -2.66699 42 -11.334 42 -26.001c0 -20 -16 -30 -48 -30l-231 1l-60 1l-30 -1c-25.333 0 -38 9 -38 27c0 14 15.333 23.667 46 29c32 5.33301 53.5 17.666 64.5 36.999s17.167 65.333 18.5 138
c-140 -4 -254.333 -10 -343 -18zM1291 287.006c1.33301 65.333 1.99902 104.333 1.99902 117c0 18 -0.666992 56 -2 114c-103.333 -93.333 -184.666 -172.333 -243.999 -237z" />
    <glyph glyph-name="onehalf" unicode="&#xbd;" horiz-adv-x="1707" 
d="M169 1275c0 20 18.332 30.333 54.999 31c84 1.33301 158.667 18 224 50c18 8.66699 30 13 36 13c12 0 18 -8 18 -24l-2 -98l3 -209l-1 -113c0 -68 4.5 -112.667 13.5 -134s27.167 -33.333 54.5 -36c30.667 -3.33301 50 -7 58 -11s12 -11.667 12 -23
c0 -18 -13 -27 -39 -27l-182 1l-119 -1l-38 1l-55 -2c-21.333 0 -32 9 -32 27c0 17.333 18 28 54 32c44 5.33301 70.333 20.5 79 45.5s13 115.833 13 272.5c0 81.333 -6.66699 130.5 -20 147.5s-40.666 26.833 -81.999 29.5c-33.333 2 -50 11.333 -50 28zM1331 1368
l-839 -1397h-116l839 1397h116zM1526 0l-467.998 0.00195312c-34.667 0 -55.167 1.16699 -61.5 3.5s-9.5 7.83301 -9.5 16.5c0 10.667 13.667 24.667 41 42c124.667 81.333 215 156.666 271 225.999c55.333 68.667 83 141 83 217c0 34 -9.16699 60.667 -27.5 80
s-40.833 29 -67.5 29c-45.333 0 -84.333 -22.333 -117 -67s-49 -87 -49 -127c0 -17.333 2.83301 -30.333 8.5 -39s13.834 -13 24.501 -13c8.66699 0 22 4.66699 40 14c15.333 8.66699 26.333 13 33 13c15.333 0 23 -7.66699 23 -23c0 -16.667 -15.333 -34.334 -46 -53.001
s-62 -28 -94 -28s-59.5 11.5 -82.5 34.5s-34.5 51.167 -34.5 84.5c0 59.333 30.167 118.333 90.5 177s142.833 88 247.5 88c83.333 0 145.666 -15.833 186.999 -47.5s62 -72.5 62 -122.5c0 -53.333 -22.833 -105.5 -68.5 -156.5s-136.5 -118.5 -272.5 -202.5h135
c64 0 103.667 2.33301 119 7s36.666 25.667 63.999 63c9.33301 11.333 19.666 17 30.999 17c16.667 0 25 -7 25 -21c0 -4.66699 -11 -32.667 -33 -84z" />
    <glyph glyph-name="threequarters" unicode="&#xbe;" horiz-adv-x="1707" 
d="M1331 1368l-839 -1397h-116l839 1397h116zM516 1067c49.333 0 90.4971 -12.8359 123.497 -38.5029s49.5 -62.167 49.5 -109.5c0 -67.333 -34.167 -125.166 -102.5 -173.499s-154.166 -72.5 -257.499 -72.5c-82 0 -139.667 14 -173 42s-50 56.333 -50 85
c0 24.667 9.66699 46.167 29 64.5s42.666 27.5 69.999 27.5c22.667 0 40.834 -6.5 54.501 -19.5s20.5 -26.833 20.5 -41.5c0 -10 -3.66699 -22.667 -11 -38c-4 -10 -6 -18.333 -6 -25c0 -12.667 5.16699 -22.167 15.5 -28.5s25.833 -9.5 46.5 -9.5
c56 0 99.167 28.333 129.5 85s45.5 106.667 45.5 150c0 17.333 -5 31.5 -15 42.5s-20.667 16.5 -32 16.5c-12 0 -32.667 -8.33301 -62 -25c-23.333 -13.333 -38.666 -20 -45.999 -20c-16 0 -24 7.66699 -24 23c0 11.333 15.333 26.666 46 45.999
c52.667 32.667 85.667 62.834 99 90.501s20 51.167 20 70.5c0 23.333 -6.33301 45 -19 65s-31.667 30 -57 30c-38 0 -70.333 -12.833 -97 -38.5s-40 -56.167 -40 -91.5c0 -19.333 5.33301 -29 16 -29c5.33301 0 11.333 1.66699 18 5c8.66699 4 16.334 6 23.001 6
c15.333 0 23 -8 23 -24c0 -10 -11.333 -21.167 -34 -33.5s-45 -18.5 -67 -18.5c-24 0 -44.833 9.33301 -62.5 28s-26.5 40.667 -26.5 66c0 55.333 30.333 101.5 91 138.5s131.667 55.5 213 55.5c66 0 115.333 -13.667 148 -41s49 -59.666 49 -96.999
c0 -26.667 -10.5 -52.167 -31.5 -76.5s-59.833 -53.166 -116.5 -86.499zM948.997 209.997l17.0039 72.0059c90 99.333 172.5 181.666 247.5 246.999s126 106.166 153 122.499s49.167 24.5 66.5 24.5c16.667 0 25 -9 25 -27c0 -196.667 1 -316.334 3 -359.001
c56.667 0 91.667 4.66699 105 14s21.666 29.333 24.999 60c3.33301 30 12.333 45 27 45c19.333 0 29 -11 29 -33l-2 -49l2 -105c0 -34 -1.66699 -56 -5 -66s-10.333 -15 -21 -15c-16.667 0 -26.334 11.667 -29.001 35c-2.66699 21.333 -11.334 35.333 -26.001 42
s-49.667 10 -105 10c0 -85.333 3.33301 -135.333 10 -150s25.667 -23.334 57 -26.001c28 -2.66699 42 -11.334 42 -26.001c0 -20 -16 -30 -48 -30l-231 1l-61 1l-29 -1c-26 0 -39 9 -39 27c0 14 15.333 23.667 46 29c32 5.33301 53.667 17.666 65 36.999
s17.666 65.333 18.999 138c-140 -4 -254.333 -10 -343 -18zM1292 287.003c1.33301 65.333 2 104.333 2 117c0 18 -0.666992 56 -2 114c-104 -93.333 -185.333 -172.333 -244 -237z" />
    <glyph glyph-name="questiondown" unicode="&#xbf;" horiz-adv-x="960" 
d="M821 722c0 -38.667 -13.667 -71.667 -41 -99s-60 -41 -98 -41c-38.667 0 -71.5 13.667 -98.5 41s-40.5 60.333 -40.5 99c0 38 13.5 70.667 40.5 98s59.833 41 98.5 41s71.5 -13.667 98.5 -41s40.5 -60 40.5 -98zM636 206l26 274.002h80l7 -420
c-73.333 64 -138.333 96 -195 96c-56 0 -102.333 -29.167 -139 -87.5s-55 -132.5 -55 -222.5c0 -86.667 19.5 -155.334 58.5 -206.001s81.5 -76 127.5 -76c44 0 66 14 66 42c0 4 -1.33301 9.66699 -4 17c-6 19.333 -9 34.666 -9 45.999c0 31.333 12.167 58.333 36.5 81
s55.166 34 92.499 34c36.667 0 66 -11 88 -33s33 -50.667 33 -86c0 -50 -26.333 -90.333 -79 -121s-118 -46 -196 -46c-135.333 0 -248 42.167 -338 126.5s-135 181.5 -135 291.5c0 94 33 174.5 99 241.5s143.667 100.5 233 100.5c78.667 0 146.334 -17.333 203.001 -52z
" />
    <glyph glyph-name="Agrave" unicode="&#xc0;" horiz-adv-x="1429" 
d="M660 1356l68.999 -0.000976562c88 -190.667 212.333 -490.667 373 -900c74 -188 125 -301.833 153 -341.5s72.333 -63.834 133 -72.501c20 -2.66699 30 -11.334 30 -26.001c0 -20.667 -13 -31 -39 -31c-14 0 -50.333 2.33301 -109 7c-69.333 6 -127.666 9 -174.999 9
c-46 0 -106 -2.66699 -180 -8c-55.333 -4 -91.666 -6 -108.999 -6c-30.667 0 -46 9.66699 -46 29c0 14.667 10.667 23 32 25c82 7.33301 123 39.333 123 96c0 26.667 -12 75.834 -36 147.501s-49.667 136.834 -77 195.501c-43.333 0.666992 -77 1 -101 1
c-134 0 -238.333 -0.333008 -313 -1c-58 -158 -87 -262.667 -87 -314c0 -36.667 14.333 -65.167 43 -85.5s59.667 -32.166 93 -35.499c25.333 -2.66699 38 -13 38 -31s-13.667 -27 -41 -27c-10.667 0 -38.667 1.66699 -84 5c-58.667 4.66699 -101.334 7 -128.001 7
c-52.667 0 -102.667 -3.33301 -150 -10c-12 -2 -22 -3 -30 -3c-24.667 0 -37 10 -37 30c0 14.667 8 24.334 24 29.001c40 11.333 71.333 25.333 94 42s47.167 48.667 73.5 96s57.833 123 94.5 227c82.667 233.333 205.667 548.666 369 945.999zM589.999 1007
l-171.999 -446.001l352 5c-18.667 52 -47.334 123.333 -86.001 214c-42 98.667 -73.333 174.334 -94 227.001zM502 1772c29.333 0 58.668 -15 88.001 -45s73.666 -89.167 132.999 -177.5s89 -136.166 89 -143.499s-4.5 -15 -13.5 -23s-17.5 -12 -25.5 -12
c-15.333 0 -63 31.667 -143 95l-154 121c-40 31.333 -60 64.666 -60 99.999c0 22.667 8.83301 42.5 26.5 59.5s37.5 25.5 59.5 25.5z" />
    <glyph glyph-name="Aacute" unicode="&#xc1;" horiz-adv-x="1429" 
d="M660 1356l68.999 -0.000976562c88 -190.667 212.333 -490.667 373 -900c74 -188 125 -301.833 153 -341.5s72.333 -63.834 133 -72.501c20 -2.66699 30 -11.334 30 -26.001c0 -20.667 -13 -31 -39 -31c-14 0 -50.333 2.33301 -109 7c-69.333 6 -127.666 9 -174.999 9
c-46 0 -106 -2.66699 -180 -8c-55.333 -4 -91.666 -6 -108.999 -6c-30.667 0 -46 9.66699 -46 29c0 14.667 10.667 23 32 25c82 7.33301 123 39.333 123 96c0 26.667 -12 75.834 -36 147.501s-49.667 136.834 -77 195.501c-43.333 0.666992 -77 1 -101 1
c-134 0 -238.333 -0.333008 -313 -1c-58 -158 -87 -262.667 -87 -314c0 -36.667 14.333 -65.167 43 -85.5s59.667 -32.166 93 -35.499c25.333 -2.66699 38 -13 38 -31s-13.667 -27 -41 -27c-10.667 0 -38.667 1.66699 -84 5c-58.667 4.66699 -101.334 7 -128.001 7
c-52.667 0 -102.667 -3.33301 -150 -10c-12 -2 -22 -3 -30 -3c-24.667 0 -37 10 -37 30c0 14.667 8 24.334 24 29.001c40 11.333 71.333 25.333 94 42s47.167 48.667 73.5 96s57.833 123 94.5 227c82.667 233.333 205.667 548.666 369 945.999zM589.999 1007
l-171.999 -446.001l352 5c-18.667 52 -47.334 123.333 -86.001 214c-42 98.667 -73.333 174.334 -94 227.001zM928 1772c22.667 0 42.668 -8.5 60.001 -25.5s26 -36.167 26 -57.5c0 -40.667 -35 -86.667 -105 -138c-54.667 -40 -106.334 -80 -155.001 -120s-81 -60 -97 -60
c-8 0 -16.5 4 -25.5 12s-13.5 15.667 -13.5 23s29.833 55.5 89.5 144.5s104 148.167 133 177.5s58.167 44 87.5 44z" />
    <glyph glyph-name="Acircumflex" unicode="&#xc2;" horiz-adv-x="1429" 
d="M660 1356l68.999 -0.000976562c88 -190.667 212.333 -490.667 373 -900c74 -188 125 -301.833 153 -341.5s72.333 -63.834 133 -72.501c20 -2.66699 30 -11.334 30 -26.001c0 -20.667 -13 -31 -39 -31c-14 0 -50.333 2.33301 -109 7c-69.333 6 -127.666 9 -174.999 9
c-46 0 -106 -2.66699 -180 -8c-55.333 -4 -91.666 -6 -108.999 -6c-30.667 0 -46 9.66699 -46 29c0 14.667 10.667 23 32 25c82 7.33301 123 39.333 123 96c0 26.667 -12 75.834 -36 147.501s-49.667 136.834 -77 195.501c-43.333 0.666992 -77 1 -101 1
c-134 0 -238.333 -0.333008 -313 -1c-58 -158 -87 -262.667 -87 -314c0 -36.667 14.333 -65.167 43 -85.5s59.667 -32.166 93 -35.499c25.333 -2.66699 38 -13 38 -31s-13.667 -27 -41 -27c-10.667 0 -38.667 1.66699 -84 5c-58.667 4.66699 -101.334 7 -128.001 7
c-52.667 0 -102.667 -3.33301 -150 -10c-12 -2 -22 -3 -30 -3c-24.667 0 -37 10 -37 30c0 14.667 8 24.334 24 29.001c40 11.333 71.333 25.333 94 42s47.167 48.667 73.5 96s57.833 123 94.5 227c82.667 233.333 205.667 548.666 369 945.999zM589.999 1007
l-171.999 -446.001l352 5c-18.667 52 -47.334 123.333 -86.001 214c-42 98.667 -73.333 174.334 -94 227.001zM805 1761l178 -343c10.667 -20 16 -31.667 16 -35c0 -6.66699 -11 -10 -33 -10h-51l-197 208l-206 -208h-50c-20 0 -30 3.33301 -30 10
c0 3.33301 4.33301 13 13 29l184 349h176z" />
    <glyph glyph-name="Atilde" unicode="&#xc3;" horiz-adv-x="1429" 
d="M660 1356l68.999 -0.000976562c88 -190.667 212.333 -490.667 373 -900c74 -188 125 -301.833 153 -341.5s72.333 -63.834 133 -72.501c20 -2.66699 30 -11.334 30 -26.001c0 -20.667 -13 -31 -39 -31c-14 0 -50.333 2.33301 -109 7c-69.333 6 -127.666 9 -174.999 9
c-46 0 -106 -2.66699 -180 -8c-55.333 -4 -91.666 -6 -108.999 -6c-30.667 0 -46 9.66699 -46 29c0 14.667 10.667 23 32 25c82 7.33301 123 39.333 123 96c0 26.667 -12 75.834 -36 147.501s-49.667 136.834 -77 195.501c-43.333 0.666992 -77 1 -101 1
c-134 0 -238.333 -0.333008 -313 -1c-58 -158 -87 -262.667 -87 -314c0 -36.667 14.333 -65.167 43 -85.5s59.667 -32.166 93 -35.499c25.333 -2.66699 38 -13 38 -31s-13.667 -27 -41 -27c-10.667 0 -38.667 1.66699 -84 5c-58.667 4.66699 -101.334 7 -128.001 7
c-52.667 0 -102.667 -3.33301 -150 -10c-12 -2 -22 -3 -30 -3c-24.667 0 -37 10 -37 30c0 14.667 8 24.334 24 29.001c40 11.333 71.333 25.333 94 42s47.167 48.667 73.5 96s57.833 123 94.5 227c82.667 233.333 205.667 548.666 369 945.999zM589.999 1007
l-171.999 -446.001l352 5c-18.667 52 -47.334 123.333 -86.001 214c-42 98.667 -73.333 174.334 -94 227.001zM831 1443c-36 0 -82.332 15 -138.999 45c-60.667 32.667 -103.334 49 -128.001 49c-39.333 0 -63.333 -27 -72 -81c-0.666992 -6 -2.5 -10 -5.5 -12
s-19.5 -3 -49.5 -3c-16.667 0 -25 5 -25 15c0 68 16.833 126.167 50.5 174.5s81.5 72.5 143.5 72.5c40 0 89.667 -17 149 -51c53.333 -30 90.333 -45 111 -45c44.667 0 68.667 26 72 78c0.666992 8.66699 2.5 14 5.5 16s15.833 3 38.5 3c24 0 36 -6.33301 36 -19
c0 -64.667 -15.667 -121.167 -47 -169.5s-78 -72.5 -140 -72.5z" />
    <glyph glyph-name="Adieresis" unicode="&#xc4;" horiz-adv-x="1429" 
d="M660 1356l68.999 -0.000976562c88 -190.667 212.333 -490.667 373 -900c74 -188 125 -301.833 153 -341.5s72.333 -63.834 133 -72.501c20 -2.66699 30 -11.334 30 -26.001c0 -20.667 -13 -31 -39 -31c-14 0 -50.333 2.33301 -109 7c-69.333 6 -127.666 9 -174.999 9
c-46 0 -106 -2.66699 -180 -8c-55.333 -4 -91.666 -6 -108.999 -6c-30.667 0 -46 9.66699 -46 29c0 14.667 10.667 23 32 25c82 7.33301 123 39.333 123 96c0 26.667 -12 75.834 -36 147.501s-49.667 136.834 -77 195.501c-43.333 0.666992 -77 1 -101 1
c-134 0 -238.333 -0.333008 -313 -1c-58 -158 -87 -262.667 -87 -314c0 -36.667 14.333 -65.167 43 -85.5s59.667 -32.166 93 -35.499c25.333 -2.66699 38 -13 38 -31s-13.667 -27 -41 -27c-10.667 0 -38.667 1.66699 -84 5c-58.667 4.66699 -101.334 7 -128.001 7
c-52.667 0 -102.667 -3.33301 -150 -10c-12 -2 -22 -3 -30 -3c-24.667 0 -37 10 -37 30c0 14.667 8 24.334 24 29.001c40 11.333 71.333 25.333 94 42s47.167 48.667 73.5 96s57.833 123 94.5 227c82.667 233.333 205.667 548.666 369 945.999zM589.999 1007
l-171.999 -446.001l352 5c-18.667 52 -47.334 123.333 -86.001 214c-42 98.667 -73.333 174.334 -94 227.001zM612 1557c0 -33.333 -11.833 -61.833 -35.5 -85.5s-52.167 -35.5 -85.5 -35.5c-32.667 0 -60.834 11.833 -84.501 35.5s-35.5 52.167 -35.5 85.5
c0 32.667 11.833 60.834 35.5 84.501s51.834 35.5 84.501 35.5c33.333 0 61.833 -11.833 85.5 -35.5s35.5 -51.834 35.5 -84.501zM1036 1557c0 -33.333 -11.833 -61.833 -35.5 -85.5s-51.834 -35.5 -84.501 -35.5c-33.333 0 -61.833 11.833 -85.5 35.5
s-35.5 52.167 -35.5 85.5c0 32.667 11.833 60.834 35.5 84.501s52.167 35.5 85.5 35.5c32.667 0 60.834 -11.833 84.501 -35.5s35.5 -51.834 35.5 -84.501z" />
    <glyph glyph-name="Aring" unicode="&#xc5;" horiz-adv-x="1429" 
d="M768 1268l151 -358.001l180.5 -447c73.667 -188 120.667 -297.333 141 -328s41 -52.5 62 -65.5s49.5 -22.167 85.5 -27.5c20 -2.66699 30 -11.334 30 -26.001c0 -20.667 -13 -31 -39 -31c-14 0 -50.333 2.33301 -109 7c-69.333 6 -127.666 9 -174.999 9
c-46 0 -106 -2.66699 -180 -8c-55.333 -4 -91.666 -6 -108.999 -6c-30.667 0 -46 9.66699 -46 29c0 14.667 10.667 23 32 25c82 7.33301 123 39.333 123 96c0 26.667 -12 75.834 -36 147.501s-49.667 136.834 -77 195.501c-43.333 0.666992 -77 1 -101 1
c-134 0 -238.333 -0.333008 -313 -1c-58 -158 -87 -262.667 -87 -314c0 -31.333 12.333 -58.333 37 -81s57.667 -36 99 -40c25.333 -2.66699 38 -13 38 -31s-13.667 -27 -41 -27c-10.667 0 -38.667 1.66699 -84 5c-58.667 4.66699 -101.334 7 -128.001 7
c-52.667 0 -102.667 -3.33301 -150 -10c-12 -2 -22 -3 -30 -3c-24.667 0 -37 10 -37 30c0 14.667 8 24.334 24 29.001c40 11.333 71.333 25.333 94 42s47.167 48.5 73.5 95.5s57.833 122.833 94.5 227.5c57.333 161.333 168.666 447.666 333.999 858.999
c-40 17.333 -70.167 40.833 -90.5 70.5s-30.5 65.834 -30.5 108.501c0 53.333 18.833 98.833 56.5 136.5s83.167 56.5 136.5 56.5s98.833 -18.833 136.5 -56.5s56.5 -83.167 56.5 -136.5c0 -40 -11.167 -76.333 -33.5 -109s-51.833 -56.334 -88.5 -71.001zM606 1448
c0 -24.667 8.66699 -46.167 26 -64.5s39 -27.5 65 -27.5c25.333 0 47 9 65 27s27 39.667 27 65c0 24.667 -9 46 -27 64s-39.667 27 -65 27c-26 0 -47.667 -9.16699 -65 -27.5s-26 -39.5 -26 -63.5zM590 1007l-172 -446l352 5z" />
    <glyph glyph-name="AE" unicode="&#xc6;" horiz-adv-x="2048" 
d="M1857 1314l58.9971 -272.001c4.66699 -24.667 7 -38.667 7 -42c0 -16 -8 -24 -24 -24c-13.333 0 -32.666 17.333 -57.999 52c-108.667 148 -234.667 222 -378 222c-54.667 0 -129.334 -5.66699 -224.001 -17c-8.66699 -80 -13.667 -250 -15 -510
c112.667 0 185.667 9.5 219 28.5s63.333 58.167 90 117.5c13.333 29.333 22.5 47 27.5 53s13.167 9 24.5 9c17.333 0 26 -9.66699 26 -29c0 -5.33301 -0.666992 -12.333 -2 -21c-5.33301 -32 -8 -142 -8 -330c0 -28.667 1.66699 -53.667 5 -75c1.33301 -12.667 2 -23 2 -31
c0 -20.667 -9 -31 -27 -31c-10 0 -17.333 3.33301 -22 10s-11 23.334 -19 50.001c-18.667 60 -48.5 104.333 -89.5 133s-116.5 43 -226.5 43v-329c0 -114 10.833 -185 32.5 -213s83.834 -42 186.501 -42c126 0 230 22.833 312 68.5s141.667 105.167 179 178.5
c11.333 22 23 33 35 33c18.667 0 28 -9.33301 28 -28c0 -5.33301 -3 -21.333 -9 -48l-64 -280h-433c-49.333 0 -100.666 1.33301 -153.999 4c-115.333 5.33301 -198.666 8 -249.999 8c-120 0 -217 -3.66699 -291 -11h-13c-19.333 0 -29 8.66699 -29 26c0 18 10.667 28 32 30
c56 4 93 13.667 111 29s30.667 47.166 38 95.499s11 140.5 11 276.5v195c-35.333 -1.33301 -57.333 -2 -66 -2l-335 2c-82 -160 -134.833 -270 -158.5 -330s-35.5 -111.667 -35.5 -155c0 -61.333 31.333 -96.666 94 -105.999c28 -4.66699 42 -15.667 42 -33
c0 -18.667 -10.667 -28 -32 -28c-13.333 0 -31 1 -53 3c-61.333 4 -113.333 6 -156 6c-60 0 -118 -3.33301 -174 -10c-12.667 -1.33301 -23.334 -2 -32.001 -2c-22.667 0 -34 9.66699 -34 29c0 16 12.333 25.333 37 28c26.667 2.66699 60.667 23.5 102 62.5
s86.666 101 135.999 186s108.333 194.833 177 329.5l173 332c45.333 85.333 68 158 68 218c0 30.667 -9.83301 54.667 -29.5 72s-59.167 26 -118.5 26c-25.333 0 -38 8 -38 24c0 21.333 14.667 32 44 32c8.66699 0 21.334 -0.333008 38.001 -1
c104.667 -8 241.334 -12 410.001 -12h852zM945.997 722.999v435.999c0 61.333 -10.333 92 -31 92c-24 0 -49.833 -19.167 -77.5 -57.5s-111.167 -195.166 -250.5 -470.499l277 2c12.667 0 40 -0.666992 82 -2z" />
    <glyph glyph-name="Ccedilla" unicode="&#xc7;" horiz-adv-x="1365" 
d="M754 -27c-191.333 0 -350 62.5068 -476 187.507s-189 285.833 -189 482.5c0 192 62.667 356.167 188 492.5s278.333 204.5 459 204.5c131.333 0 265 -37 401 -111c14 17.333 28.667 36.666 44 57.999c18 26 33 39 45 39c13.333 0 22 -3.33301 26 -10
s7.33301 -27.334 10 -62.001l20 -312l2 -40c0 -26.667 -10.667 -40 -32 -40c-14 0 -25.333 11 -34 33c-27.333 70.667 -76.5 149.167 -147.5 235.5s-160.5 129.5 -268.5 129.5c-80 0 -147.167 -23.167 -201.5 -69.5s-96.666 -109.833 -126.999 -190.5
s-45.5 -177.334 -45.5 -290.001c0 -192.667 42.333 -345.834 127 -459.501s190 -170.5 316 -170.5c136.667 0 262 82.667 376 248c14 20 27.333 30 40 30c21.333 0 32 -10.667 32 -32c0 -30.667 -29.167 -78.334 -87.5 -143.001s-121.666 -113.834 -189.999 -147.501
s-134.5 -53.5 -198.5 -59.5l-27 -53c40.667 0 77 -11.833 109 -35.5s48 -56.834 48 -99.501c0 -45.333 -14.833 -86.833 -44.5 -124.5s-69 -65.834 -118 -84.501s-117.5 -28 -205.5 -28c-40 0 -66 3 -78 9s-18 16 -18 30c0 18.667 18 28.334 54 29.001
c55.333 0.666992 100.666 11 135.999 31s53 46.333 53 79c0 42.667 -30.667 67 -92 73c41.333 69.333 72.666 126.333 93.999 171z" />
    <glyph glyph-name="Egrave" unicode="&#xc8;" horiz-adv-x="1344" 
d="M1152 1310l63.001 -311.994c0 -19.333 -9.66699 -29 -29 -29c-10.667 0 -22.667 9.33301 -36 28c-68.667 100 -131.5 166 -188.5 198s-139.167 48 -246.5 48c-60 0 -118 -5 -174 -15c-12 -118 -18 -247.333 -18 -388c0 -24 0.666992 -64.333 2 -121l76 -1
c47.333 0 88.166 6.5 122.499 19.5s63.5 40.667 87.5 83s37.667 69.5 41 81.5c6 21.333 16.333 32 31 32c18.667 0 28 -8 28 -24c0 -4.66699 -0.666992 -10 -2 -16c-8 -41.333 -12 -165 -12 -371c0 -28.667 2.33301 -54.667 7 -78c1.33301 -6.66699 2 -12.334 2 -17.001
c0 -18.667 -10.667 -28 -32 -28c-14.667 0 -26 17.667 -34 53c-13.333 62 -43.666 109.167 -90.999 141.5s-122 49.166 -224 50.499c-3.33301 -112 -5 -185.667 -5 -221c0 -152 2.33301 -242.333 7 -271s21.667 -51.834 51 -69.501s79 -26.5 149 -26.5
c254 0 421 80.667 501 242c11.333 22.667 23.666 34 36.999 34c19.333 0 29 -8 29 -24c0 -10.667 -2 -24.334 -6 -41.001l-65 -287l-362 1c-102 0.666992 -197.167 3 -285.5 7s-157.5 6 -207.5 6c-56 0 -140.333 -3.33301 -253 -10c-14 -1.33301 -24.333 -2 -31 -2
c-31.333 0 -47 10.333 -47 31c0 18.667 12.667 28 38 28c64.667 0 108.167 17.5 130.5 52.5s33.5 106.5 33.5 214.5l6 515c0 176 -2.16699 284.167 -6.5 324.5s-15.833 67.666 -34.5 81.999s-53.667 25.166 -105 32.499c-21.333 2.66699 -32 12 -32 28c0 20 12.333 30 37 30
l241 -8zM507.001 1772.01c29.333 0 58.668 -15 88.001 -45s73.666 -89.167 132.999 -177.5s89 -136.166 89 -143.499s-4.5 -15 -13.5 -23s-17.5 -12 -25.5 -12c-15.333 0 -63 31.667 -143 95l-154 121c-40 31.333 -60 64.666 -60 99.999c0 22.667 8.83301 42.5 26.5 59.5
s37.5 25.5 59.5 25.5z" />
    <glyph glyph-name="Eacute" unicode="&#xc9;" horiz-adv-x="1344" 
d="M1152 1310l63.001 -311.994c0 -19.333 -9.66699 -29 -29 -29c-10.667 0 -22.667 9.33301 -36 28c-68.667 100 -131.5 166 -188.5 198s-139.167 48 -246.5 48c-60 0 -118 -5 -174 -15c-12 -118 -18 -247.333 -18 -388c0 -24 0.666992 -64.333 2 -121l76 -1
c47.333 0 88.166 6.5 122.499 19.5s63.5 40.667 87.5 83s37.667 69.5 41 81.5c6 21.333 16.333 32 31 32c18.667 0 28 -8 28 -24c0 -4.66699 -0.666992 -10 -2 -16c-8 -41.333 -12 -165 -12 -371c0 -28.667 2.33301 -54.667 7 -78c1.33301 -6.66699 2 -12.334 2 -17.001
c0 -18.667 -10.667 -28 -32 -28c-14.667 0 -26 17.667 -34 53c-13.333 62 -43.666 109.167 -90.999 141.5s-122 49.166 -224 50.499c-3.33301 -112 -5 -185.667 -5 -221c0 -152 2.33301 -242.333 7 -271s21.667 -51.834 51 -69.501s79 -26.5 149 -26.5
c254 0 421 80.667 501 242c11.333 22.667 23.666 34 36.999 34c19.333 0 29 -8 29 -24c0 -10.667 -2 -24.334 -6 -41.001l-65 -287l-362 1c-102 0.666992 -197.167 3 -285.5 7s-157.5 6 -207.5 6c-56 0 -140.333 -3.33301 -253 -10c-14 -1.33301 -24.333 -2 -31 -2
c-31.333 0 -47 10.333 -47 31c0 18.667 12.667 28 38 28c64.667 0 108.167 17.5 130.5 52.5s33.5 106.5 33.5 214.5l6 515c0 176 -2.16699 284.167 -6.5 324.5s-15.833 67.666 -34.5 81.999s-53.667 25.166 -105 32.499c-21.333 2.66699 -32 12 -32 28c0 20 12.333 30 37 30
l241 -8zM885.001 1772.01c22.667 0 42.668 -8.5 60.001 -25.5s26 -36.167 26 -57.5c0 -40.667 -35 -86.667 -105 -138c-54.667 -40 -106.334 -80 -155.001 -120s-81 -60 -97 -60c-8 0 -16.5 4 -25.5 12s-13.5 15.667 -13.5 23s29.833 55.5 89.5 144.5s104 148.167 133 177.5
s58.167 44 87.5 44z" />
    <glyph glyph-name="Ecircumflex" unicode="&#xca;" horiz-adv-x="1344" 
d="M1152 1310l63.001 -311.994c0 -19.333 -9.66699 -29 -29 -29c-10.667 0 -22.667 9.33301 -36 28c-68.667 100 -131.5 166 -188.5 198s-139.167 48 -246.5 48c-60 0 -118 -5 -174 -15c-12 -118 -18 -247.333 -18 -388c0 -24 0.666992 -64.333 2 -121l76 -1
c47.333 0 88.166 6.5 122.499 19.5s63.5 40.667 87.5 83s37.667 69.5 41 81.5c6 21.333 16.333 32 31 32c18.667 0 28 -8 28 -24c0 -4.66699 -0.666992 -10 -2 -16c-8 -41.333 -12 -165 -12 -371c0 -28.667 2.33301 -54.667 7 -78c1.33301 -6.66699 2 -12.334 2 -17.001
c0 -18.667 -10.667 -28 -32 -28c-14.667 0 -26 17.667 -34 53c-13.333 62 -43.666 109.167 -90.999 141.5s-122 49.166 -224 50.499c-3.33301 -112 -5 -185.667 -5 -221c0 -152 2.33301 -242.333 7 -271s21.667 -51.834 51 -69.501s79 -26.5 149 -26.5
c254 0 421 80.667 501 242c11.333 22.667 23.666 34 36.999 34c19.333 0 29 -8 29 -24c0 -10.667 -2 -24.334 -6 -41.001l-65 -287l-362 1c-102 0.666992 -197.167 3 -285.5 7s-157.5 6 -207.5 6c-56 0 -140.333 -3.33301 -253 -10c-14 -1.33301 -24.333 -2 -31 -2
c-31.333 0 -47 10.333 -47 31c0 18.667 12.667 28 38 28c64.667 0 108.167 17.5 130.5 52.5s33.5 106.5 33.5 214.5l6 515c0 176 -2.16699 284.167 -6.5 324.5s-15.833 67.666 -34.5 81.999s-53.667 25.166 -105 32.499c-21.333 2.66699 -32 12 -32 28c0 20 12.333 30 37 30
l241 -8zM761.001 1761.01l178 -343c10.667 -20 16 -31.667 16 -35c0 -6.66699 -11 -10 -33 -10h-51l-197 208l-206 -208h-50c-20 0 -30 3.33301 -30 10c0 3.33301 4.33301 13 13 29l184 349h176z" />
    <glyph glyph-name="Edieresis" unicode="&#xcb;" horiz-adv-x="1344" 
d="M1152 1310l63.001 -311.994c0 -19.333 -9.66699 -29 -29 -29c-10.667 0 -22.667 9.33301 -36 28c-68.667 100 -131.5 166 -188.5 198s-139.167 48 -246.5 48c-60 0 -118 -5 -174 -15c-12 -118 -18 -247.333 -18 -388c0 -24 0.666992 -64.333 2 -121l76 -1
c47.333 0 88.166 6.5 122.499 19.5s63.5 40.667 87.5 83s37.667 69.5 41 81.5c6 21.333 16.333 32 31 32c18.667 0 28 -8 28 -24c0 -4.66699 -0.666992 -10 -2 -16c-8 -41.333 -12 -165 -12 -371c0 -28.667 2.33301 -54.667 7 -78c1.33301 -6.66699 2 -12.334 2 -17.001
c0 -18.667 -10.667 -28 -32 -28c-14.667 0 -26 17.667 -34 53c-13.333 62 -43.666 109.167 -90.999 141.5s-122 49.166 -224 50.499c-3.33301 -112 -5 -185.667 -5 -221c0 -152 2.33301 -242.333 7 -271s21.667 -51.834 51 -69.501s79 -26.5 149 -26.5
c254 0 421 80.667 501 242c11.333 22.667 23.666 34 36.999 34c19.333 0 29 -8 29 -24c0 -10.667 -2 -24.334 -6 -41.001l-65 -287l-362 1c-102 0.666992 -197.167 3 -285.5 7s-157.5 6 -207.5 6c-56 0 -140.333 -3.33301 -253 -10c-14 -1.33301 -24.333 -2 -31 -2
c-31.333 0 -47 10.333 -47 31c0 18.667 12.667 28 38 28c64.667 0 108.167 17.5 130.5 52.5s33.5 106.5 33.5 214.5l6 515c0 176 -2.16699 284.167 -6.5 324.5s-15.833 67.666 -34.5 81.999s-53.667 25.166 -105 32.499c-21.333 2.66699 -32 12 -32 28c0 20 12.333 30 37 30
l241 -8zM581.001 1557.01c0 -33.333 -11.833 -61.833 -35.5 -85.5s-52.167 -35.5 -85.5 -35.5c-32.667 0 -60.834 11.833 -84.501 35.5s-35.5 52.167 -35.5 85.5c0 32.667 11.833 60.834 35.5 84.501s51.834 35.5 84.501 35.5c33.333 0 61.833 -11.833 85.5 -35.5
s35.5 -51.834 35.5 -84.501zM1005 1557.01c0 -33.333 -11.833 -61.833 -35.5 -85.5s-51.834 -35.5 -84.501 -35.5c-33.333 0 -61.833 11.833 -85.5 35.5s-35.5 52.167 -35.5 85.5c0 32.667 11.833 60.834 35.5 84.501s52.167 35.5 85.5 35.5
c32.667 0 60.834 -11.833 84.501 -35.5s35.5 -51.834 35.5 -84.501z" />
    <glyph glyph-name="Igrave" unicode="&#xcc;" horiz-adv-x="789" 
d="M108 1323c23.333 0 71.335 -1.66699 144.002 -5c55.333 -2.66699 99.333 -4 132 -4l307 8c26 0 39 -9 39 -27c0 -16 -11.667 -25.333 -35 -28c-52.667 -5.33301 -87.834 -15.166 -105.501 -29.499s-31.334 -47.5 -41.001 -99.5s-14.5 -169.667 -14.5 -353
c0 -210.667 3.33301 -373.5 10 -488.5s20.167 -186 40.5 -213s54.166 -40.5 101.499 -40.5c32.667 0 49 -8.66699 49 -26c0 -23.333 -17.667 -35 -53 -35c-10 0 -24.667 0.333008 -44 1c-125.333 8.66699 -211 13 -257 13c-100.667 0 -175 -3 -223 -9
c-25.333 -2.66699 -43.333 -4 -54 -4c-24.667 0 -37 9.66699 -37 29c0 15.333 10.333 24.333 31 27c56.667 7.33301 94.834 23.166 114.501 47.499s31.5 82.833 35.5 175.5s6 236.667 6 432c0 206 -3.66699 343.833 -11 413.5s-19.5 112.5 -36.5 128.5s-49.5 26 -97.5 30
c-25.333 2 -38 12.333 -38 31c0 17.333 12.333 26 37 26zM198.002 1772c29.333 0 58.668 -15 88.001 -45s73.666 -89.167 132.999 -177.5s89 -136.166 89 -143.499s-4.5 -15 -13.5 -23s-17.5 -12 -25.5 -12c-15.333 0 -63 31.667 -143 95l-154 121
c-40 31.333 -60 64.666 -60 99.999c0 22.667 8.83301 42.5 26.5 59.5s37.5 25.5 59.5 25.5z" />
    <glyph glyph-name="Iacute" unicode="&#xcd;" horiz-adv-x="789" 
d="M108 1323c23.333 0 71.335 -1.66699 144.002 -5c55.333 -2.66699 99.333 -4 132 -4l307 8c26 0 39 -9 39 -27c0 -16 -11.667 -25.333 -35 -28c-52.667 -5.33301 -87.834 -15.166 -105.501 -29.499s-31.334 -47.5 -41.001 -99.5s-14.5 -169.667 -14.5 -353
c0 -210.667 3.33301 -373.5 10 -488.5s20.167 -186 40.5 -213s54.166 -40.5 101.499 -40.5c32.667 0 49 -8.66699 49 -26c0 -23.333 -17.667 -35 -53 -35c-10 0 -24.667 0.333008 -44 1c-125.333 8.66699 -211 13 -257 13c-100.667 0 -175 -3 -223 -9
c-25.333 -2.66699 -43.333 -4 -54 -4c-24.667 0 -37 9.66699 -37 29c0 15.333 10.333 24.333 31 27c56.667 7.33301 94.834 23.166 114.501 47.499s31.5 82.833 35.5 175.5s6 236.667 6 432c0 206 -3.66699 343.833 -11 413.5s-19.5 112.5 -36.5 128.5s-49.5 26 -97.5 30
c-25.333 2 -38 12.333 -38 31c0 17.333 12.333 26 37 26zM608.002 1772c22.667 0 42.668 -8.5 60.001 -25.5s26 -36.167 26 -57.5c0 -40.667 -35 -86.667 -105 -138c-54.667 -40 -106.334 -80 -155.001 -120s-81 -60 -97 -60c-8 0 -16.5 4 -25.5 12s-13.5 15.667 -13.5 23
s29.833 55.5 89.5 144.5s104 148.167 133 177.5s58.167 44 87.5 44z" />
    <glyph glyph-name="Icircumflex" unicode="&#xce;" horiz-adv-x="789" 
d="M108 1323c23.333 0 71.335 -1.66699 144.002 -5c55.333 -2.66699 99.333 -4 132 -4l307 8c26 0 39 -9 39 -27c0 -16 -11.667 -25.333 -35 -28c-52.667 -5.33301 -87.834 -15.166 -105.501 -29.499s-31.334 -47.5 -41.001 -99.5s-14.5 -169.667 -14.5 -353
c0 -210.667 3.33301 -373.5 10 -488.5s20.167 -186 40.5 -213s54.166 -40.5 101.499 -40.5c32.667 0 49 -8.66699 49 -26c0 -23.333 -17.667 -35 -53 -35c-10 0 -24.667 0.333008 -44 1c-125.333 8.66699 -211 13 -257 13c-100.667 0 -175 -3 -223 -9
c-25.333 -2.66699 -43.333 -4 -54 -4c-24.667 0 -37 9.66699 -37 29c0 15.333 10.333 24.333 31 27c56.667 7.33301 94.834 23.166 114.501 47.499s31.5 82.833 35.5 175.5s6 236.667 6 432c0 206 -3.66699 343.833 -11 413.5s-19.5 112.5 -36.5 128.5s-49.5 26 -97.5 30
c-25.333 2 -38 12.333 -38 31c0 17.333 12.333 26 37 26zM481.002 1761l178 -343c10.667 -20 16 -31.667 16 -35c0 -6.66699 -11 -10 -33 -10h-51l-197 208l-206 -208h-50c-20 0 -30 3.33301 -30 10c0 3.33301 4.33301 13 13 29l184 349h176z" />
    <glyph glyph-name="Idieresis" unicode="&#xcf;" horiz-adv-x="789" 
d="M108 1323c23.333 0 71.335 -1.66699 144.002 -5c55.333 -2.66699 99.333 -4 132 -4l307 8c26 0 39 -9 39 -27c0 -16 -11.667 -25.333 -35 -28c-52.667 -5.33301 -87.834 -15.166 -105.501 -29.499s-31.334 -47.5 -41.001 -99.5s-14.5 -169.667 -14.5 -353
c0 -210.667 3.33301 -373.5 10 -488.5s20.167 -186 40.5 -213s54.166 -40.5 101.499 -40.5c32.667 0 49 -8.66699 49 -26c0 -23.333 -17.667 -35 -53 -35c-10 0 -24.667 0.333008 -44 1c-125.333 8.66699 -211 13 -257 13c-100.667 0 -175 -3 -223 -9
c-25.333 -2.66699 -43.333 -4 -54 -4c-24.667 0 -37 9.66699 -37 29c0 15.333 10.333 24.333 31 27c56.667 7.33301 94.834 23.166 114.501 47.499s31.5 82.833 35.5 175.5s6 236.667 6 432c0 206 -3.66699 343.833 -11 413.5s-19.5 112.5 -36.5 128.5s-49.5 26 -97.5 30
c-25.333 2 -38 12.333 -38 31c0 17.333 12.333 26 37 26zM300.002 1557c0 -33.333 -11.833 -61.833 -35.5 -85.5s-52.167 -35.5 -85.5 -35.5c-32.667 0 -60.834 11.833 -84.501 35.5s-35.5 52.167 -35.5 85.5c0 32.667 11.833 60.834 35.5 84.501s51.834 35.5 84.501 35.5
c33.333 0 61.833 -11.833 85.5 -35.5s35.5 -51.834 35.5 -84.501zM724.002 1557c0 -33.333 -11.833 -61.833 -35.5 -85.5s-51.834 -35.5 -84.501 -35.5c-33.333 0 -61.833 11.833 -85.5 35.5s-35.5 52.167 -35.5 85.5c0 32.667 11.833 60.834 35.5 84.501
s52.167 35.5 85.5 35.5c32.667 0 60.834 -11.833 84.501 -35.5s35.5 -51.834 35.5 -84.501z" />
    <glyph glyph-name="Eth" unicode="&#xd0;" horiz-adv-x="1621" 
d="M242 614l-178.998 -0.000976562v75h181c0.666992 76 1.66699 152 3 228c0 174 -10.5 276.667 -31.5 308s-61.167 48.666 -120.5 51.999c-24 2 -36 12 -36 30s10.667 27 32 27c12.667 0 55.667 -3.66699 129 -11c81.333 -7.33301 138 -11 170 -11l379 8
c124 0 245.667 -24 365 -72s213.166 -127.833 281.499 -239.5s102.5 -235.167 102.5 -370.5c0 -102.667 -20.167 -198.5 -60.5 -287.5s-98.833 -163.833 -175.5 -224.5s-152.667 -100.5 -228 -119.5s-164 -28.5 -266 -28.5l-358 6l-352 1
c-30.667 0 -49.834 1.83301 -57.501 5.5s-11.5 11.834 -11.5 24.501c0 19.333 14.333 29 43 29c85.333 0 136.833 25.333 154.5 76s29.5 215.334 35.5 494.001zM524.002 613.999l-1.99902 -331.999c0 -90.667 14.5 -151.834 43.5 -183.501s80.5 -47.5 154.5 -47.5
c132 0 240.667 47 326 141s128 236 128 426c0 184 -43.333 336 -130 456s-211.667 180 -375 180c-74.667 0 -114.834 -9.16699 -120.501 -27.5s-13.167 -197.5 -22.5 -537.5h305v-75h-307z" />
    <glyph glyph-name="Ntilde" unicode="&#xd1;" horiz-adv-x="1557" 
d="M416 1321c319.333 -363.333 585.665 -654.665 798.998 -873.998c0.666992 45.333 1 74.666 1 87.999l1 396c0 93.333 -5.33301 160.166 -16 200.499s-33.334 72.166 -68.001 95.499s-75 37 -121 41c-24.667 2.66699 -37 13 -37 31c0 19.333 11.333 29 34 29
c12.667 0 29 -1.33301 49 -4c38 -4.66699 93.667 -7 167 -7c92 0 162 2.66699 210 8c20 2 37 3 51 3c25.333 0 38 -9.66699 38 -29c0 -18.667 -17 -29.667 -51 -33c-42 -4 -81.167 -21.667 -117.5 -53s-54.5 -93 -54.5 -185l5 -566l-7 -426c0 -36.667 -11.333 -55 -34 -55
c-6 0 -13 2 -21 6s-53.833 50.167 -137.5 138.5l-373 411c-165 185.667 -280.833 318.834 -347.5 399.501c-1.33301 -18 -2 -185.667 -2 -503c0 -98 4.16699 -174.833 12.5 -230.5s34.333 -96 78 -121s83.167 -37.5 118.5 -37.5c22.667 0 34 -8.66699 34 -26
c0 -20 -12 -30 -36 -30c-15.333 0 -34.666 1.33301 -57.999 4c-40 5.33301 -91 8 -153 8c-99.333 0 -171.333 -3 -216 -9c-28 -3.33301 -48 -5 -60 -5c-26 0 -39 11 -39 33c0 16 21 25.667 63 29c75.333 6 122.5 32 141.5 78s28.5 108.667 28.5 188
c0 344 -1.83301 554.333 -5.5 631s-27.667 146 -72 208s-97.833 99 -160.5 111c-26 4.66699 -39 15 -39 31c0 22 13.667 33 41 33c6.66699 0 16.334 -0.666992 29.001 -2c15.333 -1.33301 43 -2 83 -2c86.667 0 167.334 -1 242.001 -3zM894.999 1443
c-36 0 -82.332 15 -138.999 45c-60.667 32.667 -103.334 49 -128.001 49c-39.333 0 -63.333 -27 -72 -81c-0.666992 -6 -2.5 -10 -5.5 -12s-19.5 -3 -49.5 -3c-16.667 0 -25 5 -25 15c0 68 16.833 126.167 50.5 174.5s81.5 72.5 143.5 72.5c40 0 89.667 -17 149 -51
c53.333 -30 90.333 -45 111 -45c44.667 0 68.667 26 72 78c0.666992 8.66699 2.5 14 5.5 16s15.833 3 38.5 3c24 0 36 -6.33301 36 -19c0 -64.667 -15.667 -121.167 -47 -169.5s-78 -72.5 -140 -72.5z" />
    <glyph glyph-name="Ograve" unicode="&#xd2;" horiz-adv-x="1579" 
d="M805 1338c134.667 0 252.5 -26.999 353.5 -80.999s182 -132.167 243 -234.5s91.5 -213.833 91.5 -334.5c0 -186.667 -69.667 -352.167 -209 -496.5s-312 -216.5 -518 -216.5c-187.333 0 -347.5 59.667 -480.5 179s-199.5 280.666 -199.5 483.999
c0 192 68.833 356.667 206.5 494s308.5 206 512.5 206zM1154 658.001c0 202 -34.333 353.999 -103 455.999s-155.667 153 -261 153c-104.667 0 -191.334 -51.167 -260.001 -153.5s-103 -254.166 -103 -455.499c0 -193.333 32.833 -343.333 98.5 -450
s153.834 -160 264.501 -160c98 0 183.167 48.167 255.5 144.5s108.5 251.5 108.5 465.5zM576 1772c29.333 0 58.668 -15 88.001 -45s73.666 -89.167 132.999 -177.5s89 -136.166 89 -143.499s-4.5 -15 -13.5 -23s-17.5 -12 -25.5 -12c-15.333 0 -63 31.667 -143 95l-154 121
c-40 31.333 -60 64.666 -60 99.999c0 22.667 8.83301 42.5 26.5 59.5s37.5 25.5 59.5 25.5z" />
    <glyph glyph-name="Oacute" unicode="&#xd3;" horiz-adv-x="1579" 
d="M805 1338c134.667 0 252.5 -26.999 353.5 -80.999s182 -132.167 243 -234.5s91.5 -213.833 91.5 -334.5c0 -186.667 -69.667 -352.167 -209 -496.5s-312 -216.5 -518 -216.5c-187.333 0 -347.5 59.667 -480.5 179s-199.5 280.666 -199.5 483.999
c0 192 68.833 356.667 206.5 494s308.5 206 512.5 206zM1154 658.001c0 202 -34.333 353.999 -103 455.999s-155.667 153 -261 153c-104.667 0 -191.334 -51.167 -260.001 -153.5s-103 -254.166 -103 -455.499c0 -193.333 32.833 -343.333 98.5 -450
s153.834 -160 264.501 -160c98 0 183.167 48.167 255.5 144.5s108.5 251.5 108.5 465.5zM1003 1772c22.667 0 42.668 -8.5 60.001 -25.5s26 -36.167 26 -57.5c0 -40.667 -35 -86.667 -105 -138c-54.667 -40 -106.334 -80 -155.001 -120s-81 -60 -97 -60
c-8 0 -16.5 4 -25.5 12s-13.5 15.667 -13.5 23s29.833 55.5 89.5 144.5s104 148.167 133 177.5s58.167 44 87.5 44z" />
    <glyph glyph-name="Ocircumflex" unicode="&#xd4;" horiz-adv-x="1579" 
d="M805 1338c134.667 0 252.5 -26.999 353.5 -80.999s182 -132.167 243 -234.5s91.5 -213.833 91.5 -334.5c0 -186.667 -69.667 -352.167 -209 -496.5s-312 -216.5 -518 -216.5c-187.333 0 -347.5 59.667 -480.5 179s-199.5 280.666 -199.5 483.999
c0 192 68.833 356.667 206.5 494s308.5 206 512.5 206zM1154 658.001c0 202 -34.333 353.999 -103 455.999s-155.667 153 -261 153c-104.667 0 -191.334 -51.167 -260.001 -153.5s-103 -254.166 -103 -455.499c0 -193.333 32.833 -343.333 98.5 -450
s153.834 -160 264.501 -160c98 0 183.167 48.167 255.5 144.5s108.5 251.5 108.5 465.5zM879 1761l178 -343c10.667 -20 16 -31.667 16 -35c0 -6.66699 -11 -10 -33 -10h-51l-197 208l-206 -208h-50c-20 0 -30 3.33301 -30 10c0 3.33301 4.33301 13 13 29l184 349h176z" />
    <glyph glyph-name="Otilde" unicode="&#xd5;" horiz-adv-x="1579" 
d="M805 1338c134.667 0 252.5 -26.999 353.5 -80.999s182 -132.167 243 -234.5s91.5 -213.833 91.5 -334.5c0 -186.667 -69.667 -352.167 -209 -496.5s-312 -216.5 -518 -216.5c-187.333 0 -347.5 59.667 -480.5 179s-199.5 280.666 -199.5 483.999
c0 192 68.833 356.667 206.5 494s308.5 206 512.5 206zM1154 658.001c0 202 -34.333 353.999 -103 455.999s-155.667 153 -261 153c-104.667 0 -191.334 -51.167 -260.001 -153.5s-103 -254.166 -103 -455.499c0 -193.333 32.833 -343.333 98.5 -450
s153.834 -160 264.501 -160c98 0 183.167 48.167 255.5 144.5s108.5 251.5 108.5 465.5zM906 1443c-36 0 -82.332 15 -138.999 45c-60.667 32.667 -103.334 49 -128.001 49c-39.333 0 -63.333 -27 -72 -81c-0.666992 -6 -2.5 -10 -5.5 -12s-19.5 -3 -49.5 -3
c-16.667 0 -25 5 -25 15c0 68 16.833 126.167 50.5 174.5s81.5 72.5 143.5 72.5c40 0 89.667 -17 149 -51c53.333 -30 90.333 -45 111 -45c44.667 0 68.667 26 72 78c0.666992 8.66699 2.5 14 5.5 16s15.833 3 38.5 3c24 0 36 -6.33301 36 -19
c0 -64.667 -15.667 -121.167 -47 -169.5s-78 -72.5 -140 -72.5z" />
    <glyph glyph-name="Odieresis" unicode="&#xd6;" horiz-adv-x="1579" 
d="M805 1338c134.667 0 252.5 -26.999 353.5 -80.999s182 -132.167 243 -234.5s91.5 -213.833 91.5 -334.5c0 -186.667 -69.667 -352.167 -209 -496.5s-312 -216.5 -518 -216.5c-187.333 0 -347.5 59.667 -480.5 179s-199.5 280.666 -199.5 483.999
c0 192 68.833 356.667 206.5 494s308.5 206 512.5 206zM1154 658.001c0 202 -34.333 353.999 -103 455.999s-155.667 153 -261 153c-104.667 0 -191.334 -51.167 -260.001 -153.5s-103 -254.166 -103 -455.499c0 -193.333 32.833 -343.333 98.5 -450
s153.834 -160 264.501 -160c98 0 183.167 48.167 255.5 144.5s108.5 251.5 108.5 465.5zM698 1557c0 -33.333 -11.833 -61.833 -35.5 -85.5s-52.167 -35.5 -85.5 -35.5c-32.667 0 -60.834 11.833 -84.501 35.5s-35.5 52.167 -35.5 85.5c0 32.667 11.833 60.834 35.5 84.501
s51.834 35.5 84.501 35.5c33.333 0 61.833 -11.833 85.5 -35.5s35.5 -51.834 35.5 -84.501zM1122 1557c0 -33.333 -11.833 -61.833 -35.5 -85.5s-51.834 -35.5 -84.501 -35.5c-33.333 0 -61.833 11.833 -85.5 35.5s-35.5 52.167 -35.5 85.5
c0 32.667 11.833 60.834 35.5 84.501s52.167 35.5 85.5 35.5c32.667 0 60.834 -11.833 84.501 -35.5s35.5 -51.834 35.5 -84.501z" />
    <glyph glyph-name="multiply" unicode="&#xd7;" horiz-adv-x="1365" 
d="M682 633l408 409l93 -93l-408 -409l404 -404l-93 -92l-404 404l-404 -404l-92 92l404 404l-408 409l92 93z" />
    <glyph glyph-name="Oslash" unicode="&#xd8;" horiz-adv-x="1579" 
d="M1280 1171c142 -130.667 212.999 -291.667 212.999 -483c0 -186.667 -69.667 -352.167 -209 -496.5s-312 -216.5 -518 -216.5c-159.333 0 -296.666 41 -411.999 123l-129 -150l-55 49l127 147c-140.667 125.333 -211 290 -211 494c0 136.667 32 255.167 96 355.5
s147.333 182.833 250 247.5s227 97 373 97c161.333 0 300 -40 416 -120l134 155l58 -49zM467.999 343l614.998 715.001c-27.333 60.667 -66.666 110.667 -117.999 150s-109.666 59 -174.999 59c-106 0 -193 -51.167 -261 -153.5s-102 -255.5 -102 -459.5
c0 -108.667 13.667 -212.334 41 -311.001zM1112 976.001l-616.001 -714c24.667 -60.667 63.667 -111.5 117 -152.5s112.333 -61.5 177 -61.5c74.667 0 142.334 27.5 203.001 82.5s102.667 135 126 240s35 207.5 35 307.5c0 108.667 -14 208 -42 298z" />
    <glyph glyph-name="Ugrave" unicode="&#xd9;" horiz-adv-x="1557" 
d="M83 1331l322.001 -10.9971c30.667 0 65.667 1.66699 105 5c62.667 4.66699 112 7 148 7c34 0 51 -9.33301 51 -28c0 -18 -13.333 -27.667 -40 -29c-48 -2.66699 -83.833 -19.834 -107.5 -51.501s-38.834 -96.667 -45.501 -195s-10 -206.5 -10 -324.5
c0 -189.333 9 -316.5 27 -381.5s56.667 -116.833 116 -155.5s138 -58 236 -58c99.333 0 174.333 21.167 225 63.5s85.5 108.833 104.5 199.5s28.5 259 28.5 505c0 145.333 -11.333 245.666 -34 300.999s-61.334 85.666 -116.001 90.999c-39.333 4 -59 15.667 -59 35
s16 29 48 29c15.333 0 41 -2 77 -6c37.333 -3.33301 76.333 -5 117 -5c37.333 0 79 2 125 6c34.667 2.66699 58.667 4 72 4c33.333 0 50 -9.66699 50 -29c0 -15.333 -12 -24.333 -36 -27c-33.333 -3.33301 -63.5 -18.833 -90.5 -46.5s-44.333 -73.334 -52 -137.001
s-11.5 -227.167 -11.5 -490.5c0 -173.333 -17.333 -298.833 -52 -376.5s-95.167 -138 -181.5 -181s-193.833 -64.5 -322.5 -64.5c-99.333 0 -185.666 8.83301 -258.999 26.5s-131.5 44.834 -174.5 81.501s-74 79 -93 127s-28.5 118.667 -28.5 212l4 533
c0 74.667 -4.16699 136 -12.5 184s-21.5 79.833 -39.5 95.5s-45.333 25.5 -82 29.5c-23.333 2.66699 -37.833 6.16699 -43.5 10.5s-8.5 11.5 -8.5 21.5c0 20 14.333 30 43 30zM566.001 1772c29.333 0 58.668 -15 88.001 -45s73.666 -89.167 132.999 -177.5
s89 -136.166 89 -143.499s-4.5 -15 -13.5 -23s-17.5 -12 -25.5 -12c-15.333 0 -63 31.667 -143 95l-154 121c-40 31.333 -60 64.666 -60 99.999c0 22.667 8.83301 42.5 26.5 59.5s37.5 25.5 59.5 25.5z" />
    <glyph glyph-name="Uacute" unicode="&#xda;" horiz-adv-x="1557" 
d="M83 1331l322.001 -10.9971c30.667 0 65.667 1.66699 105 5c62.667 4.66699 112 7 148 7c34 0 51 -9.33301 51 -28c0 -18 -13.333 -27.667 -40 -29c-48 -2.66699 -83.833 -19.834 -107.5 -51.501s-38.834 -96.667 -45.501 -195s-10 -206.5 -10 -324.5
c0 -189.333 9 -316.5 27 -381.5s56.667 -116.833 116 -155.5s138 -58 236 -58c99.333 0 174.333 21.167 225 63.5s85.5 108.833 104.5 199.5s28.5 259 28.5 505c0 145.333 -11.333 245.666 -34 300.999s-61.334 85.666 -116.001 90.999c-39.333 4 -59 15.667 -59 35
s16 29 48 29c15.333 0 41 -2 77 -6c37.333 -3.33301 76.333 -5 117 -5c37.333 0 79 2 125 6c34.667 2.66699 58.667 4 72 4c33.333 0 50 -9.66699 50 -29c0 -15.333 -12 -24.333 -36 -27c-33.333 -3.33301 -63.5 -18.833 -90.5 -46.5s-44.333 -73.334 -52 -137.001
s-11.5 -227.167 -11.5 -490.5c0 -173.333 -17.333 -298.833 -52 -376.5s-95.167 -138 -181.5 -181s-193.833 -64.5 -322.5 -64.5c-99.333 0 -185.666 8.83301 -258.999 26.5s-131.5 44.834 -174.5 81.501s-74 79 -93 127s-28.5 118.667 -28.5 212l4 533
c0 74.667 -4.16699 136 -12.5 184s-21.5 79.833 -39.5 95.5s-45.333 25.5 -82 29.5c-23.333 2.66699 -37.833 6.16699 -43.5 10.5s-8.5 11.5 -8.5 21.5c0 20 14.333 30 43 30zM1064 1772c22.667 0 42.668 -8.5 60.001 -25.5s26 -36.167 26 -57.5
c0 -40.667 -35 -86.667 -105 -138c-54.667 -40 -106.334 -80 -155.001 -120s-81 -60 -97 -60c-8 0 -16.5 4 -25.5 12s-13.5 15.667 -13.5 23s29.833 55.5 89.5 144.5s104 148.167 133 177.5s58.167 44 87.5 44z" />
    <glyph glyph-name="Ucircumflex" unicode="&#xdb;" horiz-adv-x="1557" 
d="M83 1331l322.001 -10.9971c30.667 0 65.667 1.66699 105 5c62.667 4.66699 112 7 148 7c34 0 51 -9.33301 51 -28c0 -18 -13.333 -27.667 -40 -29c-48 -2.66699 -83.833 -19.834 -107.5 -51.501s-38.834 -96.667 -45.501 -195s-10 -206.5 -10 -324.5
c0 -189.333 9 -316.5 27 -381.5s56.667 -116.833 116 -155.5s138 -58 236 -58c99.333 0 174.333 21.167 225 63.5s85.5 108.833 104.5 199.5s28.5 259 28.5 505c0 145.333 -11.333 245.666 -34 300.999s-61.334 85.666 -116.001 90.999c-39.333 4 -59 15.667 -59 35
s16 29 48 29c15.333 0 41 -2 77 -6c37.333 -3.33301 76.333 -5 117 -5c37.333 0 79 2 125 6c34.667 2.66699 58.667 4 72 4c33.333 0 50 -9.66699 50 -29c0 -15.333 -12 -24.333 -36 -27c-33.333 -3.33301 -63.5 -18.833 -90.5 -46.5s-44.333 -73.334 -52 -137.001
s-11.5 -227.167 -11.5 -490.5c0 -173.333 -17.333 -298.833 -52 -376.5s-95.167 -138 -181.5 -181s-193.833 -64.5 -322.5 -64.5c-99.333 0 -185.666 8.83301 -258.999 26.5s-131.5 44.834 -174.5 81.501s-74 79 -93 127s-28.5 118.667 -28.5 212l4 533
c0 74.667 -4.16699 136 -12.5 184s-21.5 79.833 -39.5 95.5s-45.333 25.5 -82 29.5c-23.333 2.66699 -37.833 6.16699 -43.5 10.5s-8.5 11.5 -8.5 21.5c0 20 14.333 30 43 30zM929.001 1761l178 -343c10.667 -20 16 -31.667 16 -35c0 -6.66699 -11 -10 -33 -10h-51l-197 208
l-206 -208h-50c-20 0 -30 3.33301 -30 10c0 3.33301 4.33301 13 13 29l184 349h176z" />
    <glyph glyph-name="Udieresis" unicode="&#xdc;" horiz-adv-x="1557" 
d="M83 1331l322.001 -10.9971c30.667 0 65.667 1.66699 105 5c62.667 4.66699 112 7 148 7c34 0 51 -9.33301 51 -28c0 -18 -13.333 -27.667 -40 -29c-48 -2.66699 -83.833 -19.834 -107.5 -51.501s-38.834 -96.667 -45.501 -195s-10 -206.5 -10 -324.5
c0 -189.333 9 -316.5 27 -381.5s56.667 -116.833 116 -155.5s138 -58 236 -58c99.333 0 174.333 21.167 225 63.5s85.5 108.833 104.5 199.5s28.5 259 28.5 505c0 145.333 -11.333 245.666 -34 300.999s-61.334 85.666 -116.001 90.999c-39.333 4 -59 15.667 -59 35
s16 29 48 29c15.333 0 41 -2 77 -6c37.333 -3.33301 76.333 -5 117 -5c37.333 0 79 2 125 6c34.667 2.66699 58.667 4 72 4c33.333 0 50 -9.66699 50 -29c0 -15.333 -12 -24.333 -36 -27c-33.333 -3.33301 -63.5 -18.833 -90.5 -46.5s-44.333 -73.334 -52 -137.001
s-11.5 -227.167 -11.5 -490.5c0 -173.333 -17.333 -298.833 -52 -376.5s-95.167 -138 -181.5 -181s-193.833 -64.5 -322.5 -64.5c-99.333 0 -185.666 8.83301 -258.999 26.5s-131.5 44.834 -174.5 81.501s-74 79 -93 127s-28.5 118.667 -28.5 212l4 533
c0 74.667 -4.16699 136 -12.5 184s-21.5 79.833 -39.5 95.5s-45.333 25.5 -82 29.5c-23.333 2.66699 -37.833 6.16699 -43.5 10.5s-8.5 11.5 -8.5 21.5c0 20 14.333 30 43 30zM736.001 1557c0 -33.333 -11.833 -61.833 -35.5 -85.5s-52.167 -35.5 -85.5 -35.5
c-32.667 0 -60.834 11.833 -84.501 35.5s-35.5 52.167 -35.5 85.5c0 32.667 11.833 60.834 35.5 84.501s51.834 35.5 84.501 35.5c33.333 0 61.833 -11.833 85.5 -35.5s35.5 -51.834 35.5 -84.501zM1160 1557c0 -33.333 -11.833 -61.833 -35.5 -85.5
s-51.834 -35.5 -84.501 -35.5c-33.333 0 -61.833 11.833 -85.5 35.5s-35.5 52.167 -35.5 85.5c0 32.667 11.833 60.834 35.5 84.501s52.167 35.5 85.5 35.5c32.667 0 60.834 -11.833 84.501 -35.5s35.5 -51.834 35.5 -84.501z" />
    <glyph glyph-name="Yacute" unicode="&#xdd;" horiz-adv-x="1472" 
d="M822 733c186 242.667 279 391.006 279 445.006c0 15.333 -5.16699 31 -15.5 47s-40.166 31 -89.499 45c-20 5.33301 -30 14.666 -30 27.999c0 20.667 12 31 36 31c6.66699 0 15.667 -0.666992 27 -2c85.333 -7.33301 150.333 -11 195 -11
c48.667 0 106.334 3.33301 173.001 10c12.667 1.33301 23.334 2 32.001 2c19.333 0 29 -9 29 -27c0 -16.667 -9.66699 -26 -29 -28c-44.667 -4.66699 -85.834 -19.5 -123.501 -44.5s-83.334 -72.667 -137.001 -143s-113.334 -153.5 -179.001 -249.5
s-101.834 -154.5 -108.501 -175.5s-10 -93.5 -10 -217.5c0 -188 8.5 -300.833 25.5 -338.5s59.167 -56.5 126.5 -56.5c24 0 36 -9.66699 36 -29c0 -20 -13.333 -30 -40 -30c-20 0 -75 3 -165 9c-51.333 3.33301 -88 5 -110 5c-72.667 0 -155 -4.33301 -247 -13
c-17.333 -1.33301 -31 -2 -41 -2c-25.333 0 -38 9.66699 -38 29c0 16.667 9.66699 26 29 28c65.333 8 106.5 29.833 123.5 65.5s25.5 114.167 25.5 235.5c0 109.333 -6.33301 182.166 -19 218.499s-49.334 103.666 -110.001 201.999l-181.5 283
c-60.333 90.333 -106.666 148.166 -138.999 173.499s-67.166 41.333 -104.499 48c-18.667 3.33301 -28 12.333 -28 27c0 20.667 11.667 31 35 31c10.667 0 27.334 -1 50.001 -3c103.333 -7.33301 179 -11 227 -11c76 0 161.333 3.66699 256 11
c19.333 1.33301 35.666 2 48.999 2c22.667 0 34 -8.66699 34 -26c0 -16.667 -12.333 -26.334 -37 -29.001c-68.667 -6.66699 -103 -31 -103 -73c0 -44.667 99 -200.334 297 -467.001zM986 1772.01c22.667 0 42.668 -8.5 60.001 -25.5s26 -36.167 26 -57.5
c0 -40.667 -35 -86.667 -105 -138c-54.667 -40 -106.334 -80 -155.001 -120s-81 -60 -97 -60c-8 0 -16.5 4 -25.5 12s-13.5 15.667 -13.5 23s29.833 55.5 89.5 144.5s104 148.167 133 177.5s58.167 44 87.5 44z" />
    <glyph glyph-name="Thorn" unicode="&#xde;" horiz-adv-x="1323" 
d="M511 1061l158.997 1.99609c85.333 0 174.666 -6.16699 267.999 -18.5s167.333 -49.666 222 -111.999s82 -136.833 82 -223.5c0 -81.333 -23.833 -149.666 -71.5 -204.999s-110.334 -96 -188.001 -122s-185.834 -39 -324.501 -39c-47.333 0 -96.333 1.33301 -147 4
c0 -113.333 2.83301 -184.166 8.5 -212.499s17.334 -48.833 35.001 -61.5s47.834 -21.334 90.501 -26.001c30.667 -3.33301 50.334 -7 59.001 -11s13 -11.333 13 -22c0 -18.667 -17.333 -28 -52 -28c-21.333 0 -63.666 2 -126.999 6c-89.333 5.33301 -151.333 8 -186 8
c-57.333 0 -130.666 -4.33301 -219.999 -13c-13.333 -1.33301 -24.333 -2 -33 -2c-30 0 -45 9.66699 -45 29c0 18.667 19.667 30 59 34c31.333 3.33301 56 12.5 74 27.5s30.167 41.833 36.5 80.5s9.5 102.334 9.5 191.001v755c0 58 -9 99.667 -27 125s-48 39.333 -90 42
c-38 2.66699 -57 12 -57 28c0 12 5.83301 20.167 17.5 24.5s36.834 6.5 75.501 6.5h489c34 0 55.5 -1.83301 64.5 -5.5s13.5 -11.5 13.5 -23.5c0 -19.333 -14 -29.666 -42 -30.999c-52 -2.66699 -87.5 -9 -106.5 -19s-32 -25 -39 -45s-13.833 -67.667 -20.5 -143z
M510.997 418.996c34 -3.33301 61.333 -5.00098 82 -5.00098c101.333 0 180.833 28.833 238.5 86.5s86.5 137.834 86.5 240.501c0 72 -21 131.833 -63 179.5s-107.333 71.5 -196 71.5c-44 0 -93.333 -5.66699 -148 -17v-556z" />
    <glyph glyph-name="germandbls" unicode="&#xdf;" horiz-adv-x="1173" 
d="M434 1l-30 -1.00098c-97.333 0 -168 -2 -212 -6c-46 -4 -79 -6 -99 -6c-28 0 -42 10.333 -42 31c0 18.667 16 28.667 48 30c33.333 1.33301 57.833 9 73.5 23s23.5 49.667 23.5 107l1 172v446c0 168 14 283.833 42 347.5s71.333 116.667 130 159s139 63.5 241 63.5
c125.333 0 220.333 -28.333 285 -85s97 -123.667 97 -201c0 -67.333 -23.5 -125.833 -70.5 -175.5s-119.5 -79.834 -217.5 -90.501c125.333 -11.333 220 -54.166 284 -128.499s96 -164.166 96 -269.499c0 -115.333 -37.833 -214.833 -113.5 -298.5
s-162.5 -125.5 -260.5 -125.5c-56.667 0 -100 15 -130 45s-45 61 -45 93c0 30.667 9 56.334 27 77.001s42.667 31 74 31c26 0 49.167 -9 69.5 -27s30.5 -45.333 30.5 -82c0 -5.33301 -0.333008 -10.666 -1 -15.999c-2 -12 -3 -20 -3 -24c0 -19.333 10.667 -29 32 -29
c24.667 0 42.5 19.333 53.5 58s16.5 106 16.5 202c0 149.333 -16.667 262 -50 338c-34 75.333 -104.333 115.333 -211 120c-34 1.33301 -51 11.333 -51 30c0 12 2.66699 19.833 8 23.5s21.666 7.5 48.999 11.5c41.333 6 73 16.167 95 30.5s40 37.666 54 69.999
s21 78.5 21 138.5c0 73.333 -13 128.333 -39 165s-65 55 -117 55c-53.333 0 -94.166 -19.833 -122.499 -59.5s-42.5 -119.834 -42.5 -240.501l-1 -222v-543c0 -43.333 2.33301 -122.333 7 -237z" />
    <glyph glyph-name="agrave" unicode="&#xe0;" horiz-adv-x="981" 
d="M547 96c-41.333 -39.333 -83.001 -68.8359 -125.001 -88.5029s-84.333 -29.5 -127 -29.5c-68 0 -120.5 20.5 -157.5 61.5s-55.5 90.833 -55.5 149.5c0 45.333 11.167 85.833 33.5 121.5s50 63.334 83 83.001s87.5 43.167 163.5 70.5c64 22.667 106.833 40.5 128.5 53.5
s39.834 32 54.501 57s22 57.5 22 97.5c0 44 -11 79.167 -33 105.5s-52.333 39.5 -91 39.5c-33.333 0 -57 -8.33301 -71 -25c-14 -17.333 -24.667 -45 -32 -83c-15.333 -76 -56.333 -114 -123 -114c-27.333 0 -50.666 8 -69.999 24s-29 39 -29 69
c0 64 34.833 111.833 104.5 143.5s152.834 47.5 249.501 47.5c83.333 0 151.166 -12.667 203.499 -38s85.833 -54.666 100.5 -87.999s22 -85.333 22 -156l-2 -237c0 -124.667 4.16699 -204.667 12.5 -240s26.166 -53 53.499 -53c4 0 9.33301 0.333008 16 1
c13.333 1.33301 22.333 2 27 2c27.333 0 41 -7.66699 41 -23c0 -10 -5.66699 -18.5 -17 -25.5s-45.5 -15.833 -102.5 -26.5s-108.5 -16 -154.5 -16s-77.5 8.83301 -94.5 26.5s-27.167 47.834 -30.5 90.501zM559.999 495.997c-16 -19.333 -54.334 -45 -115.001 -77
c-55.333 -29.333 -92.333 -55.333 -111 -78c-18.667 -23.333 -28 -57 -28 -101c0 -46.667 9.83301 -82.167 29.5 -106.5s43.834 -36.5 72.501 -36.5c38.667 0 74.667 17.833 108 53.5s50 98.5 50 188.5c0 28 -2 80.333 -6 157zM338.998 1362c29.333 0 58.668 -15 88.001 -45
s73.666 -89.167 132.999 -177.5s89 -136.166 89 -143.499s-4.5 -15 -13.5 -23s-17.5 -12 -25.5 -12c-15.333 0 -63 31.667 -143 95l-154 121c-40 31.333 -60 64.666 -60 99.999c0 22.667 8.83301 42.5 26.5 59.5s37.5 25.5 59.5 25.5z" />
    <glyph glyph-name="aacute" unicode="&#xe1;" horiz-adv-x="981" 
d="M547 96c-41.333 -39.333 -83.001 -68.8359 -125.001 -88.5029s-84.333 -29.5 -127 -29.5c-68 0 -120.5 20.5 -157.5 61.5s-55.5 90.833 -55.5 149.5c0 45.333 11.167 85.833 33.5 121.5s50 63.334 83 83.001s87.5 43.167 163.5 70.5c64 22.667 106.833 40.5 128.5 53.5
s39.834 32 54.501 57s22 57.5 22 97.5c0 44 -11 79.167 -33 105.5s-52.333 39.5 -91 39.5c-33.333 0 -57 -8.33301 -71 -25c-14 -17.333 -24.667 -45 -32 -83c-15.333 -76 -56.333 -114 -123 -114c-27.333 0 -50.666 8 -69.999 24s-29 39 -29 69
c0 64 34.833 111.833 104.5 143.5s152.834 47.5 249.501 47.5c83.333 0 151.166 -12.667 203.499 -38s85.833 -54.666 100.5 -87.999s22 -85.333 22 -156l-2 -237c0 -124.667 4.16699 -204.667 12.5 -240s26.166 -53 53.499 -53c4 0 9.33301 0.333008 16 1
c13.333 1.33301 22.333 2 27 2c27.333 0 41 -7.66699 41 -23c0 -10 -5.66699 -18.5 -17 -25.5s-45.5 -15.833 -102.5 -26.5s-108.5 -16 -154.5 -16s-77.5 8.83301 -94.5 26.5s-27.167 47.834 -30.5 90.501zM559.999 495.997c-16 -19.333 -54.334 -45 -115.001 -77
c-55.333 -29.333 -92.333 -55.333 -111 -78c-18.667 -23.333 -28 -57 -28 -101c0 -46.667 9.83301 -82.167 29.5 -106.5s43.834 -36.5 72.501 -36.5c38.667 0 74.667 17.833 108 53.5s50 98.5 50 188.5c0 28 -2 80.333 -6 157zM636.998 1362
c22.667 0 42.668 -8.5 60.001 -25.5s26 -36.167 26 -57.5c0 -40.667 -35 -86.667 -105 -138c-54.667 -40 -106.334 -80 -155.001 -120s-81 -60 -97 -60c-8 0 -16.5 4 -25.5 12s-13.5 15.667 -13.5 23s29.833 55.5 89.5 144.5s104 148.167 133 177.5s58.167 44 87.5 44z" />
    <glyph glyph-name="acircumflex" unicode="&#xe2;" horiz-adv-x="981" 
d="M547 96c-41.333 -39.333 -83.001 -68.8359 -125.001 -88.5029s-84.333 -29.5 -127 -29.5c-68 0 -120.5 20.5 -157.5 61.5s-55.5 90.833 -55.5 149.5c0 45.333 11.167 85.833 33.5 121.5s50 63.334 83 83.001s87.5 43.167 163.5 70.5c64 22.667 106.833 40.5 128.5 53.5
s39.834 32 54.501 57s22 57.5 22 97.5c0 44 -11 79.167 -33 105.5s-52.333 39.5 -91 39.5c-33.333 0 -57 -8.33301 -71 -25c-14 -17.333 -24.667 -45 -32 -83c-15.333 -76 -56.333 -114 -123 -114c-27.333 0 -50.666 8 -69.999 24s-29 39 -29 69
c0 64 34.833 111.833 104.5 143.5s152.834 47.5 249.501 47.5c83.333 0 151.166 -12.667 203.499 -38s85.833 -54.666 100.5 -87.999s22 -85.333 22 -156l-2 -237c0 -124.667 4.16699 -204.667 12.5 -240s26.166 -53 53.499 -53c4 0 9.33301 0.333008 16 1
c13.333 1.33301 22.333 2 27 2c27.333 0 41 -7.66699 41 -23c0 -10 -5.66699 -18.5 -17 -25.5s-45.5 -15.833 -102.5 -26.5s-108.5 -16 -154.5 -16s-77.5 8.83301 -94.5 26.5s-27.167 47.834 -30.5 90.501zM559.999 495.997c-16 -19.333 -54.334 -45 -115.001 -77
c-55.333 -29.333 -92.333 -55.333 -111 -78c-18.667 -23.333 -28 -57 -28 -101c0 -46.667 9.83301 -82.167 29.5 -106.5s43.834 -36.5 72.501 -36.5c38.667 0 74.667 17.833 108 53.5s50 98.5 50 188.5c0 28 -2 80.333 -6 157zM562.998 1355l178 -343
c10.667 -20 16 -31.667 16 -35c0 -6.66699 -11 -10 -33 -10h-51l-197 208l-206 -208h-50c-20 0 -30 3.33301 -30 10c0 3.33301 4.33301 13 13 29l184 349h176z" />
    <glyph glyph-name="atilde" unicode="&#xe3;" horiz-adv-x="981" 
d="M547 96c-41.333 -39.333 -83.001 -68.8359 -125.001 -88.5029s-84.333 -29.5 -127 -29.5c-68 0 -120.5 20.5 -157.5 61.5s-55.5 90.833 -55.5 149.5c0 45.333 11.167 85.833 33.5 121.5s50 63.334 83 83.001s87.5 43.167 163.5 70.5c64 22.667 106.833 40.5 128.5 53.5
s39.834 32 54.501 57s22 57.5 22 97.5c0 44 -11 79.167 -33 105.5s-52.333 39.5 -91 39.5c-33.333 0 -57 -8.33301 -71 -25c-14 -17.333 -24.667 -45 -32 -83c-15.333 -76 -56.333 -114 -123 -114c-27.333 0 -50.666 8 -69.999 24s-29 39 -29 69
c0 64 34.833 111.833 104.5 143.5s152.834 47.5 249.501 47.5c83.333 0 151.166 -12.667 203.499 -38s85.833 -54.666 100.5 -87.999s22 -85.333 22 -156l-2 -237c0 -124.667 4.16699 -204.667 12.5 -240s26.166 -53 53.499 -53c4 0 9.33301 0.333008 16 1
c13.333 1.33301 22.333 2 27 2c27.333 0 41 -7.66699 41 -23c0 -10 -5.66699 -18.5 -17 -25.5s-45.5 -15.833 -102.5 -26.5s-108.5 -16 -154.5 -16s-77.5 8.83301 -94.5 26.5s-27.167 47.834 -30.5 90.501zM559.999 495.997c-16 -19.333 -54.334 -45 -115.001 -77
c-55.333 -29.333 -92.333 -55.333 -111 -78c-18.667 -23.333 -28 -57 -28 -101c0 -46.667 9.83301 -82.167 29.5 -106.5s43.834 -36.5 72.501 -36.5c38.667 0 74.667 17.833 108 53.5s50 98.5 50 188.5c0 28 -2 80.333 -6 157zM588.998 994.997
c-36 0 -82.332 15 -138.999 45c-60.667 32.667 -103.334 49 -128.001 49c-39.333 0 -63.333 -27 -72 -81c-0.666992 -6 -2.5 -10 -5.5 -12s-19.5 -3 -49.5 -3c-16.667 0 -25 5 -25 15c0 68 16.833 126.167 50.5 174.5s81.5 72.5 143.5 72.5c40 0 89.667 -17 149 -51
c53.333 -30 90.333 -45 111 -45c44.667 0 68.667 26 72 78c0.666992 8.66699 2.5 14 5.5 16s15.833 3 38.5 3c24 0 36 -6.33301 36 -19c0 -64.667 -15.667 -121.167 -47 -169.5s-78 -72.5 -140 -72.5z" />
    <glyph glyph-name="adieresis" unicode="&#xe4;" horiz-adv-x="981" 
d="M547 96c-41.333 -39.333 -83.001 -68.8359 -125.001 -88.5029s-84.333 -29.5 -127 -29.5c-68 0 -120.5 20.5 -157.5 61.5s-55.5 90.833 -55.5 149.5c0 45.333 11.167 85.833 33.5 121.5s50 63.334 83 83.001s87.5 43.167 163.5 70.5c64 22.667 106.833 40.5 128.5 53.5
s39.834 32 54.501 57s22 57.5 22 97.5c0 44 -11 79.167 -33 105.5s-52.333 39.5 -91 39.5c-33.333 0 -57 -8.33301 -71 -25c-14 -17.333 -24.667 -45 -32 -83c-15.333 -76 -56.333 -114 -123 -114c-27.333 0 -50.666 8 -69.999 24s-29 39 -29 69
c0 64 34.833 111.833 104.5 143.5s152.834 47.5 249.501 47.5c83.333 0 151.166 -12.667 203.499 -38s85.833 -54.666 100.5 -87.999s22 -85.333 22 -156l-2 -237c0 -124.667 4.16699 -204.667 12.5 -240s26.166 -53 53.499 -53c4 0 9.33301 0.333008 16 1
c13.333 1.33301 22.333 2 27 2c27.333 0 41 -7.66699 41 -23c0 -10 -5.66699 -18.5 -17 -25.5s-45.5 -15.833 -102.5 -26.5s-108.5 -16 -154.5 -16s-77.5 8.83301 -94.5 26.5s-27.167 47.834 -30.5 90.501zM559.999 495.997c-16 -19.333 -54.334 -45 -115.001 -77
c-55.333 -29.333 -92.333 -55.333 -111 -78c-18.667 -23.333 -28 -57 -28 -101c0 -46.667 9.83301 -82.167 29.5 -106.5s43.834 -36.5 72.501 -36.5c38.667 0 74.667 17.833 108 53.5s50 98.5 50 188.5c0 28 -2 80.333 -6 157zM381.998 1142
c0 -33.333 -11.833 -61.833 -35.5 -85.5s-52.167 -35.5 -85.5 -35.5c-32.667 0 -60.834 11.833 -84.501 35.5s-35.5 52.167 -35.5 85.5c0 32.667 11.833 60.834 35.5 84.501s51.834 35.5 84.501 35.5c33.333 0 61.833 -11.833 85.5 -35.5s35.5 -51.834 35.5 -84.501z
M805.998 1142c0 -33.333 -11.833 -61.833 -35.5 -85.5s-51.834 -35.5 -84.501 -35.5c-33.333 0 -61.833 11.833 -85.5 35.5s-35.5 52.167 -35.5 85.5c0 32.667 11.833 60.834 35.5 84.501s52.167 35.5 85.5 35.5c32.667 0 60.834 -11.833 84.501 -35.5
s35.5 -51.834 35.5 -84.501z" />
    <glyph glyph-name="aring" unicode="&#xe5;" horiz-adv-x="981" 
d="M547 96c-41.333 -39.333 -83.001 -68.8359 -125.001 -88.5029s-84.333 -29.5 -127 -29.5c-68 0 -120.5 20.5 -157.5 61.5s-55.5 90.833 -55.5 149.5c0 45.333 11.167 85.833 33.5 121.5s50 63.334 83 83.001s87.5 43.167 163.5 70.5c64 22.667 106.833 40.5 128.5 53.5
s39.834 32 54.501 57s22 57.5 22 97.5c0 44 -11 79.167 -33 105.5s-52.333 39.5 -91 39.5c-33.333 0 -57 -8.33301 -71 -25c-14 -17.333 -24.667 -45 -32 -83c-15.333 -76 -56.333 -114 -123 -114c-27.333 0 -50.666 8 -69.999 24s-29 39 -29 69
c0 64 34.833 111.833 104.5 143.5s152.834 47.5 249.501 47.5c83.333 0 151.166 -12.667 203.499 -38s85.833 -54.666 100.5 -87.999s22 -85.333 22 -156l-2 -237c0 -124.667 4.16699 -204.667 12.5 -240s26.166 -53 53.499 -53c4 0 9.33301 0.333008 16 1
c13.333 1.33301 22.333 2 27 2c27.333 0 41 -7.66699 41 -23c0 -10 -5.66699 -18.5 -17 -25.5s-45.5 -15.833 -102.5 -26.5s-108.5 -16 -154.5 -16s-77.5 8.83301 -94.5 26.5s-27.167 47.834 -30.5 90.501zM559.999 495.997c-16 -19.333 -54.334 -45 -115.001 -77
c-55.333 -29.333 -92.333 -55.333 -111 -78c-18.667 -23.333 -28 -57 -28 -101c0 -46.667 9.83301 -82.167 29.5 -106.5s43.834 -36.5 72.501 -36.5c38.667 0 74.667 17.833 108 53.5s50 98.5 50 188.5c0 28 -2 80.333 -6 157zM645.998 1159
c0 -47.333 -17 -87.833 -51 -121.5s-74.667 -50.5 -122 -50.5s-87.833 16.833 -121.5 50.5s-50.5 74.167 -50.5 121.5s16.833 88 50.5 122s74.167 51 121.5 51c48 0 88.833 -16.833 122.5 -50.5s50.5 -74.5 50.5 -122.5zM555.998 1159c0 23.333 -8 43 -24 59
s-35.667 24 -59 24c-22.667 0 -42 -8 -58 -24s-24 -35.667 -24 -59c0 -22.667 8 -42.167 24 -58.5s35.333 -24.5 58 -24.5c23.333 0 43 8.16699 59 24.5s24 35.833 24 58.5z" />
    <glyph glyph-name="ae" unicode="&#xe6;" horiz-adv-x="1451" 
d="M762 782c68.667 60 154.999 89.9961 258.999 89.9961c77.333 0 142.833 -18.333 196.5 -55s93.5 -85.834 119.5 -147.501s39 -114.167 39 -157.5c0 -14.667 -5 -24.667 -15 -30s-90.667 -12.166 -242 -20.499s-256.666 -12.5 -315.999 -12.5
c0 -162 25.333 -266.333 76 -313s101 -70 151 -70c92.667 0 182.334 42.333 269.001 127c21.333 20.667 38 31 50 31c15.333 0 23 -7.66699 23 -23c0 -25.333 -41.167 -68.5 -123.5 -129.5s-182.5 -91.5 -300.5 -91.5c-167.333 0 -284.333 53 -351 159
c-86 -75.333 -153.333 -120.833 -202 -136.5s-87 -23.5 -115 -23.5c-49.333 0 -94.666 18 -135.999 54s-62 82 -62 138c0 46.667 11.167 89 33.5 127s48.5 67 78.5 87s79.667 42.667 149 68c67.333 25.333 113.333 44.833 138 58.5s45.5 34.334 62.5 62.001
s25.5 59.834 25.5 96.501c0 45.333 -11.833 81 -35.5 107s-53.167 39 -88.5 39c-46.667 0 -80 -34.333 -100 -103c-22.667 -81.333 -65.667 -122 -129 -122c-31.333 0 -55 11.167 -71 33.5s-24 46.833 -24 73.5c0 54.667 37 97.834 111 129.501s154 47.5 240 47.5
c59.333 0 113.166 -7.66699 161.499 -23s91.166 -38.666 128.499 -69.999zM802.999 510.996c56 1.33301 120.333 5.83301 193 13.5s112.667 15.167 120 22.5s11 25 11 53c0 66 -12.833 118.333 -38.5 157s-60.834 58 -105.501 58c-39.333 0 -75.166 -16.5 -107.499 -49.5
s-54.5 -100.167 -66.5 -201.5zM559.999 493.996c-12 -20 -33.667 -37.667 -65 -53c-75.333 -36.667 -125 -68.667 -149 -96c-24.667 -27.333 -37 -66.666 -37 -117.999c0 -46 11.167 -79 33.5 -99s47.5 -30 75.5 -30c34.667 0 68.167 17.167 100.5 51.5
s48.5 102.833 48.5 205.5c0 41.333 -2.33301 87.666 -7 138.999z" />
    <glyph glyph-name="ccedilla" unicode="&#xe7;" horiz-adv-x="960" 
d="M563 -19c-7.33301 -15.333 -14.334 -31.665 -21.001 -48.998c50 0 87.5 -11.833 112.5 -35.5s37.5 -49.167 37.5 -76.5c0 -51.333 -28.667 -93.5 -86 -126.5s-140.666 -49.5 -249.999 -49.5c-31.333 0 -47 9.66699 -47 29c0 18.667 20.667 30.667 62 36
c67.333 8 101 30 101 66c0 31.333 -23 47.333 -69 48c51.333 65.333 81 117.666 89 156.999c-126.667 10 -226 56.333 -298 139s-108 184 -108 304c0 124.667 42.833 231.834 128.5 321.501s193.834 134.5 324.501 134.5c85.333 0 160.5 -20.5 225.5 -61.5
s97.5 -89.5 97.5 -145.5c0 -33.333 -9.83301 -59.5 -29.5 -78.5s-44.5 -28.5 -74.5 -28.5c-57.333 0 -98.333 41.333 -123 124c-13.333 45.333 -28 77.666 -44 96.999c-16.667 19.333 -40.667 29 -72 29c-54.667 0 -95.834 -27.333 -123.501 -82s-41.5 -136.667 -41.5 -246
c0 -125.333 22.667 -225.5 68 -300.5s104 -112.5 176 -112.5c96 0 163.667 57 203 171c12.667 36 27.667 54 45 54c18.667 0 28 -10 28 -30c0 -52 -25 -110.333 -75 -175s-128.667 -102.334 -236 -113.001z" />
    <glyph glyph-name="egrave" unicode="&#xe8;" horiz-adv-x="981" 
d="M350 456c-0.666992 -19.333 -1 -33.333 -1 -42c0 -94.667 23.167 -174.834 69.5 -240.501s108.833 -98.5 187.5 -98.5c80.667 0 160 35 238 105c16 14 27.333 21 34 21c17.333 0 26 -9.33301 26 -28c0 -14.667 -20 -41 -60 -79s-89 -66.667 -147 -86s-118 -29 -180 -29
c-136 0 -242.5 41.5 -319.5 124.5s-115.5 180.833 -115.5 293.5c0 135.333 44.167 248.833 132.5 340.5s198.5 137.5 330.5 137.5c124 0 218.5 -41.667 283.5 -125s97.5 -162.666 97.5 -237.999c0 -24 -6.33301 -38.333 -19 -43s-53.667 -7 -123 -7zM356 529
c98.667 -1.33301 155.667 -2.00098 171 -2.00098c75.333 0 121.5 5.33301 138.5 16s25.5 32.334 25.5 65.001c0 54.667 -15.667 103 -47 145s-68.666 63 -111.999 63c-102.667 0 -161.334 -95.667 -176.001 -287zM404 1362c29.333 0 58.668 -15 88.001 -45
s73.666 -89.167 132.999 -177.5s89 -136.166 89 -143.499s-4.5 -15 -13.5 -23s-17.5 -12 -25.5 -12c-15.333 0 -63 31.667 -143 95l-154 121c-40 31.333 -60 64.666 -60 99.999c0 22.667 8.83301 42.5 26.5 59.5s37.5 25.5 59.5 25.5z" />
    <glyph glyph-name="eacute" unicode="&#xe9;" horiz-adv-x="981" 
d="M350 456c-0.666992 -19.333 -1 -33.333 -1 -42c0 -94.667 23.167 -174.834 69.5 -240.501s108.833 -98.5 187.5 -98.5c80.667 0 160 35 238 105c16 14 27.333 21 34 21c17.333 0 26 -9.33301 26 -28c0 -14.667 -20 -41 -60 -79s-89 -66.667 -147 -86s-118 -29 -180 -29
c-136 0 -242.5 41.5 -319.5 124.5s-115.5 180.833 -115.5 293.5c0 135.333 44.167 248.833 132.5 340.5s198.5 137.5 330.5 137.5c124 0 218.5 -41.667 283.5 -125s97.5 -162.666 97.5 -237.999c0 -24 -6.33301 -38.333 -19 -43s-53.667 -7 -123 -7zM356 529
c98.667 -1.33301 155.667 -2.00098 171 -2.00098c75.333 0 121.5 5.33301 138.5 16s25.5 32.334 25.5 65.001c0 54.667 -15.667 103 -47 145s-68.666 63 -111.999 63c-102.667 0 -161.334 -95.667 -176.001 -287zM662 1362c22.667 0 42.668 -8.5 60.001 -25.5
s26 -36.167 26 -57.5c0 -40.667 -35 -86.667 -105 -138c-54.667 -40 -106.334 -80 -155.001 -120s-81 -60 -97 -60c-8 0 -16.5 4 -25.5 12s-13.5 15.667 -13.5 23s29.833 55.5 89.5 144.5s104 148.167 133 177.5s58.167 44 87.5 44z" />
    <glyph glyph-name="ecircumflex" unicode="&#xea;" horiz-adv-x="981" 
d="M350 456c-0.666992 -19.333 -1 -33.333 -1 -42c0 -94.667 23.167 -174.834 69.5 -240.501s108.833 -98.5 187.5 -98.5c80.667 0 160 35 238 105c16 14 27.333 21 34 21c17.333 0 26 -9.33301 26 -28c0 -14.667 -20 -41 -60 -79s-89 -66.667 -147 -86s-118 -29 -180 -29
c-136 0 -242.5 41.5 -319.5 124.5s-115.5 180.833 -115.5 293.5c0 135.333 44.167 248.833 132.5 340.5s198.5 137.5 330.5 137.5c124 0 218.5 -41.667 283.5 -125s97.5 -162.666 97.5 -237.999c0 -24 -6.33301 -38.333 -19 -43s-53.667 -7 -123 -7zM356 529
c98.667 -1.33301 155.667 -2.00098 171 -2.00098c75.333 0 121.5 5.33301 138.5 16s25.5 32.334 25.5 65.001c0 54.667 -15.667 103 -47 145s-68.666 63 -111.999 63c-102.667 0 -161.334 -95.667 -176.001 -287zM604 1355l178 -343c10.667 -20 16 -31.667 16 -35
c0 -6.66699 -11 -10 -33 -10h-51l-197 208l-206 -208h-50c-20 0 -30 3.33301 -30 10c0 3.33301 4.33301 13 13 29l184 349h176z" />
    <glyph glyph-name="edieresis" unicode="&#xeb;" horiz-adv-x="981" 
d="M350 456c-0.666992 -19.333 -1 -33.333 -1 -42c0 -94.667 23.167 -174.834 69.5 -240.501s108.833 -98.5 187.5 -98.5c80.667 0 160 35 238 105c16 14 27.333 21 34 21c17.333 0 26 -9.33301 26 -28c0 -14.667 -20 -41 -60 -79s-89 -66.667 -147 -86s-118 -29 -180 -29
c-136 0 -242.5 41.5 -319.5 124.5s-115.5 180.833 -115.5 293.5c0 135.333 44.167 248.833 132.5 340.5s198.5 137.5 330.5 137.5c124 0 218.5 -41.667 283.5 -125s97.5 -162.666 97.5 -237.999c0 -24 -6.33301 -38.333 -19 -43s-53.667 -7 -123 -7zM356 529
c98.667 -1.33301 155.667 -2.00098 171 -2.00098c75.333 0 121.5 5.33301 138.5 16s25.5 32.334 25.5 65.001c0 54.667 -15.667 103 -47 145s-68.666 63 -111.999 63c-102.667 0 -161.334 -95.667 -176.001 -287zM399 1142c0 -33.333 -11.833 -61.833 -35.5 -85.5
s-52.167 -35.5 -85.5 -35.5c-32.667 0 -60.834 11.833 -84.501 35.5s-35.5 52.167 -35.5 85.5c0 32.667 11.833 60.834 35.5 84.501s51.834 35.5 84.501 35.5c33.333 0 61.833 -11.833 85.5 -35.5s35.5 -51.834 35.5 -84.501zM823 1142
c0 -33.333 -11.833 -61.833 -35.5 -85.5s-51.834 -35.5 -84.501 -35.5c-33.333 0 -61.833 11.833 -85.5 35.5s-35.5 52.167 -35.5 85.5c0 32.667 11.833 60.834 35.5 84.501s52.167 35.5 85.5 35.5c32.667 0 60.834 -11.833 84.501 -35.5s35.5 -51.834 35.5 -84.501z" />
    <glyph glyph-name="igrave" unicode="&#xec;" horiz-adv-x="619" 
d="M427 879c2.66699 -93.333 4 -259.665 4 -498.998l-3 -215c0 -43.333 7.16699 -72.333 21.5 -87s37.833 -24.334 70.5 -29.001c37.333 -4.66699 56 -15.334 56 -32.001c0 -18 -14.667 -27 -44 -27c-14 0 -38.333 1 -73 3c-73.333 4.66699 -146 7 -218 7
c-35.333 -0 -71.333 -1.66699 -108 -5c-22 -2.66699 -37 -4 -45 -4c-29.333 0 -44 9 -44 27c0 17.333 19.333 27.666 58 30.999c51.333 4.66699 80 21.834 86 51.501s9 89.834 9 180.501c0 117.333 -1.83301 225.166 -5.5 323.499s-10.5 154.5 -20.5 168.5
s-36 23.333 -78 28c-32.667 3.33301 -49 13 -49 29s16.667 25.333 50 28l21 2zM126 1362c29.333 0 58.668 -15 88.001 -45s73.666 -89.167 132.999 -177.5s89 -136.166 89 -143.499s-4.5 -15 -13.5 -23s-17.5 -12 -25.5 -12c-15.333 0 -63 31.667 -143 95l-154 121
c-40 31.333 -60 64.666 -60 99.999c0 22.667 8.83301 42.5 26.5 59.5s37.5 25.5 59.5 25.5z" />
    <glyph glyph-name="iacute" unicode="&#xed;" horiz-adv-x="619" 
d="M428 879c2.66699 -93.333 4 -259.665 4 -498.998l-3 -215c0 -43.333 7.16699 -72.333 21.5 -87s37.833 -24.334 70.5 -29.001c37.333 -4.66699 56 -15.334 56 -32.001c0 -18 -14.667 -27 -44 -27c-14 0 -38.333 1 -73 3c-73.333 4.66699 -146 7 -218 7
c-35.333 -0 -71.333 -1.66699 -108 -5c-22 -2.66699 -37 -4 -45 -4c-29.333 0 -44 9 -44 27c0 17.333 19.333 27.666 58 30.999c51.333 4.66699 80 21.834 86 51.501s9 89.834 9 180.501c0 117.333 -1.83301 225.166 -5.5 323.499s-10.5 154.5 -20.5 168.5
s-36 23.333 -78 28c-32.667 3.33301 -49 13 -49 29s16.667 25.333 50 28l21 2zM456 1362c22.667 0 42.668 -8.5 60.001 -25.5s26 -36.167 26 -57.5c0 -40.667 -35 -86.667 -105 -138c-54.667 -40 -106.334 -80 -155.001 -120s-81 -60 -97 -60c-8 0 -16.5 4 -25.5 12
s-13.5 15.667 -13.5 23s29.833 55.5 89.5 144.5s104 148.167 133 177.5s58.167 44 87.5 44z" />
    <glyph glyph-name="icircumflex" unicode="&#xee;" horiz-adv-x="619" 
d="M428 879c2.66699 -93.333 4 -259.665 4 -498.998l-3 -215c0 -43.333 7.16699 -72.333 21.5 -87s37.833 -24.334 70.5 -29.001c37.333 -4.66699 56 -15.334 56 -32.001c0 -18 -14.667 -27 -44 -27c-14 0 -38.333 1 -73 3c-73.333 4.66699 -146 7 -218 7
c-35.333 -0 -71.333 -1.66699 -108 -5c-22 -2.66699 -37 -4 -45 -4c-29.333 0 -44 9 -44 27c0 17.333 19.333 27.666 58 30.999c51.333 4.66699 80 21.834 86 51.501s9 89.834 9 180.501c0 117.333 -1.83301 225.166 -5.5 323.499s-10.5 154.5 -20.5 168.5
s-36 23.333 -78 28c-32.667 3.33301 -49 13 -49 29s16.667 25.333 50 28l21 2zM399 1355l178 -343c10.667 -20 16 -31.667 16 -35c0 -6.66699 -11 -10 -33 -10h-51l-197 208l-206 -208h-50c-20 0 -30 3.33301 -30 10c0 3.33301 4.33301 13 13 29l184 349h176z" />
    <glyph glyph-name="idieresis" unicode="&#xef;" horiz-adv-x="619" 
d="M428 879c2.66699 -93.333 4 -259.665 4 -498.998l-3 -215c0 -43.333 7.16699 -72.333 21.5 -87s37.833 -24.334 70.5 -29.001c37.333 -4.66699 56 -15.334 56 -32.001c0 -18 -14.667 -27 -44 -27c-14 0 -38.333 1 -73 3c-73.333 4.66699 -146 7 -218 7
c-35.333 -0 -71.333 -1.66699 -108 -5c-22 -2.66699 -37 -4 -45 -4c-29.333 0 -44 9 -44 27c0 17.333 19.333 27.666 58 30.999c51.333 4.66699 80 21.834 86 51.501s9 89.834 9 180.501c0 117.333 -1.83301 225.166 -5.5 323.499s-10.5 154.5 -20.5 168.5
s-36 23.333 -78 28c-32.667 3.33301 -49 13 -49 29s16.667 25.333 50 28l21 2zM218 1142c0 -33.333 -11.833 -61.833 -35.5 -85.5s-52.167 -35.5 -85.5 -35.5c-32.667 0 -60.834 11.833 -84.501 35.5s-35.5 52.167 -35.5 85.5c0 32.667 11.833 60.834 35.5 84.501
s51.834 35.5 84.501 35.5c33.333 0 61.833 -11.833 85.5 -35.5s35.5 -51.834 35.5 -84.501zM642 1142c0 -33.333 -11.833 -61.833 -35.5 -85.5s-51.834 -35.5 -84.501 -35.5c-33.333 0 -61.833 11.833 -85.5 35.5s-35.5 52.167 -35.5 85.5
c0 32.667 11.833 60.834 35.5 84.501s52.167 35.5 85.5 35.5c32.667 0 60.834 -11.833 84.501 -35.5s35.5 -51.834 35.5 -84.501z" />
    <glyph glyph-name="eth" unicode="&#xf0;" 
d="M245 1371l121.997 -0.00292969c84.667 -61.333 139.334 -102 164.001 -122l196 129l41 -63l-178 -116c165.333 -155.333 279.5 -292.666 342.5 -411.999s94.5 -234 94.5 -344c0 -78 -20.833 -150.833 -62.5 -218.5s-99.167 -124.667 -172.5 -171
s-159.666 -69.5 -258.999 -69.5c-139.333 0 -248.166 43.5 -326.499 130.5s-117.5 188.5 -117.5 304.5c0 126.667 43.667 233.834 131 321.501s190 131.5 308 131.5c36.667 0 75 -8.66699 115 -26c-38 94.667 -89.333 190.334 -154 287.001l-202 -134l-42 63l200 131
c-59.333 68 -126 127.333 -200 178zM546.997 812.997c-68 0 -117.333 -33.5 -148 -100.5s-46 -152.167 -46 -255.5c0 -98 16.5 -191 49.5 -279s83.833 -132 152.5 -132c64 0 111.833 29.667 143.5 89s47.5 148 47.5 266c0 122 -17.5 221.167 -52.5 297.5
s-83.833 114.5 -146.5 114.5z" />
    <glyph glyph-name="ntilde" unicode="&#xf1;" 
d="M407 684c45.333 64 94.499 111.998 147.499 143.998s109.833 48 170.5 48c50.667 0 97 -13 139 -39s70.5 -57 85.5 -93s22.5 -87 22.5 -153l-9 -399c0 -54.667 5 -91 15 -109s31 -29.667 63 -35c26.667 -4.66699 40 -15.334 40 -32.001c0 -17.333 -13 -26 -39 -26
c-22 0 -70.333 2.66699 -145 8c-26 1.33301 -47 2 -63 2c-15.333 0 -59.333 -3 -132 -9h-49c-27.333 0 -41 9 -41 27c0 14.667 12.333 24.334 37 29.001c22.667 4.66699 40.667 12.334 54 23.001s22.166 63 26.499 157s6.5 187.333 6.5 280
c0 102.667 -8.16699 173 -24.5 211s-47.5 57 -93.5 57c-56.667 0 -109.167 -41.5 -157.5 -124.5s-72.5 -210.5 -72.5 -382.5c0 -66.667 3.33301 -115 10 -145s14.834 -48.833 24.501 -56.5s30.167 -14.167 61.5 -19.5c18.667 -3.33301 28 -13 28 -29
c0 -18.667 -13.667 -28 -41 -28c-13.333 0 -28 0.666992 -44 2c-64 6 -98.667 9 -104 9c-96 0 -174.667 -3.33301 -236 -10c-10 -1.33301 -18 -2 -24 -2c-24.667 0 -37 9.66699 -37 29c0 16.667 11 26.334 33 29.001c34 4 57 13.333 69 28s20.833 60.5 26.5 137.5
s8.5 168.833 8.5 275.5c0 136 -5 220.167 -15 252.5s-34 55.833 -72 70.5c-27.333 10.667 -41 21 -41 31c0 16 19.667 24 59 24c110.667 0 200.334 4.33301 269.001 13c25.333 -58 40 -123 44 -195zM669.999 994.998c-36 0 -82.332 15 -138.999 45
c-60.667 32.667 -103.334 49 -128.001 49c-39.333 0 -63.333 -27 -72 -81c-0.666992 -6 -2.5 -10 -5.5 -12s-19.5 -3 -49.5 -3c-16.667 0 -25 5 -25 15c0 68 16.833 126.167 50.5 174.5s81.5 72.5 143.5 72.5c40 0 89.667 -17 149 -51c53.333 -30 90.333 -45 111 -45
c44.667 0 68.667 26 72 78c0.666992 8.66699 2.5 14 5.5 16s15.833 3 38.5 3c24 0 36 -6.33301 36 -19c0 -64.667 -15.667 -121.167 -47 -169.5s-78 -72.5 -140 -72.5z" />
    <glyph glyph-name="ograve" unicode="&#xf2;" 
d="M1026 452c0 -122.667 -45.667 -231.667 -137 -327s-207.333 -143 -348 -143c-129.333 0 -238 40 -326 120s-132 186.667 -132 320c0 135.333 46.5 244.833 139.5 328.5s206.167 125.5 339.5 125.5c135.333 0 246.5 -39.5 333.5 -118.5s130.5 -180.833 130.5 -305.5z
M750 384c0 109.333 -18.167 208.167 -54.5 296.5s-88.5 132.5 -156.5 132.5c-60 0 -106.333 -30.833 -139 -92.5s-49 -148.167 -49 -259.5c0 -121.333 18.5 -220.833 55.5 -298.5s87.833 -116.5 152.5 -116.5c63.333 0 111 31 143 93s48 143.667 48 245zM408 1362
c29.333 0 58.668 -15 88.001 -45s73.666 -89.167 132.999 -177.5s89 -136.166 89 -143.499s-4.5 -15 -13.5 -23s-17.5 -12 -25.5 -12c-15.333 0 -63 31.667 -143 95l-154 121c-40 31.333 -60 64.666 -60 99.999c0 22.667 8.83301 42.5 26.5 59.5s37.5 25.5 59.5 25.5z" />
    <glyph glyph-name="oacute" unicode="&#xf3;" 
d="M1026 452c0 -122.667 -45.667 -231.667 -137 -327s-207.333 -143 -348 -143c-129.333 0 -238 40 -326 120s-132 186.667 -132 320c0 135.333 46.5 244.833 139.5 328.5s206.167 125.5 339.5 125.5c135.333 0 246.5 -39.5 333.5 -118.5s130.5 -180.833 130.5 -305.5z
M750 384c0 109.333 -18.167 208.167 -54.5 296.5s-88.5 132.5 -156.5 132.5c-60 0 -106.333 -30.833 -139 -92.5s-49 -148.167 -49 -259.5c0 -121.333 18.5 -220.833 55.5 -298.5s87.833 -116.5 152.5 -116.5c63.333 0 111 31 143 93s48 143.667 48 245zM701 1362
c22.667 0 42.668 -8.5 60.001 -25.5s26 -36.167 26 -57.5c0 -40.667 -35 -86.667 -105 -138c-54.667 -40 -106.334 -80 -155.001 -120s-81 -60 -97 -60c-8 0 -16.5 4 -25.5 12s-13.5 15.667 -13.5 23s29.833 55.5 89.5 144.5s104 148.167 133 177.5s58.167 44 87.5 44z" />
    <glyph glyph-name="ocircumflex" unicode="&#xf4;" 
d="M1026 452c0 -122.667 -45.667 -231.667 -137 -327s-207.333 -143 -348 -143c-129.333 0 -238 40 -326 120s-132 186.667 -132 320c0 135.333 46.5 244.833 139.5 328.5s206.167 125.5 339.5 125.5c135.333 0 246.5 -39.5 333.5 -118.5s130.5 -180.833 130.5 -305.5z
M750 384c0 109.333 -18.167 208.167 -54.5 296.5s-88.5 132.5 -156.5 132.5c-60 0 -106.333 -30.833 -139 -92.5s-49 -148.167 -49 -259.5c0 -121.333 18.5 -220.833 55.5 -298.5s87.833 -116.5 152.5 -116.5c63.333 0 111 31 143 93s48 143.667 48 245zM644 1355l178 -343
c10.667 -20 16 -31.667 16 -35c0 -6.66699 -11 -10 -33 -10h-51l-197 208l-206 -208h-50c-20 0 -30 3.33301 -30 10c0 3.33301 4.33301 13 13 29l184 349h176z" />
    <glyph glyph-name="otilde" unicode="&#xf5;" 
d="M1026 452c0 -122.667 -45.667 -231.667 -137 -327s-207.333 -143 -348 -143c-129.333 0 -238 40 -326 120s-132 186.667 -132 320c0 135.333 46.5 244.833 139.5 328.5s206.167 125.5 339.5 125.5c135.333 0 246.5 -39.5 333.5 -118.5s130.5 -180.833 130.5 -305.5z
M750 384c0 109.333 -18.167 208.167 -54.5 296.5s-88.5 132.5 -156.5 132.5c-60 0 -106.333 -30.833 -139 -92.5s-49 -148.167 -49 -259.5c0 -121.333 18.5 -220.833 55.5 -298.5s87.833 -116.5 152.5 -116.5c63.333 0 111 31 143 93s48 143.667 48 245zM671 995.001
c-36 0 -82.332 15 -138.999 45c-60.667 32.667 -103.334 49 -128.001 49c-39.333 0 -63.333 -27 -72 -81c-0.666992 -6 -2.5 -10 -5.5 -12s-19.5 -3 -49.5 -3c-16.667 0 -25 5 -25 15c0 68 16.833 126.167 50.5 174.5s81.5 72.5 143.5 72.5c40 0 89.667 -17 149 -51
c53.333 -30 90.333 -45 111 -45c44.667 0 68.667 26 72 78c0.666992 8.66699 2.5 14 5.5 16s15.833 3 38.5 3c24 0 36 -6.33301 36 -19c0 -64.667 -15.667 -121.167 -47 -169.5s-78 -72.5 -140 -72.5z" />
    <glyph glyph-name="odieresis" unicode="&#xf6;" 
d="M1026 452c0 -122.667 -45.667 -231.667 -137 -327s-207.333 -143 -348 -143c-129.333 0 -238 40 -326 120s-132 186.667 -132 320c0 135.333 46.5 244.833 139.5 328.5s206.167 125.5 339.5 125.5c135.333 0 246.5 -39.5 333.5 -118.5s130.5 -180.833 130.5 -305.5z
M750 384c0 109.333 -18.167 208.167 -54.5 296.5s-88.5 132.5 -156.5 132.5c-60 0 -106.333 -30.833 -139 -92.5s-49 -148.167 -49 -259.5c0 -121.333 18.5 -220.833 55.5 -298.5s87.833 -116.5 152.5 -116.5c63.333 0 111 31 143 93s48 143.667 48 245zM463 1142
c0 -33.333 -11.833 -61.833 -35.5 -85.5s-52.167 -35.5 -85.5 -35.5c-32.667 0 -60.834 11.833 -84.501 35.5s-35.5 52.167 -35.5 85.5c0 32.667 11.833 60.834 35.5 84.501s51.834 35.5 84.501 35.5c33.333 0 61.833 -11.833 85.5 -35.5s35.5 -51.834 35.5 -84.501z
M887 1142c0 -33.333 -11.833 -61.833 -35.5 -85.5s-51.834 -35.5 -84.501 -35.5c-33.333 0 -61.833 11.833 -85.5 35.5s-35.5 52.167 -35.5 85.5c0 32.667 11.833 60.834 35.5 84.501s52.167 35.5 85.5 35.5c32.667 0 60.834 -11.833 84.501 -35.5
s35.5 -51.834 35.5 -84.501z" />
    <glyph glyph-name="divide" unicode="&#xf7;" horiz-adv-x="1365" 
d="M767 1000c0 -23.333 -8.16699 -43.166 -24.5 -59.499s-36.166 -24.5 -59.499 -24.5s-43.166 8.16699 -59.499 24.5s-24.5 36.166 -24.5 59.499s8.16699 43.166 24.5 59.499s36.166 24.5 59.499 24.5s43.166 -8.16699 59.499 -24.5s24.5 -36.166 24.5 -59.499zM139 606
h1088v-131h-1088v131zM767 81c0 -23.333 -8.16699 -43.166 -24.5 -59.499s-36.166 -24.5 -59.499 -24.5s-43.166 8.16699 -59.499 24.5s-24.5 36.166 -24.5 59.499s8.16699 43.166 24.5 59.499s36.166 24.5 59.499 24.5s43.166 -8.16699 59.499 -24.5
s24.5 -36.166 24.5 -59.499z" />
    <glyph glyph-name="oslash" unicode="&#xf8;" 
d="M909 746c78 -78 117 -176 117 -294c0 -122.667 -45.5 -231.667 -136.5 -327s-207.167 -143 -348.5 -143c-114 0 -209.333 28.667 -286 86l-97 -101l-55 52l96 100c-77.333 81.333 -116 182.333 -116 303c0 95.333 22.167 176 66.5 242s102 117.833 173 155.5
s150.833 56.5 239.5 56.5c107.333 0 203 -27.333 287 -82l90 94l56 -53zM367 293l340.999 355c-39.333 110 -95.666 165 -168.999 165c-58.667 0 -104.667 -29.667 -138 -89s-50 -147 -50 -263c0 -53.333 5.33301 -109.333 16 -168zM731.999 563l-342 -356
c34 -107.333 90.333 -161 169 -161c66.667 0 115.167 33 145.5 99s45.5 143.333 45.5 232c0 64.667 -6 126.667 -18 186z" />
    <glyph glyph-name="ugrave" unicode="&#xf9;" 
d="M380 859c3.33301 -68.667 4.99902 -162.333 4.99902 -281c0 -180 1.66699 -295.167 5 -345.5s16.5 -88.166 39.5 -113.499s49.167 -38 78.5 -38c34.667 0 69.834 13 105.501 39s62 60 79 102s25.5 110.667 25.5 206l2 221c0 58.667 -3.16699 97.334 -9.5 116.001
s-27.833 28.667 -64.5 30c-40 2 -60 12.333 -60 31c0 11.333 4.83301 18.5 14.5 21.5s35.167 4.5 76.5 4.5c92.667 0 179 2.33301 259 7c2.66699 -26 4 -168.333 4 -427c0 -208 2 -321.5 6 -340.5s25.667 -30.167 65 -33.5c23.333 -2.66699 35 -12.334 35 -29.001
c0 -19.333 -13.333 -29 -40 -29c-5.33301 0 -13.666 0.333008 -24.999 1c-18.667 1.33301 -40.667 2 -66 2c-88.667 0 -137.667 -0.333008 -147 -1c-10.667 -0.666992 -19.667 -1 -27 -1c-12.667 0 -20.5 2.16699 -23.5 6.5s-4.5 17.166 -4.5 38.499
c0 34.667 2.33301 69.667 7 105c-46 -56 -94.5 -98 -145.5 -126s-104.5 -42 -160.5 -42c-170 0 -255 95.333 -255 286v309c0 106.667 -3.83301 169.167 -11.5 187.5s-27.834 29.833 -60.501 34.5c-29.333 4 -44 12.667 -44 26c0 18 13 27 39 27c178.667 0 278 2 298 6z
M371.999 1362c29.333 0 58.668 -15 88.001 -45s73.666 -89.167 132.999 -177.5s89 -136.166 89 -143.499s-4.5 -15 -13.5 -23s-17.5 -12 -25.5 -12c-15.333 0 -63 31.667 -143 95l-154 121c-40 31.333 -60 64.666 -60 99.999c0 22.667 8.83301 42.5 26.5 59.5
s37.5 25.5 59.5 25.5z" />
    <glyph glyph-name="uacute" unicode="&#xfa;" 
d="M380 859c3.33301 -68.667 4.99902 -162.333 4.99902 -281c0 -180 1.66699 -295.167 5 -345.5s16.5 -88.166 39.5 -113.499s49.167 -38 78.5 -38c34.667 0 69.834 13 105.501 39s62 60 79 102s25.5 110.667 25.5 206l2 221c0 58.667 -3.16699 97.334 -9.5 116.001
s-27.833 28.667 -64.5 30c-40 2 -60 12.333 -60 31c0 11.333 4.83301 18.5 14.5 21.5s35.167 4.5 76.5 4.5c92.667 0 179 2.33301 259 7c2.66699 -26 4 -168.333 4 -427c0 -208 2 -321.5 6 -340.5s25.667 -30.167 65 -33.5c23.333 -2.66699 35 -12.334 35 -29.001
c0 -19.333 -13.333 -29 -40 -29c-5.33301 0 -13.666 0.333008 -24.999 1c-18.667 1.33301 -40.667 2 -66 2c-88.667 0 -137.667 -0.333008 -147 -1c-10.667 -0.666992 -19.667 -1 -27 -1c-12.667 0 -20.5 2.16699 -23.5 6.5s-4.5 17.166 -4.5 38.499
c0 34.667 2.33301 69.667 7 105c-46 -56 -94.5 -98 -145.5 -126s-104.5 -42 -160.5 -42c-170 0 -255 95.333 -255 286v309c0 106.667 -3.83301 169.167 -11.5 187.5s-27.834 29.833 -60.501 34.5c-29.333 4 -44 12.667 -44 26c0 18 13 27 39 27c178.667 0 278 2 298 6z
M701.999 1362c22.667 0 42.668 -8.5 60.001 -25.5s26 -36.167 26 -57.5c0 -40.667 -35 -86.667 -105 -138c-54.667 -40 -106.334 -80 -155.001 -120s-81 -60 -97 -60c-8 0 -16.5 4 -25.5 12s-13.5 15.667 -13.5 23s29.833 55.5 89.5 144.5s104 148.167 133 177.5
s58.167 44 87.5 44z" />
    <glyph glyph-name="ucircumflex" unicode="&#xfb;" 
d="M380 859c3.33301 -68.667 4.99902 -162.333 4.99902 -281c0 -180 1.66699 -295.167 5 -345.5s16.5 -88.166 39.5 -113.499s49.167 -38 78.5 -38c34.667 0 69.834 13 105.501 39s62 60 79 102s25.5 110.667 25.5 206l2 221c0 58.667 -3.16699 97.334 -9.5 116.001
s-27.833 28.667 -64.5 30c-40 2 -60 12.333 -60 31c0 11.333 4.83301 18.5 14.5 21.5s35.167 4.5 76.5 4.5c92.667 0 179 2.33301 259 7c2.66699 -26 4 -168.333 4 -427c0 -208 2 -321.5 6 -340.5s25.667 -30.167 65 -33.5c23.333 -2.66699 35 -12.334 35 -29.001
c0 -19.333 -13.333 -29 -40 -29c-5.33301 0 -13.666 0.333008 -24.999 1c-18.667 1.33301 -40.667 2 -66 2c-88.667 0 -137.667 -0.333008 -147 -1c-10.667 -0.666992 -19.667 -1 -27 -1c-12.667 0 -20.5 2.16699 -23.5 6.5s-4.5 17.166 -4.5 38.499
c0 34.667 2.33301 69.667 7 105c-46 -56 -94.5 -98 -145.5 -126s-104.5 -42 -160.5 -42c-170 0 -255 95.333 -255 286v309c0 106.667 -3.83301 169.167 -11.5 187.5s-27.834 29.833 -60.501 34.5c-29.333 4 -44 12.667 -44 26c0 18 13 27 39 27c178.667 0 278 2 298 6z
M644.999 1355l178 -343c10.667 -20 16 -31.667 16 -35c0 -6.66699 -11 -10 -33 -10h-51l-197 208l-206 -208h-50c-20 0 -30 3.33301 -30 10c0 3.33301 4.33301 13 13 29l184 349h176z" />
    <glyph glyph-name="udieresis" unicode="&#xfc;" 
d="M380 859c3.33301 -68.667 4.99902 -162.333 4.99902 -281c0 -180 1.66699 -295.167 5 -345.5s16.5 -88.166 39.5 -113.499s49.167 -38 78.5 -38c34.667 0 69.834 13 105.501 39s62 60 79 102s25.5 110.667 25.5 206l2 221c0 58.667 -3.16699 97.334 -9.5 116.001
s-27.833 28.667 -64.5 30c-40 2 -60 12.333 -60 31c0 11.333 4.83301 18.5 14.5 21.5s35.167 4.5 76.5 4.5c92.667 0 179 2.33301 259 7c2.66699 -26 4 -168.333 4 -427c0 -208 2 -321.5 6 -340.5s25.667 -30.167 65 -33.5c23.333 -2.66699 35 -12.334 35 -29.001
c0 -19.333 -13.333 -29 -40 -29c-5.33301 0 -13.666 0.333008 -24.999 1c-18.667 1.33301 -40.667 2 -66 2c-88.667 0 -137.667 -0.333008 -147 -1c-10.667 -0.666992 -19.667 -1 -27 -1c-12.667 0 -20.5 2.16699 -23.5 6.5s-4.5 17.166 -4.5 38.499
c0 34.667 2.33301 69.667 7 105c-46 -56 -94.5 -98 -145.5 -126s-104.5 -42 -160.5 -42c-170 0 -255 95.333 -255 286v309c0 106.667 -3.83301 169.167 -11.5 187.5s-27.834 29.833 -60.501 34.5c-29.333 4 -44 12.667 -44 26c0 18 13 27 39 27c178.667 0 278 2 298 6z
M463.999 1142c0 -33.333 -11.833 -61.833 -35.5 -85.5s-52.167 -35.5 -85.5 -35.5c-32.667 0 -60.834 11.833 -84.501 35.5s-35.5 52.167 -35.5 85.5c0 32.667 11.833 60.834 35.5 84.501s51.834 35.5 84.501 35.5c33.333 0 61.833 -11.833 85.5 -35.5
s35.5 -51.834 35.5 -84.501zM887.999 1142c0 -33.333 -11.833 -61.833 -35.5 -85.5s-51.834 -35.5 -84.501 -35.5c-33.333 0 -61.833 11.833 -85.5 35.5s-35.5 52.167 -35.5 85.5c0 32.667 11.833 60.834 35.5 84.501s52.167 35.5 85.5 35.5
c32.667 0 60.834 -11.833 84.501 -35.5s35.5 -51.834 35.5 -84.501z" />
    <glyph glyph-name="yacute" unicode="&#xfd;" horiz-adv-x="1024" 
d="M608 221l81.9951 227.998c44.667 126 67 212.333 67 259c0 55.333 -31.333 87.333 -94 96c-28 4.66699 -42 14.334 -42 29.001c0 18.667 13.667 28 41 28c10.667 0 30 -1.66699 58 -5c29.333 -3.33301 64 -5 104 -5c26.667 0 59 2 97 6c32 4 50.333 6 55 6
c32 0 48 -10 48 -30c0 -11.333 -10.333 -19.666 -31 -24.999c-51.333 -14 -89.333 -42.5 -114 -85.5s-76.667 -177.167 -156 -402.5c-103.333 -292.667 -178.166 -488.334 -224.499 -587.001s-97.666 -169 -153.999 -211s-116.5 -63 -180.5 -63
c-57.333 0 -102.166 14.167 -134.499 42.5s-48.5 64.833 -48.5 109.5c0 28.667 11.5 55.834 34.5 81.501s53.167 38.5 90.5 38.5c60 0 98 -35.667 114 -107c8.66699 -36 22 -54 40 -54c45.333 0 94.166 46.167 146.499 138.5s78.5 161.166 78.5 206.499
c0 22.667 -20.833 83.834 -62.5 183.501l-168 387.5c-70.333 158.667 -115.166 249.834 -134.499 273.501s-41.666 38.5 -66.999 44.5c-26 5.33301 -39 14.666 -39 27.999c0 19.333 17 29 51 29c8 0 35 -2.33301 81 -7c28 -3.33301 64 -5 108 -5
c72.667 0 136.334 2.66699 191.001 8l43 4c26.667 0 40 -9 40 -27c0 -17.333 -16 -29 -48 -35c-21.333 -4 -38 -13.167 -50 -27.5s-18 -28.166 -18 -41.499c0 -14.667 17.833 -70.334 53.5 -167.001s83.167 -210.667 142.5 -342zM682.995 1362
c22.667 0 42.668 -8.5 60.001 -25.5s26 -36.167 26 -57.5c0 -40.667 -35 -86.667 -105 -138c-54.667 -40 -106.334 -80 -155.001 -120s-81 -60 -97 -60c-8 0 -16.5 4 -25.5 12s-13.5 15.667 -13.5 23s29.833 55.5 89.5 144.5s104 148.167 133 177.5s58.167 44 87.5 44z" />
    <glyph glyph-name="thorn" unicode="&#xfe;" 
d="M387 1365l-0.00195312 -623.001c38.667 42.667 78.834 74.5 120.501 95.5s84.834 31.5 129.501 31.5c108 0 200.667 -46 278 -138s116 -192 116 -300c0 -114.667 -41.5 -218.667 -124.5 -312s-178.5 -140 -286.5 -140c-36 0 -74.333 6 -115 18s-84 29.667 -130 53
c0 -251.333 6.16699 -401.166 18.5 -449.499s49.166 -76.5 110.499 -84.5c32.667 -4 49 -13.333 49 -28c0 -18 -13.333 -27 -40 -27l-293 10c-27.333 0 -64.666 -1.66699 -111.999 -5c-38.667 -3.33301 -66.667 -5 -84 -5c-36.667 0 -55 8.33301 -55 25
s11.667 26.334 35 29.001c44.667 4 74.667 12.167 90 24.5s27 33.833 35 64.5s13.667 108.5 17 233.5s5 238.167 5 339.5l-1 353l1 393c0 187.333 -2.33301 298.166 -7 332.499s-28.667 52.5 -72 54.5c-32 2 -48 11.667 -48 29c0 10.667 4.66699 17.667 14 21s31.333 5 66 5
h283zM555.998 776.999c-60.667 0 -106.167 -36.5 -136.5 -109.5s-45.5 -182.5 -45.5 -328.5c0 -110 15.833 -185.833 47.5 -227.5s75.5 -62.5 131.5 -62.5c64 0 111.833 29.167 143.5 87.5s47.5 145.5 47.5 261.5c0 123.333 -18 217.333 -54 282s-80.667 97 -134 97z" />
    <glyph glyph-name="ydieresis" unicode="&#xff;" horiz-adv-x="1024" 
d="M608 221l81.9951 227.998c44.667 126 67 212.333 67 259c0 55.333 -31.333 87.333 -94 96c-28 4.66699 -42 14.334 -42 29.001c0 18.667 13.667 28 41 28c10.667 0 30 -1.66699 58 -5c29.333 -3.33301 64 -5 104 -5c26.667 0 59 2 97 6c32 4 50.333 6 55 6
c32 0 48 -10 48 -30c0 -11.333 -10.333 -19.666 -31 -24.999c-51.333 -14 -89.333 -42.5 -114 -85.5s-76.667 -177.167 -156 -402.5c-103.333 -292.667 -178.166 -488.334 -224.499 -587.001s-97.666 -169 -153.999 -211s-116.5 -63 -180.5 -63
c-57.333 0 -102.166 14.167 -134.499 42.5s-48.5 64.833 -48.5 109.5c0 28.667 11.5 55.834 34.5 81.501s53.167 38.5 90.5 38.5c60 0 98 -35.667 114 -107c8.66699 -36 22 -54 40 -54c45.333 0 94.166 46.167 146.499 138.5s78.5 161.166 78.5 206.499
c0 22.667 -20.833 83.834 -62.5 183.501l-168 387.5c-70.333 158.667 -115.166 249.834 -134.499 273.501s-41.666 38.5 -66.999 44.5c-26 5.33301 -39 14.666 -39 27.999c0 19.333 17 29 51 29c8 0 35 -2.33301 81 -7c28 -3.33301 64 -5 108 -5
c72.667 0 136.334 2.66699 191.001 8l43 4c26.667 0 40 -9 40 -27c0 -17.333 -16 -29 -48 -35c-21.333 -4 -38 -13.167 -50 -27.5s-18 -28.166 -18 -41.499c0 -14.667 17.833 -70.334 53.5 -167.001s83.167 -210.667 142.5 -342zM419.995 1142
c0 -33.333 -11.833 -61.833 -35.5 -85.5s-52.167 -35.5 -85.5 -35.5c-32.667 0 -60.834 11.833 -84.501 35.5s-35.5 52.167 -35.5 85.5c0 32.667 11.833 60.834 35.5 84.501s51.834 35.5 84.501 35.5c33.333 0 61.833 -11.833 85.5 -35.5s35.5 -51.834 35.5 -84.501z
M843.995 1142c0 -33.333 -11.833 -61.833 -35.5 -85.5s-51.834 -35.5 -84.501 -35.5c-33.333 0 -61.833 11.833 -85.5 35.5s-35.5 52.167 -35.5 85.5c0 32.667 11.833 60.834 35.5 84.501s52.167 35.5 85.5 35.5c32.667 0 60.834 -11.833 84.501 -35.5
s35.5 -51.834 35.5 -84.501z" />
    <glyph glyph-name="dotlessi" unicode="&#x131;" horiz-adv-x="619" 
d="M428 879c2.66699 -93.333 4 -259.665 4 -498.998l-3 -215c0 -43.333 7.16699 -72.333 21.5 -87s37.833 -24.334 70.5 -29.001c37.333 -4.66699 56 -15.334 56 -32.001c0 -18 -14.667 -27 -44 -27c-14 0 -38.333 1 -73 3c-73.333 4.66699 -146 7 -218 7
c-35.333 -0 -71.333 -1.66699 -108 -5c-22 -2.66699 -37 -4 -45 -4c-29.333 0 -44 9 -44 27c0 17.333 19.333 27.666 58 30.999c51.333 4.66699 80 21.834 86 51.501s9 89.834 9 180.501c0 117.333 -1.83301 225.166 -5.5 323.499s-10.5 154.5 -20.5 168.5
s-36 23.333 -78 28c-32.667 3.33301 -49 13 -49 29s16.667 25.333 50 28l21 2z" />
    <glyph glyph-name="OE" unicode="&#x152;" horiz-adv-x="2261" 
d="M2068 1315l59.002 -275.998c4 -19.333 6 -31 6 -35c0 -17.333 -10.333 -26 -31 -26c-14 0 -27.667 10.667 -41 32c-49.333 78.667 -105.666 138.667 -168.999 180s-149 62 -257 62c-56 0 -116.667 -6 -182 -18c-9.33301 -76 -14.666 -153.667 -15.999 -233l-3 -273
c82.667 0 137.5 2.16699 164.5 6.5s55 19.166 84 44.499s51.833 60.333 68.5 105c12 34 26 51 42 51c18 0 27 -11 27 -33c0 -8 -0.333008 -17.667 -1 -29c-7.33301 -67.333 -11 -171 -11 -311c0 -30.667 1.66699 -60.334 5 -89.001c1.33301 -10.667 2 -18.667 2 -24
c0 -22.667 -10 -34 -30 -34c-8 0 -13.833 2.5 -17.5 7.5s-10.834 22.833 -21.501 53.5c-16 44.667 -33.5 78.167 -52.5 100.5s-49 40.5 -90 54.5s-97.5 22.333 -169.5 25v-421c0 -54.667 4.33301 -90.834 13 -108.501s27.167 -31.834 55.5 -42.501s73.166 -16 134.499 -16
c148.667 0 260.167 22.5 334.5 67.5s132.5 105.833 174.5 182.5c9.33301 18 20 27 32 27c18.667 0 28 -8.33301 28 -25c0 -6 -1 -13.333 -3 -22c-1.33301 -4.66699 -3.66602 -14.667 -7 -30l-61 -274h-501c-66.667 0 -140 4.33301 -220 13
c-100.667 10.667 -179.334 16 -236.001 16c-43.333 0 -105 -5 -185 -15c-108 -13.333 -190.333 -20 -247 -20c-208.667 0 -370.334 64.833 -485.001 194.5s-172 281.834 -172 456.501c0 127.333 32 245.333 96 354s148.333 191.834 253 249.501s224.667 86.5 360 86.5
c44 0 103 -5 177 -15c82.667 -10.667 153 -16 211 -16c48 0 111.667 3.33301 191 10c57.333 4.66699 115 7 173 7h518zM823.002 1254c-122.667 0 -218.833 -51.0029 -288.5 -153.003s-104.5 -249.333 -104.5 -442c0 -153.333 30.333 -290.666 91 -411.999s158 -182 292 -182
c68 0 126.833 15.5 176.5 46.5s86.667 71.333 111 121s41.5 123.834 51.5 222.501s15 204.334 15 317.001c0 321.333 -114.667 482 -344 482z" />
    <glyph glyph-name="oe" unicode="&#x153;" horiz-adv-x="1664" 
d="M903 747c87.333 99.333 191.667 148.997 313 148.997c113.333 0 206 -40.667 278 -122s108 -182 108 -302c0 -10 -5.66699 -15 -17 -15l-320 -3c-100 0 -184.333 1.33301 -253 4c2.66699 -143.333 29.167 -243 79.5 -299s108.833 -84 175.5 -84
c71.333 0 149.666 38.667 234.999 116c13.333 12 23.666 18 30.999 18c20 0 30 -8.66699 30 -26c0 -19.333 -35 -57.666 -105 -114.999s-159.667 -86 -269 -86c-125.333 0 -233.666 59.667 -324.999 179c-52 -59.333 -107 -104 -165 -134s-119.333 -45 -184 -45
c-124 0 -228.667 44.833 -314 134.5s-128 193.834 -128 312.501c0 78 20.833 151.833 62.5 221.5s99.834 127.834 174.501 174.501s158.667 70 252 70c138 0 251.667 -49.333 341 -148zM1017 517.997c57.333 -2 100.666 -3.00098 129.999 -3.00098c134 0 205.833 6 215.5 18
s14.5 32.667 14.5 62c0 66.667 -14.333 123 -43 169s-68 69 -118 69c-58.667 0 -105.167 -29.667 -139.5 -89s-54.166 -134.666 -59.499 -225.999zM342.001 464.996c0 -140 16.499 -245 49.499 -315s82.5 -105 148.5 -105c65.333 0 120.833 37.5 166.5 112.5
s68.5 167.5 68.5 277.5c0 125.333 -19.333 222.833 -58 292.5s-91.667 104.5 -159 104.5s-120.166 -33.5 -158.499 -100.5s-57.5 -155.833 -57.5 -266.5z" />
    <glyph glyph-name="Scaron" unicode="&#x160;" 
d="M823 1274c8.66699 8.66699 17.335 22.001 26.002 40.001c10 21.333 21.333 32 34 32c18 0 29 -14.667 33 -44l35 -274l4 -33c0 -18 -9 -27 -27 -27c-13.333 0 -23 3.16699 -29 9.5s-17.333 26.833 -34 61.5c-28.667 59.333 -76 112.666 -142 159.999s-132.333 71 -199 71
c-64.667 0 -118.5 -18.5 -161.5 -55.5s-64.5 -83.5 -64.5 -139.5c0 -44.667 20 -85 60 -121s117 -70 231 -102c178.667 -50.667 299.667 -113.334 363 -188.001c62.667 -74.667 94 -157.667 94 -249c0 -93.333 -23 -171.666 -69 -234.999s-101 -113.166 -165 -149.499
s-146 -54.5 -246 -54.5c-56.667 0 -115.334 8.16699 -176.001 24.5s-123.334 40.833 -188.001 73.5c-13.333 -15.333 -24.666 -35.333 -33.999 -60c-10.667 -27.333 -24 -41 -40 -41c-16.667 0 -26.667 18 -30 54l-29 363c-1.33301 16 -2 26 -2 30c0 19.333 10 29 30 29
c14.667 0 28.667 -16.667 42 -50c40.667 -100 96 -183.333 166 -250c69.333 -66.667 150.333 -100 243 -100c78.667 0 142.167 23.333 190.5 70s72.5 99.667 72.5 159s-22.333 109.333 -67 150s-125 79.667 -241 117c-112.667 36.667 -196.5 71.667 -251.5 105
s-99 79.166 -132 137.499s-49.5 117.5 -49.5 177.5c0 104.667 40.5 193.667 121.5 267s191.167 110 330.5 110c75.333 0 175.666 -22.667 300.999 -68zM641.001 1376h-170l-190 356c-6.66699 12 -10 20.333 -10 25s10 7 30 7h56l199 -203l193 203h59
c20.667 0 31 -2.66699 31 -8c0 -4.66699 -4.66699 -15.667 -14 -33z" />
    <glyph glyph-name="scaron" unicode="&#x161;" horiz-adv-x="853" 
d="M767 279c0 -48 -12.501 -94.667 -37.501 -140s-62.667 -82.833 -113 -112.5s-109.166 -44.5 -176.499 -44.5c-84 0 -155 17.333 -213 52c-25.333 14.667 -41.666 22 -48.999 22c-8.66699 0 -15.334 -5.66699 -20.001 -17c-10.667 -26.667 -23.334 -40 -38.001 -40
c-8.66699 0 -14.834 3.33301 -18.501 10s-6.66699 36.5 -9 89.5s-3.5 115.833 -3.5 188.5c0 28 8 42 24 42s33 -20.667 51 -62c64 -150 151.333 -225 262 -225c38.667 0 71.5 10 98.5 30s40.5 49 40.5 87c0 32 -12.5 59.5 -37.5 82.5s-72.833 51.833 -143.5 86.5
c-106.667 52.667 -179.667 98.667 -219 138c-40 39.333 -60 91.666 -60 156.999c0 75.333 29 136.5 87 183.5s129.333 70.5 214 70.5c67.333 0 135.666 -20 204.999 -60c9.33301 -5.33301 17 -8 23 -8c8.66699 0 15.334 7.33301 20.001 22
c6.66699 18.667 16.334 28 29.001 28c8.66699 0 14.667 -3 18 -9s8 -37.167 14 -93.5s9 -103.166 9 -140.499c0 -26 -7.66699 -39 -23 -39c-16 0 -32.333 18.667 -49 56c-56.667 124 -138.334 186 -245.001 186c-38.667 0 -70 -9.66699 -94 -29s-36 -40 -36 -62
c0 -28 15.333 -53.667 46 -77c30.667 -24 90.334 -56.333 179.001 -97c76 -34.667 128.833 -61.5 158.5 -80.5s54.834 -46.333 75.501 -82s31 -73.167 31 -112.5zM512.999 968h-170l-190 356c-6.66699 12 -10 20.333 -10 25s10 7 30 7h56l199 -203l193 203h59
c20.667 0 31 -2.66699 31 -8c0 -4.66699 -4.66699 -15.667 -14 -33z" />
    <glyph glyph-name="Ydieresis" unicode="&#x178;" horiz-adv-x="1472" 
d="M822 733c186 242.667 279 391.006 279 445.006c0 15.333 -5.16699 31 -15.5 47s-40.166 31 -89.499 45c-20 5.33301 -30 14.666 -30 27.999c0 20.667 12 31 36 31c6.66699 0 15.667 -0.666992 27 -2c85.333 -7.33301 150.333 -11 195 -11
c48.667 0 106.334 3.33301 173.001 10c12.667 1.33301 23.334 2 32.001 2c19.333 0 29 -9 29 -27c0 -16.667 -9.66699 -26 -29 -28c-44.667 -4.66699 -85.834 -19.5 -123.501 -44.5s-83.334 -72.667 -137.001 -143s-113.334 -153.5 -179.001 -249.5
s-101.834 -154.5 -108.501 -175.5s-10 -93.5 -10 -217.5c0 -188 8.5 -300.833 25.5 -338.5s59.167 -56.5 126.5 -56.5c24 0 36 -9.66699 36 -29c0 -20 -13.333 -30 -40 -30c-20 0 -75 3 -165 9c-51.333 3.33301 -88 5 -110 5c-72.667 0 -155 -4.33301 -247 -13
c-17.333 -1.33301 -31 -2 -41 -2c-25.333 0 -38 9.66699 -38 29c0 16.667 9.66699 26 29 28c65.333 8 106.5 29.833 123.5 65.5s25.5 114.167 25.5 235.5c0 109.333 -6.33301 182.166 -19 218.499s-49.334 103.666 -110.001 201.999l-181.5 283
c-60.333 90.333 -106.666 148.166 -138.999 173.499s-67.166 41.333 -104.499 48c-18.667 3.33301 -28 12.333 -28 27c0 20.667 11.667 31 35 31c10.667 0 27.334 -1 50.001 -3c103.333 -7.33301 179 -11 227 -11c76 0 161.333 3.66699 256 11
c19.333 1.33301 35.666 2 48.999 2c22.667 0 34 -8.66699 34 -26c0 -16.667 -12.333 -26.334 -37 -29.001c-68.667 -6.66699 -103 -31 -103 -73c0 -44.667 99 -200.334 297 -467.001zM681 1557.01c0 -33.333 -11.833 -61.833 -35.5 -85.5s-52.167 -35.5 -85.5 -35.5
c-32.667 0 -60.834 11.833 -84.501 35.5s-35.5 52.167 -35.5 85.5c0 32.667 11.833 60.834 35.5 84.501s51.834 35.5 84.501 35.5c33.333 0 61.833 -11.833 85.5 -35.5s35.5 -51.834 35.5 -84.501zM1105 1557.01c0 -33.333 -11.833 -61.833 -35.5 -85.5
s-51.834 -35.5 -84.501 -35.5c-33.333 0 -61.833 11.833 -85.5 35.5s-35.5 52.167 -35.5 85.5c0 32.667 11.833 60.834 35.5 84.501s52.167 35.5 85.5 35.5c32.667 0 60.834 -11.833 84.501 -35.5s35.5 -51.834 35.5 -84.501z" />
    </font>
</defs>
</svg>
